<svg width="328" height="73" viewBox="0 0 328 73" fill="none" xmlns="http://www.w3.org/2000/svg">
<mask id="path-1-outside-1_518_3771" maskUnits="userSpaceOnUse" x="-2.13547" y="-1.5288" width="331.91" height="76.1286" fill="black">
<rect fill="white" x="-2.13547" y="-1.5288" width="331.91" height="76.1286"/>
<path d="M25.3513 70.9768C9.75502 72.2735 2.49343 68.3838 2.04335 56.7795L16.7387 55.5105C16.9193 57.6027 18.87 58.6889 24.2543 58.2741C28.7462 57.9865 30.3496 56.7942 30.2592 55.748C30.2334 55.4492 30.4617 54.0242 26.9402 53.9269L21.3377 53.5575C13.3139 53.046 2.6862 53.763 1.67095 42.0068C0.935319 33.4885 7.2498 27.5733 21.5964 26.3343C34.3489 25.233 43.474 27.4562 44.1485 40.4965L29.5528 41.7569C28.9736 39.6991 26.9233 38.6216 22.3404 39.0173C18.4548 39.3529 17.3995 40.4979 17.4855 41.4942C17.5113 41.7931 17.5278 43.1467 19.9946 43.2348L24.4385 43.5536C33.0772 44.2128 45.5377 42.6349 46.6088 55.0387C47.4434 64.7028 40.5533 69.7643 25.3513 70.9768ZM72.6284 66.894C57.2357 68.2233 49.4294 62.6744 48.2205 48.6765L46.2287 25.6123L62.7174 24.1884L64.6747 46.854C65.0361 51.0384 66.8625 53.5908 71.4454 53.195C76.0284 52.7992 77.5396 49.9587 77.1782 45.7742L75.2208 23.1086L91.56 21.6976L93.5389 44.6123C94.7607 58.7596 88.0212 65.5647 72.6284 66.894ZM121.462 62.6768C107.016 63.9243 96.7942 55.9743 95.6241 42.4248C94.4496 28.8254 103.162 19.2905 117.608 18.0429C128.517 17.1008 140.084 20.8695 142.36 36.1805L126.818 37.5227C125.718 33.5024 122.91 31.7877 118.825 32.1404C114.641 32.5018 111.466 35.8373 111.913 41.018C112.361 46.1988 116.06 48.9406 120.245 48.5792C124.33 48.2265 126.798 46.0059 127.184 41.757L142.726 40.4148C143.117 55.9888 132.471 61.7261 121.462 62.6768ZM170.615 58.432C156.169 59.6796 145.947 51.7295 144.777 38.18C143.603 24.5806 152.315 15.0457 166.761 13.7981C177.67 12.856 189.237 16.6248 191.513 31.9357L175.971 33.2779C174.871 29.2577 172.063 27.5429 167.978 27.8957C163.794 28.257 160.619 31.5925 161.066 36.7733C161.514 41.954 165.213 44.6958 169.398 44.3345C173.483 43.9817 175.951 41.7611 176.337 37.5122L191.879 36.17C192.27 51.744 181.624 57.4813 170.615 58.432ZM195.725 54.8583L192.112 13.0141L231.465 9.61557L232.588 22.6172L209.623 24.6004L209.864 27.39L231.932 25.4842L232.823 35.7958L210.755 37.7016L210.991 40.4414L233.956 38.4582L235.079 51.4598L195.725 54.8583ZM259.266 50.7763C243.67 52.073 236.408 48.1833 235.958 36.579L250.653 35.3099C250.834 37.4021 252.785 38.4883 258.169 38.0736C262.661 37.786 264.264 36.5936 264.174 35.5475C264.148 35.2486 264.376 33.8237 260.855 33.7263L255.252 33.357C247.228 32.8455 236.601 33.5625 235.585 21.8063C234.85 13.288 241.164 7.37274 255.511 6.13379C268.263 5.0325 277.389 7.25564 278.063 20.296L263.467 21.5564C262.888 19.4986 260.838 18.421 256.255 18.8168C252.369 19.1524 251.314 20.2974 251.4 21.2937C251.426 21.5926 251.442 22.9462 253.909 23.0343L258.353 23.3531C266.992 24.0123 279.452 22.4344 280.523 34.8382C281.358 44.5022 274.468 49.5638 259.266 50.7763ZM305.442 46.7886C289.845 48.0853 282.584 44.1956 282.134 32.5913L296.829 31.3223C297.01 33.4145 298.96 34.5007 304.345 34.0859C308.837 33.7983 310.44 32.606 310.35 31.5599C310.324 31.261 310.552 29.836 307.031 29.7387L301.428 29.3693C293.404 28.8578 282.777 29.5748 281.761 17.8186C281.026 9.30029 287.34 3.38507 301.687 2.14612C314.439 1.04483 323.564 3.26796 324.239 16.3083L309.643 17.5687C309.064 15.511 307.014 14.4334 302.431 14.8291C298.545 15.1647 297.49 16.3097 297.576 17.306C297.602 17.6049 297.618 18.9585 300.085 19.0466L304.529 19.3654C313.168 20.0246 325.628 18.4467 326.699 30.8505C327.534 40.5146 320.644 45.5761 305.442 46.7886Z"/>
</mask>
<path d="M25.3513 70.9768C9.75502 72.2735 2.49343 68.3838 2.04335 56.7795L16.7387 55.5105C16.9193 57.6027 18.87 58.6889 24.2543 58.2741C28.7462 57.9865 30.3496 56.7942 30.2592 55.748C30.2334 55.4492 30.4617 54.0242 26.9402 53.9269L21.3377 53.5575C13.3139 53.046 2.6862 53.763 1.67095 42.0068C0.935319 33.4885 7.2498 27.5733 21.5964 26.3343C34.3489 25.233 43.474 27.4562 44.1485 40.4965L29.5528 41.7569C28.9736 39.6991 26.9233 38.6216 22.3404 39.0173C18.4548 39.3529 17.3995 40.4979 17.4855 41.4942C17.5113 41.7931 17.5278 43.1467 19.9946 43.2348L24.4385 43.5536C33.0772 44.2128 45.5377 42.6349 46.6088 55.0387C47.4434 64.7028 40.5533 69.7643 25.3513 70.9768ZM72.6284 66.894C57.2357 68.2233 49.4294 62.6744 48.2205 48.6765L46.2287 25.6123L62.7174 24.1884L64.6747 46.854C65.0361 51.0384 66.8625 53.5908 71.4454 53.195C76.0284 52.7992 77.5396 49.9587 77.1782 45.7742L75.2208 23.1086L91.56 21.6976L93.5389 44.6123C94.7607 58.7596 88.0212 65.5647 72.6284 66.894ZM121.462 62.6768C107.016 63.9243 96.7942 55.9743 95.6241 42.4248C94.4496 28.8254 103.162 19.2905 117.608 18.0429C128.517 17.1008 140.084 20.8695 142.36 36.1805L126.818 37.5227C125.718 33.5024 122.91 31.7877 118.825 32.1404C114.641 32.5018 111.466 35.8373 111.913 41.018C112.361 46.1988 116.06 48.9406 120.245 48.5792C124.33 48.2265 126.798 46.0059 127.184 41.757L142.726 40.4148C143.117 55.9888 132.471 61.7261 121.462 62.6768ZM170.615 58.432C156.169 59.6796 145.947 51.7295 144.777 38.18C143.603 24.5806 152.315 15.0457 166.761 13.7981C177.67 12.856 189.237 16.6248 191.513 31.9357L175.971 33.2779C174.871 29.2577 172.063 27.5429 167.978 27.8957C163.794 28.257 160.619 31.5925 161.066 36.7733C161.514 41.954 165.213 44.6958 169.398 44.3345C173.483 43.9817 175.951 41.7611 176.337 37.5122L191.879 36.17C192.27 51.744 181.624 57.4813 170.615 58.432ZM195.725 54.8583L192.112 13.0141L231.465 9.61557L232.588 22.6172L209.623 24.6004L209.864 27.39L231.932 25.4842L232.823 35.7958L210.755 37.7016L210.991 40.4414L233.956 38.4582L235.079 51.4598L195.725 54.8583ZM259.266 50.7763C243.67 52.073 236.408 48.1833 235.958 36.579L250.653 35.3099C250.834 37.4021 252.785 38.4883 258.169 38.0736C262.661 37.786 264.264 36.5936 264.174 35.5475C264.148 35.2486 264.376 33.8237 260.855 33.7263L255.252 33.357C247.228 32.8455 236.601 33.5625 235.585 21.8063C234.85 13.288 241.164 7.37274 255.511 6.13379C268.263 5.0325 277.389 7.25564 278.063 20.296L263.467 21.5564C262.888 19.4986 260.838 18.421 256.255 18.8168C252.369 19.1524 251.314 20.2974 251.4 21.2937C251.426 21.5926 251.442 22.9462 253.909 23.0343L258.353 23.3531C266.992 24.0123 279.452 22.4344 280.523 34.8382C281.358 44.5022 274.468 49.5638 259.266 50.7763ZM305.442 46.7886C289.845 48.0853 282.584 44.1956 282.134 32.5913L296.829 31.3223C297.01 33.4145 298.96 34.5007 304.345 34.0859C308.837 33.7983 310.44 32.606 310.35 31.5599C310.324 31.261 310.552 29.836 307.031 29.7387L301.428 29.3693C293.404 28.8578 282.777 29.5748 281.761 17.8186C281.026 9.30029 287.34 3.38507 301.687 2.14612C314.439 1.04483 323.564 3.26796 324.239 16.3083L309.643 17.5687C309.064 15.511 307.014 14.4334 302.431 14.8291C298.545 15.1647 297.49 16.3097 297.576 17.306C297.602 17.6049 297.618 18.9585 300.085 19.0466L304.529 19.3654C313.168 20.0246 325.628 18.4467 326.699 30.8505C327.534 40.5146 320.644 45.5761 305.442 46.7886Z" fill="url(#paint0_linear_518_3771)"/>
<path d="M25.3513 70.9768L25.2718 69.9799L25.2684 69.9802L25.3513 70.9768ZM2.04335 56.7795L1.95731 55.7832L1.00714 55.8653L1.0441 56.8183L2.04335 56.7795ZM16.7387 55.5105L17.7349 55.4244L17.6489 54.4281L16.6526 54.5142L16.7387 55.5105ZM24.2543 58.2741L24.1904 57.276L24.1775 57.277L24.2543 58.2741ZM26.9402 53.9269L26.8745 54.9247L26.8935 54.9259L26.9126 54.9265L26.9402 53.9269ZM21.3377 53.5575L21.4035 52.5597L21.4013 52.5595L21.3377 53.5575ZM44.1485 40.4965L44.2346 41.4928L45.1971 41.4096L45.1472 40.4448L44.1485 40.4965ZM29.5528 41.7569L28.5902 42.0279L28.8144 42.8244L29.6389 42.7532L29.5528 41.7569ZM19.9946 43.2348L20.0661 42.2374L20.0482 42.2361L20.0302 42.2354L19.9946 43.2348ZM24.4385 43.5536L24.5145 42.5565L24.51 42.5562L24.4385 43.5536ZM25.2684 69.9802C17.5157 70.6248 12.068 69.9506 8.52671 67.8554C5.08806 65.8209 3.25913 62.3236 3.0426 56.7408L1.0441 56.8183C1.27765 62.8398 3.30455 67.0895 7.50829 69.5767C11.6094 72.0032 17.5906 72.6255 25.4341 71.9733L25.2684 69.9802ZM2.12939 57.7758L16.8247 56.5067L16.6526 54.5142L1.95731 55.7832L2.12939 57.7758ZM15.7424 55.5965C15.8006 56.2705 16.0079 56.9182 16.4323 57.4836C16.8551 58.0469 17.4456 58.4648 18.1684 58.7587C19.5745 59.3305 21.6013 59.4814 24.3311 59.2711L24.1775 57.277C21.523 57.4815 19.8824 57.2967 18.9218 56.9061C18.4614 56.7188 18.1938 56.4987 18.0318 56.2829C17.8713 56.0692 17.7671 55.7965 17.7349 55.4244L15.7424 55.5965ZM24.3182 59.272C26.6239 59.1244 28.2956 58.7406 29.4142 58.194C30.4906 57.6679 31.3551 56.8148 31.2555 55.662L29.2629 55.8341C29.2537 55.7274 29.3617 55.9935 28.536 56.3971C27.7525 56.78 26.3766 57.1362 24.1904 57.2761L24.3182 59.272ZM31.2555 55.662C31.2572 55.6818 31.3221 54.7942 30.6348 54.0723C29.9727 53.3769 28.8156 52.9783 26.9679 52.9272L26.9126 54.9265C28.5863 54.9728 29.0758 55.3353 29.1864 55.4514C29.2718 55.5411 29.2354 55.5154 29.2629 55.8341L31.2555 55.662ZM27.006 52.929L21.4035 52.5597L21.2719 54.5554L26.8745 54.9247L27.006 52.929ZM21.4013 52.5595C17.2636 52.2957 12.8255 52.3492 9.21285 51.0573C7.44708 50.4258 5.9475 49.49 4.82727 48.0778C3.70843 46.6674 2.90778 44.7061 2.66724 41.9207L0.674655 42.0928C0.941741 45.1856 1.85027 47.5432 3.26041 49.3208C4.66917 51.0966 6.51835 52.2178 8.53939 52.9405C12.5003 54.357 17.388 54.3077 21.2741 54.5555L21.4013 52.5595ZM2.66724 41.9207C2.3257 37.9658 3.60543 34.6875 6.61317 32.213C9.67257 29.696 14.6076 27.9416 21.6824 27.3306L21.5104 25.338C14.2386 25.966 8.84309 27.7886 5.34251 30.6685C1.79027 33.591 0.28057 37.5295 0.674655 42.0928L2.66724 41.9207ZM21.6824 27.3306C28.0307 26.7824 33.2517 27.0915 36.9423 29.0005C40.5134 30.8477 42.8263 34.2923 43.1499 40.5481L45.1472 40.4448C44.7963 33.6603 42.2094 29.4732 37.8612 27.2241C33.6324 25.0367 27.9147 24.785 21.5104 25.338L21.6824 27.3306ZM44.0625 39.5002L29.4668 40.7606L29.6389 42.7532L44.2346 41.4928L44.0625 39.5002ZM30.5154 41.486C30.1407 40.1545 29.264 39.1338 27.829 38.5425C26.4559 37.9766 24.6113 37.8175 22.2543 38.021L22.4264 40.0136C24.6525 39.8214 26.1245 40.0032 27.067 40.3916C27.9477 40.7545 28.3858 41.3016 28.5902 42.0279L30.5154 41.486ZM22.2543 38.021C20.2487 38.1942 18.8331 38.5842 17.9011 39.1554C16.925 39.7535 16.4058 40.6141 16.4892 41.5803L18.4818 41.4082C18.4792 41.378 18.4446 41.1679 18.9461 40.8606C19.4916 40.5263 20.5465 40.176 22.4264 40.0136L22.2543 38.021ZM16.4892 41.5803C16.4999 41.7037 16.5149 42.4204 17.05 43.0759C17.6071 43.7584 18.5473 44.1838 19.9589 44.2342L20.0302 42.2354C18.9751 42.1978 18.6736 41.9022 18.5994 41.8112C18.503 41.6932 18.4969 41.5836 18.4818 41.4082L16.4892 41.5803ZM19.923 44.2322L24.3669 44.5511L24.51 42.5562L20.0661 42.2374L19.923 44.2322ZM24.3624 44.5507C26.5057 44.7143 29.0331 44.7472 31.3388 44.8803C33.7178 45.0177 36.0302 45.2651 38.0864 45.8534C40.1363 46.4398 41.8764 47.3496 43.1661 48.775C44.4474 50.1909 45.3599 52.1993 45.6125 55.1248L47.6051 54.9527C47.3222 51.6762 46.2754 49.2304 44.6491 47.4331C43.0313 45.6451 40.9155 44.5825 38.6365 43.9305C36.3639 43.2804 33.8745 43.0234 31.4541 42.8836C28.9603 42.7396 26.6906 42.7226 24.5145 42.5565L24.3624 44.5507ZM45.6125 55.1248C46.004 59.6583 44.6015 62.984 41.3958 65.3756C38.1053 67.8305 32.8118 69.3786 25.2718 69.98L25.4308 71.9736C33.0928 71.3625 38.8454 69.7736 42.5918 66.9786C46.423 64.1203 48.0482 60.0832 47.6051 54.9527L45.6125 55.1248ZM46.2287 25.6123L46.1427 24.616L45.1464 24.7021L45.2325 25.6983L46.2287 25.6123ZM62.7174 24.1884L63.7137 24.1023L63.6276 23.106L62.6313 23.1921L62.7174 24.1884ZM75.2208 23.1086L75.1348 22.1123L74.1385 22.1983L74.2245 23.1946L75.2208 23.1086ZM91.56 21.6976L92.5563 21.6115L92.4703 20.6152L91.474 20.7013L91.56 21.6976ZM72.5424 65.8977C64.9497 66.5534 59.4416 65.4892 55.6992 62.7282C51.9866 59.9892 49.8071 55.425 49.2168 48.5904L47.2242 48.7625C47.8429 55.9258 50.1709 61.135 54.5119 64.3376C58.8231 67.5183 64.9145 68.5639 72.7145 67.8903L72.5424 65.8977ZM49.2168 48.5904L47.225 25.5263L45.2325 25.6983L47.2242 48.7625L49.2168 48.5904ZM46.3148 26.6086L62.8034 25.1847L62.6313 23.1921L46.1427 24.616L46.3148 26.6086ZM61.7211 24.2744L63.6785 46.94L65.671 46.768L63.7137 24.1023L61.7211 24.2744ZM63.6785 46.94C63.8675 49.1288 64.451 51.0851 65.758 52.4371C67.1029 53.8284 69.04 54.4064 71.5315 54.1913L71.3594 52.1987C69.2679 52.3793 68.0003 51.8791 67.196 51.047C66.3537 50.1758 65.8434 48.7637 65.671 46.768L63.6785 46.94ZM71.5315 54.1913C74.0222 53.9762 75.8595 53.0733 76.9829 51.4821C78.0813 49.9261 78.365 47.894 78.1745 45.6882L76.1819 45.8603C76.3528 47.8389 76.0615 49.3193 75.349 50.3286C74.6613 51.3027 73.4516 52.018 71.3594 52.1987L71.5315 54.1913ZM78.1745 45.6882L76.2171 23.0226L74.2245 23.1946L76.1819 45.8603L78.1745 45.6882ZM75.3069 24.1049L91.6461 22.6939L91.474 20.7013L75.1348 22.1123L75.3069 24.1049ZM90.5637 21.7836L92.5426 44.6983L94.5352 44.5262L92.5563 21.6115L90.5637 21.7836ZM92.5426 44.6983C93.1396 51.6107 91.7763 56.5184 88.5893 59.8709C85.3778 63.2493 80.1353 65.242 72.5424 65.8977L72.7145 67.8903C80.5143 67.2167 86.3379 65.1422 90.0389 61.2489C93.7644 57.3297 95.16 51.7612 94.5352 44.5262L92.5426 44.6983ZM142.36 36.1805L142.446 37.1768L143.506 37.0853L143.349 36.0335L142.36 36.1805ZM126.818 37.5227L125.853 37.7866L126.073 38.5907L126.904 38.519L126.818 37.5227ZM127.184 41.757L127.098 40.7607L126.263 40.8327L126.188 41.6665L127.184 41.757ZM142.726 40.4148L143.725 40.3896L143.699 39.327L142.64 39.4185L142.726 40.4148ZM121.376 61.6805C114.354 62.287 108.452 60.6522 104.181 57.312C99.9174 53.9778 97.1845 48.8712 96.6203 42.3387L94.6278 42.5108C95.2337 49.5279 98.1968 55.1711 102.949 58.8874C107.693 62.5976 114.125 64.3142 121.548 63.6731L121.376 61.6805ZM96.6203 42.3387C96.054 35.7806 97.8716 30.2817 101.5 26.2729C105.135 22.2565 110.67 19.6458 117.694 19.0392L117.522 17.0466C110.1 17.6876 104.056 20.4681 100.017 24.9309C95.9709 29.4013 94.0197 35.4696 94.6278 42.5108L96.6203 42.3387ZM117.694 19.0392C123.024 18.5789 128.408 19.2814 132.705 21.8731C136.96 24.4394 140.272 28.931 141.371 36.3275L143.349 36.0335C142.173 28.119 138.563 23.0708 133.738 20.1605C128.955 17.2756 123.101 16.5648 117.522 17.0466L117.694 19.0392ZM142.274 35.1842L126.732 36.5264L126.904 38.519L142.446 37.1768L142.274 35.1842ZM127.783 37.2588C127.184 35.0702 126.088 33.4057 124.49 32.356C122.901 31.3117 120.935 30.9545 118.739 31.1441L118.911 33.1367C120.8 32.9736 122.281 33.2974 123.392 34.0274C124.494 34.7519 125.352 35.955 125.853 37.7866L127.783 37.2588ZM118.739 31.1441C116.402 31.346 114.307 32.385 112.861 34.1352C111.413 35.8887 110.674 38.2864 110.917 41.1041L112.91 40.932C112.706 38.569 113.33 36.7086 114.403 35.4088C115.48 34.1056 117.064 33.2962 118.911 33.1367L118.739 31.1441ZM110.917 41.1041C111.16 43.9218 112.3 46.1572 114.027 47.6365C115.751 49.1129 117.994 49.7774 120.331 49.5755L120.159 47.583C118.312 47.7425 116.612 47.2167 115.328 46.1174C114.048 45.0209 113.114 43.295 112.91 40.932L110.917 41.1041ZM120.331 49.5755C122.532 49.3854 124.41 48.6811 125.794 47.3501C127.184 46.0146 127.97 44.1502 128.18 41.8474L126.188 41.6665C126.011 43.6126 125.371 44.983 124.408 45.9083C123.441 46.838 122.042 47.4203 120.159 47.583L120.331 49.5755ZM127.27 42.7532L142.812 41.411L142.64 39.4185L127.098 40.7607L127.27 42.7532ZM141.726 40.4399C141.915 47.9706 139.447 52.9987 135.71 56.2779C131.936 59.5887 126.756 61.2159 121.376 61.6805L121.548 63.6731C127.178 63.1869 132.825 61.4702 137.029 57.7812C141.269 54.0605 143.928 48.433 143.725 40.3896L141.726 40.4399ZM191.513 31.9357L191.599 32.932L192.659 32.8405L192.502 31.7887L191.513 31.9357ZM175.971 33.2779L175.006 33.5418L175.226 34.346L176.057 34.2742L175.971 33.2779ZM176.337 37.5122L176.251 36.5159L175.416 36.5879L175.341 37.4217L176.337 37.5122ZM191.879 36.17L192.878 36.1449L192.852 35.0822L191.793 35.1737L191.879 36.17ZM170.529 57.4357C163.507 58.0422 157.605 56.4075 153.334 53.0672C149.07 49.733 146.337 44.6264 145.773 38.0939L143.781 38.266C144.387 45.2831 147.35 50.9263 152.102 54.6426C156.846 58.3529 163.278 60.0694 170.701 59.4283L170.529 57.4357ZM145.773 38.0939C145.207 31.5358 147.025 26.0369 150.653 22.0281C154.288 18.0117 159.823 15.401 166.847 14.7944L166.675 12.8018C159.253 13.4428 153.209 16.2233 149.17 20.6861C145.124 25.1565 143.173 31.2248 143.781 38.266L145.773 38.0939ZM166.847 14.7944C172.177 14.3341 177.561 15.0366 181.858 17.6283C186.113 20.1946 189.425 24.6863 190.524 32.0828L192.502 31.7887C191.326 23.8742 187.716 18.826 182.891 15.9157C178.108 13.0308 172.254 12.32 166.675 12.8018L166.847 14.7944ZM191.427 30.9394L175.885 32.2816L176.057 34.2742L191.599 32.932L191.427 30.9394ZM176.936 33.014C176.337 30.8254 175.241 29.1609 173.643 28.1112C172.054 27.0669 170.088 26.7097 167.892 26.8994L168.064 28.8919C169.953 28.7288 171.434 29.0527 172.545 29.7826C173.647 30.5072 174.505 31.7102 175.006 33.5418L176.936 33.014ZM167.892 26.8994C165.555 27.1012 163.46 28.1403 162.014 29.8904C160.566 31.6439 159.827 34.0416 160.07 36.8593L162.063 36.6872C161.859 34.3242 162.483 32.4638 163.556 31.164C164.633 29.8608 166.217 29.0515 168.064 28.8919L167.892 26.8994ZM160.07 36.8593C160.313 39.677 161.453 41.9124 163.18 43.3917C164.904 44.8681 167.147 45.5326 169.484 45.3308L169.312 43.3382C167.465 43.4977 165.765 42.9719 164.481 41.8726C163.201 40.7761 162.267 39.0502 162.063 36.6872L160.07 36.8593ZM169.484 45.3308C171.685 45.1407 173.563 44.4363 174.947 43.1053C176.337 41.7698 177.123 39.9055 177.333 37.6026L175.341 37.4217C175.164 39.3678 174.524 40.7382 173.561 41.6635C172.594 42.5932 171.195 43.1755 169.312 43.3382L169.484 45.3308ZM176.423 38.5085L191.965 37.1663L191.793 35.1737L176.251 36.5159L176.423 38.5085ZM190.879 36.1951C191.068 43.7258 188.6 48.7539 184.863 52.0331C181.089 55.3439 175.909 56.9711 170.529 57.4357L170.701 59.4283C176.331 58.9421 181.978 57.2254 186.182 53.5364C190.422 49.8157 193.081 44.1882 192.878 36.1449L190.879 36.1951ZM195.725 54.8583L194.729 54.9444L194.815 55.9407L195.811 55.8546L195.725 54.8583ZM192.112 13.0141L192.026 12.0178L191.029 12.1038L191.115 13.1001L192.112 13.0141ZM231.465 9.61557L232.461 9.52953L232.375 8.53324L231.379 8.61928L231.465 9.61557ZM232.588 22.6172L232.674 23.6135L233.67 23.5274L233.584 22.5311L232.588 22.6172ZM209.623 24.6004L209.537 23.6041L208.541 23.6901L208.627 24.6864L209.623 24.6004ZM209.864 27.39L208.868 27.476L208.954 28.4723L209.95 28.3863L209.864 27.39ZM231.932 25.4842L232.928 25.3982L232.842 24.4019L231.846 24.4879L231.932 25.4842ZM232.823 35.7958L232.909 36.7921L233.905 36.7061L233.819 35.7098L232.823 35.7958ZM210.755 37.7016L210.669 36.7053L209.672 36.7913L209.758 37.7876L210.755 37.7016ZM210.991 40.4414L209.995 40.5274L210.081 41.5237L211.077 41.4377L210.991 40.4414ZM233.956 38.4582L234.952 38.3722L234.866 37.3759L233.87 37.4619L233.956 38.4582ZM235.079 51.4598L235.165 52.4561L236.161 52.3701L236.075 51.3738L235.079 51.4598ZM196.721 54.7723L193.108 12.928L191.115 13.1001L194.729 54.9444L196.721 54.7723ZM192.198 14.0104L231.551 10.6119L231.379 8.61928L192.026 12.0178L192.198 14.0104ZM230.469 9.70161L231.592 22.7032L233.584 22.5311L232.461 9.52953L230.469 9.70161ZM232.502 21.6209L209.537 23.6041L209.709 25.5967L232.674 23.6135L232.502 21.6209ZM208.627 24.6864L208.868 27.476L210.861 27.3039L210.62 24.5143L208.627 24.6864ZM209.95 28.3863L232.018 26.4805L231.846 24.4879L209.778 26.3937L209.95 28.3863ZM230.936 25.5703L231.826 35.8819L233.819 35.7098L232.928 25.3982L230.936 25.5703ZM232.737 34.7996L210.669 36.7053L210.841 38.6979L232.909 36.7921L232.737 34.7996ZM209.758 37.7876L209.995 40.5274L211.988 40.3554L211.751 37.6156L209.758 37.7876ZM211.077 41.4377L234.042 39.4545L233.87 37.4619L210.905 39.4451L211.077 41.4377ZM232.96 38.5443L234.082 51.5459L236.075 51.3738L234.952 38.3722L232.96 38.5443ZM234.993 50.4635L195.639 53.862L195.811 55.8546L235.165 52.4561L234.993 50.4635ZM259.266 50.7763L259.186 49.7794L259.183 49.7797L259.266 50.7763ZM235.958 36.579L235.872 35.5827L234.922 35.6648L234.959 36.6178L235.958 36.579ZM250.653 35.3099L251.649 35.2239L251.563 34.2276L250.567 34.3136L250.653 35.3099ZM258.169 38.0736L258.105 37.0755L258.092 37.0765L258.169 38.0736ZM260.855 33.7263L260.789 34.7242L260.808 34.7254L260.827 34.726L260.855 33.7263ZM255.252 33.357L255.318 32.3592L255.316 32.359L255.252 33.357ZM278.063 20.296L278.149 21.2923L279.112 21.2091L279.062 20.2443L278.063 20.296ZM263.467 21.5564L262.505 21.8274L262.729 22.6239L263.553 22.5527L263.467 21.5564ZM253.909 23.0343L253.981 22.0368L253.963 22.0356L253.945 22.0349L253.909 23.0343ZM258.353 23.3531L258.429 22.356L258.425 22.3557L258.353 23.3531ZM259.183 49.7797C251.43 50.4243 245.982 49.7501 242.441 47.6549C239.003 45.6203 237.174 42.123 236.957 36.5402L234.959 36.6178C235.192 42.6393 237.219 46.8889 241.423 49.3761C245.524 51.8026 251.505 52.4249 259.349 51.7728L259.183 49.7797ZM236.044 37.5753L250.739 36.3062L250.567 34.3136L235.872 35.5827L236.044 37.5753ZM249.657 35.396C249.715 36.07 249.922 36.7177 250.347 37.283C250.77 37.8464 251.36 38.2642 252.083 38.5582C253.489 39.13 255.516 39.2809 258.246 39.0706L258.092 37.0765C255.438 37.281 253.797 37.0962 252.836 36.7055C252.376 36.5183 252.108 36.2982 251.946 36.0824C251.786 35.8687 251.682 35.596 251.649 35.2239L249.657 35.396ZM258.233 39.0715C260.538 38.9239 262.21 38.5401 263.329 37.9934C264.405 37.4674 265.27 36.6143 265.17 35.4615L263.177 35.6336C263.168 35.5269 263.276 35.793 262.451 36.1966C261.667 36.5795 260.291 36.9356 258.105 37.0756L258.233 39.0715ZM265.17 35.4615C265.172 35.4813 265.237 34.5936 264.549 33.8718C263.887 33.1764 262.73 32.7778 260.882 32.7267L260.827 34.726C262.501 34.7722 262.99 35.1348 263.101 35.2509C263.186 35.3406 263.15 35.3149 263.177 35.6336L265.17 35.4615ZM260.921 32.7285L255.318 32.3592L255.186 34.3548L260.789 34.7242L260.921 32.7285ZM255.316 32.359C251.178 32.0952 246.74 32.1487 243.127 30.8568C241.362 30.2253 239.862 29.2894 238.742 27.8773C237.623 26.4669 236.822 24.5056 236.582 21.7202L234.589 21.8923C234.856 24.9851 235.765 27.3427 237.175 29.1203C238.584 30.8961 240.433 32.0172 242.454 32.74C246.415 34.1565 251.303 34.1072 255.189 34.355L255.316 32.359ZM236.582 21.7202C236.24 17.7653 237.52 14.487 240.528 12.0125C243.587 9.49553 248.522 7.74106 255.597 7.13008L255.425 5.1375C248.153 5.76548 242.758 7.58809 239.257 10.468C235.705 13.3905 234.195 17.3289 234.589 21.8923L236.582 21.7202ZM255.597 7.13008C261.945 6.58186 267.166 6.891 270.857 8.79998C274.428 10.6472 276.741 14.0918 277.064 20.3476L279.062 20.2443C278.711 13.4598 276.124 9.27272 271.776 7.02356C267.547 4.83622 261.829 4.58443 255.425 5.1375L255.597 7.13008ZM277.977 19.2997L263.381 20.5601L263.553 22.5527L278.149 21.2923L277.977 19.2997ZM264.43 21.2855C264.055 19.954 263.179 18.9333 261.744 18.342C260.37 17.7761 258.526 17.617 256.169 17.8205L256.341 19.8131C258.567 19.6209 260.039 19.8027 260.982 20.1911C261.862 20.554 262.3 21.1011 262.505 21.8274L264.43 21.2855ZM256.169 17.8205C254.163 17.9937 252.748 18.3837 251.816 18.9548C250.84 19.553 250.32 20.4136 250.404 21.3797L252.396 21.2077C252.394 21.1775 252.359 20.9674 252.861 20.6601C253.406 20.3258 254.461 19.9755 256.341 19.8131L256.169 17.8205ZM250.404 21.3797C250.414 21.5032 250.429 22.2199 250.965 22.8754C251.522 23.5579 252.462 23.9832 253.873 24.0336L253.945 22.0349C252.89 21.9972 252.588 21.7017 252.514 21.6107C252.418 21.4927 252.411 21.3831 252.396 21.2077L250.404 21.3797ZM253.838 24.0317L258.281 24.3506L258.425 22.3557L253.981 22.0368L253.838 24.0317ZM258.277 24.3502C260.42 24.5138 262.948 24.5467 265.253 24.6798C267.632 24.8172 269.945 25.0646 272.001 25.6528C274.051 26.2393 275.791 27.149 277.081 28.5744C278.362 29.9904 279.274 31.9988 279.527 34.9242L281.52 34.7522C281.237 31.4757 280.19 29.0299 278.564 27.2325C276.946 25.4446 274.83 24.382 272.551 23.73C270.278 23.0798 267.789 22.8229 265.369 22.6831C262.875 22.5391 260.605 22.5221 258.429 22.356L258.277 24.3502ZM279.527 34.9242C279.919 39.4578 278.516 42.7835 275.31 45.1751C272.02 47.63 266.726 49.1781 259.186 49.7794L259.345 51.7731C267.007 51.162 272.76 49.5731 276.506 46.7781C280.338 43.9198 281.963 39.8827 281.52 34.7522L279.527 34.9242ZM305.442 46.7886L305.362 45.7918L305.359 45.792L305.442 46.7886ZM282.134 32.5913L282.048 31.595L281.097 31.6771L281.134 32.6301L282.134 32.5913ZM296.829 31.3223L297.825 31.2362L297.739 30.2399L296.743 30.326L296.829 31.3223ZM304.345 34.0859L304.281 33.0878L304.268 33.0888L304.345 34.0859ZM307.031 29.7387L306.965 30.7365L306.984 30.7378L307.003 30.7383L307.031 29.7387ZM301.428 29.3693L301.494 28.3715L301.492 28.3714L301.428 29.3693ZM324.239 16.3083L324.325 17.3046L325.287 17.2215L325.238 16.2566L324.239 16.3083ZM309.643 17.5687L308.681 17.8397L308.905 18.6362L309.729 18.565L309.643 17.5687ZM300.085 19.0466L300.156 18.0492L300.139 18.0479L300.121 18.0472L300.085 19.0466ZM304.529 19.3654L304.605 18.3683L304.6 18.368L304.529 19.3654ZM305.359 45.792C297.606 46.4366 292.158 45.7624 288.617 43.6672C285.178 41.6327 283.349 38.1354 283.133 32.5526L281.134 32.6301C281.368 38.6516 283.395 42.9013 287.599 45.3885C291.7 47.815 297.681 48.4373 305.524 47.7852L305.359 45.792ZM282.22 33.5876L296.915 32.3186L296.743 30.326L282.048 31.595L282.22 33.5876ZM295.833 31.4083C295.891 32.0823 296.098 32.73 296.523 33.2954C296.945 33.8587 297.536 34.2766 298.259 34.5705C299.665 35.1424 301.692 35.2932 304.421 35.0829L304.268 33.0888C301.613 33.2933 299.973 33.1085 299.012 32.7179C298.552 32.5306 298.284 32.3105 298.122 32.0947C297.962 31.881 297.857 31.6083 297.825 31.2362L295.833 31.4083ZM304.409 35.0838C306.714 34.9362 308.386 34.5524 309.505 34.0058C310.581 33.4797 311.445 32.6266 311.346 31.4738L309.353 31.6459C309.344 31.5392 309.452 31.8053 308.626 32.2089C307.843 32.5918 306.467 32.948 304.281 33.0879L304.409 35.0838ZM311.346 31.4738C311.348 31.4936 311.412 30.606 310.725 29.8841C310.063 29.1887 308.906 28.7901 307.058 28.739L307.003 30.7383C308.677 30.7846 309.166 31.1471 309.277 31.2633C309.362 31.353 309.326 31.3272 309.353 31.6459L311.346 31.4738ZM307.096 28.7408L301.494 28.3715L301.362 30.3672L306.965 30.7365L307.096 28.7408ZM301.492 28.3714C297.354 28.1076 292.916 28.1611 289.303 26.8691C287.537 26.2377 286.038 25.3018 284.918 23.8896C283.799 22.4792 282.998 20.5179 282.758 17.7325L280.765 17.9046C281.032 20.9974 281.941 23.355 283.351 25.1326C284.759 26.9084 286.609 28.0296 288.63 28.7523C292.591 30.1688 297.478 30.1196 301.364 30.3673L301.492 28.3714ZM282.758 17.7325C282.416 13.7776 283.696 10.4993 286.703 8.02484C289.763 5.50786 294.698 3.75339 301.773 3.14241L301.601 1.14983C294.329 1.7778 288.933 3.60042 285.433 6.48036C281.881 9.4028 280.371 13.3413 280.765 17.9046L282.758 17.7325ZM301.773 3.14241C308.121 2.59419 313.342 2.90333 317.033 4.81231C320.604 6.65948 322.917 10.1041 323.24 16.3599L325.238 16.2566C324.887 9.47213 322.3 5.28504 317.951 3.03589C313.723 0.848543 308.005 0.596761 301.601 1.14983L301.773 3.14241ZM324.153 15.312L309.557 16.5725L309.729 18.565L324.325 17.3046L324.153 15.312ZM310.606 17.2978C310.231 15.9663 309.354 14.9456 307.919 14.3543C306.546 13.7884 304.702 13.6293 302.345 13.8328L302.517 15.8254C304.743 15.6332 306.215 15.815 307.157 16.2034C308.038 16.5664 308.476 17.1134 308.681 17.8397L310.606 17.2978ZM302.345 13.8328C300.339 14.0061 298.923 14.396 297.991 14.9672C297.015 15.5654 296.496 16.4259 296.58 17.3921L298.572 17.22C298.569 17.1898 298.535 16.9797 299.036 16.6724C299.582 16.3381 300.637 15.9878 302.517 15.8254L302.345 13.8328ZM296.58 17.3921C296.59 17.5155 296.605 18.2322 297.14 18.8877C297.697 19.5703 298.638 19.9956 300.049 20.046L300.121 18.0472C299.065 18.0096 298.764 17.714 298.69 17.623C298.593 17.505 298.587 17.3954 298.572 17.22L296.58 17.3921ZM300.013 20.044L304.457 20.3629L304.6 18.368L300.156 18.0492L300.013 20.044ZM304.453 20.3625C306.596 20.5261 309.123 20.559 311.429 20.6921C313.808 20.8295 316.121 21.0769 318.177 21.6652C320.227 22.2516 321.967 23.1614 323.256 24.5868C324.538 26.0028 325.45 28.0111 325.703 30.9366L327.695 30.7645C327.412 27.4881 326.366 25.0422 324.739 23.2449C323.122 21.457 321.006 20.3943 318.727 19.7423C316.454 19.0922 313.965 18.8352 311.544 18.6955C309.051 18.5515 306.781 18.5344 304.605 18.3683L304.453 20.3625ZM325.703 30.9366C326.094 35.4701 324.692 38.7958 321.486 41.1874C318.196 43.6423 312.902 45.1904 305.362 45.7918L305.521 47.7854C313.183 47.1743 318.936 45.5854 322.682 42.7904C326.513 39.9321 328.139 35.895 327.695 30.7645L325.703 30.9366Z" fill="black" mask="url(#path-1-outside-1_518_3771)"/>
<defs>
<linearGradient id="paint0_linear_518_3771" x1="159.69" y1="-11.2865" x2="166.573" y2="68.4168" gradientUnits="userSpaceOnUse">
<stop stop-color="#E5D78D"/>
<stop offset="1" stop-color="#F9F1FF"/>
</linearGradient>
</defs>
</svg>
