<svg width="264" height="142" viewBox="0 0 264 142" fill="none" xmlns="http://www.w3.org/2000/svg">
<mask id="path-1-outside-1_518_3730" maskUnits="userSpaceOnUse" x="0" y="0" width="264" height="142" fill="black">
<rect fill="white" width="264" height="142"/>
<path d="M63.7839 27.1333V59H52.8505L52.5172 52.6H52.1172C48.1172 57.4 41.3172 60.8667 31.8505 60.8667C14.5172 60.8667 1.11719 49.1333 1.11719 31C1.11719 12.8 13.6505 1.13333 33.8505 1.13333C47.8505 1.13333 62.2505 8 63.9172 23.7333H42.1839C41.7172 22.4667 38.9839 20 34.3839 20C27.5172 20 22.9172 24.0667 22.9172 31C22.9172 37.9333 27.7172 42 33.6505 42C34.6505 42 40.7839 42.2667 42.7172 37.1333H33.0505V27.1333H63.7839ZM113.23 59L111.43 52.9333H89.8964L88.0297 59H65.4297L85.2964 3H115.963L135.83 59H113.23ZM94.763 36.8667H106.563L102.496 23.4667H98.8297L94.763 36.8667ZM137.82 59V3H165.287L171.22 30H172.82L178.754 3H206.22V59H185.354V40.1333H183.687L180.02 59H164.02L160.354 40.1333H158.687V59H137.82ZM210.242 59V3H262.909V20.4H232.176V24.1333H261.709V37.9333H232.176V41.6H262.909V59H210.242ZM39.65 140.867C19.7167 140.867 7.25 129.133 7.25 111C7.25 92.8 19.7167 81.1333 39.65 81.1333C59.5167 81.1333 71.9833 92.8 71.9833 111C71.9833 129.133 59.5167 140.867 39.65 140.867ZM39.65 122C45.1833 122 50.25 118.4 50.25 111C50.25 103.533 45.1833 100 39.65 100C34.05 100 29.05 103.533 29.05 111C29.05 118.4 34.05 122 39.65 122ZM87.2885 139L67.4219 83H90.0219L101.555 118.467H103.755L115.222 83H137.822L117.955 139H87.2885ZM139.813 139V83H192.479V100.4H161.746V104.133H191.279V117.933H161.746V121.6H192.479V139H139.813ZM257.653 139H236.186L229.653 126H218.386V139H196.453V83H230.32C246.186 83 255.453 89.4 255.453 105.267C255.453 112.533 252.386 117.733 248.186 121.067L257.653 139ZM218.386 101.133V109.8H228.653C231.986 109.8 233.453 108.067 233.453 105.467C233.453 102.867 231.986 101.133 228.653 101.133H218.386Z"/>
</mask>
<path d="M63.7839 27.1333V59H52.8505L52.5172 52.6H52.1172C48.1172 57.4 41.3172 60.8667 31.8505 60.8667C14.5172 60.8667 1.11719 49.1333 1.11719 31C1.11719 12.8 13.6505 1.13333 33.8505 1.13333C47.8505 1.13333 62.2505 8 63.9172 23.7333H42.1839C41.7172 22.4667 38.9839 20 34.3839 20C27.5172 20 22.9172 24.0667 22.9172 31C22.9172 37.9333 27.7172 42 33.6505 42C34.6505 42 40.7839 42.2667 42.7172 37.1333H33.0505V27.1333H63.7839ZM113.23 59L111.43 52.9333H89.8964L88.0297 59H65.4297L85.2964 3H115.963L135.83 59H113.23ZM94.763 36.8667H106.563L102.496 23.4667H98.8297L94.763 36.8667ZM137.82 59V3H165.287L171.22 30H172.82L178.754 3H206.22V59H185.354V40.1333H183.687L180.02 59H164.02L160.354 40.1333H158.687V59H137.82ZM210.242 59V3H262.909V20.4H232.176V24.1333H261.709V37.9333H232.176V41.6H262.909V59H210.242ZM39.65 140.867C19.7167 140.867 7.25 129.133 7.25 111C7.25 92.8 19.7167 81.1333 39.65 81.1333C59.5167 81.1333 71.9833 92.8 71.9833 111C71.9833 129.133 59.5167 140.867 39.65 140.867ZM39.65 122C45.1833 122 50.25 118.4 50.25 111C50.25 103.533 45.1833 100 39.65 100C34.05 100 29.05 103.533 29.05 111C29.05 118.4 34.05 122 39.65 122ZM87.2885 139L67.4219 83H90.0219L101.555 118.467H103.755L115.222 83H137.822L117.955 139H87.2885ZM139.813 139V83H192.479V100.4H161.746V104.133H191.279V117.933H161.746V121.6H192.479V139H139.813ZM257.653 139H236.186L229.653 126H218.386V139H196.453V83H230.32C246.186 83 255.453 89.4 255.453 105.267C255.453 112.533 252.386 117.733 248.186 121.067L257.653 139ZM218.386 101.133V109.8H228.653C231.986 109.8 233.453 108.067 233.453 105.467C233.453 102.867 231.986 101.133 228.653 101.133H218.386Z" fill="url(#paint0_linear_518_3730)"/>
<path d="M63.7839 27.1333H64.7839V26.1333H63.7839V27.1333ZM63.7839 59V60H64.7839V59H63.7839ZM52.8505 59L51.8519 59.052L51.9013 60H52.8505V59ZM52.5172 52.6L53.5158 52.548L53.4665 51.6H52.5172V52.6ZM52.1172 52.6V51.6H51.6488L51.349 51.9598L52.1172 52.6ZM63.9172 23.7333V24.7333H65.0287L64.9116 23.628L63.9172 23.7333ZM42.1839 23.7333L41.2455 24.079L41.4866 24.7333H42.1839V23.7333ZM42.7172 37.1333L43.653 37.4858L44.1624 36.1333H42.7172V37.1333ZM33.0505 37.1333H32.0505V38.1333H33.0505V37.1333ZM33.0505 27.1333V26.1333H32.0505V27.1333H33.0505ZM62.7839 27.1333V59H64.7839V27.1333H62.7839ZM63.7839 58H52.8505V60H63.7839V58ZM53.8492 58.948L53.5158 52.548L51.5185 52.652L51.8519 59.052L53.8492 58.948ZM52.5172 51.6H52.1172V53.6H52.5172V51.6ZM51.349 51.9598C47.5654 56.5001 41.0644 59.8667 31.8505 59.8667V61.8667C41.57 61.8667 48.6689 58.2999 52.8854 53.2402L51.349 51.9598ZM31.8505 59.8667C23.4101 59.8667 15.9809 57.0119 10.6698 52.0057C5.36526 47.0056 2.11719 39.8077 2.11719 31H0.117188C0.117188 40.3256 3.56912 48.061 9.29794 53.461C15.0201 58.8547 22.9577 61.8667 31.8505 61.8667V59.8667ZM2.11719 31C2.11719 22.14 5.16086 14.9552 10.5849 9.9785C16.0182 4.99332 23.9398 2.13333 33.8505 2.13333V0.133331C23.5613 0.133331 15.1162 3.10668 9.23279 8.50483C3.34018 13.9114 0.117188 21.66 0.117188 31H2.11719ZM33.8505 2.13333C40.702 2.13333 47.5978 3.81588 52.9565 7.36692C58.2882 10.9001 62.1235 16.2938 62.9228 23.8387L64.9116 23.628C64.0442 15.4396 59.8462 9.53323 54.0612 5.69975C48.3033 1.88412 40.9991 0.133331 33.8505 0.133331V2.13333ZM63.9172 22.7333H42.1839V24.7333H63.9172V22.7333ZM43.1222 23.3876C42.7782 22.4538 41.763 21.3668 40.3411 20.5299C38.8744 19.6665 36.8664 19 34.3839 19V21C36.5013 21 38.16 21.5668 39.3266 22.2535C40.5381 22.9666 41.1229 23.7462 41.2455 24.079L43.1222 23.3876ZM34.3839 19C30.7559 19 27.6244 20.0766 25.3915 22.1706C23.1501 24.2724 21.9172 27.3033 21.9172 31H23.9172C23.9172 27.7634 24.9843 25.2942 26.7596 23.6294C28.5433 21.9568 31.1451 21 34.3839 21V19ZM21.9172 31C21.9172 34.708 23.2068 37.7268 25.3626 39.8178C27.5119 41.9025 30.4548 43 33.6505 43V41C30.913 41 28.4892 40.0642 26.7551 38.3822C25.0276 36.7066 23.9172 34.2253 23.9172 31H21.9172ZM33.6505 43C34.126 43 36.0587 43.0737 38.1235 42.4488C40.2103 41.8173 42.5415 40.4371 43.653 37.4858L41.7814 36.7809C40.9596 38.9629 39.2574 40.0161 37.5442 40.5345C35.809 41.0597 34.175 41 33.6505 41V43ZM42.7172 36.1333H33.0505V38.1333H42.7172V36.1333ZM34.0505 37.1333V27.1333H32.0505V37.1333H34.0505ZM33.0505 28.1333H63.7839V26.1333H33.0505V28.1333ZM113.23 59L112.271 59.2844L112.483 60H113.23V59ZM111.43 52.9333L112.388 52.6489L112.176 51.9333H111.43V52.9333ZM89.8964 52.9333V51.9333H89.1578L88.9406 52.6392L89.8964 52.9333ZM88.0297 59V60H88.7683L88.9855 59.2941L88.0297 59ZM65.4297 59L64.4872 58.6657L64.0139 60H65.4297V59ZM85.2964 3V2H84.59L84.3539 2.66566L85.2964 3ZM115.963 3L116.905 2.66566L116.669 2H115.963V3ZM135.83 59V60H137.246L136.772 58.6657L135.83 59ZM94.763 36.8667L93.8061 36.5763L93.4145 37.8667H94.763V36.8667ZM106.563 36.8667V37.8667H107.912L107.52 36.5763L106.563 36.8667ZM102.496 23.4667L103.453 23.1763L103.238 22.4667H102.496V23.4667ZM98.8297 23.4667V22.4667H98.0881L97.8728 23.1763L98.8297 23.4667ZM114.188 58.7156L112.388 52.6489L110.471 53.2178L112.271 59.2844L114.188 58.7156ZM111.43 51.9333H89.8964V53.9333H111.43V51.9333ZM88.9406 52.6392L87.0739 58.7059L88.9855 59.2941L90.8521 53.2274L88.9406 52.6392ZM88.0297 58H65.4297V60H88.0297V58ZM66.3721 59.3343L86.2388 3.33435L84.3539 2.66566L64.4872 58.6657L66.3721 59.3343ZM85.2964 4H115.963V2H85.2964V4ZM115.021 3.33435L134.887 59.3343L136.772 58.6657L116.905 2.66566L115.021 3.33435ZM135.83 58H113.23V60H135.83V58ZM94.763 37.8667H106.563V35.8667H94.763V37.8667ZM107.52 36.5763L103.453 23.1763L101.539 23.7571L105.606 37.1571L107.52 36.5763ZM102.496 22.4667H98.8297V24.4667H102.496V22.4667ZM97.8728 23.1763L93.8061 36.5763L95.7199 37.1571L99.7866 23.7571L97.8728 23.1763ZM137.82 59H136.82V60H137.82V59ZM137.82 3V2H136.82V3H137.82ZM165.287 3L166.264 2.78537L166.091 2H165.287V3ZM171.22 30L170.244 30.2146L170.416 31H171.22V30ZM172.82 30V31H173.624L173.797 30.2146L172.82 30ZM178.754 3V2H177.95L177.777 2.78537L178.754 3ZM206.22 3H207.22V2H206.22V3ZM206.22 59V60H207.22V59H206.22ZM185.354 59H184.354V60H185.354V59ZM185.354 40.1333H186.354V39.1333H185.354V40.1333ZM183.687 40.1333V39.1333H182.863L182.705 39.9426L183.687 40.1333ZM180.02 59V60H180.845L181.002 59.1908L180.02 59ZM164.02 59L163.039 59.1908L163.196 60H164.02V59ZM160.354 40.1333L161.335 39.9426L161.178 39.1333H160.354V40.1333ZM158.687 40.1333V39.1333H157.687V40.1333H158.687ZM158.687 59V60H159.687V59H158.687ZM138.82 59V3H136.82V59H138.82ZM137.82 4H165.287V2H137.82V4ZM164.31 3.21463L170.244 30.2146L172.197 29.7854L166.264 2.78537L164.31 3.21463ZM171.22 31H172.82V29H171.22V31ZM173.797 30.2146L179.73 3.21463L177.777 2.78537L171.844 29.7854L173.797 30.2146ZM178.754 4H206.22V2H178.754V4ZM205.22 3V59H207.22V3H205.22ZM206.22 58H185.354V60H206.22V58ZM186.354 59V40.1333H184.354V59H186.354ZM185.354 39.1333H183.687V41.1333H185.354V39.1333ZM182.705 39.9426L179.039 58.8092L181.002 59.1908L184.669 40.3241L182.705 39.9426ZM180.02 58H164.02V60H180.02V58ZM165.002 58.8092L161.335 39.9426L159.372 40.3241L163.039 59.1908L165.002 58.8092ZM160.354 39.1333H158.687V41.1333H160.354V39.1333ZM157.687 40.1333V59H159.687V40.1333H157.687ZM158.687 58H137.82V60H158.687V58ZM210.242 59H209.242V60H210.242V59ZM210.242 3V2H209.242V3H210.242ZM262.909 3H263.909V2H262.909V3ZM262.909 20.4V21.4H263.909V20.4H262.909ZM232.176 20.4V19.4H231.176V20.4H232.176ZM232.176 24.1333H231.176V25.1333H232.176V24.1333ZM261.709 24.1333H262.709V23.1333H261.709V24.1333ZM261.709 37.9333V38.9333H262.709V37.9333H261.709ZM232.176 37.9333V36.9333H231.176V37.9333H232.176ZM232.176 41.6H231.176V42.6H232.176V41.6ZM262.909 41.6H263.909V40.6H262.909V41.6ZM262.909 59V60H263.909V59H262.909ZM211.242 59V3H209.242V59H211.242ZM210.242 4H262.909V2H210.242V4ZM261.909 3V20.4H263.909V3H261.909ZM262.909 19.4H232.176V21.4H262.909V19.4ZM231.176 20.4V24.1333H233.176V20.4H231.176ZM232.176 25.1333H261.709V23.1333H232.176V25.1333ZM260.709 24.1333V37.9333H262.709V24.1333H260.709ZM261.709 36.9333H232.176V38.9333H261.709V36.9333ZM231.176 37.9333V41.6H233.176V37.9333H231.176ZM232.176 42.6H262.909V40.6H232.176V42.6ZM261.909 41.6V59H263.909V41.6H261.909ZM262.909 58H210.242V60H262.909V58ZM39.65 139.867C29.8774 139.867 22.0397 136.993 16.6549 132C11.2779 127.015 8.25 119.828 8.25 111H6.25C6.25 120.306 9.45544 128.052 15.2951 133.467C21.1269 138.874 29.4893 141.867 39.65 141.867V139.867ZM8.25 111C8.25 102.138 11.2784 94.952 16.6543 89.9755C22.0385 84.9914 29.8759 82.1333 39.65 82.1333V80.1333C29.4908 80.1333 21.1282 83.1086 15.2957 88.5078C9.45495 93.9146 6.25 101.662 6.25 111H8.25ZM39.65 82.1333C49.3899 82.1333 57.2107 84.9909 62.5868 89.975C67.9549 94.9517 70.9833 102.138 70.9833 111H72.9833C72.9833 101.662 69.7785 93.915 63.9465 88.5083C58.1226 83.1091 49.7767 80.1333 39.65 80.1333V82.1333ZM70.9833 111C70.9833 119.828 67.9554 127.015 62.5862 132.001C57.2094 136.993 49.3885 139.867 39.65 139.867V141.867C49.7782 141.867 58.1239 138.873 63.9471 133.466C69.778 128.052 72.9833 120.306 72.9833 111H70.9833ZM39.65 123C42.628 123 45.5349 122.031 47.7068 120.007C49.8923 117.97 51.25 114.942 51.25 111H49.25C49.25 114.458 48.0743 116.93 46.3432 118.543C44.5984 120.169 42.2054 121 39.65 121V123ZM51.25 111C51.25 107.026 49.8937 103.997 47.7051 101.967C45.5309 99.95 42.6233 99 39.65 99V101C42.21 101 44.6024 101.817 46.3449 103.433C48.073 105.036 49.25 107.507 49.25 111H51.25ZM39.65 99C36.6455 99 33.7361 99.9488 31.5683 101.968C29.3869 104.001 28.05 107.03 28.05 111H30.05C30.05 107.503 31.2131 105.033 32.9316 103.432C34.6639 101.818 37.0545 101 39.65 101V99ZM28.05 111C28.05 114.938 29.3883 117.966 31.5667 120.005C33.7321 122.032 36.6408 123 39.65 123V121C37.0592 121 34.6679 120.168 32.9333 118.545C31.2117 116.934 30.05 114.462 30.05 111H28.05ZM87.2885 139L86.3461 139.334L86.5822 140H87.2885V139ZM67.4219 83V82H66.0061L66.4794 83.3343L67.4219 83ZM90.0219 83L90.9729 82.6908L90.7482 82H90.0219V83ZM101.555 118.467L100.604 118.776L100.829 119.467H101.555V118.467ZM103.755 118.467V119.467H104.483L104.707 118.774L103.755 118.467ZM115.222 83V82H114.494L114.27 82.6924L115.222 83ZM137.822 83L138.764 83.3343L139.238 82H137.822V83ZM117.955 139V140H118.662L118.898 139.334L117.955 139ZM88.231 138.666L68.3643 82.6657L66.4794 83.3343L86.3461 139.334L88.231 138.666ZM67.4219 84H90.0219V82H67.4219V84ZM89.0709 83.3092L100.604 118.776L102.506 118.157L90.9729 82.6908L89.0709 83.3092ZM101.555 119.467H103.755V117.467H101.555V119.467ZM104.707 118.774L116.173 83.3076L114.27 82.6924L102.804 118.159L104.707 118.774ZM115.222 84H137.822V82H115.222V84ZM136.879 82.6657L117.013 138.666L118.898 139.334L138.764 83.3343L136.879 82.6657ZM117.955 138H87.2885V140H117.955V138ZM139.812 139H138.812V140H139.812V139ZM139.812 83V82H138.812V83H139.812ZM192.479 83H193.479V82H192.479V83ZM192.479 100.4V101.4H193.479V100.4H192.479ZM161.746 100.4V99.4H160.746V100.4H161.746ZM161.746 104.133H160.746V105.133H161.746V104.133ZM191.279 104.133H192.279V103.133H191.279V104.133ZM191.279 117.933V118.933H192.279V117.933H191.279ZM161.746 117.933V116.933H160.746V117.933H161.746ZM161.746 121.6H160.746V122.6H161.746V121.6ZM192.479 121.6H193.479V120.6H192.479V121.6ZM192.479 139V140H193.479V139H192.479ZM140.812 139V83H138.812V139H140.812ZM139.812 84H192.479V82H139.812V84ZM191.479 83V100.4H193.479V83H191.479ZM192.479 99.4H161.746V101.4H192.479V99.4ZM160.746 100.4V104.133H162.746V100.4H160.746ZM161.746 105.133H191.279V103.133H161.746V105.133ZM190.279 104.133V117.933H192.279V104.133H190.279ZM191.279 116.933H161.746V118.933H191.279V116.933ZM160.746 117.933V121.6H162.746V117.933H160.746ZM161.746 122.6H192.479V120.6H161.746V122.6ZM191.479 121.6V139H193.479V121.6H191.479ZM192.479 138H139.812V140H192.479V138ZM257.653 139V140H259.312L258.537 138.533L257.653 139ZM236.186 139L235.293 139.449L235.57 140H236.186V139ZM229.653 126L230.547 125.551L230.27 125H229.653V126ZM218.386 126V125H217.386V126H218.386ZM218.386 139V140H219.386V139H218.386ZM196.453 139H195.453V140H196.453V139ZM196.453 83V82H195.453V83H196.453ZM248.186 121.067L247.565 120.283L246.915 120.799L247.302 121.533L248.186 121.067ZM218.386 101.133V100.133H217.386V101.133H218.386ZM218.386 109.8H217.386V110.8H218.386V109.8ZM257.653 138H236.186V140H257.653V138ZM237.08 138.551L230.547 125.551L228.76 126.449L235.293 139.449L237.08 138.551ZM229.653 125H218.386V127H229.653V125ZM217.386 126V139H219.386V126H217.386ZM218.386 138H196.453V140H218.386V138ZM197.453 139V83H195.453V139H197.453ZM196.453 84H230.32V82H196.453V84ZM230.32 84C238.146 84 244.154 85.5828 248.196 88.9516C252.202 92.2901 254.453 97.5323 254.453 105.267H256.453C256.453 97.1344 254.07 91.2433 249.477 87.4151C244.919 83.6172 238.361 82 230.32 82V84ZM254.453 105.267C254.453 112.217 251.534 117.133 247.565 120.283L248.808 121.85C253.239 118.334 256.453 112.849 256.453 105.267H254.453ZM247.302 121.533L256.769 139.467L258.537 138.533L249.071 120.6L247.302 121.533ZM217.386 101.133V109.8H219.386V101.133H217.386ZM218.386 110.8H228.653V108.8H218.386V110.8ZM228.653 110.8C230.485 110.8 231.97 110.322 232.999 109.327C234.031 108.327 234.453 106.951 234.453 105.467H232.453C232.453 106.582 232.142 107.373 231.608 107.89C231.069 108.411 230.155 108.8 228.653 108.8V110.8ZM234.453 105.467C234.453 103.982 234.031 102.606 232.999 101.607C231.97 100.611 230.485 100.133 228.653 100.133V102.133C230.155 102.133 231.069 102.522 231.608 103.043C232.142 103.561 232.453 104.351 232.453 105.467H234.453ZM228.653 100.133H218.386V102.133H228.653V100.133Z" fill="black" mask="url(#path-1-outside-1_518_3730)"/>
<defs>
<linearGradient id="paint0_linear_518_3730" x1="132.5" y1="-19" x2="132.5" y2="141" gradientUnits="userSpaceOnUse">
<stop stop-color="#FD86C0"/>
<stop offset="1" stop-color="#F9F1FF"/>
</linearGradient>
</defs>
</svg>
