<svg width="285" height="157" viewBox="0 0 285 157" fill="none" xmlns="http://www.w3.org/2000/svg">
<mask id="path-1-outside-1_518_3771" maskUnits="userSpaceOnUse" x="-7.36898" y="-6.98444" width="295.164" height="165.908" fill="black">
<rect fill="white" x="-7.36898" y="-6.98444" width="295.164" height="165.908"/>
<path d="M77.5871 70.8055C59.2554 72.3886 50.5065 66.3857 49.6225 52.2761L68.9506 50.607C69.9886 53.3278 72.4772 54.2504 75.931 53.9521C81.9751 53.4302 83.0454 50.3266 82.8733 48.334C82.6668 45.9429 80.9327 43.6837 75.6192 44.1426C70.4384 44.59 69.3715 46.9572 68.7704 47.7452L49.8408 49.3799L53.8461 15.1752L95.4911 11.5788L96.8964 27.8515L71.3913 30.0541L70.4358 34.4861C71.8339 33.6293 74.7138 32.1092 81.0901 31.5586C91.9829 30.6179 102.3 35.4146 103.373 47.835C104.469 60.5212 96.251 69.1937 77.5871 70.8055ZM137.119 65.6644C117.923 67.3221 106.566 57.4627 104.96 38.8652C103.349 20.2014 112.853 8.60729 132.048 6.94962C151.243 5.29195 162.528 15.0907 164.14 33.7545C165.746 52.352 156.314 64.0067 137.119 65.6644ZM135.536 47.3326C141.447 46.8222 143.177 42.0557 142.62 35.613C142.058 29.1039 139.537 24.7045 133.626 25.215C127.714 25.7255 125.918 30.4977 126.48 37.0068C127.037 43.4495 129.624 47.8431 135.536 47.3326ZM198.297 60.3811C179.102 62.0388 167.745 52.1794 166.139 33.5819C164.527 14.9181 174.031 3.324 193.227 1.66633C212.422 0.00865646 223.707 9.80739 225.319 28.4713C226.925 47.0687 217.492 58.7235 198.297 60.3811ZM196.714 42.0494C202.625 41.5389 204.355 36.7724 203.799 30.3297C203.237 23.8206 200.715 19.4212 194.804 19.9317C188.893 20.4422 187.097 25.2144 187.659 31.7235C188.215 38.1662 190.803 42.5599 196.714 42.0494ZM6.04586 155.809L1.22772 100.017L34.5703 97.1375C50.046 95.8011 60.239 101.478 61.6328 117.618C63.0266 133.758 53.9636 141.166 38.6207 142.491L26.9973 143.494L27.8979 153.922L6.04586 155.809ZM25.4372 125.428L34.8687 124.614C37.924 124.35 39.8454 122.578 39.5815 119.523C39.3177 116.467 37.1267 115.118 34.2043 115.37L24.6399 116.196L25.4372 125.428ZM99.2913 149.63C79.4318 151.345 66.0019 140.728 64.4417 122.662C62.8758 104.53 74.2925 91.8336 94.1519 90.1186C113.945 88.4093 127.369 98.9601 128.935 117.093C130.495 135.159 119.084 147.921 99.2913 149.63ZM97.668 130.834C103.181 130.358 107.919 126.335 107.282 118.962C106.64 111.523 101.288 108.439 95.7752 108.915C90.1959 109.397 85.5185 113.347 86.1609 120.786C86.7976 128.159 92.0888 131.315 97.668 130.834ZM134.318 144.732L129.5 88.9395L151.352 87.0524L156.17 142.845L134.318 144.732ZM160.16 142.5L155.342 86.7079L180.315 84.5512L196.111 108.615L198.037 108.448L195.857 83.209L217.112 81.3735L221.93 137.166L197.554 139.271L181.227 115.253L179.234 115.425L181.414 140.665L160.16 142.5ZM281.621 75.8027L283.186 93.9352L263.659 95.6215L266.911 133.281L245.126 135.163L241.874 97.5029L222.346 99.1892L220.78 81.0567L281.621 75.8027Z"/>
</mask>
<path d="M77.5871 70.8055C59.2554 72.3886 50.5065 66.3857 49.6225 52.2761L68.9506 50.607C69.9886 53.3278 72.4772 54.2504 75.931 53.9521C81.9751 53.4302 83.0454 50.3266 82.8733 48.334C82.6668 45.9429 80.9327 43.6837 75.6192 44.1426C70.4384 44.59 69.3715 46.9572 68.7704 47.7452L49.8408 49.3799L53.8461 15.1752L95.4911 11.5788L96.8964 27.8515L71.3913 30.0541L70.4358 34.4861C71.8339 33.6293 74.7138 32.1092 81.0901 31.5586C91.9829 30.6179 102.3 35.4146 103.373 47.835C104.469 60.5212 96.251 69.1937 77.5871 70.8055ZM137.119 65.6644C117.923 67.3221 106.566 57.4627 104.96 38.8652C103.349 20.2014 112.853 8.60729 132.048 6.94962C151.243 5.29195 162.528 15.0907 164.14 33.7545C165.746 52.352 156.314 64.0067 137.119 65.6644ZM135.536 47.3326C141.447 46.8222 143.177 42.0557 142.62 35.613C142.058 29.1039 139.537 24.7045 133.626 25.215C127.714 25.7255 125.918 30.4977 126.48 37.0068C127.037 43.4495 129.624 47.8431 135.536 47.3326ZM198.297 60.3811C179.102 62.0388 167.745 52.1794 166.139 33.5819C164.527 14.9181 174.031 3.324 193.227 1.66633C212.422 0.00865646 223.707 9.80739 225.319 28.4713C226.925 47.0687 217.492 58.7235 198.297 60.3811ZM196.714 42.0494C202.625 41.5389 204.355 36.7724 203.799 30.3297C203.237 23.8206 200.715 19.4212 194.804 19.9317C188.893 20.4422 187.097 25.2144 187.659 31.7235C188.215 38.1662 190.803 42.5599 196.714 42.0494ZM6.04586 155.809L1.22772 100.017L34.5703 97.1375C50.046 95.8011 60.239 101.478 61.6328 117.618C63.0266 133.758 53.9636 141.166 38.6207 142.491L26.9973 143.494L27.8979 153.922L6.04586 155.809ZM25.4372 125.428L34.8687 124.614C37.924 124.35 39.8454 122.578 39.5815 119.523C39.3177 116.467 37.1267 115.118 34.2043 115.37L24.6399 116.196L25.4372 125.428ZM99.2913 149.63C79.4318 151.345 66.0019 140.728 64.4417 122.662C62.8758 104.53 74.2925 91.8336 94.1519 90.1186C113.945 88.4093 127.369 98.9601 128.935 117.093C130.495 135.159 119.084 147.921 99.2913 149.63ZM97.668 130.834C103.181 130.358 107.919 126.335 107.282 118.962C106.64 111.523 101.288 108.439 95.7752 108.915C90.1959 109.397 85.5185 113.347 86.1609 120.786C86.7976 128.159 92.0888 131.315 97.668 130.834ZM134.318 144.732L129.5 88.9395L151.352 87.0524L156.17 142.845L134.318 144.732ZM160.16 142.5L155.342 86.7079L180.315 84.5512L196.111 108.615L198.037 108.448L195.857 83.209L217.112 81.3735L221.93 137.166L197.554 139.271L181.227 115.253L179.234 115.425L181.414 140.665L160.16 142.5ZM281.621 75.8027L283.186 93.9352L263.659 95.6215L266.911 133.281L245.126 135.163L241.874 97.5029L222.346 99.1892L220.78 81.0567L281.621 75.8027Z" fill="url(#paint0_linear_518_3771)"/>
<path d="M49.6226 52.2761L49.5365 51.2798L48.5634 51.3639L48.6245 52.3386L49.6226 52.2761ZM68.9506 50.607L69.8849 50.2506L69.6161 49.5458L68.8646 49.6107L68.9506 50.607ZM68.7704 47.7452L68.8564 48.7415L69.2972 48.7034L69.5655 48.3517L68.7704 47.7452ZM49.8408 49.3799L48.8476 49.2636L48.705 50.4817L49.9269 50.3762L49.8408 49.3799ZM53.8461 15.1752L53.7601 14.1789L52.9477 14.249L52.8529 15.0589L53.8461 15.1752ZM95.4911 11.5788L96.4874 11.4927L96.4014 10.4964L95.4051 10.5825L95.4911 11.5788ZM96.8964 27.8515L96.9824 28.8478L97.9787 28.7618L97.8927 27.7655L96.8964 27.8515ZM71.3913 30.0541L71.3053 29.0578L70.5695 29.1214L70.4138 29.8433L71.3913 30.0541ZM70.4358 34.4861L69.4582 34.2753L68.9657 36.5598L70.9583 35.3387L70.4358 34.4861ZM77.5011 69.8092C68.4213 70.5933 61.9269 69.4737 57.6175 66.5941C53.366 63.7532 51.0498 59.0651 50.6206 52.2136L48.6245 52.3386C49.0792 59.5967 51.5794 64.9648 56.5063 68.257C61.3753 71.5105 68.4212 72.6008 77.6732 71.8018L77.5011 69.8092ZM49.7086 53.2724L69.0366 51.6033L68.8646 49.6107L49.5365 51.2798L49.7086 53.2724ZM68.0163 50.9634C68.6268 52.5637 69.6924 53.6782 71.1239 54.3234C72.5208 54.953 74.1964 55.1057 76.017 54.9484L75.8449 52.9558C74.2117 53.0969 72.9161 52.9374 71.9458 52.5C71.01 52.0783 70.3124 51.3711 69.8849 50.2506L68.0163 50.9634ZM76.017 54.9484C79.1936 54.6741 81.2441 53.7051 82.4697 52.3711C83.7004 51.0314 83.9743 49.4596 83.8696 48.248L81.877 48.42C81.9445 49.2009 81.7692 50.1773 80.9968 51.018C80.2193 51.8644 78.7125 52.7082 75.8449 52.9558L76.017 54.9484ZM83.8696 48.248C83.7476 46.8344 83.1587 45.3721 81.7445 44.3571C80.3551 43.36 78.3216 42.9055 75.5331 43.1463L75.7052 45.1389C78.2303 44.9208 79.7206 45.3664 80.5783 45.982C81.4111 46.5797 81.7926 47.4425 81.877 48.42L83.8696 48.248ZM75.5331 43.1463C72.7922 43.383 71.0416 44.1382 69.8753 45.0178C68.7402 45.8739 68.1833 46.866 67.9753 47.1387L69.5655 48.3517C69.9585 47.8364 70.2357 47.251 71.0795 46.6146C71.8921 46.0018 73.2654 45.3496 75.7052 45.1389L75.5331 43.1463ZM68.6843 46.7489L49.7548 48.3836L49.9269 50.3762L68.8564 48.7415L68.6843 46.7489ZM50.8341 49.4962L54.8393 15.2915L52.8529 15.0589L48.8476 49.2636L50.8341 49.4962ZM53.9321 16.1715L95.5771 12.5751L95.4051 10.5825L53.7601 14.1789L53.9321 16.1715ZM94.4948 11.6648L95.9001 27.9376L97.8927 27.7655L96.4874 11.4927L94.4948 11.6648ZM96.8104 26.8552L71.3053 29.0578L71.4774 31.0504L96.9824 28.8478L96.8104 26.8552ZM70.4138 29.8433L69.4582 34.2753L71.4133 34.6969L72.3689 30.2649L70.4138 29.8433ZM70.9583 35.3387C72.2235 34.5634 74.9539 33.0922 81.1761 32.5548L81.004 30.5623C74.4737 31.1262 71.4443 32.6952 69.9133 33.6335L70.9583 35.3387ZM81.1761 32.5548C86.4659 32.098 91.5306 33.0436 95.3713 35.5262C99.1769 37.9861 101.866 42.0066 102.377 47.9211L104.369 47.749C103.808 41.2431 100.802 36.6549 96.457 33.8466C92.1475 31.0609 86.607 30.0784 81.004 30.5623L81.1761 32.5548ZM102.377 47.9211C102.903 54.0099 101.198 59.0288 97.2087 62.7411C93.1836 66.4867 86.7131 69.0136 77.5011 69.8092L77.6732 71.8018C87.125 70.9855 94.0953 68.3703 98.5711 64.2052C103.083 60.0067 104.939 54.3463 104.369 47.749L102.377 47.9211ZM137.033 64.6681C127.618 65.4812 120.269 63.4605 115.088 59.0957C109.906 54.7305 106.744 47.8956 105.957 38.7792L103.964 38.9513C104.783 48.4323 108.102 55.8259 113.799 60.6253C119.497 65.4251 127.424 67.5053 137.205 66.6607L137.033 64.6681ZM105.957 38.7792C105.166 29.6287 107.111 22.3537 111.467 17.1737C115.823 11.994 122.718 8.7591 132.134 7.94591L131.962 5.95332C122.183 6.7978 114.728 10.1888 109.936 15.8864C105.145 21.5839 103.143 29.4378 103.964 38.9513L105.957 38.7792ZM132.134 7.94591C141.551 7.13272 148.88 9.13916 154.043 13.4958C159.207 17.853 162.353 24.6884 163.144 33.8406L165.136 33.6685C164.315 24.1568 161.014 16.7609 155.333 11.9673C149.651 7.17293 141.741 5.10884 131.962 5.95332L132.134 7.94591ZM163.144 33.8406C163.931 42.9587 162.003 50.2332 157.663 55.4202C153.324 60.606 146.447 63.8551 137.033 64.6681L137.205 66.6607C146.985 65.8161 154.423 62.4089 159.197 56.7036C163.97 50.9995 165.955 43.1479 165.136 33.6685L163.144 33.8406ZM135.622 48.3289C138.881 48.0475 141.109 46.5562 142.385 44.1689C143.621 41.8583 143.901 38.8268 143.616 35.5269L141.624 35.699C141.895 38.8419 141.59 41.415 140.621 43.2259C139.694 44.9601 138.102 46.1073 135.45 46.3364L135.622 48.3289ZM143.616 35.5269C143.329 32.1954 142.531 29.2405 140.918 27.1675C139.251 25.0248 136.799 23.9372 133.54 24.2187L133.712 26.2113C136.363 25.9823 138.128 26.8391 139.34 28.3958C140.605 30.0221 141.349 32.5214 141.624 35.699L143.616 35.5269ZM133.54 24.2187C130.281 24.5001 128.038 25.9918 126.745 28.3864C125.493 30.7066 125.196 33.7568 125.484 37.0928L127.477 36.9208C127.203 33.7477 127.522 31.1572 128.505 29.3364C129.448 27.59 131.059 26.4404 133.712 26.2113L133.54 24.2187ZM125.484 37.0928C125.769 40.3972 126.584 43.3349 128.216 45.3975C129.899 47.5256 132.363 48.6103 135.622 48.3289L135.45 46.3364C132.796 46.5655 131.012 45.7086 129.784 44.1568C128.505 42.5396 127.748 40.059 127.477 36.9208L125.484 37.0928ZM198.211 59.3848C188.796 60.1979 181.448 58.1772 176.266 53.8124C171.085 49.4472 167.922 42.6123 167.135 33.4959L165.143 33.668C165.961 43.149 169.281 50.5426 174.978 55.342C180.676 60.1418 188.603 62.222 198.383 61.3774L198.211 59.3848ZM167.135 33.4959C166.345 24.3454 168.289 17.0704 172.646 11.8905C177.002 6.71071 183.896 3.47581 193.313 2.66262L193.141 0.670036C183.362 1.51451 175.907 4.90548 171.115 10.6032C166.323 16.3006 164.321 24.1546 165.143 33.668L167.135 33.4959ZM193.313 2.66262C202.729 1.84943 210.059 3.85588 215.222 8.21247C220.385 12.5697 223.532 19.4052 224.322 28.5573L226.315 28.3852C225.494 18.8735 222.192 11.4776 216.511 6.68396C210.83 1.88964 202.919 -0.174446 193.141 0.670036L193.313 2.66262ZM224.322 28.5573C225.11 37.6754 223.182 44.9499 218.841 50.1369C214.502 55.3228 207.626 58.5718 198.211 59.3848L198.383 61.3774C208.164 60.5328 215.601 57.1256 220.375 51.4203C225.148 45.7162 227.134 37.8646 226.315 28.3852L224.322 28.5573ZM196.8 43.0456C200.06 42.7642 202.287 41.2729 203.564 38.8856C204.799 36.575 205.08 33.5435 204.795 30.2436L202.802 30.4157C203.074 33.5586 202.768 36.1317 201.8 37.9426C200.873 39.6768 199.28 40.824 196.628 41.0531L196.8 43.0456ZM204.795 30.2436C204.507 26.9121 203.71 23.9572 202.097 21.8842C200.429 19.7415 197.978 18.6539 194.718 18.9354L194.89 20.928C197.542 20.699 199.307 21.5558 200.518 23.1125C201.784 24.7388 202.528 27.2382 202.802 30.4157L204.795 30.2436ZM194.718 18.9354C191.46 19.2168 189.217 20.7085 187.924 23.1031C186.671 25.4233 186.374 28.4735 186.663 31.8095L188.655 31.6375C188.381 28.4644 188.701 25.8739 189.684 24.0531C190.627 22.3067 192.237 21.1571 194.89 20.928L194.718 18.9354ZM186.663 31.8095C186.948 35.1139 187.763 38.0516 189.394 40.1142C191.077 42.2423 193.542 43.327 196.8 43.0456L196.628 41.0531C193.975 41.2822 192.19 40.4253 190.963 38.8735C189.683 37.2563 188.926 34.7758 188.655 31.6375L186.663 31.8095ZM6.04586 155.809L5.04957 155.895L5.13561 156.892L6.1319 156.806L6.04586 155.809ZM1.22772 100.017L1.14168 99.0207L0.145388 99.1067L0.231427 100.103L1.22772 100.017ZM26.9973 143.494L26.9113 142.498L25.915 142.584L26.001 143.58L26.9973 143.494ZM27.8979 153.922L27.9839 154.918L28.9802 154.832L28.8942 153.836L27.8979 153.922ZM25.4372 125.428L24.4409 125.514L24.5269 126.511L25.5232 126.425L25.4372 125.428ZM24.6399 116.196L24.5538 115.2L23.5576 115.286L23.6436 116.282L24.6399 116.196ZM7.04215 155.723L2.22401 99.9309L0.231427 100.103L5.04957 155.895L7.04215 155.723ZM1.31376 101.013L34.6563 98.1338L34.4842 96.1413L1.14168 99.0207L1.31376 101.013ZM34.6563 98.1338C42.2786 97.4756 48.4222 98.5636 52.8076 101.643C57.1573 104.697 59.9572 109.839 60.6365 117.704L62.6291 117.532C61.9145 109.258 58.921 103.491 53.9569 100.006C49.0285 96.5455 42.3377 95.463 34.4842 96.1413L34.6563 98.1338ZM60.6365 117.704C61.3158 125.57 59.4402 131.135 55.6937 134.905C51.9181 138.705 46.0867 140.842 38.5347 141.494L38.7068 143.487C46.4976 142.814 52.8692 140.585 57.1124 136.315C61.3846 132.015 63.3436 125.806 62.6291 117.532L60.6365 117.704ZM38.5347 141.494L26.9113 142.498L27.0834 144.491L38.7068 143.487L38.5347 141.494ZM26.001 143.58L26.9016 154.008L28.8942 153.836L27.9936 143.408L26.001 143.58ZM27.8118 152.926L5.95982 154.813L6.1319 156.806L27.9839 154.918L27.8118 152.926ZM25.5232 126.425L34.9548 125.61L34.7827 123.617L25.3511 124.432L25.5232 126.425ZM34.9548 125.61C36.6449 125.464 38.1444 124.89 39.1888 123.81C40.2517 122.71 40.7303 121.202 40.5778 119.437L38.5852 119.609C38.6966 120.899 38.3464 121.804 37.7508 122.42C37.1366 123.055 36.1478 123.5 34.7827 123.617L34.9548 125.61ZM40.5778 119.437C40.4253 117.671 39.6962 116.283 38.4779 115.397C37.2823 114.528 35.7419 114.233 34.1182 114.374L34.2903 116.366C35.5891 116.254 36.6055 116.508 37.3018 117.015C37.9755 117.505 38.4739 118.32 38.5852 119.609L40.5778 119.437ZM34.1182 114.374L24.5538 115.2L24.7259 117.192L34.2903 116.366L34.1182 114.374ZM23.6436 116.282L24.4409 125.514L26.4335 125.342L25.6362 116.11L23.6436 116.282ZM99.2052 148.634C89.4688 149.475 81.413 147.286 75.6186 142.775C69.8325 138.271 66.1975 131.371 65.438 122.576L63.4454 122.748C64.2461 132.019 68.1061 139.461 74.39 144.353C80.6654 149.239 89.2543 151.501 99.3773 150.627L99.2052 148.634ZM65.438 122.576C64.6756 113.747 67.0744 106.327 72.0023 100.906C76.9376 95.4776 84.5001 91.9558 94.2379 91.1148L94.0659 89.1223C83.9443 89.9963 75.8687 93.6801 70.5224 99.5611C65.1685 105.45 62.642 113.445 63.4454 122.748L65.438 122.576ZM94.2379 91.1148C103.942 90.2768 111.979 92.4509 117.764 96.954C123.541 101.45 127.176 108.35 127.939 117.179L129.931 117.007C129.128 107.703 125.268 100.261 118.993 95.3758C112.726 90.4976 104.155 88.251 94.0659 89.1223L94.2379 91.1148ZM127.939 117.179C128.698 125.974 126.3 133.395 121.38 138.824C116.452 144.261 108.908 147.796 99.2052 148.634L99.3773 150.627C109.468 149.755 117.525 146.055 122.862 140.167C128.205 134.271 130.732 126.278 129.931 117.007L127.939 117.179ZM97.754 131.83C100.721 131.574 103.534 130.358 105.523 128.154C107.526 125.937 108.618 122.804 108.279 118.876L106.286 119.049C106.583 122.493 105.625 125.058 104.039 126.814C102.441 128.584 100.128 129.618 97.582 129.837L97.754 131.83ZM108.279 118.876C107.937 114.918 106.325 112.016 103.97 110.182C101.63 108.359 98.6514 107.663 95.6891 107.919L95.8612 109.912C98.4117 109.691 100.866 110.299 102.741 111.76C104.6 113.208 105.985 115.568 106.286 119.049L108.279 118.876ZM95.6891 107.919C92.6958 108.177 89.8788 109.373 87.8928 111.572C85.8944 113.784 84.8231 116.918 85.1646 120.873L87.1572 120.7C86.8563 117.216 87.8025 114.655 89.377 112.912C90.9639 111.155 93.2753 110.135 95.8612 109.912L95.6891 107.919ZM85.1646 120.873C85.5034 124.796 87.0973 127.698 89.443 129.542C91.7748 131.374 94.756 132.089 97.754 131.83L97.582 129.837C95.0007 130.06 92.5467 129.437 90.679 127.969C88.8251 126.512 87.455 124.149 87.1572 120.7L85.1646 120.873ZM134.318 144.732L133.322 144.818L133.408 145.814L134.404 145.728L134.318 144.732ZM129.5 88.9395L129.414 87.9432L128.418 88.0293L128.504 89.0256L129.5 88.9395ZM151.352 87.0524L152.349 86.9664L152.263 85.9701L151.266 86.0561L151.352 87.0524ZM156.17 142.845L156.256 143.841L157.253 143.755L157.167 142.759L156.17 142.845ZM135.315 144.646L130.497 88.8535L128.504 89.0256L133.322 144.818L135.315 144.646ZM129.586 89.9358L151.438 88.0487L151.266 86.0561L129.414 87.9432L129.586 89.9358ZM150.356 87.1385L155.174 142.931L157.167 142.759L152.349 86.9664L150.356 87.1385ZM156.084 141.848L134.232 143.736L134.404 145.728L156.256 143.841L156.084 141.848ZM160.16 142.5L159.163 142.586L159.249 143.583L160.246 143.497L160.16 142.5ZM155.342 86.7079L155.256 85.7116L154.259 85.7977L154.345 86.794L155.342 86.7079ZM180.315 84.5512L181.151 84.0025L180.824 83.5036L180.229 83.5549L180.315 84.5512ZM196.111 108.615L195.275 109.164L195.602 109.662L196.197 109.611L196.111 108.615ZM198.037 108.448L198.123 109.445L199.119 109.359L199.033 108.362L198.037 108.448ZM195.857 83.209L195.771 82.2127L194.775 82.2988L194.861 83.2951L195.857 83.209ZM217.112 81.3735L218.108 81.2875L218.022 80.2912L217.026 80.3772L217.112 81.3735ZM221.93 137.166L222.016 138.162L223.012 138.076L222.926 137.08L221.93 137.166ZM197.554 139.271L196.727 139.833L197.056 140.318L197.64 140.267L197.554 139.271ZM181.227 115.253L182.054 114.691L181.725 114.207L181.141 114.257L181.227 115.253ZM179.234 115.425L179.148 114.429L178.152 114.515L178.238 115.511L179.234 115.425ZM181.414 140.665L181.5 141.661L182.496 141.575L182.41 140.579L181.414 140.665ZM161.156 142.414L156.338 86.6219L154.345 86.794L159.163 142.586L161.156 142.414ZM155.428 87.7042L180.401 85.5475L180.229 83.5549L155.256 85.7116L155.428 87.7042ZM179.479 85.1L195.275 109.164L196.947 108.066L181.151 84.0025L179.479 85.1ZM196.197 109.611L198.123 109.445L197.951 107.452L196.025 107.618L196.197 109.611ZM199.033 108.362L196.854 83.123L194.861 83.2951L197.041 108.534L199.033 108.362ZM195.944 84.2053L217.198 82.3698L217.026 80.3772L195.771 82.2127L195.944 84.2053ZM216.115 81.4596L220.934 137.252L222.926 137.08L218.108 81.2875L216.115 81.4596ZM221.844 136.17L197.468 138.275L197.64 140.267L222.016 138.162L221.844 136.17ZM198.381 138.709L182.054 114.691L180.4 115.815L196.727 139.833L198.381 138.709ZM181.141 114.257L179.148 114.429L179.32 116.422L181.313 116.25L181.141 114.257ZM178.238 115.511L180.418 140.751L182.41 140.579L180.231 115.339L178.238 115.511ZM181.328 139.668L160.074 141.504L160.246 143.497L181.5 141.661L181.328 139.668ZM281.621 75.8026L282.617 75.7166L282.531 74.7203L281.535 74.8064L281.621 75.8026ZM283.186 93.9352L283.272 94.9314L284.269 94.8454L284.183 93.8491L283.186 93.9352ZM263.659 95.6215L263.573 94.6252L262.577 94.7113L262.663 95.7075L263.659 95.6215ZM266.911 133.281L266.997 134.278L267.994 134.192L267.908 133.195L266.911 133.281ZM245.126 135.163L244.13 135.249L244.216 136.245L245.212 136.159L245.126 135.163ZM241.874 97.5029L242.87 97.4168L242.784 96.4205L241.788 96.5066L241.874 97.5029ZM222.346 99.1892L221.35 99.2753L221.436 100.272L222.432 100.186L222.346 99.1892ZM220.78 81.0567L220.694 80.0604L219.698 80.1465L219.784 81.1428L220.78 81.0567ZM280.624 75.8887L282.19 94.0212L284.183 93.8491L282.617 75.7166L280.624 75.8887ZM283.1 92.9389L263.573 94.6252L263.745 96.6178L283.272 94.9314L283.1 92.9389ZM262.663 95.7075L265.915 133.367L267.908 133.195L264.655 95.5355L262.663 95.7075ZM266.825 132.285L245.04 134.166L245.212 136.159L266.997 134.278L266.825 132.285ZM246.122 135.077L242.87 97.4168L240.877 97.5889L244.13 135.249L246.122 135.077ZM241.788 96.5066L222.26 98.1929L222.432 100.186L241.96 98.4992L241.788 96.5066ZM223.343 99.1032L221.777 80.9707L219.784 81.1428L221.35 99.2753L223.343 99.1032ZM220.866 82.053L281.707 76.7989L281.535 74.8064L220.694 80.0604L220.866 82.053Z" fill="black" mask="url(#path-1-outside-1_518_3771)"/>
<defs>
<linearGradient id="paint0_linear_518_3771" x1="132.47" y1="-13.6965" x2="146.236" y2="145.71" gradientUnits="userSpaceOnUse">
<stop stop-color="#E5D78D"/>
<stop offset="1" stop-color="#F9F1FF"/>
</linearGradient>
</defs>
</svg>
