<svg width="158" height="25" viewBox="0 0 158 25" fill="none" xmlns="http://www.w3.org/2000/svg">
<mask id="path-1-outside-1_518_3776" maskUnits="userSpaceOnUse" x="0" y="0" width="158" height="25" fill="black">
<rect fill="white" width="158" height="25"/>
<path d="M1.77637 23V2H14.3264C20.1514 2 23.7764 4.45 23.7764 10.525C23.7764 16.6 20.1514 19.075 14.3764 19.075H10.0014V23H1.77637ZM10.0014 12.275H13.5514C14.7014 12.275 15.4764 11.675 15.4764 10.525C15.4764 9.375 14.7014 8.8 13.6014 8.8H10.0014V12.275ZM25.0381 23V2H35.3381L37.5631 12.125H38.1631L40.3881 2H50.6881V23H42.8631V15.925H42.2381L40.8631 23H34.8631L33.4881 15.925H32.8631V23H25.0381ZM69.5924 23.55C62.3674 23.55 58.4424 19.5 58.4424 12.5C58.4424 5.475 62.3674 1.45 69.5924 1.45C76.8174 1.45 80.7174 5.475 80.7174 12.5C80.7174 19.5 76.8174 23.55 69.5924 23.55ZM69.5924 16.65C71.8174 16.65 72.6174 14.925 72.6174 12.5C72.6174 10.05 71.8174 8.325 69.5924 8.325C67.3674 8.325 66.5424 10.05 66.5424 12.5C66.5424 14.925 67.3674 16.65 69.5924 16.65ZM93.3697 9.625C97.9197 9.625 101.87 11.425 101.87 16.225C101.87 20.575 98.7197 23.55 91.8947 23.55C83.1447 23.55 81.5447 17.75 81.5447 12.3C81.5447 4.2 86.4447 1.45 92.2197 1.45C97.9447 1.45 101.695 3.675 101.42 8.75H94.9697C94.7697 7.7 93.3697 7.475 92.2197 7.475C90.7947 7.475 89.0197 7.875 89.2447 10.15C90.2947 9.775 91.7197 9.625 93.3697 9.625ZM91.7947 17.575C93.7697 17.575 94.5197 16.775 94.5197 16C94.5197 15.175 93.6947 14.475 91.7947 14.475C89.9447 14.475 89.1947 14.975 89.1947 16C89.1947 16.775 89.8447 17.575 91.7947 17.575ZM107.106 11.35C104.956 11.35 103.131 9.55 103.131 7.425C103.131 5.3 104.956 3.525 107.106 3.525C109.256 3.525 111.081 5.3 111.081 7.425C111.081 9.55 109.256 11.35 107.106 11.35ZM107.106 21.725C104.956 21.725 103.131 19.925 103.131 17.8C103.131 15.675 104.956 13.9 107.106 13.9C109.256 13.9 111.081 15.675 111.081 17.8C111.081 19.925 109.256 21.725 107.106 21.725ZM122.686 23.55C115.711 23.55 112.336 21.375 112.386 15.55H119.711C119.836 16.925 120.861 17.125 122.486 17.125C124.436 17.125 125.311 16.725 125.311 16.075C125.311 16.125 125.636 14.675 122.711 14.675H121.311V10.2H122.711C125.586 10.2 125.461 9.175 125.461 9.025C125.461 8.125 124.311 7.875 122.836 7.875C121.236 7.875 120.136 8.175 120.161 9.525H112.886C112.836 3.775 116.336 1.45 122.911 1.45C129.636 1.45 132.861 3.775 132.861 7.525C132.861 9.925 131.561 11.075 130.111 11.85V12.225C132.011 12.85 133.461 14.5 133.461 17.15C133.461 21.225 129.461 23.55 122.686 23.55ZM145.471 23.55C138.246 23.55 134.321 19.5 134.321 12.5C134.321 5.475 138.246 1.45 145.471 1.45C152.696 1.45 156.596 5.475 156.596 12.5C156.596 19.5 152.696 23.55 145.471 23.55ZM145.471 16.65C147.696 16.65 148.496 14.925 148.496 12.5C148.496 10.05 147.696 8.325 145.471 8.325C143.246 8.325 142.421 10.05 142.421 12.5C142.421 14.925 143.246 16.65 145.471 16.65Z"/>
</mask>
<path d="M1.77637 23V2H14.3264C20.1514 2 23.7764 4.45 23.7764 10.525C23.7764 16.6 20.1514 19.075 14.3764 19.075H10.0014V23H1.77637ZM10.0014 12.275H13.5514C14.7014 12.275 15.4764 11.675 15.4764 10.525C15.4764 9.375 14.7014 8.8 13.6014 8.8H10.0014V12.275ZM25.0381 23V2H35.3381L37.5631 12.125H38.1631L40.3881 2H50.6881V23H42.8631V15.925H42.2381L40.8631 23H34.8631L33.4881 15.925H32.8631V23H25.0381ZM69.5924 23.55C62.3674 23.55 58.4424 19.5 58.4424 12.5C58.4424 5.475 62.3674 1.45 69.5924 1.45C76.8174 1.45 80.7174 5.475 80.7174 12.5C80.7174 19.5 76.8174 23.55 69.5924 23.55ZM69.5924 16.65C71.8174 16.65 72.6174 14.925 72.6174 12.5C72.6174 10.05 71.8174 8.325 69.5924 8.325C67.3674 8.325 66.5424 10.05 66.5424 12.5C66.5424 14.925 67.3674 16.65 69.5924 16.65ZM93.3697 9.625C97.9197 9.625 101.87 11.425 101.87 16.225C101.87 20.575 98.7197 23.55 91.8947 23.55C83.1447 23.55 81.5447 17.75 81.5447 12.3C81.5447 4.2 86.4447 1.45 92.2197 1.45C97.9447 1.45 101.695 3.675 101.42 8.75H94.9697C94.7697 7.7 93.3697 7.475 92.2197 7.475C90.7947 7.475 89.0197 7.875 89.2447 10.15C90.2947 9.775 91.7197 9.625 93.3697 9.625ZM91.7947 17.575C93.7697 17.575 94.5197 16.775 94.5197 16C94.5197 15.175 93.6947 14.475 91.7947 14.475C89.9447 14.475 89.1947 14.975 89.1947 16C89.1947 16.775 89.8447 17.575 91.7947 17.575ZM107.106 11.35C104.956 11.35 103.131 9.55 103.131 7.425C103.131 5.3 104.956 3.525 107.106 3.525C109.256 3.525 111.081 5.3 111.081 7.425C111.081 9.55 109.256 11.35 107.106 11.35ZM107.106 21.725C104.956 21.725 103.131 19.925 103.131 17.8C103.131 15.675 104.956 13.9 107.106 13.9C109.256 13.9 111.081 15.675 111.081 17.8C111.081 19.925 109.256 21.725 107.106 21.725ZM122.686 23.55C115.711 23.55 112.336 21.375 112.386 15.55H119.711C119.836 16.925 120.861 17.125 122.486 17.125C124.436 17.125 125.311 16.725 125.311 16.075C125.311 16.125 125.636 14.675 122.711 14.675H121.311V10.2H122.711C125.586 10.2 125.461 9.175 125.461 9.025C125.461 8.125 124.311 7.875 122.836 7.875C121.236 7.875 120.136 8.175 120.161 9.525H112.886C112.836 3.775 116.336 1.45 122.911 1.45C129.636 1.45 132.861 3.775 132.861 7.525C132.861 9.925 131.561 11.075 130.111 11.85V12.225C132.011 12.85 133.461 14.5 133.461 17.15C133.461 21.225 129.461 23.55 122.686 23.55ZM145.471 23.55C138.246 23.55 134.321 19.5 134.321 12.5C134.321 5.475 138.246 1.45 145.471 1.45C152.696 1.45 156.596 5.475 156.596 12.5C156.596 19.5 152.696 23.55 145.471 23.55ZM145.471 16.65C147.696 16.65 148.496 14.925 148.496 12.5C148.496 10.05 147.696 8.325 145.471 8.325C143.246 8.325 142.421 10.05 142.421 12.5C142.421 14.925 143.246 16.65 145.471 16.65Z" fill="url(#paint0_linear_518_3776)"/>
<path d="M1.77637 23H0.776367V24H1.77637V23ZM1.77637 2V1H0.776367V2H1.77637ZM10.0014 19.075V18.075H9.00137V19.075H10.0014ZM10.0014 23V24H11.0014V23H10.0014ZM10.0014 12.275H9.00137V13.275H10.0014V12.275ZM10.0014 8.8V7.8H9.00137V8.8H10.0014ZM2.77637 23V2H0.776367V23H2.77637ZM1.77637 3H14.3264V1H1.77637V3ZM14.3264 3C17.1228 3 19.2125 3.59171 20.5928 4.75031C21.9397 5.88084 22.7764 7.69259 22.7764 10.525H24.7764C24.7764 7.28241 23.8006 4.83166 21.8787 3.21844C19.9902 1.6333 17.3549 1 14.3264 1V3ZM22.7764 10.525C22.7764 13.3576 21.9394 15.1777 20.5959 16.3148C19.221 17.4787 17.144 18.075 14.3764 18.075V20.075C17.3837 20.075 20.0068 19.4338 21.8881 17.8414C23.8009 16.2223 24.7764 13.7674 24.7764 10.525H22.7764ZM14.3764 18.075H10.0014V20.075H14.3764V18.075ZM9.00137 19.075V23H11.0014V19.075H9.00137ZM10.0014 22H1.77637V24H10.0014V22ZM10.0014 13.275H13.5514V11.275H10.0014V13.275ZM13.5514 13.275C14.2895 13.275 15.0307 13.0825 15.6016 12.5856C16.1928 12.0711 16.4764 11.3388 16.4764 10.525H14.4764C14.4764 10.8612 14.3725 11.0039 14.2886 11.0769C14.1845 11.1675 13.9633 11.275 13.5514 11.275V13.275ZM16.4764 10.525C16.4764 9.71066 16.1923 8.98419 15.6068 8.47603C15.0425 7.9862 14.3144 7.8 13.6014 7.8V9.8C13.9884 9.8 14.1978 9.9013 14.2959 9.98647C14.3729 10.0533 14.4764 10.1893 14.4764 10.525H16.4764ZM13.6014 7.8H10.0014V9.8H13.6014V7.8ZM9.00137 8.8V12.275H11.0014V8.8H9.00137ZM25.0381 23H24.0381V24H25.0381V23ZM25.0381 2V1H24.0381V2H25.0381ZM35.3381 2L36.3148 1.78537L36.1422 1H35.3381V2ZM37.5631 12.125L36.5864 12.3396L36.759 13.125H37.5631V12.125ZM38.1631 12.125V13.125H38.9672L39.1398 12.3396L38.1631 12.125ZM40.3881 2V1H39.584L39.4114 1.78537L40.3881 2ZM50.6881 2H51.6881V1H50.6881V2ZM50.6881 23V24H51.6881V23H50.6881ZM42.8631 23H41.8631V24H42.8631V23ZM42.8631 15.925H43.8631V14.925H42.8631V15.925ZM42.2381 15.925V14.925H41.4137L41.2565 15.7342L42.2381 15.925ZM40.8631 23V24H41.6875L41.8447 23.1908L40.8631 23ZM34.8631 23L33.8815 23.1908L34.0387 24H34.8631V23ZM33.4881 15.925L34.4697 15.7342L34.3125 14.925H33.4881V15.925ZM32.8631 15.925V14.925H31.8631V15.925H32.8631ZM32.8631 23V24H33.8631V23H32.8631ZM26.0381 23V2H24.0381V23H26.0381ZM25.0381 3H35.3381V1H25.0381V3ZM34.3614 2.21463L36.5864 12.3396L38.5398 11.9104L36.3148 1.78537L34.3614 2.21463ZM37.5631 13.125H38.1631V11.125H37.5631V13.125ZM39.1398 12.3396L41.3648 2.21463L39.4114 1.78537L37.1864 11.9104L39.1398 12.3396ZM40.3881 3H50.6881V1H40.3881V3ZM49.6881 2V23H51.6881V2H49.6881ZM50.6881 22H42.8631V24H50.6881V22ZM43.8631 23V15.925H41.8631V23H43.8631ZM42.8631 14.925H42.2381V16.925H42.8631V14.925ZM41.2565 15.7342L39.8815 22.8092L41.8447 23.1908L43.2197 16.1158L41.2565 15.7342ZM40.8631 22H34.8631V24H40.8631V22ZM35.8447 22.8092L34.4697 15.7342L32.5065 16.1158L33.8815 23.1908L35.8447 22.8092ZM33.4881 14.925H32.8631V16.925H33.4881V14.925ZM31.8631 15.925V23H33.8631V15.925H31.8631ZM32.8631 22H25.0381V24H32.8631V22ZM69.5924 22.55C66.1633 22.55 63.6615 21.592 62.0157 19.9435C60.3694 18.2944 59.4424 15.817 59.4424 12.5H57.4424C57.4424 16.183 58.4779 19.2306 60.6003 21.3565C62.7232 23.483 65.7964 24.55 69.5924 24.55V22.55ZM59.4424 12.5C59.4424 9.16966 60.3698 6.69304 62.0151 5.04773C63.6602 3.40263 66.1617 2.45 69.5924 2.45V0.449999C65.7981 0.449999 62.7245 1.50987 60.6009 3.63352C58.4775 5.75696 57.4424 8.80534 57.4424 12.5H59.4424ZM69.5924 2.45C73.023 2.45 75.5174 3.40255 77.156 5.04656C78.7952 6.69128 79.7174 9.16796 79.7174 12.5H81.7174C81.7174 8.80703 80.6895 5.75872 78.5725 3.63469C76.4548 1.50995 73.3867 0.449999 69.5924 0.449999V2.45ZM79.7174 12.5C79.7174 15.8187 78.7957 18.2962 77.1554 19.9447C75.5161 21.5921 73.0214 22.55 69.5924 22.55V24.55C73.3884 24.55 76.4562 23.4829 78.5731 21.3553C80.6891 19.2288 81.7174 16.1813 81.7174 12.5H79.7174ZM69.5924 17.65C71.0097 17.65 72.0971 17.0747 72.7773 16.03C73.41 15.0582 73.6174 13.7913 73.6174 12.5H71.6174C71.6174 13.6337 71.4248 14.4418 71.1012 14.9388C70.8251 15.3628 70.4 15.65 69.5924 15.65V17.65ZM73.6174 12.5C73.6174 11.1977 73.4105 9.92479 72.7784 8.94976C72.0983 7.90075 71.0101 7.325 69.5924 7.325V9.325C70.3997 9.325 70.824 9.61174 71.1002 10.0377C71.4243 10.5377 71.6174 11.3523 71.6174 12.5H73.6174ZM69.5924 7.325C68.1759 7.325 67.0837 7.89943 66.3972 8.94478C65.757 9.9195 65.5424 11.1932 65.5424 12.5H67.5424C67.5424 11.3568 67.7403 10.543 68.0689 10.0427C68.351 9.61307 68.7839 9.325 69.5924 9.325V7.325ZM65.5424 12.5C65.5424 13.7959 65.7575 15.0635 66.3982 16.035C67.0849 17.076 68.1763 17.65 69.5924 17.65V15.65C68.7835 15.65 68.3499 15.3615 68.0678 14.9338C67.7398 14.4365 67.5424 13.6291 67.5424 12.5H65.5424ZM101.42 8.75V9.75H102.367L102.418 8.80411L101.42 8.75ZM94.9697 8.75L93.9874 8.93711L94.1422 9.75H94.9697V8.75ZM89.2447 10.15L88.2496 10.2484L88.3756 11.5223L89.5811 11.0917L89.2447 10.15ZM93.3697 10.625C95.5372 10.625 97.4382 11.0576 98.7667 11.954C100.039 12.8125 100.87 14.1473 100.87 16.225H102.87C102.87 13.5027 101.725 11.5375 99.8853 10.296C98.1013 9.09239 95.7522 8.625 93.3697 8.625V10.625ZM100.87 16.225C100.87 18.1368 100.191 19.6597 98.8242 20.7321C97.4233 21.8315 95.1804 22.55 91.8947 22.55V24.55C95.4341 24.55 98.1787 23.781 100.059 22.3054C101.974 20.8028 102.87 18.6632 102.87 16.225H100.87ZM91.8947 22.55C87.7634 22.55 85.5212 21.1979 84.2574 19.3948C82.9434 17.5201 82.5447 14.9636 82.5447 12.3H80.5447C80.5447 15.0864 80.946 18.1549 82.6196 20.5427C84.3433 23.0021 87.2761 24.55 91.8947 24.55V22.55ZM82.5447 12.3C82.5447 8.45882 83.6986 6.05395 85.3743 4.59075C87.0751 3.10566 89.473 2.45 92.2197 2.45V0.449999C89.1914 0.449999 86.2519 1.16934 84.0589 3.08425C81.8408 5.02105 80.5447 8.04117 80.5447 12.3H82.5447ZM92.2197 2.45C94.9815 2.45 97.1028 2.99154 98.4772 4.00244C99.7889 4.9672 100.543 6.44861 100.421 8.69589L102.418 8.80411C102.571 5.97639 101.588 3.8078 99.6622 2.39131C97.7991 1.02095 95.1829 0.449999 92.2197 0.449999V2.45ZM101.42 7.75H94.9697V9.75H101.42V7.75ZM95.9521 8.56289C95.7589 7.54859 94.9781 7.02667 94.2909 6.7783C93.611 6.53253 92.8377 6.475 92.2197 6.475V8.475C92.7517 8.475 93.2535 8.52997 93.6111 8.6592C93.9614 8.78583 93.9806 8.90141 93.9874 8.93711L95.9521 8.56289ZM92.2197 6.475C91.4563 6.475 90.4136 6.57381 89.57 7.11992C89.1273 7.40653 88.7427 7.81472 88.4987 8.37003C88.2578 8.91835 88.1805 9.54941 88.2496 10.2484L90.2399 10.0516C90.1965 9.61309 90.2566 9.34102 90.3298 9.1745C90.3999 9.01497 90.5059 8.89659 90.6569 8.79883C91.0008 8.57619 91.5582 8.475 92.2197 8.475V6.475ZM89.5811 11.0917C90.4682 10.7749 91.7561 10.625 93.3697 10.625V8.625C91.6833 8.625 90.1213 8.77509 88.9084 9.20826L89.5811 11.0917ZM91.7947 18.575C92.9008 18.575 93.8042 18.3533 94.4621 17.9037C95.1475 17.4353 95.5197 16.7432 95.5197 16H93.5197C93.5197 16.0318 93.517 16.1272 93.3336 16.2525C93.1227 16.3967 92.6636 16.575 91.7947 16.575V18.575ZM95.5197 16C95.5197 15.203 95.1006 14.5194 94.4008 14.0808C93.7386 13.6658 92.8476 13.475 91.7947 13.475V15.475C92.6419 15.475 93.1133 15.6342 93.3387 15.7755C93.5264 15.8931 93.5197 15.972 93.5197 16H95.5197ZM91.7947 13.475C90.8206 13.475 89.9427 13.5989 89.2837 13.9973C88.9338 14.2088 88.646 14.4976 88.4534 14.8683C88.2641 15.2328 88.1947 15.6224 88.1947 16H90.1947C90.1947 15.8651 90.2191 15.8078 90.2282 15.7902C90.2341 15.7789 90.2494 15.7505 90.3183 15.7089C90.4967 15.6011 90.9188 15.475 91.7947 15.475V13.475ZM88.1947 16C88.1947 16.6934 88.4991 17.3927 89.1735 17.8855C89.8138 18.3535 90.7015 18.575 91.7947 18.575V16.575C90.9379 16.575 90.5257 16.3965 90.3535 16.2707C90.2154 16.1698 90.1947 16.0816 90.1947 16H88.1947ZM107.106 10.35C105.496 10.35 104.131 8.98549 104.131 7.425H102.131C102.131 10.1145 104.416 12.35 107.106 12.35V10.35ZM104.131 7.425C104.131 5.87271 105.487 4.525 107.106 4.525V2.525C104.424 2.525 102.131 4.72729 102.131 7.425H104.131ZM107.106 4.525C108.724 4.525 110.081 5.87271 110.081 7.425H112.081C112.081 4.72729 109.787 2.525 107.106 2.525V4.525ZM110.081 7.425C110.081 8.98548 108.716 10.35 107.106 10.35V12.35C109.796 12.35 112.081 10.1145 112.081 7.425H110.081ZM107.106 20.725C105.496 20.725 104.131 19.3605 104.131 17.8H102.131C102.131 20.4895 104.416 22.725 107.106 22.725V20.725ZM104.131 17.8C104.131 16.2477 105.487 14.9 107.106 14.9V12.9C104.424 12.9 102.131 15.1023 102.131 17.8H104.131ZM107.106 14.9C108.724 14.9 110.081 16.2477 110.081 17.8H112.081C112.081 15.1023 109.787 12.9 107.106 12.9V14.9ZM110.081 17.8C110.081 19.3605 108.716 20.725 107.106 20.725V22.725C109.796 22.725 112.081 20.4895 112.081 17.8H110.081ZM112.386 15.55V14.55H111.394L111.386 15.5414L112.386 15.55ZM119.711 15.55L120.707 15.4595L120.624 14.55H119.711V15.55ZM121.311 14.675H120.311V15.675H121.311V14.675ZM121.311 10.2V9.2H120.311V10.2H121.311ZM120.161 9.525V10.525H121.179L121.161 9.50648L120.161 9.525ZM112.886 9.525L111.886 9.5337L111.894 10.525H112.886V9.525ZM130.111 11.85L129.639 10.9681L129.111 11.2506V11.85H130.111ZM130.111 12.225H129.111V12.9488L129.798 13.1749L130.111 12.225ZM122.686 22.55C119.259 22.55 116.943 22.0068 115.498 20.9321C114.126 19.9112 113.362 18.269 113.386 15.5586L111.386 15.5414C111.359 18.656 112.258 21.0138 114.304 22.5367C116.279 24.0057 119.138 24.55 122.686 24.55V22.55ZM112.386 16.55H119.711V14.55H112.386V16.55ZM118.715 15.6405C118.757 16.1035 118.882 16.5424 119.132 16.9245C119.387 17.3137 119.732 17.5815 120.113 17.7592C120.813 18.0863 121.686 18.125 122.486 18.125V16.125C121.66 16.125 121.209 16.0637 120.959 15.9471C120.864 15.9029 120.828 15.8629 120.805 15.8279C120.777 15.7858 120.727 15.684 120.707 15.4595L118.715 15.6405ZM122.486 18.125C123.502 18.125 124.357 18.0244 124.994 17.7748C125.646 17.5194 126.311 16.9862 126.311 16.075H124.311C124.311 15.9905 124.347 15.9051 124.39 15.8557C124.417 15.8251 124.402 15.8587 124.265 15.9127C123.977 16.0256 123.419 16.125 122.486 16.125V18.125ZM124.311 16.075C124.311 16.097 124.311 16.167 124.327 16.2547C124.334 16.2956 124.354 16.3896 124.405 16.4995C124.445 16.5859 124.586 16.8584 124.928 17.0001C125.338 17.1697 125.692 17.0226 125.861 16.9112C126.012 16.8118 126.097 16.6964 126.127 16.655C126.194 16.5605 126.228 16.4758 126.236 16.456C126.275 16.3621 126.291 16.2797 126.292 16.2746C126.304 16.2198 126.311 16.1667 126.315 16.1199C126.324 16.0213 126.325 15.8988 126.309 15.76C126.275 15.477 126.166 15.1165 125.889 14.7699C125.327 14.0657 124.301 13.675 122.711 13.675V15.675C124.046 15.675 124.319 16.0093 124.326 16.0176C124.334 16.0272 124.326 16.0199 124.323 15.9947C124.322 15.9847 124.32 15.9673 124.323 15.9385C124.324 15.9266 124.327 15.8995 124.335 15.8605C124.338 15.8499 124.341 15.8333 124.347 15.8129C124.35 15.8005 124.363 15.7532 124.387 15.6948C124.395 15.6756 124.429 15.5914 124.496 15.4972C124.525 15.4559 124.61 15.3406 124.761 15.2413C124.93 15.1299 125.284 14.9829 125.694 15.1524C126.036 15.2941 126.177 15.5665 126.217 15.6528C126.268 15.7625 126.287 15.8564 126.295 15.8971C126.311 15.9844 126.311 16.0538 126.311 16.075H124.311ZM122.711 13.675H121.311V15.675H122.711V13.675ZM122.311 14.675V10.2H120.311V14.675H122.311ZM121.311 11.2H122.711V9.2H121.311V11.2ZM122.711 11.2C124.216 11.2 125.202 10.9415 125.806 10.4352C126.129 10.1649 126.311 9.84862 126.397 9.54448C126.478 9.26169 126.461 9.0027 126.461 9.025H124.461C124.461 9.1223 124.46 9.04769 124.473 8.99927C124.493 8.92951 124.527 8.89759 124.522 8.90233C124.469 8.94596 124.08 9.2 122.711 9.2V11.2ZM126.461 9.025C126.461 8.56542 126.306 8.14569 126.012 7.80823C125.735 7.49112 125.381 7.29783 125.049 7.1749C124.403 6.93537 123.599 6.875 122.836 6.875V8.875C123.548 8.875 124.056 8.93963 124.354 9.0501C124.494 9.10217 124.519 9.14013 124.504 9.12302C124.494 9.11156 124.48 9.09084 124.47 9.06355C124.46 9.03669 124.461 9.02078 124.461 9.025H126.461ZM122.836 6.875C122.021 6.875 121.132 6.94239 120.43 7.30528C120.053 7.49998 119.711 7.78852 119.475 8.20135C119.242 8.60978 119.152 9.06914 119.161 9.54351L121.161 9.50648C121.157 9.30586 121.196 9.22147 121.211 9.19396C121.225 9.17086 121.253 9.13127 121.348 9.08222C121.589 8.95761 122.05 8.875 122.836 8.875V6.875ZM120.161 8.525H112.886V10.525H120.161V8.525ZM113.886 9.5163C113.863 6.85727 114.65 5.18027 116.023 4.12398C117.455 3.02322 119.706 2.45 122.911 2.45V0.449999C119.54 0.449999 116.754 1.03928 114.804 2.53852C112.797 4.08222 111.859 6.44273 111.886 9.5337L113.886 9.5163ZM122.911 2.45C126.184 2.45 128.452 3.02036 129.87 3.92445C131.227 4.78971 131.861 5.98955 131.861 7.525H133.861C133.861 5.31044 132.882 3.47278 130.945 2.23805C129.069 1.04214 126.362 0.449999 122.911 0.449999V2.45ZM131.861 7.525C131.861 8.52863 131.594 9.20367 131.226 9.70218C130.843 10.2189 130.3 10.615 129.639 10.9681L130.582 12.7319C131.372 12.31 132.203 11.7436 132.833 10.8916C133.477 10.0213 133.861 8.92137 133.861 7.525H131.861ZM129.111 11.85V12.225H131.111V11.85H129.111ZM129.798 13.1749C131.294 13.6671 132.461 14.9386 132.461 17.15H134.461C134.461 14.0614 132.727 12.0329 130.423 11.2751L129.798 13.1749ZM132.461 17.15C132.461 18.7925 131.685 20.0843 130.105 21.0171C128.474 21.9805 125.982 22.55 122.686 22.55V24.55C126.164 24.55 129.06 23.957 131.122 22.7392C133.237 21.4907 134.461 19.5825 134.461 17.15H132.461ZM145.471 22.55C142.042 22.55 139.54 21.592 137.895 19.9435C136.248 18.2944 135.321 15.817 135.321 12.5H133.321C133.321 16.183 134.357 19.2306 136.479 21.3565C138.602 23.483 141.675 24.55 145.471 24.55V22.55ZM135.321 12.5C135.321 9.16966 136.249 6.69304 137.894 5.04773C139.539 3.40263 142.041 2.45 145.471 2.45V0.449999C141.677 0.449999 138.603 1.50987 136.48 3.63352C134.356 5.75696 133.321 8.80534 133.321 12.5H135.321ZM145.471 2.45C148.902 2.45 151.396 3.40255 153.035 5.04656C154.674 6.69128 155.596 9.16796 155.596 12.5H157.596C157.596 8.80703 156.568 5.75872 154.451 3.63469C152.334 1.50995 149.266 0.449999 145.471 0.449999V2.45ZM155.596 12.5C155.596 15.8187 154.675 18.2962 153.034 19.9447C151.395 21.5921 148.9 22.55 145.471 22.55V24.55C149.267 24.55 152.335 23.4829 154.452 21.3553C156.568 19.2288 157.596 16.1813 157.596 12.5H155.596ZM145.471 17.65C146.889 17.65 147.976 17.0747 148.656 16.03C149.289 15.0582 149.496 13.7913 149.496 12.5H147.496C147.496 13.6337 147.304 14.4418 146.98 14.9388C146.704 15.3628 146.279 15.65 145.471 15.65V17.65ZM149.496 12.5C149.496 11.1977 149.289 9.92479 148.657 8.94976C147.977 7.90075 146.889 7.325 145.471 7.325V9.325C146.279 9.325 146.703 9.61174 146.979 10.0377C147.303 10.5377 147.496 11.3523 147.496 12.5H149.496ZM145.471 7.325C144.055 7.325 142.963 7.89943 142.276 8.94478C141.636 9.9195 141.421 11.1932 141.421 12.5H143.421C143.421 11.3568 143.619 10.543 143.948 10.0427C144.23 9.61307 144.663 9.325 145.471 9.325V7.325ZM141.421 12.5C141.421 13.7959 141.636 15.0635 142.277 16.035C142.964 17.076 144.055 17.65 145.471 17.65V15.65C144.662 15.65 144.229 15.3615 143.947 14.9338C143.619 14.4365 143.421 13.6291 143.421 12.5H141.421Z" fill="black" mask="url(#path-1-outside-1_518_3776)"/>
<defs>
<linearGradient id="paint0_linear_518_3776" x1="79" y1="4.275" x2="79" y2="13.275" gradientUnits="userSpaceOnUse">
<stop stop-color="#B7FF74"/>
<stop offset="1" stop-color="#F9F1FF"/>
</linearGradient>
</defs>
</svg>
