<svg width="24" height="24" viewBox="0 0 24 24" fill="none" xmlns="http://www.w3.org/2000/svg">
<path d="M2 10.5C1.17157 10.5 0.5 11.1716 0.5 12C0.5 12.8284 1.17157 13.5 2 13.5V10.5ZM12 13.5C12.8284 13.5 13.5 12.8284 13.5 12C13.5 11.1716 12.8284 10.5 12 10.5V13.5ZM12 10.5C11.1716 10.5 10.5 11.1716 10.5 12C10.5 12.8284 11.1716 13.5 12 13.5V10.5ZM22 13.5C22.8284 13.5 23.5 12.8284 23.5 12C23.5 11.1716 22.8284 10.5 22 10.5V13.5ZM13.5 12C13.5 11.1716 12.8284 10.5 12 10.5C11.1716 10.5 10.5 11.1716 10.5 12H13.5ZM10.5 22C10.5 22.8284 11.1716 23.5 12 23.5C12.8284 23.5 13.5 22.8284 13.5 22H10.5ZM10.5 12C10.5 12.8284 11.1716 13.5 12 13.5C12.8284 13.5 13.5 12.8284 13.5 12H10.5ZM13.5 2C13.5 1.17157 12.8284 0.5 12 0.5C11.1716 0.5 10.5 1.17157 10.5 2H13.5ZM2 13.5H12V10.5H2V13.5ZM12 13.5H22V10.5H12V13.5ZM12 12H10.5C10.5 12 10.5 12 10.5 12C10.5 12 10.5 12 10.5 12C10.5 12 10.5 12 10.5 12C10.5 12 10.5 12 10.5 12C10.5 12 10.5 12 10.5 12C10.5 12 10.5 12 10.5 12C10.5 12 10.5 12 10.5 12C10.5 12 10.5 12 10.5 12.0001C10.5 12.0001 10.5 12.0001 10.5 12.0001C10.5 12.0001 10.5 12.0001 10.5 12.0001C10.5 12.0001 10.5 12.0001 10.5 12.0001C10.5 12.0001 10.5 12.0002 10.5 12.0002C10.5 12.0002 10.5 12.0002 10.5 12.0002C10.5 12.0002 10.5 12.0002 10.5 12.0003C10.5 12.0003 10.5 12.0003 10.5 12.0003C10.5 12.0003 10.5 12.0003 10.5 12.0004C10.5 12.0004 10.5 12.0004 10.5 12.0004C10.5 12.0005 10.5 12.0005 10.5 12.0005C10.5 12.0005 10.5 12.0006 10.5 12.0006C10.5 12.0006 10.5 12.0007 10.5 12.0007C10.5 12.0007 10.5 12.0008 10.5 12.0008C10.5 12.0008 10.5 12.0009 10.5 12.0009C10.5 12.0009 10.5 12.001 10.5 12.001C10.5 12.0011 10.5 12.0011 10.5 12.0012C10.5 12.0012 10.5 12.0013 10.5 12.0013C10.5 12.0014 10.5 12.0014 10.5 12.0015C10.5 12.0015 10.5 12.0016 10.5 12.0016C10.5 12.0017 10.5 12.0018 10.5 12.0018C10.5 12.0019 10.5 12.0019 10.5 12.002C10.5 12.0021 10.5 12.0021 10.5 12.0022C10.5 12.0023 10.5 12.0024 10.5 12.0024C10.5 12.0025 10.5 12.0026 10.5 12.0027C10.5 12.0028 10.5 12.0028 10.5 12.0029C10.5 12.003 10.5 12.0031 10.5 12.0032C10.5 12.0033 10.5 12.0034 10.5 12.0035C10.5 12.0036 10.5 12.0037 10.5 12.0038C10.5 12.0039 10.5 12.004 10.5 12.0041C10.5 12.0042 10.5 12.0043 10.5 12.0044C10.5 12.0045 10.5 12.0046 10.5 12.0048C10.5 12.0049 10.5 12.005 10.5 12.0051C10.5 12.0053 10.5 12.0054 10.5 12.0055C10.5 12.0057 10.5 12.0058 10.5 12.0059C10.5 12.0061 10.5 12.0062 10.5 12.0063C10.5 12.0065 10.5 12.0066 10.5 12.0068C10.5 12.0069 10.5 12.0071 10.5 12.0073C10.5 12.0074 10.5 12.0076 10.5 12.0077C10.5 12.0079 10.5 12.0081 10.5 12.0082C10.5 12.0084 10.5 12.0086 10.5 12.0088C10.5 12.0089 10.5 12.0091 10.5 12.0093C10.5 12.0095 10.5 12.0097 10.5 12.0099C10.5 12.0101 10.5 12.0103 10.5 12.0105C10.5 12.0107 10.5 12.0109 10.5 12.0111C10.5 12.0113 10.5 12.0115 10.5 12.0117C10.5 12.0119 10.5 12.0122 10.5 12.0124C10.5 12.0126 10.5 12.0129 10.5 12.0131C10.5 12.0133 10.5 12.0136 10.5 12.0138C10.5 12.014 10.5 12.0143 10.5 12.0145C10.5 12.0148 10.5 12.015 10.5 12.0153C10.5 12.0156 10.5 12.0158 10.5 12.0161C10.5 12.0164 10.5 12.0166 10.5 12.0169C10.5 12.0172 10.5 12.0175 10.5 12.0178C10.5 12.018 10.5 12.0183 10.5 12.0186C10.5 12.0189 10.5 12.0192 10.5 12.0195C10.5 12.0198 10.5 12.0201 10.5 12.0205C10.5 12.0208 10.5 12.0211 10.5 12.0214C10.5 12.0217 10.5 12.0221 10.5 12.0224C10.5 12.0227 10.5 12.0231 10.5 12.0234C10.5 12.0238 10.5 12.0241 10.5 12.0245C10.5 12.0248 10.5 12.0252 10.5 12.0256C10.5 12.0259 10.5 12.0263 10.5 12.0267C10.5 12.027 10.5 12.0274 10.5 12.0278C10.5 12.0282 10.5 12.0286 10.5 12.029C10.5 12.0294 10.5 12.0298 10.5 12.0302C10.5 12.0306 10.5 12.031 10.5 12.0314C10.5 12.0319 10.5 12.0323 10.5 12.0327C10.5 12.0331 10.5 12.0336 10.5 12.034C10.5 12.0345 10.5 12.0349 10.5 12.0354C10.5 12.0358 10.5 12.0363 10.5 12.0367C10.5 12.0372 10.5 12.0377 10.5 12.0381C10.5 12.0386 10.5 12.0391 10.5 12.0396C10.5 12.0401 10.5 12.0406 10.5 12.0411C10.5 12.0416 10.5 12.0421 10.5 12.0426C10.5 12.0431 10.5 12.0436 10.5 12.0442C10.5 12.0447 10.5 12.0452 10.5 12.0458C10.5 12.0463 10.5 12.0468 10.5 12.0474C10.5 12.0479 10.5 12.0485 10.5 12.0491C10.5 12.0496 10.5 12.0502 10.5 12.0508C10.5 12.0514 10.5 12.0519 10.5 12.0525C10.5 12.0531 10.5 12.0537 10.5 12.0543C10.5 12.0549 10.5 12.0555 10.5 12.0561C10.5 12.0568 10.5 12.0574 10.5 12.058C10.5 12.0586 10.5 12.0593 10.5 12.0599C10.5 12.0606 10.5 12.0612 10.5 12.0619C10.5 12.0625 10.5 12.0632 10.5 12.0639C10.5 12.0646 10.5 12.0652 10.5 12.0659C10.5 12.0666 10.5 12.0673 10.5 12.068C10.5 12.0687 10.5 12.0694 10.5 12.0701C10.5 12.0708 10.5 12.0716 10.5 12.0723C10.5 12.073 10.5 12.0738 10.5 12.0745C10.5 12.0753 10.5 12.076 10.5 12.0768C10.5 12.0775 10.5 12.0783 10.5 12.0791C10.5 12.0798 10.5 12.0806 10.5 12.0814C10.5 12.0822 10.5 12.083 10.5 12.0838C10.5 12.0846 10.5 12.0854 10.5 12.0862C10.5 12.0871 10.5 12.0879 10.5 12.0887C10.5 12.0896 10.5 12.0904 10.5 12.0913C10.5 12.0921 10.5 12.093 10.5 12.0939C10.5 12.0947 10.5 12.0956 10.5 12.0965C10.5 12.0974 10.5 12.0983 10.5 12.0992C10.5 12.1001 10.5 12.101 10.5 12.1019C10.5 12.1028 10.5 12.1037 10.5 12.1047C10.5 12.1056 10.5 12.1066 10.5 12.1075C10.5 12.1085 10.5 12.1094 10.5 12.1104C10.5 12.1114 10.5 12.1123 10.5 12.1133C10.5 12.1143 10.5 12.1153 10.5 12.1163C10.5 12.1173 10.5 12.1183 10.5 12.1193C10.5 12.1203 10.5 12.1214 10.5 12.1224C10.5 12.1235 10.5 12.1245 10.5 12.1256C10.5 12.1266 10.5 12.1277 10.5 12.1287C10.5 12.1298 10.5 12.1309 10.5 12.132C10.5 12.1331 10.5 12.1342 10.5 12.1353C10.5 12.1364 10.5 12.1375 10.5 12.1386C10.5 12.1398 10.5 12.1409 10.5 12.1421C10.5 12.1432 10.5 12.1444 10.5 12.1455C10.5 12.1467 10.5 12.1479 10.5 12.149C10.5 12.1502 10.5 12.1514 10.5 12.1526C10.5 12.1538 10.5 12.155 10.5 12.1562C10.5 12.1575 10.5 12.1587 10.5 12.1599C10.5 12.1612 10.5 12.1624 10.5 12.1637C10.5 12.1649 10.5 12.1662 10.5 12.1675C10.5 12.1688 10.5 12.1701 10.5 12.1714C10.5 12.1727 10.5 12.174 10.5 12.1753C10.5 12.1766 10.5 12.1779 10.5 12.1793C10.5 12.1806 10.5 12.182 10.5 12.1833C10.5 12.1847 10.5 12.186 10.5 12.1874C10.5 12.1888 10.5 12.1902 10.5 12.1916C10.5 12.193 10.5 12.1944 10.5 12.1958C10.5 12.1972 10.5 12.1987 10.5 12.2001C10.5 12.2015 10.5 12.203 10.5 12.2044C10.5 12.2059 10.5 12.2074 10.5 12.2089C10.5 12.2103 10.5 12.2118 10.5 12.2133C10.5 12.2148 10.5 12.2163 10.5 12.2179C10.5 12.2194 10.5 12.2209 10.5 12.2225C10.5 12.224 10.5 12.2256 10.5 12.2271C10.5 12.2287 10.5 12.2303 10.5 12.2319C10.5 12.2335 10.5 12.2351 10.5 12.2367C10.5 12.2383 10.5 12.2399 10.5 12.2415C10.5 12.2432 10.5 12.2448 10.5 12.2465C10.5 12.2481 10.5 12.2498 10.5 12.2515C10.5 12.2531 10.5 12.2548 10.5 12.2565C10.5 12.2582 10.5 12.2599 10.5 12.2617C10.5 12.2634 10.5 12.2651 10.5 12.2668C10.5 12.2686 10.5 12.2703 10.5 12.2721C10.5 12.2739 10.5 12.2757 10.5 12.2775C10.5 12.2792 10.5 12.281 10.5 12.2829C10.5 12.2847 10.5 12.2865 10.5 12.2883C10.5 12.2902 10.5 12.292 10.5 12.2939C10.5 12.2957 10.5 12.2976 10.5 12.2995C10.5 12.3014 10.5 12.3033 10.5 12.3052C10.5 12.3071 10.5 12.309 10.5 12.3109C10.5 12.3129 10.5 12.3148 10.5 12.3168C10.5 12.3187 10.5 12.3207 10.5 12.3227C10.5 12.3246 10.5 12.3266 10.5 12.3286C10.5 12.3306 10.5 12.3327 10.5 12.3347C10.5 12.3367 10.5 12.3388 10.5 12.3408C10.5 12.3429 10.5 12.3449 10.5 12.347C10.5 12.3491 10.5 12.3512 10.5 12.3533C10.5 12.3554 10.5 12.3575 10.5 12.3596C10.5 12.3618 10.5 12.3639 10.5 12.366C10.5 12.3682 10.5 12.3704 10.5 12.3725C10.5 12.3747 10.5 12.3769 10.5 12.3791C10.5 12.3813 10.5 12.3835 10.5 12.3858C10.5 12.388 10.5 12.3902 10.5 12.3925C10.5 12.3948 10.5 12.397 10.5 12.3993C10.5 12.4016 10.5 12.4039 10.5 12.4062C10.5 12.4085 10.5 12.4108 10.5 12.4132C10.5 12.4155 10.5 12.4178 10.5 12.4202C10.5 12.4226 10.5 12.4249 10.5 12.4273C10.5 12.4297 10.5 12.4321 10.5 12.4345C10.5 12.4369 10.5 12.4394 10.5 12.4418C10.5 12.4442 10.5 12.4467 10.5 12.4492C10.5 12.4516 10.5 12.4541 10.5 12.4566C10.5 12.4591 10.5 12.4616 10.5 12.4641C10.5 12.4667 10.5 12.4692 10.5 12.4717C10.5 12.4743 10.5 12.4769 10.5 12.4794C10.5 12.482 10.5 12.4846 10.5 12.4872C10.5 12.4898 10.5 12.4924 10.5 12.4951C10.5 12.4977 10.5 12.5003 10.5 12.503C10.5 12.5057 10.5 12.5083 10.5 12.511C10.5 12.5137 10.5 12.5164 10.5 12.5191C10.5 12.5219 10.5 12.5246 10.5 12.5273C10.5 12.5301 10.5 12.5329 10.5 12.5356C10.5 12.5384 10.5 12.5412 10.5 12.544C10.5 12.5468 10.5 12.5496 10.5 12.5525C10.5 12.5553 10.5 12.5581 10.5 12.561C10.5 12.5639 10.5 12.5667 10.5 12.5696C10.5 12.5725 10.5 12.5754 10.5 12.5783C10.5 12.5813 10.5 12.5842 10.5 12.5872C10.5 12.5901 10.5 12.5931 10.5 12.596C10.5 12.599 10.5 12.602 10.5 12.605C10.5 12.608 10.5 12.6111 10.5 12.6141C10.5 12.6171 10.5 12.6202 10.5 12.6233C10.5 12.6263 10.5 12.6294 10.5 12.6325C10.5 12.6356 10.5 12.6387 10.5 12.6419C10.5 12.645 10.5 12.6482 10.5 12.6513C10.5 12.6545 10.5 12.6577 10.5 12.6608C10.5 12.664 10.5 12.6672 10.5 12.6705C10.5 12.6737 10.5 12.6769 10.5 12.6802C10.5 12.6834 10.5 12.6867 10.5 12.69C10.5 12.6933 10.5 12.6966 10.5 12.6999C10.5 12.7032 10.5 12.7066 10.5 12.7099C10.5 12.7132 10.5 12.7166 10.5 12.72C10.5 12.7234 10.5 12.7268 10.5 12.7302C10.5 12.7336 10.5 12.737 10.5 12.7405C10.5 12.7439 10.5 12.7474 10.5 12.7508C10.5 12.7543 10.5 12.7578 10.5 12.7613C10.5 12.7648 10.5 12.7684 10.5 12.7719C10.5 12.7754 10.5 12.779 10.5 12.7826C10.5 12.7861 10.5 12.7897 10.5 12.7933C10.5 12.7969 10.5 12.8006 10.5 12.8042C10.5 12.8078 10.5 12.8115 10.5 12.8152C10.5 12.8188 10.5 12.8225 10.5 12.8262C10.5 12.8299 10.5 12.8337 10.5 12.8374C10.5 12.8411 10.5 12.8449 10.5 12.8487C10.5 12.8524 10.5 12.8562 10.5 12.86C10.5 12.8638 10.5 12.8677 10.5 12.8715C10.5 12.8753 10.5 12.8792 10.5 12.8831C10.5 12.8869 10.5 12.8908 10.5 12.8947C10.5 12.8986 10.5 12.9026 10.5 12.9065C10.5 12.9105 10.5 12.9144 10.5 12.9184C10.5 12.9224 10.5 12.9264 10.5 12.9304C10.5 12.9344 10.5 12.9384 10.5 12.9424C10.5 12.9465 10.5 12.9506 10.5 12.9546C10.5 12.9587 10.5 12.9628 10.5 12.9669C10.5 12.971 10.5 12.9752 10.5 12.9793C10.5 12.9835 10.5 12.9876 10.5 12.9918C10.5 12.996 10.5 13.0002 10.5 13.0044C10.5 13.0087 10.5 13.0129 10.5 13.0171C10.5 13.0214 10.5 13.0257 10.5 13.03C10.5 13.0343 10.5 13.0386 10.5 13.0429C10.5 13.0472 10.5 13.0516 10.5 13.0559C10.5 13.0603 10.5 13.0647 10.5 13.0691C10.5 13.0735 10.5 13.0779 10.5 13.0823C10.5 13.0868 10.5 13.0912 10.5 13.0957C10.5 13.1002 10.5 13.1047 10.5 13.1092C10.5 13.1137 10.5 13.1182 10.5 13.1227C10.5 13.1273 10.5 13.1319 10.5 13.1364C10.5 13.141 10.5 13.1456 10.5 13.1502C10.5 13.1549 10.5 13.1595 10.5 13.1642C10.5 13.1688 10.5 13.1735 10.5 13.1782C10.5 13.1829 10.5 13.1876 10.5 13.1923C10.5 13.197 10.5 13.2018 10.5 13.2066C10.5 13.2113 10.5 13.2161 10.5 13.2209C10.5 13.2257 10.5 13.2306 10.5 13.2354C10.5 13.2403 10.5 13.2451 10.5 13.25C10.5 13.2549 10.5 13.2598 10.5 13.2647C10.5 13.2696 10.5 13.2746 10.5 13.2795C10.5 13.2845 10.5 13.2895 10.5 13.2945C10.5 13.2995 10.5 13.3045 10.5 13.3095C10.5 13.3146 10.5 13.3196 10.5 13.3247C10.5 13.3298 10.5 13.3349 10.5 13.34C10.5 13.3451 10.5 13.3502 10.5 13.3554C10.5 13.3605 10.5 13.3657 10.5 13.3709C10.5 13.3761 10.5 13.3813 10.5 13.3865C10.5 13.3918 10.5 13.397 10.5 13.4023C10.5 13.4076 10.5 13.4128 10.5 13.4182C10.5 13.4235 10.5 13.4288 10.5 13.4341C10.5 13.4395 10.5 13.4449 10.5 13.4503C10.5 13.4557 10.5 13.4611 10.5 13.4665C10.5 13.4719 10.5 13.4774 10.5 13.4829C10.5 13.4883 10.5 13.4938 10.5 13.4993C10.5 13.5048 10.5 13.5104 10.5 13.5159C10.5 13.5215 10.5 13.5271 10.5 13.5326C10.5 13.5382 10.5 13.5439 10.5 13.5495C10.5 13.5551 10.5 13.5608 10.5 13.5665C10.5 13.5721 10.5 13.5778 10.5 13.5835C10.5 13.5893 10.5 13.595 10.5 13.6008C10.5 13.6065 10.5 13.6123 10.5 13.6181C10.5 13.6239 10.5 13.6297 10.5 13.6356C10.5 13.6414 10.5 13.6473 10.5 13.6531C10.5 13.659 10.5 13.6649 10.5 13.6708C10.5 13.6768 10.5 13.6827 10.5 13.6887C10.5 13.6947 10.5 13.7006 10.5 13.7067C10.5 13.7127 10.5 13.7187 10.5 13.7247C10.5 13.7308 10.5 13.7369 10.5 13.743C10.5 13.7491 10.5 13.7552 10.5 13.7613C10.5 13.7674 10.5 13.7736 10.5 13.7798C10.5 13.786 10.5 13.7922 10.5 13.7984C10.5 13.8046 10.5 13.8109 10.5 13.8171C10.5 13.8234 10.5 13.8297 10.5 13.836C10.5 13.8423 10.5 13.8486 10.5 13.855C10.5 13.8613 10.5 13.8677 10.5 13.8741C10.5 13.8805 10.5 13.8869 10.5 13.8934C10.5 13.8998 10.5 13.9063 10.5 13.9127C10.5 13.9192 10.5 13.9257 10.5 13.9323C10.5 13.9388 10.5 13.9453 10.5 13.9519C10.5 13.9585 10.5 13.9651 10.5 13.9717C10.5 13.9783 10.5 13.9849 10.5 13.9916C10.5 13.9983 10.5 14.005 10.5 14.0117C10.5 14.0184 10.5 14.0251 10.5 14.0318C10.5 14.0386 10.5 14.0454 10.5 14.0522C10.5 14.059 10.5 14.0658 10.5 14.0726C10.5 14.0795 10.5 14.0863 10.5 14.0932C10.5 14.1001 10.5 14.107 10.5 14.1139C10.5 14.1209 10.5 14.1278 10.5 14.1348C10.5 14.1418 10.5 14.1488 10.5 14.1558C10.5 14.1628 10.5 14.1699 10.5 14.1769C10.5 14.184 10.5 14.1911 10.5 14.1982C10.5 14.2053 10.5 14.2124 10.5 14.2196C10.5 14.2268 10.5 14.2339 10.5 14.2412C10.5 14.2484 10.5 14.2556 10.5 14.2628C10.5 14.2701 10.5 14.2774 10.5 14.2847C10.5 14.292 10.5 14.2993 10.5 14.3066C10.5 14.314 10.5 14.3214 10.5 14.3287C10.5 14.3361 10.5 14.3436 10.5 14.351C10.5 14.3584 10.5 14.3659 10.5 14.3734C10.5 14.3809 10.5 14.3884 10.5 14.3959C10.5 14.4035 10.5 14.411 10.5 14.4186C10.5 14.4262 10.5 14.4338 10.5 14.4414C10.5 14.449 10.5 14.4567 10.5 14.4644C10.5 14.472 10.5 14.4797 10.5 14.4875C10.5 14.4952 10.5 14.5029 10.5 14.5107C10.5 14.5185 10.5 14.5263 10.5 14.5341C10.5 14.5419 10.5 14.5498 10.5 14.5576C10.5 14.5655 10.5 14.5734 10.5 14.5813C10.5 14.5892 10.5 14.5972 10.5 14.6052C10.5 14.6131 10.5 14.6211 10.5 14.6291C10.5 14.6371 10.5 14.6452 10.5 14.6532C10.5 14.6613 10.5 14.6694 10.5 14.6775C10.5 14.6856 10.5 14.6938 10.5 14.7019C10.5 14.7101 10.5 14.7183 10.5 14.7265C10.5 14.7347 10.5 14.7429 10.5 14.7512C10.5 14.7595 10.5 14.7678 10.5 14.7761C10.5 14.7844 10.5 14.7927 10.5 14.8011C10.5 14.8094 10.5 14.8178 10.5 14.8262C10.5 14.8346 10.5 14.8431 10.5 14.8515C10.5 14.86 10.5 14.8685 10.5 14.877C10.5 14.8855 10.5 14.8941 10.5 14.9026C10.5 14.9112 10.5 14.9198 10.5 14.9284C10.5 14.937 10.5 14.9456 10.5 14.9543C10.5 14.963 10.5 14.9716 10.5 14.9804C10.5 14.9891 10.5 14.9978 10.5 15.0066C10.5 15.0153 10.5 15.0241 10.5 15.033C10.5 15.0418 10.5 15.0506 10.5 15.0595C10.5 15.0683 10.5 15.0772 10.5 15.0862C10.5 15.0951 10.5 15.104 10.5 15.113C10.5 15.122 10.5 15.131 10.5 15.14C10.5 15.149 10.5 15.1581 10.5 15.1671C10.5 15.1762 10.5 15.1853 10.5 15.1944C10.5 15.2036 10.5 15.2127 10.5 15.2219C10.5 15.2311 10.5 15.2403 10.5 15.2495C10.5 15.2587 10.5 15.268 10.5 15.2773C10.5 15.2866 10.5 15.2959 10.5 15.3052C10.5 15.3146 10.5 15.3239 10.5 15.3333C10.5 15.3427 10.5 15.3521 10.5 15.3616C10.5 15.371 10.5 15.3805 10.5 15.39C10.5 15.3995 10.5 15.409 10.5 15.4185C10.5 15.4281 10.5 15.4377 10.5 15.4473C10.5 15.4569 10.5 15.4665 10.5 15.4761C10.5 15.4858 10.5 15.4955 10.5 15.5052C10.5 15.5149 10.5 15.5246 10.5 15.5344C10.5 15.5442 10.5 15.554 10.5 15.5638C10.5 15.5736 10.5 15.5834 10.5 15.5933C10.5 15.6032 10.5 15.6131 10.5 15.623C10.5 15.6329 10.5 15.6429 10.5 15.6529C10.5 15.6628 10.5 15.6729 10.5 15.6829C10.5 15.6929 10.5 15.703 10.5 15.7131C10.5 15.7232 10.5 15.7333 10.5 15.7434C10.5 15.7536 10.5 15.7637 10.5 15.7739C10.5 15.7841 10.5 15.7944 10.5 15.8046C10.5 15.8149 10.5 15.8252 10.5 15.8355C10.5 15.8458 10.5 15.8561 10.5 15.8665C10.5 15.8769 10.5 15.8872 10.5 15.8977C10.5 15.9081 10.5 15.9185 10.5 15.929C10.5 15.9395 10.5 15.95 10.5 15.9605C10.5 15.9711 10.5 15.9816 10.5 15.9922C10.5 16.0028 10.5 16.0134 10.5 16.0241C10.5 16.0347 10.5 16.0454 10.5 16.0561C10.5 16.0668 10.5 16.0775 10.5 16.0883C10.5 16.099 10.5 16.1098 10.5 16.1206C10.5 16.1315 10.5 16.1423 10.5 16.1532C10.5 16.164 10.5 16.1749 10.5 16.1859C10.5 16.1968 10.5 16.2078 10.5 16.2188C10.5 16.2297 10.5 16.2408 10.5 16.2518C10.5 16.2628 10.5 16.2739 10.5 16.285C10.5 16.2961 10.5 16.3072 10.5 16.3184C10.5 16.3296 10.5 16.3407 10.5 16.352C10.5 16.3632 10.5 16.3744 10.5 16.3857C10.5 16.397 10.5 16.4083 10.5 16.4196C10.5 16.4309 10.5 16.4423 10.5 16.4537C10.5 16.4651 10.5 16.4765 10.5 16.488C10.5 16.4994 10.5 16.5109 10.5 16.5224C10.5 16.5339 10.5 16.5454 10.5 16.557C10.5 16.5686 10.5 16.5802 10.5 16.5918C10.5 16.6034 10.5 16.6151 10.5 16.6267C10.5 16.6384 10.5 16.6501 10.5 16.6619C10.5 16.6736 10.5 16.6854 10.5 16.6972C10.5 16.709 10.5 16.7208 10.5 16.7327C10.5 16.7446 10.5 16.7565 10.5 16.7684C10.5 16.7803 10.5 16.7922 10.5 16.8042C10.5 16.8162 10.5 16.8282 10.5 16.8403C10.5 16.8523 10.5 16.8644 10.5 16.8765C10.5 16.8886 10.5 16.9007 10.5 16.9129C10.5 16.925 10.5 16.9372 10.5 16.9494C10.5 16.9617 10.5 16.9739 10.5 16.9862C10.5 16.9985 10.5 17.0108 10.5 17.0231C10.5 17.0355 10.5 17.0478 10.5 17.0602C10.5 17.0726 10.5 17.0851 10.5 17.0975C10.5 17.11 10.5 17.1225 10.5 17.135C10.5 17.1475 10.5 17.1601 10.5 17.1727C10.5 17.1853 10.5 17.1979 10.5 17.2105C10.5 17.2232 10.5 17.2359 10.5 17.2486C10.5 17.2613 10.5 17.274 10.5 17.2868C10.5 17.2995 10.5 17.3123 10.5 17.3252C10.5 17.338 10.5 17.3509 10.5 17.3638C10.5 17.3767 10.5 17.3896 10.5 17.4025C10.5 17.4155 10.5 17.4285 10.5 17.4415C10.5 17.4545 10.5 17.4676 10.5 17.4807C10.5 17.4937 10.5 17.5068 10.5 17.52C10.5 17.5331 10.5 17.5463 10.5 17.5595C10.5 17.5727 10.5 17.586 10.5 17.5992C10.5 17.6125 10.5 17.6258 10.5 17.6391C10.5 17.6524 10.5 17.6658 10.5 17.6792C10.5 17.6926 10.5 17.706 10.5 17.7195C10.5 17.7329 10.5 17.7464 10.5 17.76C10.5 17.7735 10.5 17.787 10.5 17.8006C10.5 17.8142 10.5 17.8278 10.5 17.8415C10.5 17.8551 10.5 17.8688 10.5 17.8825C10.5 17.8962 10.5 17.91 10.5 17.9237C10.5 17.9375 10.5 17.9513 10.5 17.9652C10.5 17.979 10.5 17.9929 10.5 18.0068C10.5 18.0207 10.5 18.0346 10.5 18.0486C10.5 18.0626 10.5 18.0766 10.5 18.0906C10.5 18.1046 10.5 18.1187 10.5 18.1328C10.5 18.1469 10.5 18.161 10.5 18.1752C10.5 18.1893 10.5 18.2035 10.5 18.2178C10.5 18.232 10.5 18.2463 10.5 18.2605C10.5 18.2748 10.5 18.2892 10.5 18.3035C10.5 18.3179 10.5 18.3323 10.5 18.3467C10.5 18.3611 10.5 18.3756 10.5 18.3901C10.5 18.4046 10.5 18.4191 10.5 18.4336C10.5 18.4482 10.5 18.4628 10.5 18.4774C10.5 18.492 10.5 18.5067 10.5 18.5214C10.5 18.5361 10.5 18.5508 10.5 18.5655C10.5 18.5803 10.5 18.5951 10.5 18.6099C10.5 18.6247 10.5 18.6396 10.5 18.6545C10.5 18.6693 10.5 18.6843 10.5 18.6992C10.5 18.7142 10.5 18.7292 10.5 18.7442C10.5 18.7592 10.5 18.7743 10.5 18.7893C10.5 18.8044 10.5 18.8195 10.5 18.8347C10.5 18.8499 10.5 18.865 10.5 18.8803C10.5 18.8955 10.5 18.9107 10.5 18.926C10.5 18.9413 10.5 18.9566 10.5 18.972C10.5 18.9874 10.5 19.0028 10.5 19.0182C10.5 19.0336 10.5 19.0491 10.5 19.0646C10.5 19.08 10.5 19.0956 10.5 19.1111C10.5 19.1267 10.5 19.1423 10.5 19.1579C10.5 19.1735 10.5 19.1892 10.5 19.2049C10.5 19.2206 10.5 19.2363 10.5 19.2521C10.5 19.2679 10.5 19.2837 10.5 19.2995C10.5 19.3153 10.5 19.3312 10.5 19.3471C10.5 19.363 10.5 19.3789 10.5 19.3949C10.5 19.4109 10.5 19.4269 10.5 19.4429C10.5 19.459 10.5 19.475 10.5 19.4912C10.5 19.5073 10.5 19.5234 10.5 19.5396C10.5 19.5558 10.5 19.572 10.5 19.5882C10.5 19.6045 10.5 19.6208 10.5 19.6371C10.5 19.6534 10.5 19.6698 10.5 19.6861C10.5 19.7025 10.5 19.719 10.5 19.7354C10.5 19.7519 10.5 19.7684 10.5 19.7849C10.5 19.8014 10.5 19.818 10.5 19.8346C10.5 19.8512 10.5 19.8678 10.5 19.8845C10.5 19.9012 10.5 19.9179 10.5 19.9346C10.5 19.9513 10.5 19.9681 10.5 19.9849C10.5 20.0017 10.5 20.0186 10.5 20.0355C10.5 20.0523 10.5 20.0693 10.5 20.0862C10.5 20.1032 10.5 20.1202 10.5 20.1372C10.5 20.1542 10.5 20.1713 10.5 20.1884C10.5 20.2055 10.5 20.2226 10.5 20.2397C10.5 20.2569 10.5 20.2741 10.5 20.2914C10.5 20.3086 10.5 20.3259 10.5 20.3432C10.5 20.3605 10.5 20.3778 10.5 20.3952C10.5 20.4126 10.5 20.43 10.5 20.4475C10.5 20.4649 10.5 20.4824 10.5 20.4999C10.5 20.5175 10.5 20.535 10.5 20.5526C10.5 20.5702 10.5 20.5878 10.5 20.6055C10.5 20.6232 10.5 20.6409 10.5 20.6586C10.5 20.6764 10.5 20.6942 10.5 20.712C10.5 20.7298 10.5 20.7476 10.5 20.7655C10.5 20.7834 10.5 20.8013 10.5 20.8193C10.5 20.8373 10.5 20.8553 10.5 20.8733C10.5 20.8913 10.5 20.9094 10.5 20.9275C10.5 20.9456 10.5 20.9638 10.5 20.982C10.5 21.0001 10.5 21.0184 10.5 21.0366C10.5 21.0549 10.5 21.0732 10.5 21.0915C10.5 21.1098 10.5 21.1282 10.5 21.1466C10.5 21.165 10.5 21.1834 10.5 21.2019C10.5 21.2204 10.5 21.2389 10.5 21.2575C10.5 21.276 10.5 21.2946 10.5 21.3132C10.5 21.3319 10.5 21.3505 10.5 21.3692C10.5 21.3879 10.5 21.4067 10.5 21.4254C10.5 21.4442 10.5 21.463 10.5 21.4819C10.5 21.5007 10.5 21.5196 10.5 21.5385C10.5 21.5575 10.5 21.5764 10.5 21.5954C10.5 21.6144 10.5 21.6335 10.5 21.6525C10.5 21.6716 10.5 21.6907 10.5 21.7099C10.5 21.729 10.5 21.7482 10.5 21.7675C10.5 21.7867 10.5 21.8059 10.5 21.8252C10.5 21.8445 10.5 21.8639 10.5 21.8833C10.5 21.9026 10.5 21.9221 10.5 21.9415C10.5 21.961 10.5 21.9805 10.5 22H13.5C13.5 21.9805 13.5 21.961 13.5 21.9415C13.5 21.9221 13.5 21.9026 13.5 21.8833C13.5 21.8639 13.5 21.8445 13.5 21.8252C13.5 21.8059 13.5 21.7867 13.5 21.7675C13.5 21.7482 13.5 21.729 13.5 21.7099C13.5 21.6907 13.5 21.6716 13.5 21.6525C13.5 21.6335 13.5 21.6144 13.5 21.5954C13.5 21.5764 13.5 21.5575 13.5 21.5385C13.5 21.5196 13.5 21.5007 13.5 21.4819C13.5 21.463 13.5 21.4442 13.5 21.4254C13.5 21.4067 13.5 21.3879 13.5 21.3692C13.5 21.3505 13.5 21.3319 13.5 21.3132C13.5 21.2946 13.5 21.276 13.5 21.2575C13.5 21.2389 13.5 21.2204 13.5 21.2019C13.5 21.1834 13.5 21.165 13.5 21.1466C13.5 21.1282 13.5 21.1098 13.5 21.0915C13.5 21.0732 13.5 21.0549 13.5 21.0366C13.5 21.0184 13.5 21.0001 13.5 20.982C13.5 20.9638 13.5 20.9456 13.5 20.9275C13.5 20.9094 13.5 20.8913 13.5 20.8733C13.5 20.8553 13.5 20.8373 13.5 20.8193C13.5 20.8013 13.5 20.7834 13.5 20.7655C13.5 20.7476 13.5 20.7298 13.5 20.712C13.5 20.6942 13.5 20.6764 13.5 20.6586C13.5 20.6409 13.5 20.6232 13.5 20.6055C13.5 20.5878 13.5 20.5702 13.5 20.5526C13.5 20.535 13.5 20.5175 13.5 20.4999C13.5 20.4824 13.5 20.4649 13.5 20.4475C13.5 20.43 13.5 20.4126 13.5 20.3952C13.5 20.3778 13.5 20.3605 13.5 20.3432C13.5 20.3259 13.5 20.3086 13.5 20.2914C13.5 20.2741 13.5 20.2569 13.5 20.2397C13.5 20.2226 13.5 20.2055 13.5 20.1884C13.5 20.1713 13.5 20.1542 13.5 20.1372C13.5 20.1202 13.5 20.1032 13.5 20.0862C13.5 20.0693 13.5 20.0523 13.5 20.0355C13.5 20.0186 13.5 20.0017 13.5 19.9849C13.5 19.9681 13.5 19.9513 13.5 19.9346C13.5 19.9179 13.5 19.9012 13.5 19.8845C13.5 19.8678 13.5 19.8512 13.5 19.8346C13.5 19.818 13.5 19.8014 13.5 19.7849C13.5 19.7684 13.5 19.7519 13.5 19.7354C13.5 19.719 13.5 19.7025 13.5 19.6861C13.5 19.6698 13.5 19.6534 13.5 19.6371C13.5 19.6208 13.5 19.6045 13.5 19.5882C13.5 19.572 13.5 19.5558 13.5 19.5396C13.5 19.5234 13.5 19.5073 13.5 19.4912C13.5 19.475 13.5 19.459 13.5 19.4429C13.5 19.4269 13.5 19.4109 13.5 19.3949C13.5 19.3789 13.5 19.363 13.5 19.3471C13.5 19.3312 13.5 19.3153 13.5 19.2995C13.5 19.2837 13.5 19.2679 13.5 19.2521C13.5 19.2363 13.5 19.2206 13.5 19.2049C13.5 19.1892 13.5 19.1735 13.5 19.1579C13.5 19.1423 13.5 19.1267 13.5 19.1111C13.5 19.0956 13.5 19.08 13.5 19.0646C13.5 19.0491 13.5 19.0336 13.5 19.0182C13.5 19.0028 13.5 18.9874 13.5 18.972C13.5 18.9566 13.5 18.9413 13.5 18.926C13.5 18.9107 13.5 18.8955 13.5 18.8803C13.5 18.865 13.5 18.8499 13.5 18.8347C13.5 18.8195 13.5 18.8044 13.5 18.7893C13.5 18.7743 13.5 18.7592 13.5 18.7442C13.5 18.7292 13.5 18.7142 13.5 18.6992C13.5 18.6843 13.5 18.6693 13.5 18.6545C13.5 18.6396 13.5 18.6247 13.5 18.6099C13.5 18.5951 13.5 18.5803 13.5 18.5655C13.5 18.5508 13.5 18.5361 13.5 18.5214C13.5 18.5067 13.5 18.492 13.5 18.4774C13.5 18.4628 13.5 18.4482 13.5 18.4336C13.5 18.4191 13.5 18.4046 13.5 18.3901C13.5 18.3756 13.5 18.3611 13.5 18.3467C13.5 18.3323 13.5 18.3179 13.5 18.3035C13.5 18.2892 13.5 18.2748 13.5 18.2605C13.5 18.2463 13.5 18.232 13.5 18.2178C13.5 18.2035 13.5 18.1893 13.5 18.1752C13.5 18.161 13.5 18.1469 13.5 18.1328C13.5 18.1187 13.5 18.1046 13.5 18.0906C13.5 18.0766 13.5 18.0626 13.5 18.0486C13.5 18.0346 13.5 18.0207 13.5 18.0068C13.5 17.9929 13.5 17.979 13.5 17.9652C13.5 17.9513 13.5 17.9375 13.5 17.9237C13.5 17.91 13.5 17.8962 13.5 17.8825C13.5 17.8688 13.5 17.8551 13.5 17.8415C13.5 17.8278 13.5 17.8142 13.5 17.8006C13.5 17.787 13.5 17.7735 13.5 17.76C13.5 17.7464 13.5 17.7329 13.5 17.7195C13.5 17.706 13.5 17.6926 13.5 17.6792C13.5 17.6658 13.5 17.6524 13.5 17.6391C13.5 17.6258 13.5 17.6125 13.5 17.5992C13.5 17.586 13.5 17.5727 13.5 17.5595C13.5 17.5463 13.5 17.5331 13.5 17.52C13.5 17.5068 13.5 17.4937 13.5 17.4807C13.5 17.4676 13.5 17.4545 13.5 17.4415C13.5 17.4285 13.5 17.4155 13.5 17.4025C13.5 17.3896 13.5 17.3767 13.5 17.3638C13.5 17.3509 13.5 17.338 13.5 17.3252C13.5 17.3123 13.5 17.2995 13.5 17.2868C13.5 17.274 13.5 17.2613 13.5 17.2486C13.5 17.2359 13.5 17.2232 13.5 17.2105C13.5 17.1979 13.5 17.1853 13.5 17.1727C13.5 17.1601 13.5 17.1475 13.5 17.135C13.5 17.1225 13.5 17.11 13.5 17.0975C13.5 17.0851 13.5 17.0726 13.5 17.0602C13.5 17.0478 13.5 17.0355 13.5 17.0231C13.5 17.0108 13.5 16.9985 13.5 16.9862C13.5 16.9739 13.5 16.9617 13.5 16.9494C13.5 16.9372 13.5 16.925 13.5 16.9129C13.5 16.9007 13.5 16.8886 13.5 16.8765C13.5 16.8644 13.5 16.8523 13.5 16.8403C13.5 16.8282 13.5 16.8162 13.5 16.8042C13.5 16.7922 13.5 16.7803 13.5 16.7684C13.5 16.7565 13.5 16.7446 13.5 16.7327C13.5 16.7208 13.5 16.709 13.5 16.6972C13.5 16.6854 13.5 16.6736 13.5 16.6619C13.5 16.6501 13.5 16.6384 13.5 16.6267C13.5 16.6151 13.5 16.6034 13.5 16.5918C13.5 16.5802 13.5 16.5686 13.5 16.557C13.5 16.5454 13.5 16.5339 13.5 16.5224C13.5 16.5109 13.5 16.4994 13.5 16.488C13.5 16.4765 13.5 16.4651 13.5 16.4537C13.5 16.4423 13.5 16.4309 13.5 16.4196C13.5 16.4083 13.5 16.397 13.5 16.3857C13.5 16.3744 13.5 16.3632 13.5 16.352C13.5 16.3407 13.5 16.3296 13.5 16.3184C13.5 16.3072 13.5 16.2961 13.5 16.285C13.5 16.2739 13.5 16.2628 13.5 16.2518C13.5 16.2408 13.5 16.2297 13.5 16.2188C13.5 16.2078 13.5 16.1968 13.5 16.1859C13.5 16.1749 13.5 16.164 13.5 16.1532C13.5 16.1423 13.5 16.1315 13.5 16.1206C13.5 16.1098 13.5 16.099 13.5 16.0883C13.5 16.0775 13.5 16.0668 13.5 16.0561C13.5 16.0454 13.5 16.0347 13.5 16.0241C13.5 16.0134 13.5 16.0028 13.5 15.9922C13.5 15.9816 13.5 15.9711 13.5 15.9605C13.5 15.95 13.5 15.9395 13.5 15.929C13.5 15.9185 13.5 15.9081 13.5 15.8977C13.5 15.8872 13.5 15.8769 13.5 15.8665C13.5 15.8561 13.5 15.8458 13.5 15.8355C13.5 15.8252 13.5 15.8149 13.5 15.8046C13.5 15.7944 13.5 15.7841 13.5 15.7739C13.5 15.7637 13.5 15.7536 13.5 15.7434C13.5 15.7333 13.5 15.7232 13.5 15.7131C13.5 15.703 13.5 15.6929 13.5 15.6829C13.5 15.6729 13.5 15.6628 13.5 15.6529C13.5 15.6429 13.5 15.6329 13.5 15.623C13.5 15.6131 13.5 15.6032 13.5 15.5933C13.5 15.5834 13.5 15.5736 13.5 15.5638C13.5 15.554 13.5 15.5442 13.5 15.5344C13.5 15.5246 13.5 15.5149 13.5 15.5052C13.5 15.4955 13.5 15.4858 13.5 15.4761C13.5 15.4665 13.5 15.4569 13.5 15.4473C13.5 15.4377 13.5 15.4281 13.5 15.4185C13.5 15.409 13.5 15.3995 13.5 15.39C13.5 15.3805 13.5 15.371 13.5 15.3616C13.5 15.3521 13.5 15.3427 13.5 15.3333C13.5 15.3239 13.5 15.3146 13.5 15.3052C13.5 15.2959 13.5 15.2866 13.5 15.2773C13.5 15.268 13.5 15.2587 13.5 15.2495C13.5 15.2403 13.5 15.2311 13.5 15.2219C13.5 15.2127 13.5 15.2036 13.5 15.1944C13.5 15.1853 13.5 15.1762 13.5 15.1671C13.5 15.1581 13.5 15.149 13.5 15.14C13.5 15.131 13.5 15.122 13.5 15.113C13.5 15.104 13.5 15.0951 13.5 15.0862C13.5 15.0772 13.5 15.0683 13.5 15.0595C13.5 15.0506 13.5 15.0418 13.5 15.033C13.5 15.0241 13.5 15.0153 13.5 15.0066C13.5 14.9978 13.5 14.9891 13.5 14.9804C13.5 14.9716 13.5 14.963 13.5 14.9543C13.5 14.9456 13.5 14.937 13.5 14.9284C13.5 14.9198 13.5 14.9112 13.5 14.9026C13.5 14.8941 13.5 14.8855 13.5 14.877C13.5 14.8685 13.5 14.86 13.5 14.8515C13.5 14.8431 13.5 14.8346 13.5 14.8262C13.5 14.8178 13.5 14.8094 13.5 14.8011C13.5 14.7927 13.5 14.7844 13.5 14.7761C13.5 14.7678 13.5 14.7595 13.5 14.7512C13.5 14.7429 13.5 14.7347 13.5 14.7265C13.5 14.7183 13.5 14.7101 13.5 14.7019C13.5 14.6938 13.5 14.6856 13.5 14.6775C13.5 14.6694 13.5 14.6613 13.5 14.6532C13.5 14.6452 13.5 14.6371 13.5 14.6291C13.5 14.6211 13.5 14.6131 13.5 14.6052C13.5 14.5972 13.5 14.5892 13.5 14.5813C13.5 14.5734 13.5 14.5655 13.5 14.5576C13.5 14.5498 13.5 14.5419 13.5 14.5341C13.5 14.5263 13.5 14.5185 13.5 14.5107C13.5 14.5029 13.5 14.4952 13.5 14.4875C13.5 14.4797 13.5 14.472 13.5 14.4644C13.5 14.4567 13.5 14.449 13.5 14.4414C13.5 14.4338 13.5 14.4262 13.5 14.4186C13.5 14.411 13.5 14.4035 13.5 14.3959C13.5 14.3884 13.5 14.3809 13.5 14.3734C13.5 14.3659 13.5 14.3584 13.5 14.351C13.5 14.3436 13.5 14.3361 13.5 14.3287C13.5 14.3214 13.5 14.314 13.5 14.3066C13.5 14.2993 13.5 14.292 13.5 14.2847C13.5 14.2774 13.5 14.2701 13.5 14.2628C13.5 14.2556 13.5 14.2484 13.5 14.2412C13.5 14.2339 13.5 14.2268 13.5 14.2196C13.5 14.2124 13.5 14.2053 13.5 14.1982C13.5 14.1911 13.5 14.184 13.5 14.1769C13.5 14.1699 13.5 14.1628 13.5 14.1558C13.5 14.1488 13.5 14.1418 13.5 14.1348C13.5 14.1278 13.5 14.1209 13.5 14.1139C13.5 14.107 13.5 14.1001 13.5 14.0932C13.5 14.0863 13.5 14.0795 13.5 14.0726C13.5 14.0658 13.5 14.059 13.5 14.0522C13.5 14.0454 13.5 14.0386 13.5 14.0318C13.5 14.0251 13.5 14.0184 13.5 14.0117C13.5 14.005 13.5 13.9983 13.5 13.9916C13.5 13.9849 13.5 13.9783 13.5 13.9717C13.5 13.9651 13.5 13.9585 13.5 13.9519C13.5 13.9453 13.5 13.9388 13.5 13.9323C13.5 13.9257 13.5 13.9192 13.5 13.9127C13.5 13.9063 13.5 13.8998 13.5 13.8934C13.5 13.8869 13.5 13.8805 13.5 13.8741C13.5 13.8677 13.5 13.8613 13.5 13.855C13.5 13.8486 13.5 13.8423 13.5 13.836C13.5 13.8297 13.5 13.8234 13.5 13.8171C13.5 13.8109 13.5 13.8046 13.5 13.7984C13.5 13.7922 13.5 13.786 13.5 13.7798C13.5 13.7736 13.5 13.7674 13.5 13.7613C13.5 13.7552 13.5 13.7491 13.5 13.743C13.5 13.7369 13.5 13.7308 13.5 13.7247C13.5 13.7187 13.5 13.7127 13.5 13.7067C13.5 13.7006 13.5 13.6947 13.5 13.6887C13.5 13.6827 13.5 13.6768 13.5 13.6708C13.5 13.6649 13.5 13.659 13.5 13.6531C13.5 13.6473 13.5 13.6414 13.5 13.6356C13.5 13.6297 13.5 13.6239 13.5 13.6181C13.5 13.6123 13.5 13.6065 13.5 13.6008C13.5 13.595 13.5 13.5893 13.5 13.5835C13.5 13.5778 13.5 13.5721 13.5 13.5665C13.5 13.5608 13.5 13.5551 13.5 13.5495C13.5 13.5439 13.5 13.5382 13.5 13.5326C13.5 13.5271 13.5 13.5215 13.5 13.5159C13.5 13.5104 13.5 13.5048 13.5 13.4993C13.5 13.4938 13.5 13.4883 13.5 13.4829C13.5 13.4774 13.5 13.4719 13.5 13.4665C13.5 13.4611 13.5 13.4557 13.5 13.4503C13.5 13.4449 13.5 13.4395 13.5 13.4341C13.5 13.4288 13.5 13.4235 13.5 13.4182C13.5 13.4128 13.5 13.4076 13.5 13.4023C13.5 13.397 13.5 13.3918 13.5 13.3865C13.5 13.3813 13.5 13.3761 13.5 13.3709C13.5 13.3657 13.5 13.3605 13.5 13.3554C13.5 13.3502 13.5 13.3451 13.5 13.34C13.5 13.3349 13.5 13.3298 13.5 13.3247C13.5 13.3196 13.5 13.3146 13.5 13.3095C13.5 13.3045 13.5 13.2995 13.5 13.2945C13.5 13.2895 13.5 13.2845 13.5 13.2795C13.5 13.2746 13.5 13.2696 13.5 13.2647C13.5 13.2598 13.5 13.2549 13.5 13.25C13.5 13.2451 13.5 13.2403 13.5 13.2354C13.5 13.2306 13.5 13.2257 13.5 13.2209C13.5 13.2161 13.5 13.2113 13.5 13.2066C13.5 13.2018 13.5 13.197 13.5 13.1923C13.5 13.1876 13.5 13.1829 13.5 13.1782C13.5 13.1735 13.5 13.1688 13.5 13.1642C13.5 13.1595 13.5 13.1549 13.5 13.1502C13.5 13.1456 13.5 13.141 13.5 13.1364C13.5 13.1319 13.5 13.1273 13.5 13.1227C13.5 13.1182 13.5 13.1137 13.5 13.1092C13.5 13.1047 13.5 13.1002 13.5 13.0957C13.5 13.0912 13.5 13.0868 13.5 13.0823C13.5 13.0779 13.5 13.0735 13.5 13.0691C13.5 13.0647 13.5 13.0603 13.5 13.0559C13.5 13.0516 13.5 13.0472 13.5 13.0429C13.5 13.0386 13.5 13.0343 13.5 13.03C13.5 13.0257 13.5 13.0214 13.5 13.0171C13.5 13.0129 13.5 13.0087 13.5 13.0044C13.5 13.0002 13.5 12.996 13.5 12.9918C13.5 12.9876 13.5 12.9835 13.5 12.9793C13.5 12.9752 13.5 12.971 13.5 12.9669C13.5 12.9628 13.5 12.9587 13.5 12.9546C13.5 12.9506 13.5 12.9465 13.5 12.9424C13.5 12.9384 13.5 12.9344 13.5 12.9304C13.5 12.9264 13.5 12.9224 13.5 12.9184C13.5 12.9144 13.5 12.9105 13.5 12.9065C13.5 12.9026 13.5 12.8986 13.5 12.8947C13.5 12.8908 13.5 12.8869 13.5 12.8831C13.5 12.8792 13.5 12.8753 13.5 12.8715C13.5 12.8677 13.5 12.8638 13.5 12.86C13.5 12.8562 13.5 12.8524 13.5 12.8487C13.5 12.8449 13.5 12.8411 13.5 12.8374C13.5 12.8337 13.5 12.8299 13.5 12.8262C13.5 12.8225 13.5 12.8188 13.5 12.8152C13.5 12.8115 13.5 12.8078 13.5 12.8042C13.5 12.8006 13.5 12.7969 13.5 12.7933C13.5 12.7897 13.5 12.7861 13.5 12.7826C13.5 12.779 13.5 12.7754 13.5 12.7719C13.5 12.7684 13.5 12.7648 13.5 12.7613C13.5 12.7578 13.5 12.7543 13.5 12.7508C13.5 12.7474 13.5 12.7439 13.5 12.7405C13.5 12.737 13.5 12.7336 13.5 12.7302C13.5 12.7268 13.5 12.7234 13.5 12.72C13.5 12.7166 13.5 12.7132 13.5 12.7099C13.5 12.7066 13.5 12.7032 13.5 12.6999C13.5 12.6966 13.5 12.6933 13.5 12.69C13.5 12.6867 13.5 12.6834 13.5 12.6802C13.5 12.6769 13.5 12.6737 13.5 12.6705C13.5 12.6672 13.5 12.664 13.5 12.6608C13.5 12.6577 13.5 12.6545 13.5 12.6513C13.5 12.6482 13.5 12.645 13.5 12.6419C13.5 12.6387 13.5 12.6356 13.5 12.6325C13.5 12.6294 13.5 12.6263 13.5 12.6233C13.5 12.6202 13.5 12.6171 13.5 12.6141C13.5 12.6111 13.5 12.608 13.5 12.605C13.5 12.602 13.5 12.599 13.5 12.596C13.5 12.5931 13.5 12.5901 13.5 12.5872C13.5 12.5842 13.5 12.5813 13.5 12.5783C13.5 12.5754 13.5 12.5725 13.5 12.5696C13.5 12.5667 13.5 12.5639 13.5 12.561C13.5 12.5581 13.5 12.5553 13.5 12.5525C13.5 12.5496 13.5 12.5468 13.5 12.544C13.5 12.5412 13.5 12.5384 13.5 12.5356C13.5 12.5329 13.5 12.5301 13.5 12.5273C13.5 12.5246 13.5 12.5219 13.5 12.5191C13.5 12.5164 13.5 12.5137 13.5 12.511C13.5 12.5083 13.5 12.5057 13.5 12.503C13.5 12.5003 13.5 12.4977 13.5 12.4951C13.5 12.4924 13.5 12.4898 13.5 12.4872C13.5 12.4846 13.5 12.482 13.5 12.4794C13.5 12.4769 13.5 12.4743 13.5 12.4717C13.5 12.4692 13.5 12.4667 13.5 12.4641C13.5 12.4616 13.5 12.4591 13.5 12.4566C13.5 12.4541 13.5 12.4516 13.5 12.4492C13.5 12.4467 13.5 12.4442 13.5 12.4418C13.5 12.4394 13.5 12.4369 13.5 12.4345C13.5 12.4321 13.5 12.4297 13.5 12.4273C13.5 12.4249 13.5 12.4226 13.5 12.4202C13.5 12.4178 13.5 12.4155 13.5 12.4132C13.5 12.4108 13.5 12.4085 13.5 12.4062C13.5 12.4039 13.5 12.4016 13.5 12.3993C13.5 12.397 13.5 12.3948 13.5 12.3925C13.5 12.3902 13.5 12.388 13.5 12.3858C13.5 12.3835 13.5 12.3813 13.5 12.3791C13.5 12.3769 13.5 12.3747 13.5 12.3725C13.5 12.3704 13.5 12.3682 13.5 12.366C13.5 12.3639 13.5 12.3618 13.5 12.3596C13.5 12.3575 13.5 12.3554 13.5 12.3533C13.5 12.3512 13.5 12.3491 13.5 12.347C13.5 12.3449 13.5 12.3429 13.5 12.3408C13.5 12.3388 13.5 12.3367 13.5 12.3347C13.5 12.3327 13.5 12.3306 13.5 12.3286C13.5 12.3266 13.5 12.3246 13.5 12.3227C13.5 12.3207 13.5 12.3187 13.5 12.3168C13.5 12.3148 13.5 12.3129 13.5 12.3109C13.5 12.309 13.5 12.3071 13.5 12.3052C13.5 12.3033 13.5 12.3014 13.5 12.2995C13.5 12.2976 13.5 12.2957 13.5 12.2939C13.5 12.292 13.5 12.2902 13.5 12.2883C13.5 12.2865 13.5 12.2847 13.5 12.2829C13.5 12.281 13.5 12.2792 13.5 12.2775C13.5 12.2757 13.5 12.2739 13.5 12.2721C13.5 12.2703 13.5 12.2686 13.5 12.2668C13.5 12.2651 13.5 12.2634 13.5 12.2617C13.5 12.2599 13.5 12.2582 13.5 12.2565C13.5 12.2548 13.5 12.2531 13.5 12.2515C13.5 12.2498 13.5 12.2481 13.5 12.2465C13.5 12.2448 13.5 12.2432 13.5 12.2415C13.5 12.2399 13.5 12.2383 13.5 12.2367C13.5 12.2351 13.5 12.2335 13.5 12.2319C13.5 12.2303 13.5 12.2287 13.5 12.2271C13.5 12.2256 13.5 12.224 13.5 12.2225C13.5 12.2209 13.5 12.2194 13.5 12.2179C13.5 12.2163 13.5 12.2148 13.5 12.2133C13.5 12.2118 13.5 12.2103 13.5 12.2089C13.5 12.2074 13.5 12.2059 13.5 12.2044C13.5 12.203 13.5 12.2015 13.5 12.2001C13.5 12.1987 13.5 12.1972 13.5 12.1958C13.5 12.1944 13.5 12.193 13.5 12.1916C13.5 12.1902 13.5 12.1888 13.5 12.1874C13.5 12.186 13.5 12.1847 13.5 12.1833C13.5 12.182 13.5 12.1806 13.5 12.1793C13.5 12.1779 13.5 12.1766 13.5 12.1753C13.5 12.174 13.5 12.1727 13.5 12.1714C13.5 12.1701 13.5 12.1688 13.5 12.1675C13.5 12.1662 13.5 12.1649 13.5 12.1637C13.5 12.1624 13.5 12.1612 13.5 12.1599C13.5 12.1587 13.5 12.1575 13.5 12.1562C13.5 12.155 13.5 12.1538 13.5 12.1526C13.5 12.1514 13.5 12.1502 13.5 12.149C13.5 12.1479 13.5 12.1467 13.5 12.1455C13.5 12.1444 13.5 12.1432 13.5 12.1421C13.5 12.1409 13.5 12.1398 13.5 12.1386C13.5 12.1375 13.5 12.1364 13.5 12.1353C13.5 12.1342 13.5 12.1331 13.5 12.132C13.5 12.1309 13.5 12.1298 13.5 12.1287C13.5 12.1277 13.5 12.1266 13.5 12.1256C13.5 12.1245 13.5 12.1235 13.5 12.1224C13.5 12.1214 13.5 12.1203 13.5 12.1193C13.5 12.1183 13.5 12.1173 13.5 12.1163C13.5 12.1153 13.5 12.1143 13.5 12.1133C13.5 12.1123 13.5 12.1114 13.5 12.1104C13.5 12.1094 13.5 12.1085 13.5 12.1075C13.5 12.1066 13.5 12.1056 13.5 12.1047C13.5 12.1037 13.5 12.1028 13.5 12.1019C13.5 12.101 13.5 12.1001 13.5 12.0992C13.5 12.0983 13.5 12.0974 13.5 12.0965C13.5 12.0956 13.5 12.0947 13.5 12.0939C13.5 12.093 13.5 12.0921 13.5 12.0913C13.5 12.0904 13.5 12.0896 13.5 12.0887C13.5 12.0879 13.5 12.0871 13.5 12.0862C13.5 12.0854 13.5 12.0846 13.5 12.0838C13.5 12.083 13.5 12.0822 13.5 12.0814C13.5 12.0806 13.5 12.0798 13.5 12.0791C13.5 12.0783 13.5 12.0775 13.5 12.0768C13.5 12.076 13.5 12.0753 13.5 12.0745C13.5 12.0738 13.5 12.073 13.5 12.0723C13.5 12.0716 13.5 12.0708 13.5 12.0701C13.5 12.0694 13.5 12.0687 13.5 12.068C13.5 12.0673 13.5 12.0666 13.5 12.0659C13.5 12.0652 13.5 12.0646 13.5 12.0639C13.5 12.0632 13.5 12.0625 13.5 12.0619C13.5 12.0612 13.5 12.0606 13.5 12.0599C13.5 12.0593 13.5 12.0586 13.5 12.058C13.5 12.0574 13.5 12.0568 13.5 12.0561C13.5 12.0555 13.5 12.0549 13.5 12.0543C13.5 12.0537 13.5 12.0531 13.5 12.0525C13.5 12.0519 13.5 12.0514 13.5 12.0508C13.5 12.0502 13.5 12.0496 13.5 12.0491C13.5 12.0485 13.5 12.0479 13.5 12.0474C13.5 12.0468 13.5 12.0463 13.5 12.0458C13.5 12.0452 13.5 12.0447 13.5 12.0442C13.5 12.0436 13.5 12.0431 13.5 12.0426C13.5 12.0421 13.5 12.0416 13.5 12.0411C13.5 12.0406 13.5 12.0401 13.5 12.0396C13.5 12.0391 13.5 12.0386 13.5 12.0381C13.5 12.0377 13.5 12.0372 13.5 12.0367C13.5 12.0363 13.5 12.0358 13.5 12.0354C13.5 12.0349 13.5 12.0345 13.5 12.034C13.5 12.0336 13.5 12.0331 13.5 12.0327C13.5 12.0323 13.5 12.0319 13.5 12.0314C13.5 12.031 13.5 12.0306 13.5 12.0302C13.5 12.0298 13.5 12.0294 13.5 12.029C13.5 12.0286 13.5 12.0282 13.5 12.0278C13.5 12.0274 13.5 12.027 13.5 12.0267C13.5 12.0263 13.5 12.0259 13.5 12.0256C13.5 12.0252 13.5 12.0248 13.5 12.0245C13.5 12.0241 13.5 12.0238 13.5 12.0234C13.5 12.0231 13.5 12.0227 13.5 12.0224C13.5 12.0221 13.5 12.0217 13.5 12.0214C13.5 12.0211 13.5 12.0208 13.5 12.0205C13.5 12.0201 13.5 12.0198 13.5 12.0195C13.5 12.0192 13.5 12.0189 13.5 12.0186C13.5 12.0183 13.5 12.018 13.5 12.0178C13.5 12.0175 13.5 12.0172 13.5 12.0169C13.5 12.0166 13.5 12.0164 13.5 12.0161C13.5 12.0158 13.5 12.0156 13.5 12.0153C13.5 12.015 13.5 12.0148 13.5 12.0145C13.5 12.0143 13.5 12.014 13.5 12.0138C13.5 12.0136 13.5 12.0133 13.5 12.0131C13.5 12.0129 13.5 12.0126 13.5 12.0124C13.5 12.0122 13.5 12.0119 13.5 12.0117C13.5 12.0115 13.5 12.0113 13.5 12.0111C13.5 12.0109 13.5 12.0107 13.5 12.0105C13.5 12.0103 13.5 12.0101 13.5 12.0099C13.5 12.0097 13.5 12.0095 13.5 12.0093C13.5 12.0091 13.5 12.0089 13.5 12.0088C13.5 12.0086 13.5 12.0084 13.5 12.0082C13.5 12.0081 13.5 12.0079 13.5 12.0077C13.5 12.0076 13.5 12.0074 13.5 12.0073C13.5 12.0071 13.5 12.0069 13.5 12.0068C13.5 12.0066 13.5 12.0065 13.5 12.0063C13.5 12.0062 13.5 12.0061 13.5 12.0059C13.5 12.0058 13.5 12.0057 13.5 12.0055C13.5 12.0054 13.5 12.0053 13.5 12.0051C13.5 12.005 13.5 12.0049 13.5 12.0048C13.5 12.0046 13.5 12.0045 13.5 12.0044C13.5 12.0043 13.5 12.0042 13.5 12.0041C13.5 12.004 13.5 12.0039 13.5 12.0038C13.5 12.0037 13.5 12.0036 13.5 12.0035C13.5 12.0034 13.5 12.0033 13.5 12.0032C13.5 12.0031 13.5 12.003 13.5 12.0029C13.5 12.0028 13.5 12.0028 13.5 12.0027C13.5 12.0026 13.5 12.0025 13.5 12.0024C13.5 12.0024 13.5 12.0023 13.5 12.0022C13.5 12.0021 13.5 12.0021 13.5 12.002C13.5 12.0019 13.5 12.0019 13.5 12.0018C13.5 12.0018 13.5 12.0017 13.5 12.0016C13.5 12.0016 13.5 12.0015 13.5 12.0015C13.5 12.0014 13.5 12.0014 13.5 12.0013C13.5 12.0013 13.5 12.0012 13.5 12.0012C13.5 12.0011 13.5 12.0011 13.5 12.001C13.5 12.001 13.5 12.0009 13.5 12.0009C13.5 12.0009 13.5 12.0008 13.5 12.0008C13.5 12.0008 13.5 12.0007 13.5 12.0007C13.5 12.0007 13.5 12.0006 13.5 12.0006C13.5 12.0006 13.5 12.0005 13.5 12.0005C13.5 12.0005 13.5 12.0005 13.5 12.0004C13.5 12.0004 13.5 12.0004 13.5 12.0004C13.5 12.0003 13.5 12.0003 13.5 12.0003C13.5 12.0003 13.5 12.0003 13.5 12.0003C13.5 12.0002 13.5 12.0002 13.5 12.0002C13.5 12.0002 13.5 12.0002 13.5 12.0002C13.5 12.0002 13.5 12.0001 13.5 12.0001C13.5 12.0001 13.5 12.0001 13.5 12.0001C13.5 12.0001 13.5 12.0001 13.5 12.0001C13.5 12.0001 13.5 12.0001 13.5 12.0001C13.5 12 13.5 12 13.5 12C13.5 12 13.5 12 13.5 12C13.5 12 13.5 12 13.5 12C13.5 12 13.5 12 13.5 12C13.5 12 13.5 12 13.5 12C13.5 12 13.5 12 13.5 12C13.5 12 13.5 12 13.5 12C13.5 12 13.5 12 13.5 12H12ZM13.5 12V2H10.5V12H13.5Z" fill="white"/>
</svg>