<svg width="31" height="28" viewBox="0 0 31 28" fill="none" xmlns="http://www.w3.org/2000/svg">
<g opacity="0.5">
<path d="M4.49823 8.4713C5.39335 8.4713 6.10718 7.75748 6.10718 6.86236C6.10718 5.97858 5.39335 5.25342 4.49823 5.25342C3.61445 5.25342 2.88929 5.97858 2.88929 6.86236C2.88929 7.75748 3.61445 8.4713 4.49823 8.4713ZM9.8236 7.9501H25.2105C25.8224 7.9501 26.3096 7.47421 26.3096 6.86236C26.3096 6.25051 25.8337 5.77463 25.2105 5.77463H9.8236C9.22308 5.77463 8.73587 6.25051 8.73587 6.86236C8.73587 7.47421 9.21175 7.9501 9.8236 7.9501ZM4.49823 15.4396C5.39335 15.4396 6.10718 14.7258 6.10718 13.8307C6.10718 12.9469 5.39335 12.2217 4.49823 12.2217C3.61445 12.2217 2.88929 12.9469 2.88929 13.8307C2.88929 14.7258 3.61445 15.4396 4.49823 15.4396ZM9.8236 14.9184H25.2105C25.8224 14.9184 26.3096 14.4425 26.3096 13.8307C26.3096 13.2188 25.8337 12.7429 25.2105 12.7429H9.8236C9.22308 12.7429 8.73587 13.2188 8.73587 13.8307C8.73587 14.4425 9.21175 14.9184 9.8236 14.9184ZM4.49823 22.4079C5.39335 22.4079 6.10718 21.6941 6.10718 20.799C6.10718 19.9152 5.39335 19.19 4.49823 19.19C3.61445 19.19 2.88929 19.9152 2.88929 20.799C2.88929 21.6941 3.61445 22.4079 4.49823 22.4079ZM9.8236 21.8867H25.2105C25.8224 21.8867 26.3096 21.4108 26.3096 20.799C26.3096 20.1871 25.8337 19.7112 25.2105 19.7112H9.8236C9.22308 19.7112 8.73587 20.1871 8.73587 20.799C8.73587 21.4108 9.21175 21.8867 9.8236 21.8867Z" fill="white"/>
</g>
</svg>
