<svg width="16" height="18" viewBox="0 0 16 18" fill="none" xmlns="http://www.w3.org/2000/svg">
<path d="M14.1956 9.81221C14.5508 10.0253 15.0115 9.91004 15.2245 9.55482C15.4376 9.19961 15.3223 8.73893 14.9671 8.52587L14.1956 9.81221ZM2.30242 1.80404L1.90907 2.44267L1.91664 2.44721L2.30242 1.80404ZM1.30545 1.82728L0.883158 1.20747L0.883158 1.20747L1.30545 1.82728ZM0.900712 2.75904L0.15847 2.86664C0.165511 2.91521 0.177303 2.96298 0.193677 3.00925L0.900712 2.75904ZM2.46204 9.41925C2.60023 9.80973 3.0288 10.0143 3.41928 9.87607C3.80977 9.73789 4.0143 9.30932 3.87611 8.91884L2.46204 9.41925ZM14.9671 9.81212C15.3223 9.59906 15.4376 9.13838 15.2245 8.78316C15.0115 8.42795 14.5508 8.31271 14.1956 8.52577L14.9671 9.81212ZM2.30242 16.5339L1.91662 15.8907L1.9091 15.8954L2.30242 16.5339ZM1.30545 16.5107L0.883158 17.1305H0.883158L1.30545 16.5107ZM0.900712 15.5789L0.193677 15.3287C0.177303 15.375 0.165511 15.4228 0.15847 15.4713L0.900712 15.5789ZM3.87611 9.41915C4.0143 9.02867 3.80977 8.6001 3.41928 8.46191C3.0288 8.32373 2.60023 8.52826 2.46204 8.91874L3.87611 9.41915ZM14.5811 9.91894C14.9953 9.91894 15.3311 9.58316 15.3311 9.16895C15.3311 8.75473 14.9953 8.41895 14.5811 8.41895V9.91894ZM3.16887 8.41895C2.75466 8.41895 2.41887 8.75473 2.41887 9.16895C2.41887 9.58316 2.75466 9.91894 3.16887 9.91894V8.41895ZM14.9671 8.52587L2.6882 1.16087L1.91664 2.44721L14.1956 9.81221L14.9671 8.52587ZM2.69575 1.16545C2.13493 0.820028 1.42718 0.836819 0.883158 1.20747L1.72773 2.4471C1.78355 2.40907 1.85247 2.40775 1.9091 2.44263L2.69575 1.16545ZM0.883158 1.20747C0.341873 1.57625 0.0652891 2.22384 0.15847 2.86664L1.64295 2.65144C1.63046 2.56526 1.66917 2.487 1.72773 2.4471L0.883158 1.20747ZM0.193677 3.00925L2.46204 9.41925L3.87611 8.91884L1.60775 2.50884L0.193677 3.00925ZM14.1956 8.52577L1.91664 15.8908L2.6882 17.1771L14.9671 9.81212L14.1956 8.52577ZM1.9091 15.8954C1.85247 15.9302 1.78356 15.9289 1.72773 15.8909L0.883158 17.1305C1.42718 17.5012 2.13493 17.518 2.69575 17.1725L1.9091 15.8954ZM1.72773 15.8909C1.66917 15.851 1.63046 15.7727 1.64295 15.6865L0.15847 15.4713C0.0652891 16.1141 0.341873 16.7617 0.883158 17.1305L1.72773 15.8909ZM1.60775 15.8291L3.87611 9.41915L2.46204 8.91874L0.193677 15.3287L1.60775 15.8291ZM14.5811 8.41895H3.16887V9.91894H14.5811V8.41895Z" fill="white"/>
</svg>
