<svg width="24" height="24" viewBox="0 0 24 24" fill="none" xmlns="http://www.w3.org/2000/svg">
<path d="M10.4799 18.9998C10.2175 18.9987 9.96612 18.8946 9.77986 18.7098L5.18986 14.1198C4.62806 13.5573 4.3125 12.7948 4.3125 11.9998C4.3125 11.2048 4.62806 10.4423 5.18986 9.87982L9.77986 5.28982C9.96722 5.10356 10.2207 4.99902 10.4849 4.99902C10.749 4.99902 11.0025 5.10356 11.1899 5.28982C11.2836 5.38278 11.358 5.49338 11.4088 5.61524C11.4595 5.7371 11.4857 5.8678 11.4857 5.99982C11.4857 6.13183 11.4595 6.26253 11.4088 6.38439C11.358 6.50625 11.2836 6.61685 11.1899 6.70982L6.59986 11.2898C6.50613 11.3828 6.43174 11.4934 6.38097 11.6152C6.3302 11.7371 6.30406 11.8678 6.30406 11.9998C6.30406 12.1318 6.3302 12.2625 6.38097 12.3844C6.43174 12.5063 6.50613 12.6169 6.59986 12.7098L11.1899 17.2898C11.2836 17.3828 11.358 17.4934 11.4088 17.6152C11.4595 17.7371 11.4857 17.8678 11.4857 17.9998C11.4857 18.1318 11.4595 18.2625 11.4088 18.3844C11.358 18.5063 11.2836 18.6169 11.1899 18.7098C11.0964 18.8025 10.9856 18.8758 10.8638 18.9256C10.7419 18.9754 10.6115 19.0006 10.4799 18.9998Z" fill="#374957"/>
<path d="M17.4802 18.9998C17.2178 18.9987 16.9664 18.8946 16.7802 18.7098L10.7802 12.7098C10.6864 12.6169 10.6121 12.5063 10.5613 12.3844C10.5105 12.2625 10.4844 12.1318 10.4844 11.9998C10.4844 11.8678 10.5105 11.7371 10.5613 11.6152C10.6121 11.4934 10.6864 11.3828 10.7802 11.2898L16.7802 5.28982C16.9675 5.10356 17.221 4.99902 17.4852 4.99902C17.7493 4.99902 18.0028 5.10356 18.1902 5.28982C18.2839 5.38278 18.3583 5.49338 18.4091 5.61524C18.4598 5.7371 18.486 5.8678 18.486 5.99982C18.486 6.13183 18.4598 6.26253 18.4091 6.38439C18.3583 6.50625 18.2839 6.61685 18.1902 6.70982L12.9002 11.9998L18.1902 17.2898C18.2839 17.3828 18.3583 17.4934 18.4091 17.6152C18.4598 17.7371 18.486 17.8678 18.486 17.9998C18.486 18.1318 18.4598 18.2625 18.4091 18.3844C18.3583 18.5063 18.2839 18.6169 18.1902 18.7098C18.0967 18.8025 17.9859 18.8758 17.8641 18.9256C17.7422 18.9754 17.6118 19.0006 17.4802 18.9998Z" fill="#374957"/>
</svg>
