<svg width="24" height="24" viewBox="0 0 24 24" fill="none" xmlns="http://www.w3.org/2000/svg">
<path d="M13.1003 19.0001C12.9025 18.9992 12.7094 18.9398 12.5455 18.8292C12.3815 18.7187 12.254 18.5619 12.179 18.3789C12.1041 18.1959 12.0851 17.9947 12.1245 17.8009C12.1639 17.6071 12.2599 17.4293 12.4003 17.2901L17.0003 12.7101C17.094 12.6171 17.1684 12.5065 17.2192 12.3846C17.27 12.2628 17.2961 12.1321 17.2961 12.0001C17.2961 11.868 17.27 11.7373 17.2192 11.6155C17.1684 11.4936 17.094 11.383 17.0003 11.2901L12.4003 6.71006C12.3066 6.6171 12.2322 6.5065 12.1814 6.38464C12.1306 6.26278 12.1045 6.13207 12.1045 6.00006C12.1045 5.86805 12.1306 5.73734 12.1814 5.61548C12.2322 5.49362 12.3066 5.38302 12.4003 5.29006C12.5877 5.10381 12.8411 4.99927 13.1053 4.99927C13.3695 4.99927 13.6229 5.10381 13.8103 5.29006L18.4003 9.88006C18.9621 10.4426 19.2777 11.2051 19.2777 12.0001C19.2777 12.7951 18.9621 13.5576 18.4003 14.1201L13.8103 18.7101C13.7169 18.8027 13.606 18.8761 13.4842 18.9258C13.3624 18.9756 13.2319 19.0008 13.1003 19.0001Z" fill="#374957"/>
<path d="M6.09981 19.0001C5.90204 18.9992 5.70895 18.9398 5.54497 18.8292C5.38099 18.7187 5.25347 18.5619 5.17854 18.3789C5.10362 18.1959 5.08465 17.9947 5.12403 17.8009C5.16342 17.6071 5.25939 17.4293 5.39981 17.2901L10.6898 12.0001L5.39981 6.71006C5.30608 6.6171 5.23169 6.5065 5.18092 6.38464C5.13015 6.26278 5.10401 6.13207 5.10401 6.00006C5.10401 5.86805 5.13015 5.73734 5.18092 5.61548C5.23169 5.49362 5.30608 5.38302 5.39981 5.29006C5.58717 5.10381 5.84063 4.99927 6.10481 4.99927C6.369 4.99927 6.62245 5.10381 6.80981 5.29006L12.8098 11.2901C12.9035 11.383 12.9779 11.4936 13.0287 11.6155C13.0795 11.7373 13.1056 11.868 13.1056 12.0001C13.1056 12.1321 13.0795 12.2628 13.0287 12.3846C12.9779 12.5065 12.9035 12.6171 12.8098 12.7101L6.80981 18.7101C6.71637 18.8027 6.60556 18.8761 6.48372 18.9258C6.36188 18.9756 6.23142 19.0008 6.09981 19.0001Z" fill="#374957"/>
</svg>
