<svg width="32" height="32" viewBox="0 0 32 32" fill="none" xmlns="http://www.w3.org/2000/svg">
<rect x="0.5" y="0.5" width="31" height="31" rx="15.5" stroke="#BCBCBC"/>
<path d="M17.89 16.3599C17.9603 16.2897 17.9999 16.1943 18 16.0949V15.9049C17.9988 15.8057 17.9594 15.7108 17.89 15.6399L15.32 13.0749C15.2731 13.0276 15.2092 13.001 15.1425 13.001C15.0758 13.001 15.0119 13.0276 14.965 13.0749L14.61 13.4299C14.563 13.476 14.5365 13.5391 14.5365 13.6049C14.5365 13.6708 14.563 13.7338 14.61 13.7799L16.835 15.9999L14.61 18.2199C14.5627 18.2669 14.5361 18.3308 14.5361 18.3974C14.5361 18.4641 14.5627 18.528 14.61 18.5749L14.965 18.9249C15.0119 18.9723 15.0758 18.9989 15.1425 18.9989C15.2092 18.9989 15.2731 18.9723 15.32 18.9249L17.89 16.3599Z" fill="#6F29D8"/>
</svg>
