<svg width="32" height="32" viewBox="0 0 32 32" fill="none" xmlns="http://www.w3.org/2000/svg">
<rect x="0.5" y="0.5" width="31" height="31" rx="15.5" stroke="#BCBCBC"/>
<path d="M14.11 16.3599C14.0397 16.2897 14.0001 16.1943 14 16.0949V15.9049C14.0012 15.8057 14.0406 15.7108 14.11 15.6399L16.68 13.0749C16.7269 13.0276 16.7908 13.001 16.8575 13.001C16.9242 13.001 16.9881 13.0276 17.035 13.0749L17.39 13.4299C17.437 13.476 17.4635 13.5391 17.4635 13.6049C17.4635 13.6708 17.437 13.7338 17.39 13.7799L15.165 15.9999L17.39 18.2199C17.4373 18.2669 17.4639 18.3308 17.4639 18.3974C17.4639 18.4641 17.4373 18.528 17.39 18.5749L17.035 18.9249C16.9881 18.9723 16.9242 18.9989 16.8575 18.9989C16.7908 18.9989 16.7269 18.9723 16.68 18.9249L14.11 16.3599Z" fill="#BCBCBC"/>
</svg>
