<svg width="56" height="56" viewBox="0 0 56 56" fill="none" xmlns="http://www.w3.org/2000/svg">
<path fill-rule="evenodd" clip-rule="evenodd" d="M40.7332 35.6639L40.7452 24.0781L32.4993 15.8581C30.0109 13.3806 25.9878 13.3806 23.4994 15.8581L15.2715 24.0581V35.6579C15.2781 39.1663 18.127 42.0054 21.6354 41.9999H34.3693C37.8753 42.0054 40.7233 39.17 40.7332 35.6639Z" stroke="#162C63" stroke-width="2.5" stroke-linecap="round" stroke-linejoin="round"/>
<path d="M41.9975 16.0361C41.9975 15.3458 41.4378 14.7861 40.7475 14.7861C40.0571 14.7861 39.4975 15.3458 39.4975 16.0361H41.9975ZM40.7475 24.078H39.4975C39.4975 24.4102 39.6297 24.7288 39.8649 24.9633L40.7475 24.078ZM43.1169 28.2053C43.6058 28.6927 44.3973 28.6914 44.8847 28.2025C45.3721 27.7136 45.3709 26.9222 44.882 26.4348L43.1169 28.2053ZM16.1545 24.9432C16.6434 24.4558 16.6446 23.6643 16.1572 23.1754C15.6698 22.6865 14.8783 22.6853 14.3894 23.1727L16.1545 24.9432ZM11.1175 26.4347C10.6286 26.9221 10.6274 27.7135 11.1148 28.2024C11.6022 28.6913 12.3936 28.6926 12.8825 28.2052L11.1175 26.4347ZM30.7498 41.9997C30.7498 42.6901 31.3094 43.2497 31.9998 43.2497C32.6901 43.2497 33.2498 42.6901 33.2498 41.9997H30.7498ZM22.7499 41.9997C22.7499 42.6901 23.3095 43.2497 23.9999 43.2497C24.6902 43.2497 25.2499 42.6901 25.2499 41.9997H22.7499ZM39.4975 16.0361V24.078H41.9975V16.0361H39.4975ZM39.8649 24.9633L43.1169 28.2053L44.882 26.4348L41.63 23.1928L39.8649 24.9633ZM14.3894 23.1727L11.1175 26.4347L12.8825 28.2052L16.1545 24.9432L14.3894 23.1727ZM33.2498 41.9997V38.4398H30.7498V41.9997H33.2498ZM33.2498 38.4398C33.2498 35.5403 30.8993 33.1898 27.9998 33.1898V35.6898C29.5186 35.6898 30.7498 36.921 30.7498 38.4398H33.2498ZM27.9998 33.1898C25.1004 33.1898 22.7499 35.5403 22.7499 38.4398H25.2499C25.2499 36.921 26.4811 35.6898 27.9998 35.6898V33.1898ZM22.7499 38.4398V41.9997H25.2499V38.4398H22.7499Z" fill="#162C63"/>
</svg>
