<svg width="48" height="48" viewBox="0 0 48 48" fill="none" xmlns="http://www.w3.org/2000/svg">
<path fill-rule="evenodd" clip-rule="evenodd" d="M24.2654 38.9996C22.5065 39.0272 20.9055 37.989 20.2132 36.3718C19.5209 34.7547 19.8747 32.8795 21.1087 31.6259C22.3426 30.3722 24.212 29.9888 25.8399 30.6554C27.4677 31.3221 28.5312 32.9066 28.5314 34.6656C28.5405 35.8061 28.0961 36.9034 27.296 37.7162C26.496 38.529 25.4058 38.9907 24.2654 38.9996Z" stroke="#162C63" stroke-width="3" stroke-linecap="round" stroke-linejoin="round"/>
<path d="M22 12C22.5523 12 23 11.5523 23 11C23 10.4477 22.5523 10 22 10V12ZM10 10C9.44772 10 9 10.4477 9 11C9 11.5523 9.44772 12 10 12V10ZM22 18C22.5523 18 23 17.5523 23 17C23 16.4477 22.5523 16 22 16V18ZM10 16C9.44772 16 9 16.4477 9 17C9 17.5523 9.44772 18 10 18V16ZM18 24C18.5523 24 19 23.5523 19 23C19 22.4477 18.5523 22 18 22V24ZM10 22C9.44772 22 9 22.4477 9 23C9 23.5523 9.44772 24 10 24V22ZM27.5293 34.666C27.5293 35.2183 27.977 35.666 28.5293 35.666C29.0816 35.666 29.5293 35.2183 29.5293 34.666H27.5293ZM29.5293 18C29.5293 17.4477 29.0816 17 28.5293 17C27.977 17 27.5293 17.4477 27.5293 18H29.5293ZM28.531 17.9997H27.531C27.531 18.2832 27.6513 18.5533 27.8619 18.743C28.0726 18.9326 28.3539 19.0239 28.6358 18.9942L28.531 17.9997ZM28.531 14.9997H29.531C29.531 14.9817 29.5305 14.9636 29.5295 14.9456L28.531 14.9997ZM29.6384 12.1071L28.9313 11.4L28.9313 11.4L29.6384 12.1071ZM32.531 10.9997L32.4769 11.9982C32.4949 11.9992 32.5129 11.9997 32.531 11.9997V10.9997ZM34.841 10.9997L34.841 11.9997L34.8457 11.9997L34.841 10.9997ZM38.0094 13.9915L37.0108 14.0441L37.0108 14.0441L38.0094 13.9915ZM35.173 17.2997L35.0725 16.3048L35.0682 16.3052L35.173 17.2997ZM22 10H10V12H22V10ZM22 16H10V18H22V16ZM18 22H10V24H18V22ZM29.5293 34.666V18H27.5293V34.666H29.5293ZM29.531 17.9997V14.9997H27.531V17.9997H29.531ZM29.5295 14.9456C29.4865 14.1515 29.7832 13.3766 30.3455 12.8142L28.9313 11.4C27.9673 12.364 27.4587 13.6925 27.5324 15.0538L29.5295 14.9456ZM30.3455 12.8142C30.9078 12.2519 31.6828 11.9552 32.4769 11.9982L32.5851 10.0012C31.2237 9.92743 29.8953 10.436 28.9313 11.4L30.3455 12.8142ZM32.531 11.9997H34.841V9.99971H32.531V11.9997ZM34.8457 11.9997C35.9973 11.9943 36.9502 12.8941 37.0108 14.0441L39.0081 13.9389C38.8913 11.723 37.0552 9.98928 34.8363 9.99972L34.8457 11.9997ZM37.0108 14.0441C37.0714 15.1941 36.2183 16.1891 35.0725 16.3048L35.2734 18.2947C37.4811 18.0718 39.1248 16.1547 39.0081 13.9389L37.0108 14.0441ZM35.0682 16.3052L28.4262 17.0052L28.6358 18.9942L35.2778 18.2942L35.0682 16.3052Z" fill="#162C63"/>
</svg>
