<svg width="16" height="19" viewBox="0 0 16 19" fill="none" xmlns="http://www.w3.org/2000/svg">
<path d="M10.5346 16.2264C11.0373 16.2264 11.3953 15.8684 11.3953 15.3732V3.68848C11.3953 3.19336 11.0373 2.78965 10.5193 2.78965C10.1689 2.78965 9.9252 2.94199 9.53672 3.31523L6.2918 6.36211C6.23848 6.40781 6.17754 6.43066 6.10137 6.43066H3.91523C2.88691 6.43066 2.32324 7.00195 2.32324 8.09883V10.9324C2.32324 12.0369 2.88691 12.6006 3.91523 12.6006H6.10137C6.17754 12.6006 6.23848 12.6234 6.2918 12.6691L9.53672 15.7465C9.88711 16.0816 10.1842 16.2264 10.5346 16.2264Z" fill="#162C63"/>
<path d="M13 3L3 15" stroke="white" stroke-width="1.5" stroke-linecap="round"/>
</svg>
