<svg width="49" height="28" viewBox="0 0 49 28" fill="none" xmlns="http://www.w3.org/2000/svg">
<path d="M3.13477 27.3821C3.77461 27.3821 4.36113 27.1511 4.96543 26.7956L23.2365 16.0427C24.0008 15.5983 24.4451 15.0651 24.6406 14.4431V24.6628C24.6406 26.4757 25.6893 27.3821 26.9156 27.3821C27.5555 27.3821 28.1242 27.1511 28.7463 26.7956L46.9996 16.0427C48.0127 15.4562 48.4926 14.7097 48.4926 13.8032C48.4926 12.8968 48.0305 12.1681 46.9996 11.5638L28.7463 0.810839C28.1242 0.45537 27.5555 0.224315 26.9156 0.224315C25.6893 0.224315 24.6406 1.13076 24.6406 2.94365V13.1456C24.4629 12.5413 24.0008 12.0259 23.2365 11.5638L4.96543 0.810839C4.34336 0.45537 3.77461 0.224315 3.13477 0.224315C1.92617 0.224315 0.859766 1.13076 0.859766 2.94365V24.6628C0.859766 26.4757 1.92617 27.3821 3.13477 27.3821Z" fill="#162C63"/>
</svg>
