<svg width="36" height="50" viewBox="0 0 36 50" fill="none" xmlns="http://www.w3.org/2000/svg">
<path d="M3.99532 49.2547H10.7594C13.1664 49.2547 14.3547 48.0969 14.3547 45.6594V4.37422C14.3547 1.84531 13.1664 0.748436 10.7594 0.748436H3.99532C1.58829 0.748436 0.400006 1.93672 0.400006 4.37422V45.6594C0.400006 48.0969 1.58829 49.2547 3.99532 49.2547ZM25.1406 49.2547H31.9047C34.3117 49.2547 35.5 48.0969 35.5 45.6594V4.37422C35.5 1.84531 34.3117 0.748436 31.9047 0.748436H25.1406C22.7336 0.748436 21.5453 1.93672 21.5453 4.37422V45.6594C21.5453 48.0969 22.7336 49.2547 25.1406 49.2547Z" fill="#162C63"/>
</svg>
