<svg width="49" height="28" viewBox="0 0 49 28" fill="none" xmlns="http://www.w3.org/2000/svg">
<path d="M22.3666 27.3821C23.5752 27.3821 24.6416 26.4757 24.6416 24.6628V14.4431C24.8193 15.0651 25.2814 15.5983 26.0457 16.0427L44.3168 26.7956C44.9211 27.1511 45.5076 27.3821 46.1475 27.3821C47.3561 27.3821 48.4225 26.4757 48.4225 24.6628V2.94365C48.4225 1.13076 47.3561 0.224315 46.1475 0.224315C45.5076 0.224315 44.9389 0.45537 44.3168 0.810839L26.0457 11.5638C25.2814 12.0259 24.8193 12.5413 24.6416 13.1456V2.94365C24.6416 1.13076 23.5752 0.224315 22.3666 0.224315C21.7268 0.224315 21.158 0.45537 20.5359 0.810839L2.28262 11.5638C1.25176 12.1681 0.789648 12.8968 0.789648 13.8032C0.789648 14.7097 1.26953 15.4562 2.28262 16.0427L20.5359 26.7956C21.1402 27.1511 21.7268 27.3821 22.3666 27.3821Z" fill="#162C63"/>
</svg>
