<svg width="34" height="34" viewBox="0 0 34 34" fill="none" xmlns="http://www.w3.org/2000/svg">
<path d="M14.3873 25.8468C13.9715 26.251 13.9621 26.9158 14.3664 27.3315C14.7706 27.7473 15.4354 27.7567 15.8512 27.3525L14.3873 25.8468ZM25.1992 16.7996L25.9312 17.5525C26.1345 17.3548 26.2492 17.0832 26.2492 16.7996C26.2492 16.516 26.1345 16.2445 25.9312 16.0468L25.1992 16.7996ZM15.8512 6.24677C15.4354 5.84253 14.7706 5.85189 14.3664 6.26768C13.9621 6.68346 13.9715 7.34822 14.3873 7.75245L15.8512 6.24677ZM7.66741 24.2132C7.25161 24.6174 7.24223 25.2821 7.64645 25.6979C8.05067 26.1137 8.71543 26.1231 9.13123 25.7189L7.66741 24.2132ZM16.7993 16.7998L17.5312 17.5527C17.7346 17.355 17.8493 17.0834 17.8493 16.7998C17.8493 16.5162 17.7346 16.2446 17.5312 16.0469L16.7993 16.7998ZM9.13123 7.88075C8.71543 7.47653 8.05067 7.48591 7.64645 7.9017C7.24223 8.3175 7.25161 8.98226 7.66741 9.38648L9.13123 7.88075ZM15.8512 27.3525L25.9312 17.5525L24.4673 16.0468L14.3873 25.8468L15.8512 27.3525ZM25.9312 16.0468L15.8512 6.24677L14.3873 7.75245L24.4673 17.5525L25.9312 16.0468ZM9.13123 25.7189L17.5312 17.5527L16.0674 16.0469L7.66741 24.2132L9.13123 25.7189ZM17.5312 16.0469L9.13123 7.88075L7.66741 9.38648L16.0674 17.5527L17.5312 16.0469Z" fill="white"/>
</svg>