<svg width="10" height="15" viewBox="0 0 10 15" fill="none" xmlns="http://www.w3.org/2000/svg">
<path d="M8.53457 14.2264C9.0373 14.2264 9.39531 13.8684 9.39531 13.3732V1.68848C9.39531 1.19336 9.0373 0.789648 8.51934 0.789648C8.16895 0.789648 7.9252 0.941992 7.53672 1.31523L4.2918 4.36211C4.23848 4.40781 4.17754 4.43066 4.10137 4.43066H1.91523C0.886914 4.43066 0.323242 5.00195 0.323242 6.09883V8.93242C0.323242 10.0369 0.886914 10.6006 1.91523 10.6006H4.10137C4.17754 10.6006 4.23848 10.6234 4.2918 10.6691L7.53672 13.7465C7.88711 14.0816 8.18418 14.2264 8.53457 14.2264Z" fill="#162C63"/>
</svg>
