<svg width="24" height="24" viewBox="0 0 24 24" fill="none" xmlns="http://www.w3.org/2000/svg">
<path fill-rule="evenodd" clip-rule="evenodd" d="M15 7.00008L14.894 6.78908C14.3459 5.69263 13.2253 5 11.9995 5C10.7737 5 9.6531 5.69263 9.105 6.78908L9 7.00008H15Z" stroke="#60308C" stroke-width="1.5" stroke-linecap="round" stroke-linejoin="round"/>
<path d="M10.8633 11.8027C10.5704 11.5098 10.0956 11.5098 9.80267 11.8027C9.50978 12.0956 9.50978 12.5704 9.80267 12.8633L10.8633 11.8027ZM11.4697 14.5303C11.7626 14.8232 12.2374 14.8232 12.5303 14.5303C12.8232 14.2374 12.8232 13.7626 12.5303 13.4697L11.4697 14.5303ZM9.80267 15.1367C9.50978 15.4296 9.50978 15.9044 9.80267 16.1973C10.0956 16.4902 10.5704 16.4902 10.8633 16.1973L9.80267 15.1367ZM12.5303 14.5303C12.8232 14.2374 12.8232 13.7626 12.5303 13.4697C12.2374 13.1768 11.7626 13.1768 11.4697 13.4697L12.5303 14.5303ZM14.1973 12.8633C14.4902 12.5704 14.4902 12.0956 14.1973 11.8027C13.9044 11.5098 13.4296 11.5098 13.1367 11.8027L14.1973 12.8633ZM11.4697 13.4697C11.1768 13.7626 11.1768 14.2374 11.4697 14.5303C11.7626 14.8232 12.2374 14.8232 12.5303 14.5303L11.4697 13.4697ZM13.1367 16.1973C13.4296 16.4902 13.9044 16.4902 14.1973 16.1973C14.4902 15.9044 14.4902 15.4296 14.1973 15.1367L13.1367 16.1973ZM12.5303 13.4697C12.2374 13.1768 11.7626 13.1768 11.4697 13.4697C11.1768 13.7626 11.1768 14.2374 11.4697 14.5303L12.5303 13.4697ZM17 7.75C17.4142 7.75 17.75 7.41421 17.75 7C17.75 6.58579 17.4142 6.25 17 6.25V7.75ZM15 6.25C14.5858 6.25 14.25 6.58579 14.25 7C14.25 7.41421 14.5858 7.75 15 7.75V6.25ZM7 6.25C6.58579 6.25 6.25 6.58579 6.25 7C6.25 7.41421 6.58579 7.75 7 7.75V6.25ZM9 7.75C9.41421 7.75 9.75 7.41421 9.75 7C9.75 6.58579 9.41421 6.25 9 6.25V7.75ZM7.73223 18.2678L7.2019 18.7981L7.2019 18.7981L7.73223 18.2678ZM7 16.5H7.75H7ZM9.80267 12.8633L11.4697 14.5303L12.5303 13.4697L10.8633 11.8027L9.80267 12.8633ZM10.8633 16.1973L12.5303 14.5303L11.4697 13.4697L9.80267 15.1367L10.8633 16.1973ZM13.1367 11.8027L11.4697 13.4697L12.5303 14.5303L14.1973 12.8633L13.1367 11.8027ZM14.1973 15.1367L12.5303 13.4697L11.4697 14.5303L13.1367 16.1973L14.1973 15.1367ZM17 6.25H15V7.75H17V6.25ZM7 7.75H9V6.25H7V7.75ZM7.833 9.75H16.167V8.25H7.833V9.75ZM16.167 9.75C16.2128 9.75 16.25 9.78716 16.25 9.833H17.75C17.75 8.95873 17.0413 8.25 16.167 8.25V9.75ZM16.25 9.833V16.5H17.75V9.833H16.25ZM16.25 16.5C16.25 17.4665 15.4665 18.25 14.5 18.25V19.75C16.2949 19.75 17.75 18.2949 17.75 16.5H16.25ZM14.5 18.25H9.5V19.75H14.5V18.25ZM9.5 18.25C9.03587 18.25 8.59075 18.0656 8.26256 17.7374L7.2019 18.7981C7.8114 19.4076 8.63805 19.75 9.5 19.75V18.25ZM8.26256 17.7374C7.93437 17.4092 7.75 16.9641 7.75 16.5H6.25C6.25 17.362 6.59241 18.1886 7.2019 18.7981L8.26256 17.7374ZM7.75 16.5V9.833H6.25V16.5H7.75ZM7.75 9.833C7.75 9.78716 7.78716 9.75 7.833 9.75V8.25C6.95873 8.25 6.25 8.95873 6.25 9.833H7.75Z" fill="#60308C"/>
</svg>
