<svg width="551" height="921" viewBox="0 0 551 921" fill="none" xmlns="http://www.w3.org/2000/svg">
<mask id="path-1-inside-1_1744_3390" fill="white">
<path fill-rule="evenodd" clip-rule="evenodd" d="M521.288 0H501.616C501.616 4.98668 497.213 9.02913 491.781 9.02913C486.349 9.02913 481.945 4.98668 481.945 0H462.273C462.273 4.98668 457.87 9.02913 452.438 9.02913C447.006 9.02913 442.602 4.98668 442.602 0H422.932C422.931 4.98668 418.528 9.02913 413.096 9.02913C407.664 9.02913 403.26 4.98668 403.26 0H383.589C383.588 4.98668 379.185 9.02913 373.753 9.02913C368.321 9.02913 363.918 4.98668 363.917 0H344.247C344.247 4.98668 339.843 9.02913 334.411 9.02913C328.979 9.02913 324.576 4.98668 324.576 0H304.904C304.904 4.98668 300.5 9.02913 295.068 9.02913C289.636 9.02913 285.233 4.98668 285.233 0H265.562C265.562 4.98668 261.158 9.02913 255.726 9.02913C250.294 9.02913 245.891 4.98668 245.891 0H226.219C226.219 4.98668 221.815 9.02913 216.384 9.02913C210.952 9.02913 206.548 4.98668 206.548 0H186.876C186.876 4.98668 182.473 9.02913 177.041 9.02913C171.609 9.02913 167.205 4.98668 167.205 0H147.534C147.534 4.98668 143.131 9.02913 137.699 9.02913C132.267 9.02913 127.863 4.98668 127.863 0H108.191C108.191 4.98668 103.788 9.02913 98.3558 9.02913C92.9239 9.02913 88.5204 4.98668 88.5202 0H68.8496C68.8494 4.98668 64.4459 9.02913 59.014 9.02913C53.582 9.02913 49.1785 4.98668 49.1784 0H29.5067C29.5065 4.98668 25.103 9.02913 19.6711 9.02913C14.2391 9.02913 9.83563 4.98668 9.83546 0H0V11.7508V15.049V907.754H0.000420276L0.000419015 921H9.83562C9.83611 916.014 14.2394 911.971 19.6712 911.971C25.103 911.971 29.5063 916.014 29.5068 921H49.1785C49.179 916.014 53.5824 911.971 59.0141 911.971C64.4459 911.971 68.8492 916.014 68.8497 921H88.5214C88.5219 916.014 92.9253 911.971 98.357 911.971C103.789 911.971 108.192 916.014 108.193 921H127.863C127.864 916.014 132.267 911.971 137.699 911.971C143.131 911.971 147.534 916.014 147.534 921H167.206C167.207 916.014 171.61 911.971 177.042 911.971C182.474 911.971 186.877 916.014 186.877 921H206.548C206.548 916.014 210.952 911.971 216.384 911.971C221.815 911.971 226.219 916.014 226.219 921H245.891C245.891 916.014 250.295 911.971 255.727 911.971C261.158 911.971 265.562 916.014 265.562 921H285.233C285.233 916.014 289.637 911.971 295.068 911.971C300.5 911.971 304.904 916.014 304.904 921H324.576C324.576 916.014 328.98 911.971 334.411 911.971C339.843 911.971 344.246 916.014 344.247 921H363.919C363.919 916.014 368.322 911.971 373.754 911.971C379.186 911.971 383.589 916.014 383.59 921H403.26C403.261 916.014 407.664 911.971 413.096 911.971C418.528 911.971 422.931 916.014 422.932 921H442.603C442.604 916.014 447.007 911.971 452.439 911.971C457.871 911.971 462.274 916.014 462.275 921H481.945C481.946 916.014 486.349 911.971 491.781 911.971C497.213 911.971 501.616 916.014 501.616 921H521.288C521.289 916.014 525.692 911.971 531.124 911.971C536.555 911.971 540.959 916.014 540.959 921H550.795V905.951L550.794 15.049V11.7508V0H540.959C540.959 4.98668 536.556 9.02913 531.124 9.02913C525.692 9.02913 521.288 4.98668 521.288 0Z"/>
</mask>
<path fill-rule="evenodd" clip-rule="evenodd" d="M521.288 0H501.616C501.616 4.98668 497.213 9.02913 491.781 9.02913C486.349 9.02913 481.945 4.98668 481.945 0H462.273C462.273 4.98668 457.87 9.02913 452.438 9.02913C447.006 9.02913 442.602 4.98668 442.602 0H422.932C422.931 4.98668 418.528 9.02913 413.096 9.02913C407.664 9.02913 403.26 4.98668 403.26 0H383.589C383.588 4.98668 379.185 9.02913 373.753 9.02913C368.321 9.02913 363.918 4.98668 363.917 0H344.247C344.247 4.98668 339.843 9.02913 334.411 9.02913C328.979 9.02913 324.576 4.98668 324.576 0H304.904C304.904 4.98668 300.5 9.02913 295.068 9.02913C289.636 9.02913 285.233 4.98668 285.233 0H265.562C265.562 4.98668 261.158 9.02913 255.726 9.02913C250.294 9.02913 245.891 4.98668 245.891 0H226.219C226.219 4.98668 221.815 9.02913 216.384 9.02913C210.952 9.02913 206.548 4.98668 206.548 0H186.876C186.876 4.98668 182.473 9.02913 177.041 9.02913C171.609 9.02913 167.205 4.98668 167.205 0H147.534C147.534 4.98668 143.131 9.02913 137.699 9.02913C132.267 9.02913 127.863 4.98668 127.863 0H108.191C108.191 4.98668 103.788 9.02913 98.3558 9.02913C92.9239 9.02913 88.5204 4.98668 88.5202 0H68.8496C68.8494 4.98668 64.4459 9.02913 59.014 9.02913C53.582 9.02913 49.1785 4.98668 49.1784 0H29.5067C29.5065 4.98668 25.103 9.02913 19.6711 9.02913C14.2391 9.02913 9.83563 4.98668 9.83546 0H0V11.7508V15.049V907.754H0.000420276L0.000419015 921H9.83562C9.83611 916.014 14.2394 911.971 19.6712 911.971C25.103 911.971 29.5063 916.014 29.5068 921H49.1785C49.179 916.014 53.5824 911.971 59.0141 911.971C64.4459 911.971 68.8492 916.014 68.8497 921H88.5214C88.5219 916.014 92.9253 911.971 98.357 911.971C103.789 911.971 108.192 916.014 108.193 921H127.863C127.864 916.014 132.267 911.971 137.699 911.971C143.131 911.971 147.534 916.014 147.534 921H167.206C167.207 916.014 171.61 911.971 177.042 911.971C182.474 911.971 186.877 916.014 186.877 921H206.548C206.548 916.014 210.952 911.971 216.384 911.971C221.815 911.971 226.219 916.014 226.219 921H245.891C245.891 916.014 250.295 911.971 255.727 911.971C261.158 911.971 265.562 916.014 265.562 921H285.233C285.233 916.014 289.637 911.971 295.068 911.971C300.5 911.971 304.904 916.014 304.904 921H324.576C324.576 916.014 328.98 911.971 334.411 911.971C339.843 911.971 344.246 916.014 344.247 921H363.919C363.919 916.014 368.322 911.971 373.754 911.971C379.186 911.971 383.589 916.014 383.59 921H403.26C403.261 916.014 407.664 911.971 413.096 911.971C418.528 911.971 422.931 916.014 422.932 921H442.603C442.604 916.014 447.007 911.971 452.439 911.971C457.871 911.971 462.274 916.014 462.275 921H481.945C481.946 916.014 486.349 911.971 491.781 911.971C497.213 911.971 501.616 916.014 501.616 921H521.288C521.289 916.014 525.692 911.971 531.124 911.971C536.555 911.971 540.959 916.014 540.959 921H550.795V905.951L550.794 15.049V11.7508V0H540.959C540.959 4.98668 536.556 9.02913 531.124 9.02913C525.692 9.02913 521.288 4.98668 521.288 0Z" fill="#FCF7FD"/>
<path d="M501.616 0V-2H499.616L499.616 -7.34379e-05L501.616 0ZM521.288 0L523.288 -7.34379e-05L523.288 -2H521.288V0ZM481.945 0L483.945 -7.34379e-05L483.945 -2H481.945V0ZM462.273 0V-2H460.273L460.273 -7.34379e-05L462.273 0ZM442.602 0L444.602 -7.34379e-05L444.602 -2H442.602V0ZM422.932 0V-2H420.932L420.932 -7.34379e-05L422.932 0ZM403.26 0L405.26 -7.34379e-05L405.26 -2H403.26V0ZM383.589 0V-2H381.589L381.589 -7.34379e-05L383.589 0ZM363.917 0L365.917 -7.34379e-05L365.917 -2H363.917V0ZM344.247 0V-2H342.247L342.247 -7.34379e-05L344.247 0ZM324.576 0L326.576 -7.34379e-05L326.575 -2H324.576V0ZM304.904 0V-2H302.904L302.904 -7.34379e-05L304.904 0ZM285.233 0L287.233 -7.34379e-05L287.233 -2H285.233V0ZM265.562 0V-2H263.562L263.562 -7.34379e-05L265.562 0ZM245.891 0L247.891 -6.73181e-05L247.891 -2H245.891V0ZM226.219 0V-2H224.219L224.219 -6.73181e-05L226.219 0ZM206.548 0L208.548 -6.73181e-05L208.548 -2H206.548V0ZM186.876 0V-2H184.876L184.876 -6.73181e-05L186.876 0ZM167.205 0L169.205 -6.73181e-05L169.205 -2H167.205V0ZM147.534 0V-2H145.534L145.534 -6.73181e-05L147.534 0ZM127.863 0L129.863 -6.73181e-05L129.863 -2H127.863V0ZM108.191 0V-2H106.192L106.191 -6.73181e-05L108.191 0ZM88.5202 0L90.5202 -6.73181e-05L90.5202 -2H88.5202V0ZM68.8496 0V-2H66.8497L66.8496 -6.73181e-05L68.8496 0ZM49.1784 0L51.1784 -6.8848e-05L51.1783 -2H49.1784V0ZM29.5067 0V-2H27.5068L27.5067 -6.8848e-05L29.5067 0ZM9.83546 0L11.8355 -6.8848e-05L11.8354 -2H9.83546V0ZM0 0V-2H-2V0H0ZM0 907.754H-2V909.754H0V907.754ZM0.000420276 907.754L2.00042 907.754L2.00042 905.754H0.000420276V907.754ZM0.000419015 921L-1.99958 921L-1.99958 923H0.000419015V921ZM9.83562 921V923H11.8354L11.8356 921L9.83562 921ZM29.5068 921L27.5068 921L27.507 923H29.5068V921ZM49.1785 921V923H51.1783L51.1785 921L49.1785 921ZM68.8497 921L66.8497 921L66.8499 923H68.8497V921ZM88.5214 921V923H90.5212L90.5214 921L88.5214 921ZM108.193 921L106.193 921L106.193 923H108.193V921ZM127.863 921V923H129.863L129.863 921L127.863 921ZM147.534 921L145.534 921L145.535 923H147.534V921ZM167.206 921V923H169.206L169.206 921L167.206 921ZM186.877 921L184.877 921L184.878 923H186.877V921ZM206.548 921V923H208.548L208.548 921L206.548 921ZM226.219 921L224.219 921L224.219 923H226.219V921ZM245.891 921V923H247.891L247.891 921L245.891 921ZM265.562 921L263.562 921L263.562 923H265.562V921ZM285.233 921V923H287.233L287.233 921L285.233 921ZM304.904 921L302.904 921L302.904 923H304.904V921ZM324.576 921V923H326.575L326.576 921L324.576 921ZM344.247 921L342.247 921L342.247 923H344.247V921ZM363.919 921V923H365.918L365.919 921L363.919 921ZM383.59 921L381.59 921L381.59 923H383.59V921ZM403.26 921V923H405.26L405.26 921L403.26 921ZM422.932 921L420.932 921L420.932 923H422.932V921ZM442.603 921V923H444.603L444.603 921L442.603 921ZM462.275 921L460.275 921L460.275 923H462.275V921ZM481.945 921V923H483.945L483.945 921L481.945 921ZM501.616 921L499.616 921L499.617 923H501.616V921ZM521.288 921V923H523.288L523.288 921L521.288 921ZM540.959 921L538.959 921L538.96 923H540.959V921ZM550.795 921V923H552.795V921H550.795ZM550.795 905.951L552.795 905.951L552.795 905.951L550.795 905.951ZM550.794 15.049L548.794 15.049L548.794 15.049L550.794 15.049ZM550.794 0H552.794V-2H550.794V0ZM540.959 0V-2H538.959L538.959 -7.34379e-05L540.959 0ZM501.616 2H521.288V-2H501.616V2ZM491.781 11.0291C498.153 11.0291 503.616 6.24885 503.616 7.34379e-05L499.616 -7.34379e-05C499.616 3.7245 496.273 7.02913 491.781 7.02913V11.0291ZM479.945 7.34379e-05C479.945 6.24885 485.409 11.0291 491.781 11.0291V7.02913C487.289 7.02913 483.945 3.7245 483.945 -7.34379e-05L479.945 7.34379e-05ZM462.273 2H481.945V-2H462.273V2ZM452.438 11.0291C458.81 11.0291 464.273 6.24885 464.273 7.34379e-05L460.273 -7.34379e-05C460.273 3.7245 456.93 7.02913 452.438 7.02913V11.0291ZM440.602 7.34379e-05C440.602 6.24885 446.066 11.0291 452.438 11.0291V7.02913C447.946 7.02913 444.602 3.7245 444.602 -7.34379e-05L440.602 7.34379e-05ZM422.932 2H442.602V-2H422.932V2ZM413.096 11.0291C419.468 11.0291 424.931 6.24885 424.932 7.34379e-05L420.932 -7.34379e-05C420.931 3.7245 417.588 7.02913 413.096 7.02913V11.0291ZM401.26 7.34379e-05C401.261 6.24885 406.724 11.0291 413.096 11.0291V7.02913C408.604 7.02913 405.26 3.7245 405.26 -7.34379e-05L401.26 7.34379e-05ZM383.589 2H403.26V-2H383.589V2ZM373.753 11.0291C380.125 11.0291 385.588 6.24885 385.589 7.34379e-05L381.589 -7.34379e-05C381.589 3.7245 378.245 7.02913 373.753 7.02913V11.0291ZM361.917 7.34379e-05C361.918 6.24885 367.381 11.0291 373.753 11.0291V7.02913C369.261 7.02913 365.918 3.7245 365.917 -7.34379e-05L361.917 7.34379e-05ZM344.247 2H363.917V-2H344.247V2ZM334.411 11.0291C340.783 11.0291 346.247 6.24885 346.247 7.34379e-05L342.247 -7.34379e-05C342.247 3.7245 338.903 7.02913 334.411 7.02913V11.0291ZM322.576 7.34379e-05C322.576 6.24885 328.039 11.0291 334.411 11.0291V7.02913C329.919 7.02913 326.576 3.7245 326.576 -7.34379e-05L322.576 7.34379e-05ZM304.904 2H324.576V-2H304.904V2ZM295.068 11.0291C301.44 11.0291 306.904 6.24885 306.904 7.34379e-05L302.904 -7.34379e-05C302.904 3.7245 299.56 7.02913 295.068 7.02913V11.0291ZM283.233 7.34379e-05C283.233 6.24885 288.696 11.0291 295.068 11.0291V7.02913C290.576 7.02913 287.233 3.7245 287.233 -7.34379e-05L283.233 7.34379e-05ZM265.562 2H285.233V-2H265.562V2ZM255.726 11.0291C262.098 11.0291 267.562 6.24885 267.562 7.34379e-05L263.562 -7.34379e-05C263.562 3.7245 260.218 7.02913 255.726 7.02913V11.0291ZM243.891 6.73181e-05C243.891 6.24885 249.354 11.0291 255.726 11.0291V7.02913C251.235 7.02913 247.891 3.7245 247.891 -6.73181e-05L243.891 6.73181e-05ZM226.219 2H245.891V-2H226.219V2ZM216.384 11.0291C222.756 11.0291 228.219 6.24885 228.219 6.73181e-05L224.219 -6.73181e-05C224.219 3.7245 220.875 7.02913 216.384 7.02913V11.0291ZM204.548 6.73181e-05C204.548 6.24885 210.011 11.0291 216.384 11.0291V7.02913C211.892 7.02913 208.548 3.7245 208.548 -6.73181e-05L204.548 6.73181e-05ZM186.876 2H206.548V-2H186.876V2ZM177.041 11.0291C183.413 11.0291 188.876 6.24885 188.876 6.73181e-05L184.876 -6.73181e-05C184.876 3.7245 181.532 7.02913 177.041 7.02913V11.0291ZM165.205 6.73181e-05C165.205 6.24885 170.669 11.0291 177.041 11.0291V7.02913C172.549 7.02913 169.205 3.7245 169.205 -6.73181e-05L165.205 6.73181e-05ZM147.534 2H167.205V-2H147.534V2ZM137.699 11.0291C144.071 11.0291 149.534 6.24885 149.534 6.73181e-05L145.534 -6.73181e-05C145.534 3.7245 142.191 7.02913 137.699 7.02913V11.0291ZM125.863 6.73181e-05C125.863 6.24885 131.327 11.0291 137.699 11.0291V7.02913C133.207 7.02913 129.863 3.7245 129.863 -6.73181e-05L125.863 6.73181e-05ZM108.191 2H127.863V-2H108.191V2ZM98.3558 11.0291C104.728 11.0291 110.191 6.24885 110.191 6.73181e-05L106.191 -6.73181e-05C106.191 3.7245 102.848 7.02913 98.3558 7.02913V11.0291ZM86.5202 6.73181e-05C86.5204 6.24885 91.9838 11.0291 98.3558 11.0291V7.02913C93.864 7.02913 90.5203 3.7245 90.5202 -6.73181e-05L86.5202 6.73181e-05ZM68.8496 2H88.5202V-2H68.8496V2ZM59.014 11.0291C65.386 11.0291 70.8494 6.24885 70.8496 6.73181e-05L66.8496 -6.73181e-05C66.8495 3.7245 63.5058 7.02913 59.014 7.02913V11.0291ZM47.1784 6.8848e-05C47.1786 6.24885 52.6419 11.0291 59.014 11.0291V7.02913C54.5221 7.02913 51.1785 3.7245 51.1784 -6.8848e-05L47.1784 6.8848e-05ZM29.5067 2H49.1784V-2H29.5067V2ZM19.6711 11.0291C26.0431 11.0291 31.5065 6.24885 31.5067 6.8848e-05L27.5067 -6.8848e-05C27.5066 3.7245 24.1629 7.02913 19.6711 7.02913V11.0291ZM7.83546 6.8848e-05C7.83568 6.24885 13.299 11.0291 19.6711 11.0291V7.02913C15.1792 7.02913 11.8356 3.7245 11.8355 -6.8848e-05L7.83546 6.8848e-05ZM0 2H9.83546V-2H0V2ZM2 11.7508V0H-2V11.7508H2ZM2 15.049V11.7508H-2V15.049H2ZM2 907.754V15.049H-2V907.754H2ZM0.000420276 905.754H0V909.754H0.000420276V905.754ZM-1.99958 907.754L-1.99958 921L2.00042 921L2.00042 907.754L-1.99958 907.754ZM0.000419015 923H9.83562V919H0.000419015V923ZM11.8356 921C11.836 917.276 15.1795 913.971 19.6712 913.971V909.971C13.2994 909.971 7.83624 914.751 7.83562 921L11.8356 921ZM19.6712 913.971C24.1629 913.971 27.5065 917.276 27.5068 921L31.5068 921C31.5062 914.751 26.043 909.971 19.6712 909.971V913.971ZM29.5068 923H49.1785V919H29.5068V923ZM51.1785 921C51.1789 917.276 54.5224 913.971 59.0141 913.971V909.971C52.6423 909.971 47.1791 914.751 47.1785 921L51.1785 921ZM59.0141 913.971C63.5058 913.971 66.8493 917.276 66.8497 921L70.8497 921C70.8491 914.751 65.3859 909.971 59.0141 909.971V913.971ZM68.8497 923H88.5214V919H68.8497V923ZM90.5214 921C90.5218 917.276 93.8653 913.971 98.357 913.971V909.971C91.9852 909.971 86.522 914.751 86.5214 921L90.5214 921ZM98.357 913.971C102.849 913.971 106.192 917.276 106.193 921L110.193 921C110.192 914.751 104.729 909.971 98.357 909.971V913.971ZM108.193 923H127.863V919H108.193V923ZM129.863 921C129.864 917.276 133.207 913.971 137.699 913.971V909.971C131.327 909.971 125.864 914.751 125.863 921L129.863 921ZM137.699 913.971C142.191 913.971 145.534 917.276 145.534 921L149.534 921C149.534 914.751 144.071 909.971 137.699 909.971V913.971ZM147.534 923H167.206V919H147.534V923ZM169.206 921C169.207 917.276 172.55 913.971 177.042 913.971V909.971C170.67 909.971 165.207 914.751 165.206 921L169.206 921ZM177.042 913.971C181.533 913.971 184.877 917.276 184.877 921L188.877 921C188.877 914.751 183.414 909.971 177.042 909.971V913.971ZM186.877 923H206.548V919H186.877V923ZM208.548 921C208.548 917.276 211.892 913.971 216.384 913.971V909.971C210.012 909.971 204.549 914.751 204.548 921L208.548 921ZM216.384 913.971C220.875 913.971 224.219 917.276 224.219 921L228.219 921C228.219 914.751 222.755 909.971 216.384 909.971V913.971ZM226.219 923H245.891V919H226.219V923ZM247.891 921C247.891 917.276 251.235 913.971 255.727 913.971V909.971C249.355 909.971 243.892 914.751 243.891 921L247.891 921ZM255.727 913.971C260.218 913.971 263.562 917.276 263.562 921L267.562 921C267.562 914.751 262.098 909.971 255.727 909.971V913.971ZM265.562 923H285.233V919H265.562V923ZM287.233 921C287.233 917.276 290.577 913.971 295.068 913.971V909.971C288.697 909.971 283.233 914.751 283.233 921L287.233 921ZM295.068 913.971C299.56 913.971 302.904 917.276 302.904 921L306.904 921C306.903 914.751 301.44 909.971 295.068 909.971V913.971ZM304.904 923H324.576V919H304.904V923ZM326.576 921C326.576 917.276 329.92 913.971 334.411 913.971V909.971C328.039 909.971 322.576 914.751 322.576 921L326.576 921ZM334.411 913.971C338.903 913.971 342.247 917.276 342.247 921L346.247 921C346.246 914.751 340.783 909.971 334.411 909.971V913.971ZM344.247 923H363.919V919H344.247V923ZM365.919 921C365.919 917.276 369.263 913.971 373.754 913.971V909.971C367.382 909.971 361.919 914.751 361.919 921L365.919 921ZM373.754 913.971C378.246 913.971 381.589 917.276 381.59 921L385.59 921C385.589 914.751 380.126 909.971 373.754 909.971V913.971ZM383.59 923H403.26V919H383.59V923ZM405.26 921C405.261 917.276 408.604 913.971 413.096 913.971V909.971C406.724 909.971 401.261 914.751 401.26 921L405.26 921ZM413.096 913.971C417.588 913.971 420.931 917.276 420.932 921L424.932 921C424.931 914.751 419.468 909.971 413.096 909.971V913.971ZM422.932 923H442.603V919H422.932V923ZM444.603 921C444.604 917.276 447.947 913.971 452.439 913.971V909.971C446.067 909.971 440.604 914.751 440.603 921L444.603 921ZM452.439 913.971C456.931 913.971 460.274 917.276 460.275 921L464.275 921C464.274 914.751 458.811 909.971 452.439 909.971V913.971ZM462.275 923H481.945V919H462.275V923ZM483.945 921C483.946 917.276 487.289 913.971 491.781 913.971V909.971C485.409 909.971 479.946 914.751 479.945 921L483.945 921ZM491.781 913.971C496.273 913.971 499.616 917.276 499.616 921L503.616 921C503.616 914.751 498.153 909.971 491.781 909.971V913.971ZM501.616 923H521.288V919H501.616V923ZM523.288 921C523.288 917.276 526.632 913.971 531.124 913.971V909.971C524.752 909.971 519.289 914.751 519.288 921L523.288 921ZM531.124 913.971C535.615 913.971 538.959 917.276 538.959 921L542.959 921C542.959 914.751 537.496 909.971 531.124 909.971V913.971ZM540.959 923H550.795V919H540.959V923ZM552.795 921V905.951H548.795V921H552.795ZM548.794 15.049L548.795 905.951L552.795 905.951L552.794 15.049L548.794 15.049ZM548.794 11.7508V15.049H552.794V11.7508H548.794ZM548.794 0V11.7508H552.794V0H548.794ZM540.959 2H550.794V-2H540.959V2ZM531.124 11.0291C537.496 11.0291 542.959 6.24884 542.959 7.34379e-05L538.959 -7.34379e-05C538.959 3.72451 535.615 7.02913 531.124 7.02913V11.0291ZM519.288 7.34379e-05C519.288 6.24886 524.752 11.0291 531.124 11.0291V7.02913C526.632 7.02913 523.288 3.72449 523.288 -7.34379e-05L519.288 7.34379e-05Z" fill="#2656CD" mask="url(#path-1-inside-1_1744_3390)"/>
</svg>
