<svg width="305" height="335" viewBox="0 0 305 335" fill="none" xmlns="http://www.w3.org/2000/svg">
<path d="M304.94 239.296C304.36 222.78 298.895 206.741 289.534 194.144C283.202 185.623 273.759 180.085 263.607 177.388C253.918 174.821 243.049 173.018 234.302 178.754C225.555 184.489 215.764 205.813 204.963 205.813C203.345 205.813 201.769 205.301 200.46 204.351C199.151 203.401 198.175 202.061 197.673 200.523C197.17 198.985 197.166 197.327 197.662 195.786C198.158 194.245 199.127 192.901 200.432 191.945C227.956 171.796 232.187 130.536 232.255 107.737C232.364 73.9259 216.801 42.1901 191.637 24.8679C146.073 -6.45145 67.6428 -11.9342 27.9397 30.2892C12.2945 46.9423 -0.53958 75.6056 8.2894 99.2026C13.8297 114.026 27.7418 122.813 42.8275 127.197C46.4846 128.262 23.0408 180.393 20.7141 185.472C5.96957 217.734 -8.85683 257.124 6.46765 291.912C9.13186 297.929 12.5901 303.562 16.7499 308.66C37.3418 334.012 74.0633 338.846 101.294 332.387C113.63 329.465 129.528 323.34 129.562 308.21C129.562 298.111 124.206 288.887 124.144 278.556C124.076 265.536 126.321 252.542 129.978 240.082C130.557 238.13 131.887 236.489 133.675 235.519C135.463 234.549 137.563 234.33 139.513 234.909C141.463 235.489 143.103 236.82 144.072 238.609C145.041 240.399 145.26 242.5 144.681 244.451C140.929 257.097 134.099 287.214 145.527 309.903C145.994 310.525 146.36 311.216 146.612 311.951C147.37 313.283 148.175 314.587 149.069 315.85C162.087 334.333 187.776 336.197 207.064 334.511C255.637 330.243 306.994 298.637 304.94 239.296ZM178.817 126.398C176.088 126.398 173.898 123.558 173.898 120.048C173.898 116.539 176.101 113.698 178.817 113.698C181.533 113.698 183.73 116.545 183.73 120.048C183.73 123.551 181.505 126.398 178.817 126.398ZM195.192 120.048C195.192 116.545 197.389 113.698 200.105 113.698C202.82 113.698 205.011 116.545 205.011 120.048C205.011 123.551 202.814 126.398 200.105 126.398C197.396 126.398 195.192 123.558 195.192 120.048Z" fill="#3A96E9"/>
</svg>
