<svg width="26" height="26" viewBox="0 0 26 26" fill="none" xmlns="http://www.w3.org/2000/svg">
<path fill-rule="evenodd" clip-rule="evenodd" d="M13.7674 10.2394L18.5822 0.607534C18.9872 -0.202511 20.1428 -0.202511 20.5478 0.607534L25.3626 10.2394C25.7279 10.9702 25.1966 11.83 24.3798 11.83H14.7502C13.9334 11.83 13.4021 10.9702 13.7674 10.2394ZM0.91 0.910888C0.407422 0.910888 0 1.31831 0 1.82089V10.9209C0 11.4235 0.407422 11.8309 0.91 11.8309H10.01C10.5126 11.8309 10.92 11.4235 10.92 10.9209V1.82089C10.92 1.31831 10.5126 0.910888 10.01 0.910888H0.91ZM10.92 20.02C10.92 23.0356 8.47547 25.48 5.46 25.48C2.44453 25.48 0 23.0356 0 20.02C0 17.0045 2.44453 14.56 5.46 14.56C8.47547 14.56 10.92 17.0045 10.92 20.02ZM15.47 22.75C14.7161 22.75 14.105 23.3612 14.105 24.115C14.105 24.8688 14.7161 25.48 15.47 25.48H23.66C24.4138 25.48 25.025 24.8688 25.025 24.115C25.025 23.3612 24.4138 22.75 23.66 22.75H15.47ZM14.105 20.02C14.105 19.2662 14.7161 18.655 15.47 18.655H23.66C24.4138 18.655 25.025 19.2662 25.025 20.02C25.025 20.7738 24.4138 21.385 23.66 21.385H15.47C14.7161 21.385 14.105 20.7738 14.105 20.02ZM15.47 14.56C14.7161 14.56 14.105 15.1711 14.105 15.925C14.105 16.6789 14.7161 17.29 15.47 17.29H23.66C24.4138 17.29 25.025 16.6789 25.025 15.925C25.025 15.1711 24.4138 14.56 23.66 14.56H15.47Z" fill="white"/>
</svg>
