<svg width="26" height="26" viewBox="0 0 26 26" fill="none" xmlns="http://www.w3.org/2000/svg">
<g clip-path="url(#clip0_329_3278)">
<path fill-rule="evenodd" clip-rule="evenodd" d="M7.82826 1.0391C9.94731 0.120826 12.278 -0.197392 14.5656 0.119216C16.8533 0.435824 19.0098 1.37508 20.7999 2.83436C22.5895 4.29342 23.944 6.21622 24.7149 8.39274C25.1999 9.75662 24.9842 11.3187 24.1479 12.5002C23.3118 13.6813 21.9109 14.4038 20.4637 14.4002H17.099H17.0965C16.4538 14.3985 15.8315 14.626 15.3415 15.042C14.8516 15.458 14.5261 16.0351 14.4236 16.6697C14.3211 17.3042 14.4483 17.9544 14.7824 18.5035C15.1164 19.0527 15.6354 19.4645 16.246 19.6652C16.2569 19.6688 16.2677 19.6726 16.2785 19.6766C17.2686 20.0445 17.9612 20.94 18.0278 21.9908C18.173 23.1981 17.3854 24.4041 16.2094 24.7344C15.1107 25.0465 13.9737 25.2033 12.8315 25.2002C10.5224 25.199 8.25808 24.5632 6.28579 23.3624C2.30149 20.9366 -0.0533305 16.3853 0.268219 11.7317C0.589767 7.07811 3.54818 2.89387 7.82826 1.0391ZM8.09896 12.6002C9.59014 12.6002 10.799 11.3914 10.799 9.90024C10.799 8.40907 9.59014 7.20024 8.09896 7.20024C6.60779 7.20024 5.39896 8.40907 5.39896 9.90024C5.39896 11.3914 6.60779 12.6002 8.09896 12.6002ZM18.8988 7.20113C18.8988 8.6923 17.6899 9.90113 16.1987 9.90113C14.7076 9.90113 13.4987 8.6923 13.4987 7.20113C13.4987 5.70995 14.7076 4.50113 16.1987 4.50113C17.6899 4.50113 18.8988 5.70995 18.8988 7.20113ZM8.09875 18.8993C9.09285 18.8993 9.89875 18.0935 9.89875 17.0994C9.89875 16.1053 9.09285 15.2994 8.09875 15.2994C7.10462 15.2994 6.29875 16.1053 6.29875 17.0994C6.29875 18.0935 7.10462 18.8993 8.09875 18.8993Z" fill="white"/>
</g>
<defs>
<clipPath id="clip0_329_3278">
<rect width="25.2" height="25.2" fill="white"/>
</clipPath>
</defs>
</svg>
