<svg width="25" height="26" viewBox="0 0 25 26" fill="none" xmlns="http://www.w3.org/2000/svg">
<path fill-rule="evenodd" clip-rule="evenodd" d="M7.58925 1.03886C9.7083 0.120582 12.039 -0.197637 14.3266 0.118972C16.6142 0.43558 18.7708 1.37484 20.5609 2.83412C22.3505 4.29318 23.705 6.21598 24.4759 8.3925C24.9608 9.75638 24.7452 11.3185 23.9089 12.5C23.0728 13.6811 21.6719 14.4036 20.2247 14.4H16.86H16.8575C16.2148 14.3982 15.5925 14.6258 15.1025 15.0418C14.6126 15.4578 14.2871 16.0349 14.1846 16.6694C14.0821 17.3039 14.2093 17.9542 14.5434 18.5033C14.8774 19.0525 15.3964 19.4643 16.007 19.665C16.0179 19.6686 16.0287 19.6724 16.0395 19.6763C17.0296 20.0443 17.7222 20.9398 17.7887 21.9906C17.934 23.1979 17.1464 24.4039 15.9704 24.7342C14.8717 25.0463 13.7347 25.2031 12.5925 25.2C10.2834 25.1987 8.01907 24.563 6.04677 23.3622C2.06247 20.9363 -0.292344 16.385 0.0292052 11.7314C0.350754 7.07787 3.30917 2.89363 7.58925 1.03886ZM7.85995 12.6C9.35112 12.6 10.5599 11.3912 10.5599 9.9C10.5599 8.40883 9.35112 7.2 7.85995 7.2C6.36877 7.2 5.15995 8.40883 5.15995 9.9C5.15995 11.3912 6.36877 12.6 7.85995 12.6ZM18.6598 7.20088C18.6598 8.69206 17.4509 9.90088 15.9597 9.90088C14.4686 9.90088 13.2597 8.69206 13.2597 7.20088C13.2597 5.70971 14.4686 4.50088 15.9597 4.50088C17.4509 4.50088 18.6598 5.70971 18.6598 7.20088ZM7.85973 18.8991C8.85384 18.8991 9.65973 18.0932 9.65973 17.0991C9.65973 16.105 8.85384 15.2991 7.85973 15.2991C6.86561 15.2991 6.05973 16.105 6.05973 17.0991C6.05973 18.0932 6.86561 18.8991 7.85973 18.8991Z" fill="#162C63"/>
</svg>
