<svg width="27" height="27" viewBox="0 0 27 27" fill="none" xmlns="http://www.w3.org/2000/svg">
<g clip-path="url(#clip0_329_3270)">
<path fill-rule="evenodd" clip-rule="evenodd" d="M13.2967 0.0161133C7.91918 0.0161133 3.55986 4.37543 3.55986 9.75292C3.55986 15.1304 7.91918 19.4897 13.2967 19.4897C18.6742 19.4897 23.0334 15.1304 23.0334 9.75292C23.0334 4.37543 18.6742 0.0161133 13.2967 0.0161133ZM13.6817 4.62123L14.9788 7.23067C15.0078 7.29668 15.0538 7.35379 15.1121 7.3962C15.1704 7.43859 15.2389 7.46475 15.3107 7.47201L18.1916 7.90943C18.274 7.92016 18.3516 7.95409 18.4154 8.00731C18.4792 8.06051 18.5265 8.13078 18.5518 8.20987C18.5771 8.28899 18.5794 8.37367 18.5583 8.45402C18.5373 8.53437 18.4938 8.60707 18.4329 8.66361L16.3062 10.6848C16.2745 10.7453 16.2579 10.8126 16.2579 10.8809C16.2579 10.9492 16.2745 11.0165 16.3062 11.077L16.7134 13.9428C16.7308 14.0257 16.7238 14.1117 16.6932 14.1907C16.6626 14.2696 16.6098 14.3379 16.5411 14.3874C16.4725 14.437 16.3909 14.4655 16.3064 14.4695C16.2219 14.4736 16.138 14.4531 16.0648 14.4104L13.5007 13.0529C13.4343 13.0229 13.3623 13.0074 13.2895 13.0074C13.2167 13.0074 13.1447 13.0229 13.0783 13.0529L10.5141 14.4104C10.441 14.4531 10.3571 14.4736 10.2726 14.4695C10.188 14.4655 10.1065 14.437 10.0378 14.3874C9.96918 14.3379 9.91636 14.2696 9.88577 14.1907C9.85518 14.1117 9.84815 14.0257 9.86554 13.9428L10.3482 11.077C10.369 11.0105 10.3729 10.9398 10.3598 10.8714C10.3466 10.803 10.3167 10.7389 10.2728 10.6848L8.14602 8.64853C8.08961 8.59137 8.05001 8.5198 8.03158 8.44165C8.01313 8.36351 8.01657 8.28179 8.0415 8.20545C8.06643 8.12912 8.11188 8.06112 8.17289 8.00891C8.23389 7.9567 8.30809 7.92227 8.38736 7.90943L11.2683 7.48709C11.34 7.47984 11.4085 7.45367 11.4668 7.41126C11.5251 7.36888 11.5711 7.31176 11.6001 7.24576L12.8973 4.63631C12.932 4.56246 12.9867 4.49976 13.0552 4.45536C13.1237 4.41094 13.2032 4.38658 13.2848 4.385C13.3664 4.38344 13.4468 4.40472 13.5169 4.44649C13.5871 4.48823 13.6441 4.54876 13.6817 4.62123ZM23.3731 16.473C21.7574 18.8912 19.2944 20.6951 16.4086 21.4604L19.0922 26.1083C19.2843 26.4412 19.6579 26.6253 20.0388 26.5752C20.4198 26.525 20.7331 26.2505 20.8325 25.8792L21.7992 22.2719L25.4065 23.2384C25.7776 23.338 26.1722 23.204 26.4061 22.8992C26.64 22.5943 26.6672 22.1786 26.4751 21.8459L23.3731 16.473ZM10.1938 21.463C7.30736 20.7004 4.84315 18.8986 3.22549 16.4823L0.128866 21.8459C-0.0632529 22.1786 -0.036005 22.5943 0.197906 22.8992C0.431815 23.204 0.826323 23.338 1.19747 23.2384L4.80483 22.2719L5.77142 25.8792C5.87086 26.2505 6.1841 26.525 6.56505 26.5752C6.946 26.6253 7.31965 26.4412 7.51178 26.1083L10.1938 21.463Z" fill="black"/>
</g>
<defs>
<clipPath id="clip0_329_3270">
<rect width="26.6" height="26.6" fill="white"/>
</clipPath>
</defs>
</svg>
