<svg width="26" height="26" viewBox="0 0 26 26" fill="none" xmlns="http://www.w3.org/2000/svg">
<g clip-path="url(#clip0_329_3275)">
<path fill-rule="evenodd" clip-rule="evenodd" d="M11.4743 0.000244141H6.08797C5.1074 0.000244141 4.20392 0.531853 3.72773 1.38901L0.624267 6.97524H11.4743V0.000244141ZM-0.000732422 22.5002V9.22524H12.5993H25.1993V22.5002C25.1993 23.9914 23.9904 25.2002 22.4993 25.2002H2.69927C1.2081 25.2002 -0.000732422 23.9914 -0.000732422 22.5002ZM24.5743 6.97524H13.7243V0.000244141H19.1106C20.091 0.000244141 20.9946 0.531853 21.4707 1.38901L24.5743 6.97524ZM7.83568 16.0913L11.9629 11.9641C12.3144 11.6126 12.8842 11.6126 13.2357 11.9641L17.3629 16.0913C17.9299 16.6583 17.5283 17.6277 16.7265 17.6277H14.3993V21.2276C14.3993 22.2218 13.5934 23.0276 12.5993 23.0276C11.6052 23.0276 10.7993 22.2218 10.7993 21.2276V17.6277H8.47208C7.67027 17.6277 7.26871 16.6582 7.83568 16.0913Z" fill="#162C63"/>
</g>
<defs>
<clipPath id="clip0_329_3275">
<rect width="25.2" height="25.2" fill="white"/>
</clipPath>
</defs>
</svg>
