<svg width="26" height="26" viewBox="0 0 26 26" fill="none" xmlns="http://www.w3.org/2000/svg">
<path fill-rule="evenodd" clip-rule="evenodd" d="M11.475 0H6.0887C5.10813 0 4.20466 0.531608 3.72847 1.38876L0.625 6.975H11.475V0ZM0 22.5V9.225H12.6H25.2V22.5C25.2 23.9911 23.9911 25.2 22.5 25.2H2.7C1.20883 25.2 0 23.9911 0 22.5ZM24.575 6.975H13.725V0H19.1113C20.0918 0 20.9954 0.531608 21.4715 1.38876L24.575 6.975ZM7.83641 16.091L11.9636 11.9638C12.3151 11.6124 12.8849 11.6124 13.2364 11.9638L17.3636 16.091C17.9306 16.658 17.529 17.6274 16.7272 17.6274H14.4V21.2274C14.4 22.2215 13.5941 23.0274 12.6 23.0274C11.6059 23.0274 10.8 22.2215 10.8 21.2274V17.6274H8.47282C7.67101 17.6274 7.26944 16.658 7.83641 16.091Z" fill="white"/>
</svg>
