<svg width="26" height="28" viewBox="0 0 26 28" fill="none" xmlns="http://www.w3.org/2000/svg">
<path fill-rule="evenodd" clip-rule="evenodd" d="M9.32683 6.29975L13.7784 6.29975C14.728 6.30528 15.6367 6.71216 16.3045 7.43087C16.9723 8.14959 17.3445 9.12127 17.3393 10.1322V14.7874C17.3445 15.7982 16.9723 16.7699 16.3045 17.4886C15.6367 18.2073 14.728 18.6142 13.7784 18.6198H9.32683C8.37722 18.6142 7.46857 18.2073 6.80077 17.4886C6.13298 16.7699 5.76075 15.7982 5.76597 14.7874L5.76597 10.1333C5.76047 9.12218 6.13258 8.15022 6.80041 7.43126C7.46823 6.71231 8.37704 6.30528 9.32683 6.29975Z" stroke="#F5F5F7" stroke-width="1.6" stroke-linecap="round" stroke-linejoin="round"/>
<path d="M10.589 21.6998H15.518C18.1516 21.6678 20.2624 19.3696 20.2331 16.5661V11.4324" stroke="#F5F5F7" stroke-width="1.6" stroke-linecap="round" stroke-linejoin="round"/>
</svg>
