<svg width="139" height="51" viewBox="0 0 139 51" fill="none" xmlns="http://www.w3.org/2000/svg">
<g filter="url(#filter0_d_314_3811)">
<path d="M134.782 34.5476C134.597 28.5717 128.891 25.3669 123.586 25.3669H123.507C122.019 25.3755 120.455 25.5685 118.726 25.9562C118.542 26.0049 115.699 26.7724 114.242 28.2388C114.162 28.3195 114.067 28.3835 113.962 28.4271C113.858 28.4708 113.746 28.4932 113.632 28.4932C113.519 28.4932 113.407 28.4706 113.302 28.4269C113.198 28.3832 113.103 28.3191 113.023 28.2383C112.943 28.1576 112.879 28.0617 112.836 27.9562C112.793 27.8507 112.77 27.7377 112.77 27.6235C112.77 27.5093 112.793 27.3963 112.836 27.2908C112.879 27.1853 112.943 27.0895 113.023 27.0088C114.858 25.1591 118.171 24.3038 118.311 24.2682L118.334 24.2629C119.65 23.959 120.988 23.7605 122.335 23.6693C122.913 22.5905 124.27 19.2362 121.138 15.8905C117.561 17.0753 113.284 15.967 113.063 15.9079C112.842 15.849 112.653 15.704 112.538 15.5047C112.423 15.3054 112.391 15.0682 112.449 14.8453C112.508 14.6224 112.652 14.432 112.849 14.316C113.047 14.2 113.282 14.1679 113.503 14.2268C113.578 14.2468 119.409 15.7462 122.407 13.275C123.716 12.1955 124.312 10.4466 124.179 8.07619V8.01186L124.185 7.94841C124.185 7.91364 124.464 4.2229 121.726 1.92727C120.51 0.907669 118.858 0.286171 116.811 0.0784259C114.249 -0.182342 111.063 0.207941 107.341 1.23798L107.082 1.30925C104.972 1.89163 102.791 2.49401 101.108 3.75613C98.9247 5.39288 98.8144 7.63549 98.8937 10.8708C98.9023 11.2037 98.9127 11.5383 98.9239 11.873C102.646 13.428 105.331 16.725 106.918 21.7013C108.136 25.5259 108.701 30.351 108.596 36.0557C108.543 38.9242 107.756 41.1346 106.258 42.6401C107.424 42.8551 108.608 42.9581 109.793 42.9478H127.485C128.415 42.9555 129.337 42.7704 130.193 42.4041C131.049 42.0377 131.822 41.498 132.462 40.8182C134.009 39.2093 134.855 36.9241 134.782 34.5476ZM119.354 18.6834C119.698 18.6834 119.974 19.045 119.974 19.4917C119.974 19.9385 119.697 20.3001 119.354 20.3001C119.01 20.3001 118.733 19.9377 118.733 19.4917C118.733 19.0458 119.011 18.6834 119.354 18.6834ZM116.663 18.6834C117.008 18.6834 117.284 19.045 117.284 19.4917C117.284 19.9385 117.007 20.3001 116.663 20.3001C116.32 20.3001 116.043 19.9377 116.043 19.4917C116.043 19.0458 116.321 18.6834 116.663 18.6834ZM131.71 38.8494C131.619 38.9962 131.473 39.1003 131.306 39.1388C131.138 39.1774 130.962 39.1472 130.817 39.055C130.671 38.9628 130.568 38.8161 130.529 38.6471C130.491 38.4781 130.521 38.3008 130.613 38.1541C131.708 36.3887 131.958 34.6719 131.356 33.0517C131.093 32.339 130.681 31.6915 130.149 31.1533C130.021 31.038 129.943 30.8762 129.934 30.7034C129.924 30.5306 129.983 30.361 130.097 30.2319C130.211 30.1028 130.372 30.0248 130.543 30.015C130.715 30.0052 130.883 30.0645 131.011 30.1798C131.702 30.8583 132.234 31.6839 132.567 32.5962C133.083 33.987 133.353 36.1966 131.71 38.8468V38.8494Z" fill="white"/>
<path d="M57.7185 26.1638C57.3831 22.0559 56.2199 19.3552 53.8272 17.1352C51.5337 15.0064 48.4081 13.813 45.1722 13.813C44.971 13.813 44.7698 13.8176 44.5686 13.8269C41.1636 13.9834 38.0924 15.4019 35.9213 17.8253C35.3879 18.4181 34.925 19.0716 34.5417 19.7724C34.465 20.0532 34.3813 20.3339 34.2882 20.6138C37.5647 20.3435 40.4764 21.497 42.1414 23.7561C43.577 25.704 44.3832 28.0709 44.4694 30.6021C44.6057 34.5597 43.1597 38.0253 40.2893 40.6243C39.9024 40.974 39.4968 41.3022 39.0745 41.6074C40.8688 42.5071 43.0054 42.9982 45.417 42.9982C52.9693 42.9982 57.8487 38.2391 57.8487 30.8751C57.8513 29.1627 57.8418 27.6311 57.7185 26.1638ZM49.3247 31.3679C49.4225 32.0364 49.6725 32.6731 50.055 33.228C50.1972 33.4375 50.0696 33.6879 49.7687 33.787C49.6852 33.8143 49.5979 33.8281 49.51 33.8278C49.285 33.8278 49.0686 33.7409 48.9651 33.5879C48.8428 33.4087 48.7311 33.2224 48.6306 33.0299C48.4935 33.2367 48.3438 33.4347 48.1822 33.6227C48.1148 33.6912 48.034 33.7448 47.9449 33.7801C47.8559 33.8154 47.7605 33.8317 47.6649 33.8278C47.5594 33.8284 47.4549 33.8083 47.3571 33.7687C47.0708 33.6496 46.9768 33.3923 47.1475 33.1924C47.6925 32.557 47.9822 31.9399 48.1081 31.367C48.2105 30.8978 48.2105 30.4116 48.1081 29.9424C47.9543 29.2648 47.631 28.6382 47.1691 28.1222C46.9803 27.9318 47.0492 27.6702 47.3234 27.5381C47.5976 27.406 47.9727 27.4512 48.1624 27.6459C48.3208 27.813 48.465 27.9933 48.5935 28.1848C48.6984 27.9323 48.8218 27.6879 48.9625 27.4538C49.097 27.2417 49.4531 27.1452 49.7575 27.2382C50.0619 27.3312 50.2007 27.5789 50.0679 27.7919C49.6902 28.4564 49.4407 29.1869 49.3324 29.945C49.418 30.4155 49.4166 30.8979 49.3281 31.3679H49.3247Z" fill="white"/>
<path d="M75.3876 28.5925C75.1005 25.0764 74.1064 22.7686 72.0637 20.8711C70.1047 19.0518 67.4336 18.0322 64.6675 18.0322C64.4951 18.0322 64.3226 18.0363 64.1502 18.0444C61.886 18.1487 59.7959 18.9058 58.1059 20.2105C58.9949 22.2358 59.2984 24.2707 59.4407 26.0213C59.5666 27.5546 59.576 29.1236 59.576 30.8681C59.576 34.3754 58.6026 37.409 56.7419 39.7577C58.5974 41.823 61.4066 42.9999 64.8779 42.9999C71.33 42.9999 75.4997 38.9363 75.4997 32.6465C75.4997 31.1758 75.4911 29.8563 75.3876 28.5925ZM67.8992 31.7095C67.9962 32.2535 68.2318 32.7627 68.5829 33.1872C68.7166 33.3532 68.5967 33.5523 68.3148 33.6314C68.2358 33.653 68.1543 33.6638 68.0725 33.6635C67.8612 33.6635 67.6586 33.5931 67.562 33.4732C67.4484 33.3323 67.3438 33.1843 67.249 33.0299C67.119 33.1959 66.9785 33.3533 66.8283 33.501C66.6916 33.6137 66.5184 33.6716 66.342 33.6635C66.2438 33.6643 66.1461 33.6484 66.0531 33.6166C65.785 33.5227 65.6979 33.3176 65.8574 33.1594C66.3678 32.6535 66.6394 32.1641 66.7567 31.7104C66.8532 31.34 66.8532 30.9508 66.7567 30.5804C66.6006 30.0261 66.2964 29.5258 65.8772 29.134C65.7048 28.9828 65.7651 28.775 66.0221 28.6698C66.279 28.5647 66.6308 28.6038 66.8084 28.7568C66.954 28.8872 67.0879 29.0303 67.2085 29.1844C67.3076 28.9817 67.4229 28.7875 67.5534 28.6038C67.6793 28.4351 68.0121 28.3586 68.2984 28.4299C68.5846 28.5012 68.7131 28.7011 68.5881 28.8698C68.2412 29.3846 68.0061 29.9676 67.8983 30.5804C67.9798 30.9523 67.9801 31.3375 67.8992 31.7095Z" fill="white"/>
<path d="M42.5356 30.6666C42.4624 28.5639 41.7717 26.5221 40.5887 24.9184C39.7886 23.8336 38.5952 23.1286 37.3122 22.7853C36.0879 22.4584 34.7143 22.229 33.609 22.9591C32.5036 23.6893 31.2663 26.4039 29.9014 26.4039C29.697 26.4039 29.4978 26.3388 29.3324 26.2178C29.1669 26.0969 29.0436 25.9263 28.9801 25.7305C28.9166 25.5346 28.9161 25.3236 28.9787 25.1274C29.0414 24.9313 29.1639 24.7602 29.3288 24.6385C32.8071 22.0734 33.3417 16.8206 33.3503 13.9183C33.3641 9.61387 31.3973 5.5737 28.2174 3.36847C22.4594 -0.618674 12.5481 -1.31666 7.53077 4.05864C5.55367 6.17868 3.93181 9.8277 5.04754 12.8317C5.74767 14.7188 7.50576 15.8375 9.41216 16.3956C9.87431 16.5312 6.91168 23.1677 6.61766 23.8144C4.75438 27.9215 2.88075 32.9361 4.81732 37.3648C5.154 38.1309 5.59102 38.848 6.11671 39.497C8.71892 42.7245 13.3595 43.3399 16.8006 42.5176C18.3595 42.1456 20.3685 41.3659 20.3728 39.4397C20.3728 38.1541 19.696 36.9798 19.6882 35.6646C19.6796 34.007 19.9633 32.3529 20.4254 30.7665C20.4986 30.5181 20.6667 30.3092 20.8927 30.1857C21.1186 30.0622 21.384 30.0343 21.6304 30.1081C21.8768 30.1819 22.084 30.3513 22.2065 30.5791C22.329 30.8069 22.3567 31.0744 22.2835 31.3228C21.8093 32.9326 20.9462 36.7668 22.3905 39.6552C22.4494 39.7344 22.4957 39.8224 22.5276 39.916C22.6233 40.0855 22.725 40.2515 22.838 40.4123C24.4831 42.7653 27.7294 43.0026 30.1669 42.7879C36.3052 42.2447 42.7952 38.221 42.5356 30.6666ZM26.5973 16.2939C26.2524 16.2939 25.9756 15.9323 25.9756 15.4855C25.9756 15.0387 26.2541 14.6771 26.5973 14.6771C26.9405 14.6771 27.2181 15.0396 27.2181 15.4855C27.2181 15.9314 26.937 16.2939 26.5973 16.2939ZM28.6666 15.4855C28.6666 15.0396 28.9443 14.6771 29.2875 14.6771C29.6306 14.6771 29.9074 15.0396 29.9074 15.4855C29.9074 15.9314 29.6298 16.2939 29.2875 16.2939C28.9452 16.2939 28.6666 15.9323 28.6666 15.4855Z" fill="white"/>
<path d="M105.277 22.2333C103.652 17.1344 100.794 14.0226 96.794 12.9847C93.5589 12.1459 90.3617 13.7713 89.0529 16.8658C89.633 18.0537 90.0244 19.3261 90.2126 20.6365C90.9843 20.5704 91.7818 20.6313 92.4587 20.9564C92.6496 21.0645 92.7926 21.2418 92.8586 21.4522C92.9246 21.6627 92.9087 21.8906 92.8141 22.0897C92.7195 22.2888 92.5534 22.4441 92.3493 22.5242C92.1453 22.6043 91.9187 22.6032 91.7154 22.521C90.7515 22.0568 88.7839 22.6079 87.7742 23.0677C87.5664 23.1582 87.3317 23.1628 87.1206 23.0803C86.9096 22.9979 86.7392 22.8351 86.6461 22.6271C86.5531 22.4191 86.5449 22.1826 86.6234 21.9686C86.7018 21.7545 86.8606 21.5802 87.0654 21.4831C87.5362 21.2761 88.0205 21.1019 88.5148 20.9616C88.3254 19.5656 87.8673 18.2204 87.1663 17.0014C85.641 14.4024 83.2 13.0534 79.9072 12.9917H79.7494C75.7607 12.9917 73.4016 15.8505 72.0514 18.6295C72.4647 18.9247 72.859 19.246 73.2318 19.5917C76.2539 22.3967 76.8902 25.7988 77.1067 28.4491C77.2144 29.7782 77.2239 31.1368 77.2239 32.6458C77.2239 36.3713 75.9616 39.4866 73.575 41.6553C73.5301 41.6961 73.4887 41.7361 73.4379 41.7761C74.3576 42.2901 75.3703 42.6129 76.416 42.7253L76.4867 42.7366C76.5195 42.7427 79.9486 43.3964 82.0421 41.6935C83.1181 40.8174 83.6803 39.4214 83.7157 37.5456C83.7199 37.3151 83.8148 37.0957 83.9795 36.9357C84.1442 36.7757 84.3652 36.6882 84.5938 36.6924C84.8225 36.6967 85.0401 36.7924 85.1989 36.9584C85.3576 37.1244 85.4444 37.3472 85.4401 37.5777C85.4338 38.4378 85.3055 39.2925 85.059 40.1159C85.4246 40.8443 87.1284 43.5798 91.7129 42.4115C93.0234 42.0777 93.896 41.4415 94.3858 40.4662C95.5067 38.2123 94.178 34.9144 94.1642 34.8814C94.0803 34.6694 94.0825 34.4326 94.1703 34.2223C94.2581 34.0119 94.4245 33.8448 94.6335 33.757C94.8425 33.6692 95.0774 33.6678 95.2873 33.7532C95.4973 33.8385 95.6656 34.0036 95.7559 34.213C95.8188 34.3651 97.1811 37.7177 96.2068 40.5731C96.5207 41.2103 97.6605 42.8774 101.015 42.94H101.066C101.084 42.94 103.25 43.0739 104.895 41.5562C106.164 40.3836 106.831 38.5209 106.878 36.0192C106.974 30.5101 106.435 25.871 105.277 22.2333ZM88.7269 26.4542C88.3821 26.4542 88.1061 26.0918 88.1061 25.6459C88.1061 25.2 88.3846 24.8375 88.7269 24.8375C89.0693 24.8375 89.3478 25.1991 89.3478 25.6459C89.3478 26.0926 89.0701 26.4542 88.7269 26.4542ZM91.4171 26.4542C91.0722 26.4542 90.7963 26.0918 90.7963 25.6459C90.7963 25.2 91.0748 24.8375 91.4171 24.8375C91.7594 24.8375 92.0379 25.1991 92.0379 25.6459C92.0379 26.0926 91.7603 26.4542 91.4171 26.4542Z" fill="white"/>
</g>
<defs>
<filter id="filter0_d_314_3811" x="0" y="0" width="138.786" height="51" filterUnits="userSpaceOnUse" color-interpolation-filters="sRGB">
<feFlood flood-opacity="0" result="BackgroundImageFix"/>
<feColorMatrix in="SourceAlpha" type="matrix" values="0 0 0 0 0 0 0 0 0 0 0 0 0 0 0 0 0 0 127 0" result="hardAlpha"/>
<feOffset dy="4"/>
<feGaussianBlur stdDeviation="2"/>
<feComposite in2="hardAlpha" operator="out"/>
<feColorMatrix type="matrix" values="0 0 0 0 0.305882 0 0 0 0 0.478431 0 0 0 0 0.811765 0 0 0 0.15 0"/>
<feBlend mode="normal" in2="BackgroundImageFix" result="effect1_dropShadow_314_3811"/>
<feBlend mode="normal" in="SourceGraphic" in2="effect1_dropShadow_314_3811" result="shape"/>
</filter>
</defs>
</svg>
