<svg width="34" height="37" viewBox="0 0 34 37" fill="none" xmlns="http://www.w3.org/2000/svg">
<g filter="url(#filter0_d_334_482)">
<path fill-rule="evenodd" clip-rule="evenodd" d="M19.9981 13.6C19.9981 15.4557 18.5059 16.96 16.6651 16.96C14.8244 16.96 13.3322 15.4557 13.3322 13.6C13.3322 11.7443 14.8244 10.24 16.6651 10.24C18.5059 10.24 19.9981 11.7443 19.9981 13.6Z" stroke="white" stroke-width="2" stroke-linecap="round" stroke-linejoin="round"/>
<path d="M19.9983 3.36002C19.446 3.36002 18.9983 3.80773 18.9983 4.36002C18.9983 4.9123 19.446 5.36002 19.9983 5.36002V3.36002ZM13.3324 5.36002C13.8847 5.36002 14.3324 4.9123 14.3324 4.36002C14.3324 3.80773 13.8847 3.36002 13.3324 3.36002V5.36002ZM20.9983 4.36002C20.9983 3.80773 20.5505 3.36002 19.9983 3.36002C19.446 3.36002 18.9983 3.80773 18.9983 4.36002H20.9983ZM18.9983 6.04002C18.9983 6.5923 19.446 7.04002 19.9983 7.04002C20.5505 7.04002 20.9983 6.5923 20.9983 6.04002H18.9983ZM18.9983 4.36C18.9983 4.91229 19.446 5.36 19.9983 5.36C20.5505 5.36 20.9983 4.91229 20.9983 4.36H18.9983ZM20.9983 1C20.9983 0.447715 20.5505 0 19.9983 0C19.446 0 18.9983 0.447715 18.9983 1H20.9983ZM19.9988 5.35998C20.5511 5.35998 20.9988 4.91227 20.9988 4.35998C20.9988 3.8077 20.5511 3.35998 19.9988 3.35998V5.35998ZM13.3329 3.35998C12.7806 3.35998 12.3329 3.8077 12.3329 4.35998C12.3329 4.91227 12.7806 5.35998 13.3329 5.35998V3.35998ZM14.3325 4.36002C14.3325 3.80773 13.8848 3.36002 13.3325 3.36002C12.7803 3.36002 12.3325 3.80773 12.3325 4.36002H14.3325ZM12.3325 6.04002C12.3325 6.5923 12.7803 7.04002 13.3325 7.04002C13.8848 7.04002 14.3325 6.5923 14.3325 6.04002H12.3325ZM12.3325 4.36C12.3325 4.91229 12.7803 5.36 13.3325 5.36C13.8848 5.36 14.3325 4.91229 14.3325 4.36H12.3325ZM14.3325 1C14.3325 0.447715 13.8848 0 13.3325 0C12.7803 0 12.3325 0.447715 12.3325 1H14.3325ZM6.06548 24.5613C5.62435 24.8936 5.53611 25.5206 5.8684 25.9617C6.20069 26.4028 6.82768 26.4911 7.26882 26.1588L6.06548 24.5613ZM26.0632 26.1588C26.5044 26.4911 27.1313 26.4028 27.4636 25.9617C27.7959 25.5206 27.7077 24.8936 27.2666 24.5613L26.0632 26.1588ZM19.9983 5.36002H21.6648V3.36002H19.9983V5.36002ZM21.6648 5.36002C24.7864 5.36002 27.3307 7.91331 27.3307 11.08H29.3307C29.3307 6.82401 25.9062 3.36002 21.6648 3.36002V5.36002ZM27.3307 11.08V21.16H29.3307V11.08H27.3307ZM27.3307 21.16C27.3307 24.3267 24.7864 26.88 21.6648 26.88V28.88C25.9062 28.88 29.3307 25.416 29.3307 21.16H27.3307ZM21.6648 26.88H11.6659V28.88H21.6648V26.88ZM11.6659 26.88C8.54432 26.88 6 24.3267 6 21.16H4C4 25.416 7.42454 28.88 11.6659 28.88V26.88ZM6 21.16V11.08H4V21.16H6ZM6 11.08C6 7.91331 8.54432 5.36002 11.6659 5.36002V3.36002C7.42454 3.36002 4 6.82401 4 11.08H6ZM11.6659 5.36002H13.3324V3.36002H11.6659V5.36002ZM18.9983 4.36002V6.04002H20.9983V4.36002H18.9983ZM20.9983 4.36V1H18.9983V4.36H20.9983ZM19.9988 3.35998H13.3329V5.35998H19.9988V3.35998ZM12.3325 4.36002V6.04002H14.3325V4.36002H12.3325ZM14.3325 4.36V1H12.3325V4.36H14.3325ZM7.26882 26.1588C12.8423 21.9605 20.4898 21.9605 26.0632 26.1588L27.2666 24.5613C20.9806 19.8263 12.3514 19.8263 6.06548 24.5613L7.26882 26.1588Z" fill="white"/>
</g>
<defs>
<filter id="filter0_d_334_482" x="0" y="0" width="33.3307" height="36.8801" filterUnits="userSpaceOnUse" color-interpolation-filters="sRGB">
<feFlood flood-opacity="0" result="BackgroundImageFix"/>
<feColorMatrix in="SourceAlpha" type="matrix" values="0 0 0 0 0 0 0 0 0 0 0 0 0 0 0 0 0 0 127 0" result="hardAlpha"/>
<feOffset dy="4"/>
<feGaussianBlur stdDeviation="2"/>
<feComposite in2="hardAlpha" operator="out"/>
<feColorMatrix type="matrix" values="0 0 0 0 0.305882 0 0 0 0 0.478431 0 0 0 0 0.811765 0 0 0 0.15 0"/>
<feBlend mode="normal" in2="BackgroundImageFix" result="effect1_dropShadow_334_482"/>
<feBlend mode="normal" in="SourceGraphic" in2="effect1_dropShadow_334_482" result="shape"/>
</filter>
</defs>
</svg>
