<svg width="34" height="39" viewBox="0 0 34 39" fill="none" xmlns="http://www.w3.org/2000/svg">
<g filter="url(#filter0_d_334_474)">
<path d="M6.84656 16.3476L5.85294 16.2349L6.84656 16.3476ZM7.47534 10.8076L8.46896 10.9204L7.47534 10.8076ZM5.62962 19.0991L4.86814 18.4509H4.86814L5.62962 19.0991ZM26.6442 16.2349C26.5819 15.6861 26.0866 15.2917 25.5378 15.354C24.9891 15.4163 24.5947 15.9116 24.657 16.4604L26.6442 16.2349ZM26.8676 19.0991L26.1061 19.7473L26.8676 19.0991ZM13.0569 4.33754L13.3808 5.28362C13.7852 5.14516 14.0569 4.76498 14.0569 4.33754H13.0569ZM17.9125 2.76507C18.2722 3.1841 18.9036 3.23214 19.3226 2.87237C19.7416 2.51261 19.7897 1.88127 19.4299 1.46224L17.9125 2.76507ZM21.4032 26.6602C21.597 26.1431 21.3349 25.5667 20.8177 25.3729C20.3006 25.1791 19.7242 25.4412 19.5304 25.9583L21.4032 26.6602ZM12.9668 25.9583C12.7729 25.4412 12.1966 25.1791 11.6794 25.3729C11.1623 25.5667 10.9002 26.1431 11.094 26.6602L12.9668 25.9583ZM24.3717 22.4971H8.12544V24.4971H24.3717V22.4971ZM7.84018 16.4604L8.46896 10.9204L6.48172 10.6948L5.85294 16.2349L7.84018 16.4604ZM6.3911 19.7473C7.19617 18.8015 7.70338 17.6658 7.84018 16.4604L5.85294 16.2349C5.76326 17.0251 5.4288 17.7923 4.86814 18.4509L6.3911 19.7473ZM24.657 16.4604C24.7938 17.6658 25.301 18.8015 26.1061 19.7473L27.629 18.4509C27.0684 17.7923 26.7339 17.0251 26.6442 16.2349L24.657 16.4604ZM8.12544 22.4971C7.18555 22.4971 6.51553 22.0318 6.20474 21.4841C5.90383 20.9538 5.90886 20.3138 6.3911 19.7473L4.86814 18.4509C3.80788 19.6965 3.7754 21.2555 4.46531 22.4712C5.14535 23.6695 6.49449 24.4971 8.12544 24.4971V22.4971ZM24.3717 24.4971C26.0027 24.4971 27.3518 23.6695 28.0319 22.4712C28.7218 21.2555 28.6893 19.6965 27.629 18.4509L26.1061 19.7473C26.5883 20.3138 26.5933 20.9538 26.2924 21.4841C25.9816 22.0318 25.3116 22.4971 24.3717 22.4971V24.4971ZM14.0569 4.33754V4.1917H12.0569V4.33754H14.0569ZM8.46896 10.9204C8.75719 8.38084 10.6688 6.21217 13.3808 5.28362L12.733 3.39145C9.42022 4.52569 6.87159 7.25983 6.48172 10.6948L8.46896 10.9204ZM16.2486 0C13.9336 0 12.0569 1.87669 12.0569 4.1917H14.0569C14.0569 2.98126 15.0381 2 16.2486 2V0ZM16.2486 2C16.9138 2 17.509 2.29512 17.9125 2.76507L19.4299 1.46224C18.6627 0.568624 17.5215 0 16.2486 0V2ZM19.5304 25.9583C19.0684 27.1912 17.7954 28.1214 16.2486 28.1214V30.1214C18.5966 30.1214 20.6372 28.704 21.4032 26.6602L19.5304 25.9583ZM16.2486 28.1214C14.7017 28.1214 13.4288 27.1912 12.9668 25.9583L11.094 26.6602C11.8599 28.704 13.9005 30.1214 16.2486 30.1214V28.1214Z" fill="white"/>
<path d="M28.9032 8.03047C28.9032 10.3601 27.0147 12.2487 24.685 12.2487C22.3554 12.2487 20.4668 10.3601 20.4668 8.03047C20.4668 5.70081 22.3554 3.81226 24.685 3.81226C27.0147 3.81226 28.9032 5.70081 28.9032 8.03047Z" stroke="white" stroke-width="1.5" stroke-linecap="round"/>
</g>
<defs>
<filter id="filter0_d_334_474" x="0.000183105" y="0" width="33.6531" height="38.1213" filterUnits="userSpaceOnUse" color-interpolation-filters="sRGB">
<feFlood flood-opacity="0" result="BackgroundImageFix"/>
<feColorMatrix in="SourceAlpha" type="matrix" values="0 0 0 0 0 0 0 0 0 0 0 0 0 0 0 0 0 0 127 0" result="hardAlpha"/>
<feOffset dy="4"/>
<feGaussianBlur stdDeviation="2"/>
<feComposite in2="hardAlpha" operator="out"/>
<feColorMatrix type="matrix" values="0 0 0 0 0.305882 0 0 0 0 0.478431 0 0 0 0 0.811765 0 0 0 0.15 0"/>
<feBlend mode="normal" in2="BackgroundImageFix" result="effect1_dropShadow_334_474"/>
<feBlend mode="normal" in="SourceGraphic" in2="effect1_dropShadow_334_474" result="shape"/>
</filter>
</defs>
</svg>
