<svg width="462" height="156" viewBox="0 0 462 156" fill="none" xmlns="http://www.w3.org/2000/svg">
<g filter="url(#filter0_d_312_3647)">
<path d="M457.155 118.743C456.516 98.2034 436.744 87.1881 418.364 87.1881H418.089C412.932 87.218 407.513 87.8812 401.523 89.2137C400.886 89.381 391.036 92.0191 385.987 97.0592C385.71 97.3366 385.38 97.5566 385.017 97.7066C384.655 97.8566 384.266 97.9338 383.874 97.9337C383.481 97.9335 383.093 97.8561 382.73 97.7058C382.368 97.5555 382.039 97.3353 381.761 97.0577C381.484 96.7801 381.264 96.4506 381.114 96.088C380.964 95.7254 380.887 95.3368 380.887 94.9444C380.887 94.552 380.964 94.1634 381.115 93.8009C381.265 93.4384 381.485 93.1091 381.763 92.8317C388.12 86.4741 399.599 83.5343 400.086 83.4118L400.163 83.3939C404.724 82.3493 409.36 81.667 414.029 81.3533C416.031 77.6457 420.733 66.1165 409.882 54.6172C397.486 58.6893 382.668 54.8801 381.9 54.6769C381.134 54.4745 380.479 53.9759 380.081 53.291C379.682 52.6061 379.572 51.7908 379.774 51.0246C379.977 50.2584 380.475 49.604 381.16 49.2053C381.845 48.8067 382.661 48.6964 383.427 48.8989C383.687 48.9676 403.889 54.1212 414.277 45.6275C418.815 41.9168 420.879 35.9058 420.416 27.7586V27.5375L420.437 27.3194C420.437 27.1999 421.405 14.5145 411.917 6.6242C407.704 3.11974 401.98 0.983596 394.887 0.269557C386.011 -0.626726 374.972 0.714711 362.074 4.25503L361.178 4.50001C353.867 6.50171 346.309 8.57213 340.477 12.9101C332.912 18.5358 332.53 26.2438 332.805 37.3637C332.835 38.508 332.87 39.6582 332.909 40.8084C345.807 46.1533 355.11 57.4853 360.61 74.5894C364.829 87.7348 366.786 104.319 366.421 123.927C366.239 133.786 363.511 141.383 358.322 146.558C362.362 147.297 366.464 147.651 370.571 147.616H431.874C435.096 147.642 438.29 147.006 441.256 145.747C444.223 144.487 446.899 142.632 449.118 140.296C454.478 134.766 457.409 126.911 457.155 118.743ZM403.698 64.2164C404.893 64.2164 405.849 65.4592 405.849 66.9949C405.849 68.5305 404.887 69.7733 403.698 69.7733C402.509 69.7733 401.547 68.5275 401.547 66.9949C401.547 65.4622 402.512 64.2164 403.698 64.2164ZM394.376 64.2164C395.571 64.2164 396.527 65.4592 396.527 66.9949C396.527 68.5305 395.565 69.7733 394.376 69.7733C393.187 69.7733 392.225 68.5275 392.225 66.9949C392.225 65.4622 393.19 64.2164 394.376 64.2164ZM446.513 133.529C446.196 134.033 445.692 134.391 445.111 134.524C444.53 134.656 443.921 134.552 443.416 134.236C442.912 133.919 442.554 133.414 442.422 132.834C442.289 132.253 442.393 131.643 442.71 131.139C446.504 125.071 447.371 119.17 445.285 113.602C444.375 111.152 442.948 108.927 441.103 107.077C440.659 106.68 440.391 106.124 440.357 105.53C440.323 104.936 440.527 104.353 440.923 103.91C441.32 103.466 441.876 103.198 442.47 103.164C443.064 103.131 443.646 103.334 444.09 103.731C446.484 106.063 448.326 108.9 449.483 112.036C451.269 116.816 452.205 124.411 446.513 133.52V133.529Z" fill="white"/>
<path d="M190.133 89.9275C188.971 75.8081 184.941 66.5256 176.65 58.8952C168.703 51.5786 157.873 47.4766 146.66 47.4766C145.963 47.4766 145.266 47.4925 144.569 47.5244C132.771 48.0621 122.129 52.9379 114.606 61.2674C112.758 63.3048 111.154 65.5507 109.826 67.9596C109.56 68.9246 109.27 69.8896 108.948 70.8516C120.301 69.9225 130.39 73.887 136.159 81.6518C141.133 88.3471 143.927 96.4823 144.225 105.182C144.697 118.785 139.687 130.696 129.742 139.629C128.401 140.831 126.995 141.959 125.532 143.008C131.749 146.101 139.152 147.789 147.509 147.789C173.677 147.789 190.584 131.431 190.584 106.12C190.593 100.235 190.56 94.9706 190.133 89.9275ZM161.049 107.814C161.388 110.112 162.254 112.3 163.579 114.208C164.072 114.928 163.63 115.788 162.587 116.129C162.298 116.223 161.995 116.27 161.691 116.269C160.911 116.269 160.161 115.971 159.803 115.445C159.379 114.829 158.992 114.188 158.644 113.527C158.169 114.238 157.65 114.918 157.09 115.564C156.857 115.8 156.577 115.984 156.268 116.105C155.959 116.227 155.629 116.283 155.298 116.269C154.932 116.271 154.57 116.202 154.231 116.066C153.239 115.657 152.913 114.772 153.505 114.085C155.393 111.901 156.397 109.78 156.833 107.811C157.188 106.198 157.188 104.528 156.833 102.915C156.3 100.586 155.18 98.4321 153.58 96.6586C152.925 96.0043 153.164 95.1051 154.114 94.6509C155.065 94.1968 156.364 94.3522 157.021 95.0214C157.57 95.5958 158.07 96.2155 158.515 96.8737C158.879 96.0058 159.306 95.1659 159.794 94.3611C160.26 93.6322 161.494 93.3005 162.548 93.6202C163.603 93.9399 164.084 94.7914 163.624 95.5233C162.315 97.8073 161.451 100.318 161.076 102.924C161.372 104.541 161.367 106.199 161.061 107.814H161.049Z" fill="white"/>
<path d="M251.357 98.275C250.362 86.1901 246.917 78.258 239.839 71.7361C233.052 65.483 223.796 61.9785 214.212 61.9785C213.614 61.9785 213.017 61.9925 212.419 62.0203C204.574 62.3789 197.332 64.9811 191.476 69.4655C194.556 76.4266 195.608 83.4206 196.101 89.4376C196.537 94.7078 196.57 100.1 196.57 106.097C196.57 118.152 193.197 128.578 186.75 136.651C193.179 143.749 202.912 147.795 214.941 147.795C237.297 147.795 251.745 133.828 251.745 112.209C251.745 107.154 251.715 102.619 251.357 98.275ZM225.409 108.989C225.745 110.858 226.562 112.608 227.778 114.068C228.241 114.638 227.826 115.322 226.849 115.594C226.576 115.668 226.293 115.706 226.01 115.705C225.278 115.705 224.576 115.463 224.241 115.05C223.847 114.566 223.485 114.057 223.157 113.527C222.706 114.097 222.219 114.638 221.699 115.146C221.225 115.534 220.625 115.733 220.014 115.705C219.673 115.707 219.335 115.653 219.013 115.543C218.084 115.221 217.782 114.516 218.335 113.972C220.103 112.233 221.044 110.551 221.451 108.992C221.785 107.719 221.785 106.381 221.451 105.108C220.91 103.203 219.856 101.483 218.403 100.136C217.806 99.6164 218.015 98.9024 218.905 98.5409C219.795 98.1794 221.014 98.3138 221.63 98.8397C222.134 99.288 222.598 99.7799 223.016 100.31C223.359 99.6129 223.759 98.9454 224.211 98.3138C224.647 97.7342 225.801 97.4713 226.792 97.7163C227.784 97.9613 228.229 98.6485 227.796 99.228C226.594 100.998 225.78 103.001 225.406 105.108C225.689 106.386 225.69 107.71 225.409 108.989Z" fill="white"/>
<path d="M137.525 105.403C137.271 98.1764 134.878 91.1585 130.779 85.6464C128.007 81.9179 123.872 79.4949 119.426 78.3148C115.184 77.1915 110.424 76.4027 106.594 78.9123C102.764 81.4219 98.477 90.7522 93.7476 90.7522C93.0394 90.7523 92.3493 90.5285 91.776 90.1128C91.2027 89.6971 90.7754 89.1108 90.5554 88.4377C90.3353 87.7645 90.3337 87.0391 90.5507 86.365C90.7677 85.6909 91.1923 85.1027 91.7638 84.6844C103.816 75.8679 105.668 57.8138 105.698 47.8382C105.746 33.0435 98.9311 19.1571 87.9128 11.5775C67.9615 -2.12663 33.6189 -4.52568 16.234 13.9497C9.38343 21.2365 3.76373 33.7785 7.6297 44.1037C10.0556 50.5898 16.1474 54.4348 22.753 56.3529C24.3543 56.8189 14.0889 79.6293 13.0701 81.8521C6.61391 95.9686 0.121835 113.204 6.83201 128.426C7.99859 131.059 9.51285 133.524 11.3343 135.755C20.3509 146.848 36.4303 148.963 48.3538 146.137C53.7554 144.858 60.7166 142.178 60.7315 135.557C60.7315 131.139 58.3862 127.102 58.3593 122.582C58.3295 116.885 59.3124 111.199 60.9137 105.747C61.1673 104.893 61.7496 104.175 62.5326 103.751C63.3156 103.326 64.2352 103.23 65.0889 103.484C65.9427 103.737 66.6608 104.32 67.0852 105.103C67.5096 105.886 67.6056 106.805 67.352 107.659C65.7089 113.192 62.7183 126.371 67.7225 136.298C67.9267 136.57 68.087 136.873 68.1975 137.195C68.5292 137.777 68.8817 138.348 69.2731 138.901C74.9734 146.988 86.2218 147.804 94.6678 147.066C115.937 145.198 138.424 131.369 137.525 105.403ZM82.2991 56.0033C81.104 56.0033 80.145 54.7605 80.145 53.2248C80.145 51.6892 81.11 50.4464 82.2991 50.4464C83.4881 50.4464 84.4501 51.6922 84.4501 53.2248C84.4501 54.7575 83.4762 56.0033 82.2991 56.0033ZM89.4693 53.2248C89.4693 51.6922 90.4313 50.4464 91.6204 50.4464C92.8095 50.4464 93.7685 51.6922 93.7685 53.2248C93.7685 54.7575 92.8065 56.0033 91.6204 56.0033C90.4343 56.0033 89.4693 54.7605 89.4693 53.2248Z" fill="white"/>
<path d="M354.924 76.4175C349.293 58.8922 339.389 48.1965 325.529 44.6293C314.32 41.7463 303.242 47.3331 298.707 57.969C300.717 62.0519 302.073 66.4253 302.725 70.9292C305.399 70.7022 308.162 70.9113 310.508 72.0287C311.169 72.4002 311.664 73.0095 311.893 73.7329C312.122 74.4563 312.067 75.2396 311.739 75.9239C311.411 76.6082 310.836 77.1422 310.129 77.4175C309.422 77.6928 308.636 77.6888 307.932 77.4064C304.592 75.811 297.774 77.7051 294.276 79.2856C293.556 79.5967 292.743 79.6122 292.011 79.3289C291.28 79.0456 290.69 78.4861 290.367 77.7711C290.045 77.0562 290.017 76.2432 290.288 75.5076C290.56 74.772 291.11 74.1727 291.82 73.8392C293.451 73.1277 295.129 72.5288 296.842 72.0466C296.186 67.2485 294.599 62.6247 292.17 58.435C286.885 49.5021 278.427 44.8653 267.017 44.6532H266.47C252.65 44.6532 244.475 54.4795 239.797 64.0308C241.229 65.0454 242.595 66.1501 243.887 67.3381C254.358 76.9791 256.563 88.6727 257.313 97.7819C257.687 102.35 257.72 107.02 257.72 112.206C257.72 125.011 253.346 135.719 245.076 143.173C244.921 143.313 244.777 143.45 244.601 143.588C247.788 145.355 251.297 146.464 254.92 146.85L255.165 146.889C255.279 146.91 267.16 149.157 274.414 143.304C278.143 140.293 280.091 135.494 280.213 129.047C280.228 128.255 280.557 127.501 281.127 126.951C281.698 126.401 282.464 126.1 283.256 126.115C284.049 126.13 284.803 126.458 285.353 127.029C285.902 127.6 286.203 128.365 286.188 129.158C286.167 132.114 285.722 135.052 284.868 137.882C286.135 140.385 292.038 149.787 307.923 145.772C312.465 144.625 315.488 142.438 317.185 139.086C321.069 131.339 316.465 120.004 316.417 119.89C316.126 119.162 316.134 118.348 316.438 117.625C316.743 116.902 317.319 116.327 318.043 116.025C318.767 115.724 319.581 115.719 320.309 116.012C321.037 116.306 321.62 116.873 321.932 117.593C322.15 118.116 326.871 129.639 323.495 139.453C324.582 141.643 328.532 147.373 340.157 147.588H340.333C340.396 147.588 347.901 148.048 353.598 142.832C357.996 138.802 360.308 132.399 360.469 123.801C360.804 104.866 358.934 88.9206 354.924 76.4175ZM297.577 90.9253C296.382 90.9253 295.426 89.6795 295.426 88.1468C295.426 86.6142 296.391 85.3684 297.577 85.3684C298.763 85.3684 299.728 86.6112 299.728 88.1468C299.728 89.6825 298.766 90.9253 297.577 90.9253ZM306.899 90.9253C305.704 90.9253 304.748 89.6795 304.748 88.1468C304.748 86.6142 305.713 85.3684 306.899 85.3684C308.085 85.3684 309.05 86.6112 309.05 88.1468C309.05 89.6825 308.088 90.9253 306.899 90.9253Z" fill="white"/>
</g>
<defs>
<filter id="filter0_d_312_3647" x="0" y="0" width="461.17" height="155.794" filterUnits="userSpaceOnUse" color-interpolation-filters="sRGB">
<feFlood flood-opacity="0" result="BackgroundImageFix"/>
<feColorMatrix in="SourceAlpha" type="matrix" values="0 0 0 0 0 0 0 0 0 0 0 0 0 0 0 0 0 0 127 0" result="hardAlpha"/>
<feOffset dy="4"/>
<feGaussianBlur stdDeviation="2"/>
<feComposite in2="hardAlpha" operator="out"/>
<feColorMatrix type="matrix" values="0 0 0 0 0.222157 0 0 0 0 0.0862745 0 0 0 0 0.388235 0 0 0 0.15 0"/>
<feBlend mode="normal" in2="BackgroundImageFix" result="effect1_dropShadow_312_3647"/>
<feBlend mode="normal" in="SourceGraphic" in2="effect1_dropShadow_312_3647" result="shape"/>
</filter>
</defs>
</svg>
