<svg width="25" height="25" viewBox="0 0 25 25" fill="none" xmlns="http://www.w3.org/2000/svg">
<path fill-rule="evenodd" clip-rule="evenodd" d="M0.899414 12.5995C0.899817 7.01812 4.84285 2.21422 10.3171 1.12571C15.7914 0.0371904 21.2723 2.96722 23.4079 8.12391C25.5435 13.2806 23.7391 19.2278 19.0981 22.3284C14.4571 25.429 8.27215 24.8195 4.32567 20.8726C2.13165 18.6784 0.89919 15.7025 0.899414 12.5995ZM18.0691 8.64824C18.5768 9.15598 18.5767 9.97909 18.0689 10.4867L12.0018 16.5525C11.4941 17.0601 10.6711 17.0601 10.1635 16.5524L7.13057 13.5195C6.62288 13.0118 6.62288 12.1887 7.13057 11.681C7.63825 11.1734 8.46136 11.1734 8.96904 11.681L11.0828 13.7948L16.2307 8.64805C16.7384 8.14042 17.5615 8.14051 18.0691 8.64824Z" fill="white"/>
</svg>
