<svg width="27" height="27" viewBox="0 0 27 27" fill="none" xmlns="http://www.w3.org/2000/svg">
<g clip-path="url(#clip0_324_3274)">
<path fill-rule="evenodd" clip-rule="evenodd" d="M6.72 0C7.78038 0 8.64 0.859613 8.64 1.92V3.84H18.2402V1.92C18.2402 0.859613 19.0999 0 20.1602 0C21.2206 0 22.0802 0.859613 22.0802 1.92V3.84H24C25.5905 3.84 26.88 5.12941 26.88 6.72V24C26.88 25.5905 25.5905 26.88 24 26.88H2.88C1.28942 26.88 0 25.5905 0 24V6.72C0 5.12941 1.28942 3.84 2.88 3.84H4.8V1.92C4.8 0.859613 5.65962 0 6.72 0ZM16.4405 9.74058C16.3504 9.65051 16.2282 9.59992 16.1008 9.6C15.9734 9.60008 15.8513 9.65076 15.7613 9.74095L7.84549 17.6736C7.77203 17.7472 7.72447 17.8427 7.70995 17.9457L7.20468 21.533C7.18372 21.682 7.23373 21.8321 7.33981 21.9387C7.44588 22.0452 7.59577 22.0959 7.74476 22.0756L11.3321 21.5871C11.4361 21.5731 11.5326 21.5251 11.6068 21.451L19.5395 13.5184C19.7268 13.3309 19.7268 13.027 19.5395 12.8395L16.4405 9.74058Z" fill="#73A1F7"/>
</g>
<defs>
<clipPath id="clip0_324_3274">
<rect width="26.88" height="26.88" fill="white"/>
</clipPath>
</defs>
</svg>
