<svg width="22" height="19" viewBox="0 0 22 19" fill="none" xmlns="http://www.w3.org/2000/svg">
<path d="M15.8833 1H15.8833C15.069 0.999981 14.2666 1.2048 13.5475 1.59719C12.8283 1.98963 12.214 2.55791 11.7608 3.25276L10.9235 4.53666L10.0858 3.25295C9.63191 2.55741 9.01673 1.9887 8.29647 1.5962C7.57629 1.20376 6.77278 0.999268 5.95754 1L5.95664 1C3.2461 1 1.0361 3.23832 1.00055 6.06578L15.8833 1ZM15.8833 1C18.5944 1 20.8052 3.23882 20.8394 6.06583L20.8394 6.066M15.8833 1L20.8394 6.066M20.8394 6.066C20.8726 8.77279 19.4435 11.1618 17.471 13.1584C15.5048 15.1487 13.101 16.6417 11.4392 17.5351L11.4374 17.5361C11.2505 17.637 11.0791 17.7287 10.9227 17.81C10.7604 17.7265 10.5862 17.6349 10.4013 17.5354L10.4008 17.5351M20.8394 6.066L10.4008 17.5351M10.4008 17.5351C8.73898 16.6417 6.33556 15.1487 4.36945 13.1584M10.4008 17.5351L4.36945 13.1584M4.36945 13.1584C2.39724 11.1619 0.968058 8.77299 1.00055 6.06622L4.36945 13.1584Z" stroke="#162C63" stroke-width="2"/>
</svg>
