<svg width="22" height="19" viewBox="0 0 22 19" fill="none" xmlns="http://www.w3.org/2000/svg">
<path d="M21.8394 6.05372C21.7989 2.71045 19.1727 2.37556e-06 15.8833 2.37556e-06C14.901 -2.29827e-05 13.934 0.247115 13.0685 0.719365C12.203 1.19161 11.466 1.87429 10.9233 2.70647C10.3797 1.87352 9.64164 1.19039 8.77496 0.718111C7.90829 0.245834 6.94002 -0.000883185 5.95664 2.37556e-06C2.66732 2.37556e-06 0.0423935 2.71045 0.000624403 6.05372C-0.0737769 12.2229 6.51922 16.5837 9.92732 18.4159C10.3019 18.6176 10.6361 18.7887 10.9206 18.928C11.2039 18.7953 11.5393 18.6176 11.9127 18.4159C15.3208 16.5837 21.9151 12.2229 21.8394 6.05372Z" fill="#162C63"/>
</svg>
