<svg width="12" height="17" viewBox="0 0 12 17" fill="none" xmlns="http://www.w3.org/2000/svg">
<path d="M11.7461 11.0049C12.1138 10.5929 12.0779 9.96073 11.6658 9.59301C11.2537 9.2253 10.6216 9.26127 10.2539 9.67334L11.7461 11.0049ZM5.25387 15.2766C4.88616 15.6887 4.92212 16.3208 5.3342 16.6885C5.74627 17.0562 6.37842 17.0203 6.74613 16.6082L5.25387 15.2766ZM5.25387 16.6079C5.62158 17.02 6.25373 17.056 6.6658 16.6883C7.07788 16.3206 7.11384 15.6884 6.74613 15.2763L5.25387 16.6079ZM1.74613 9.6731C1.37842 9.26102 0.746274 9.22506 0.334199 9.59277C-0.077877 9.96048 -0.113841 10.5926 0.253871 11.0047L1.74613 9.6731ZM5.00008 15.9424C5.00008 16.4947 5.44779 16.9424 6.00008 16.9424C6.55236 16.9424 7.00008 16.4947 7.00008 15.9424H5.00008ZM7.00008 1.00041C7.00008 0.448124 6.55236 0.000408173 6.00008 0.000408173C5.44779 0.000408173 5.00008 0.448124 5.00008 1.00041H7.00008ZM10.2539 9.67334L5.25387 15.2766L6.74613 16.6082L11.7461 11.0049L10.2539 9.67334ZM6.74613 15.2763L1.74613 9.6731L0.253871 11.0047L5.25387 16.6079L6.74613 15.2763ZM7.00008 15.9424L7.00008 1.00041H5.00008L5.00008 15.9424H7.00008Z" fill="#1B326C"/>
</svg>
