<svg width="31" height="31" viewBox="0 0 31 31" fill="none" xmlns="http://www.w3.org/2000/svg">
<path d="M8.95996 14.36C8.40768 14.36 7.95996 14.8077 7.95996 15.36C7.95996 15.9122 8.40768 16.36 8.95996 16.36V14.36ZM15.36 16.36C15.9122 16.36 16.36 15.9122 16.36 15.36C16.36 14.8077 15.9122 14.36 15.36 14.36V16.36ZM15.36 14.36C14.8077 14.36 14.36 14.8077 14.36 15.36C14.36 15.9122 14.8077 16.36 15.36 16.36V14.36ZM21.76 16.36C22.3122 16.36 22.76 15.9122 22.76 15.36C22.76 14.8077 22.3122 14.36 21.76 14.36V16.36ZM16.36 15.36C16.36 14.8077 15.9122 14.36 15.36 14.36C14.8077 14.36 14.36 14.8077 14.36 15.36H16.36ZM14.36 21.76C14.36 22.3122 14.8077 22.76 15.36 22.76C15.9122 22.76 16.36 22.3122 16.36 21.76H14.36ZM14.36 15.36C14.36 15.9122 14.8077 16.36 15.36 16.36C15.9122 16.36 16.36 15.9122 16.36 15.36H14.36ZM16.36 8.95996C16.36 8.40768 15.9122 7.95996 15.36 7.95996C14.8077 7.95996 14.36 8.40768 14.36 8.95996H16.36ZM8.95996 16.36H15.36V14.36H8.95996V16.36ZM15.36 16.36H21.76V14.36H15.36V16.36ZM15.36 15.36H14.36C14.36 15.36 14.36 15.36 14.36 15.36V15.36C14.36 15.36 14.36 15.36 14.36 15.36C14.36 15.36 14.36 15.36 14.36 15.36C14.36 15.36 14.36 15.36 14.36 15.36C14.36 15.36 14.36 15.36 14.36 15.36C14.36 15.36 14.36 15.36 14.36 15.36C14.36 15.36 14.36 15.36 14.36 15.36C14.36 15.36 14.36 15.36 14.36 15.36C14.36 15.36 14.36 15.36 14.36 15.36C14.36 15.36 14.36 15.36 14.36 15.36C14.36 15.3601 14.36 15.3601 14.36 15.3601C14.36 15.3601 14.36 15.3601 14.36 15.3601C14.36 15.3601 14.36 15.3601 14.36 15.3601C14.36 15.3601 14.36 15.3601 14.36 15.3602C14.36 15.3602 14.36 15.3602 14.36 15.3602C14.36 15.3602 14.36 15.3602 14.36 15.3602C14.36 15.3603 14.36 15.3603 14.36 15.3603C14.36 15.3603 14.36 15.3603 14.36 15.3603C14.36 15.3604 14.36 15.3604 14.36 15.3604C14.36 15.3604 14.36 15.3604 14.36 15.3605C14.36 15.3605 14.36 15.3605 14.36 15.3605C14.36 15.3606 14.36 15.3606 14.36 15.3606C14.36 15.3606 14.36 15.3607 14.36 15.3607C14.36 15.3607 14.36 15.3608 14.36 15.3608C14.36 15.3608 14.36 15.3609 14.36 15.3609C14.36 15.3609 14.36 15.361 14.36 15.361C14.36 15.361 14.36 15.3611 14.36 15.3611C14.36 15.3612 14.36 15.3612 14.36 15.3612C14.36 15.3613 14.36 15.3613 14.36 15.3614C14.36 15.3614 14.36 15.3615 14.36 15.3615C14.36 15.3616 14.36 15.3616 14.36 15.3617C14.36 15.3617 14.36 15.3618 14.36 15.3618C14.36 15.3619 14.36 15.3619 14.36 15.362C14.36 15.3621 14.36 15.3621 14.36 15.3622C14.36 15.3622 14.36 15.3623 14.36 15.3624C14.36 15.3624 14.36 15.3625 14.36 15.3626C14.36 15.3626 14.36 15.3627 14.36 15.3628C14.36 15.3629 14.36 15.3629 14.36 15.363C14.36 15.3631 14.36 15.3632 14.36 15.3632C14.36 15.3633 14.36 15.3634 14.36 15.3635C14.36 15.3636 14.36 15.3637 14.36 15.3638C14.36 15.3638 14.36 15.3639 14.36 15.364C14.36 15.3641 14.36 15.3642 14.36 15.3643C14.36 15.3644 14.36 15.3645 14.36 15.3646C14.36 15.3647 14.36 15.3648 14.36 15.3649C14.36 15.365 14.36 15.3651 14.36 15.3652C14.36 15.3653 14.36 15.3655 14.36 15.3656C14.36 15.3657 14.36 15.3658 14.36 15.3659C14.36 15.366 14.36 15.3662 14.36 15.3663C14.36 15.3664 14.36 15.3665 14.36 15.3667C14.36 15.3668 14.36 15.3669 14.36 15.3671C14.36 15.3672 14.36 15.3673 14.36 15.3675C14.36 15.3676 14.36 15.3678 14.36 15.3679C14.36 15.368 14.36 15.3682 14.36 15.3683C14.36 15.3685 14.36 15.3686 14.36 15.3688C14.36 15.3689 14.36 15.3691 14.36 15.3693C14.36 15.3694 14.36 15.3696 14.36 15.3698C14.36 15.3699 14.36 15.3701 14.36 15.3703C14.36 15.3704 14.36 15.3706 14.36 15.3708C14.36 15.371 14.36 15.3711 14.36 15.3713C14.36 15.3715 14.36 15.3717 14.36 15.3719C14.36 15.3721 14.36 15.3723 14.36 15.3725C14.36 15.3727 14.36 15.3729 14.36 15.3731C14.36 15.3733 14.36 15.3735 14.36 15.3737C14.36 15.3739 14.36 15.3741 14.36 15.3743C14.36 15.3745 14.36 15.3747 14.36 15.375C14.36 15.3752 14.36 15.3754 14.36 15.3756C14.36 15.3759 14.36 15.3761 14.36 15.3763C14.36 15.3766 14.36 15.3768 14.36 15.377C14.36 15.3773 14.36 15.3775 14.36 15.3778C14.36 15.378 14.36 15.3783 14.36 15.3785C14.36 15.3788 14.36 15.379 14.36 15.3793C14.36 15.3795 14.36 15.3798 14.36 15.3801C14.36 15.3803 14.36 15.3806 14.36 15.3809C14.36 15.3812 14.36 15.3814 14.36 15.3817C14.36 15.382 14.36 15.3823 14.36 15.3826C14.36 15.3829 14.36 15.3832 14.36 15.3835C14.36 15.3838 14.36 15.3841 14.36 15.3844C14.36 15.3847 14.36 15.385 14.36 15.3853C14.36 15.3856 14.36 15.3859 14.36 15.3863C14.36 15.3866 14.36 15.3869 14.36 15.3872C14.36 15.3876 14.36 15.3879 14.36 15.3882C14.36 15.3886 14.36 15.3889 14.36 15.3892C14.36 15.3896 14.36 15.3899 14.36 15.3903C14.36 15.3906 14.36 15.391 14.36 15.3914C14.36 15.3917 14.36 15.3921 14.36 15.3925C14.36 15.3928 14.36 15.3932 14.36 15.3936C14.36 15.394 14.36 15.3943 14.36 15.3947C14.36 15.3951 14.36 15.3955 14.36 15.3959C14.36 15.3963 14.36 15.3967 14.36 15.3971C14.36 15.3975 14.36 15.3979 14.36 15.3983C14.36 15.3987 14.36 15.3991 14.36 15.3996C14.36 15.4 14.36 15.4004 14.36 15.4008C14.36 15.4013 14.36 15.4017 14.36 15.4021C14.36 15.4026 14.36 15.403 14.36 15.4035C14.36 15.4039 14.36 15.4044 14.36 15.4048C14.36 15.4053 14.36 15.4058 14.36 15.4062C14.36 15.4067 14.36 15.4072 14.36 15.4076C14.36 15.4081 14.36 15.4086 14.36 15.4091C14.36 15.4096 14.36 15.4101 14.36 15.4106C14.36 15.4111 14.36 15.4116 14.36 15.4121C14.36 15.4126 14.36 15.4131 14.36 15.4136C14.36 15.4141 14.36 15.4146 14.36 15.4152C14.36 15.4157 14.36 15.4162 14.36 15.4168C14.36 15.4173 14.36 15.4178 14.36 15.4184C14.36 15.4189 14.36 15.4195 14.36 15.42C14.36 15.4206 14.36 15.4211 14.36 15.4217C14.36 15.4223 14.36 15.4229 14.36 15.4234C14.36 15.424 14.36 15.4246 14.36 15.4252C14.36 15.4258 14.36 15.4264 14.36 15.427C14.36 15.4276 14.36 15.4282 14.36 15.4288C14.36 15.4294 14.36 15.43 14.36 15.4306C14.36 15.4312 14.36 15.4319 14.36 15.4325C14.36 15.4331 14.36 15.4337 14.36 15.4344C14.36 15.435 14.36 15.4357 14.36 15.4363C14.36 15.437 14.36 15.4376 14.36 15.4383C14.36 15.439 14.36 15.4396 14.36 15.4403C14.36 15.441 14.36 15.4417 14.36 15.4424C14.36 15.443 14.36 15.4437 14.36 15.4444C14.36 15.4451 14.36 15.4458 14.36 15.4465C14.36 15.4473 14.36 15.448 14.36 15.4487C14.36 15.4494 14.36 15.4501 14.36 15.4509C14.36 15.4516 14.36 15.4523 14.36 15.4531C14.36 15.4538 14.36 15.4546 14.36 15.4553C14.36 15.4561 14.36 15.4569 14.36 15.4576C14.36 15.4584 14.36 15.4592 14.36 15.46C14.36 15.4607 14.36 15.4615 14.36 15.4623C14.36 15.4631 14.36 15.4639 14.36 15.4647C14.36 15.4655 14.36 15.4663 14.36 15.4672C14.36 15.468 14.36 15.4688 14.36 15.4696C14.36 15.4705 14.36 15.4713 14.36 15.4721C14.36 15.473 14.36 15.4738 14.36 15.4747C14.36 15.4755 14.36 15.4764 14.36 15.4773C14.36 15.4782 14.36 15.479 14.36 15.4799C14.36 15.4808 14.36 15.4817 14.36 15.4826C14.36 15.4835 14.36 15.4844 14.36 15.4853C14.36 15.4862 14.36 15.4871 14.36 15.488C14.36 15.4889 14.36 15.4899 14.36 15.4908C14.36 15.4917 14.36 15.4927 14.36 15.4936C14.36 15.4946 14.36 15.4955 14.36 15.4965C14.36 15.4975 14.36 15.4984 14.36 15.4994C14.36 15.5004 14.36 15.5014 14.36 15.5023C14.36 15.5033 14.36 15.5043 14.36 15.5053C14.36 15.5063 14.36 15.5073 14.36 15.5084C14.36 15.5094 14.36 15.5104 14.36 15.5114C14.36 15.5125 14.36 15.5135 14.36 15.5145C14.36 15.5156 14.36 15.5166 14.36 15.5177C14.36 15.5188 14.36 15.5198 14.36 15.5209C14.36 15.522 14.36 15.523 14.36 15.5241C14.36 15.5252 14.36 15.5263 14.36 15.5274C14.36 15.5285 14.36 15.5296 14.36 15.5307C14.36 15.5319 14.36 15.533 14.36 15.5341C14.36 15.5352 14.36 15.5364 14.36 15.5375C14.36 15.5387 14.36 15.5398 14.36 15.541C14.36 15.5421 14.36 15.5433 14.36 15.5445C14.36 15.5457 14.36 15.5469 14.36 15.548C14.36 15.5492 14.36 15.5504 14.36 15.5516C14.36 15.5528 14.36 15.5541 14.36 15.5553C14.36 15.5565 14.36 15.5577 14.36 15.559C14.36 15.5602 14.36 15.5614 14.36 15.5627C14.36 15.5639 14.36 15.5652 14.36 15.5665C14.36 15.5677 14.36 15.569 14.36 15.5703C14.36 15.5716 14.36 15.5729 14.36 15.5742C14.36 15.5755 14.36 15.5768 14.36 15.5781C14.36 15.5794 14.36 15.5807 14.36 15.582C14.36 15.5834 14.36 15.5847 14.36 15.5861C14.36 15.5874 14.36 15.5888 14.36 15.5901C14.36 15.5915 14.36 15.5929 14.36 15.5942C14.36 15.5956 14.36 15.597 14.36 15.5984C14.36 15.5998 14.36 15.6012 14.36 15.6026C14.36 15.604 14.36 15.6054 14.36 15.6069C14.36 15.6083 14.36 15.6097 14.36 15.6112C14.36 15.6126 14.36 15.6141 14.36 15.6155C14.36 15.617 14.36 15.6184 14.36 15.6199C14.36 15.6214 14.36 15.6229 14.36 15.6244C14.36 15.6259 14.36 15.6274 14.36 15.6289C14.36 15.6304 14.36 15.6319 14.36 15.6334C14.36 15.635 14.36 15.6365 14.36 15.6381C14.36 15.6396 14.36 15.6412 14.36 15.6427C14.36 15.6443 14.36 15.6458 14.36 15.6474C14.36 15.649 14.36 15.6506 14.36 15.6522C14.36 15.6538 14.36 15.6554 14.36 15.657C14.36 15.6586 14.36 15.6602 14.36 15.6619C14.36 15.6635 14.36 15.6651 14.36 15.6668C14.36 15.6684 14.36 15.6701 14.36 15.6718C14.36 15.6734 14.36 15.6751 14.36 15.6768C14.36 15.6785 14.36 15.6802 14.36 15.6819C14.36 15.6836 14.36 15.6853 14.36 15.687C14.36 15.6887 14.36 15.6905 14.36 15.6922C14.36 15.694 14.36 15.6957 14.36 15.6975C14.36 15.6992 14.36 15.701 14.36 15.7028C14.36 15.7045 14.36 15.7063 14.36 15.7081C14.36 15.7099 14.36 15.7117 14.36 15.7135C14.36 15.7153 14.36 15.7172 14.36 15.719C14.36 15.7208 14.36 15.7227 14.36 15.7245C14.36 15.7264 14.36 15.7282 14.36 15.7301C14.36 15.732 14.36 15.7338 14.36 15.7357C14.36 15.7376 14.36 15.7395 14.36 15.7414C14.36 15.7433 14.36 15.7453 14.36 15.7472C14.36 15.7491 14.36 15.751 14.36 15.753C14.36 15.7549 14.36 15.7569 14.36 15.7589C14.36 15.7608 14.36 15.7628 14.36 15.7648C14.36 15.7668 14.36 15.7688 14.36 15.7708C14.36 15.7728 14.36 15.7748 14.36 15.7768C14.36 15.7788 14.36 15.7809 14.36 15.7829C14.36 15.7849 14.36 15.787 14.36 15.7891C14.36 15.7911 14.36 15.7932 14.36 15.7953C14.36 15.7974 14.36 15.7995 14.36 15.8016C14.36 15.8037 14.36 15.8058 14.36 15.8079C14.36 15.81 14.36 15.8122 14.36 15.8143C14.36 15.8164 14.36 15.8186 14.36 15.8208C14.36 15.8229 14.36 15.8251 14.36 15.8273C14.36 15.8295 14.36 15.8317 14.36 15.8339C14.36 15.8361 14.36 15.8383 14.36 15.8405C14.36 15.8427 14.36 15.845 14.36 15.8472C14.36 15.8495 14.36 15.8517 14.36 15.854C14.36 15.8562 14.36 15.8585 14.36 15.8608C14.36 15.8631 14.36 15.8654 14.36 15.8677C14.36 15.87 14.36 15.8723 14.36 15.8747C14.36 15.877 14.36 15.8793 14.36 15.8817C14.36 15.884 14.36 15.8864 14.36 15.8888C14.36 15.8911 14.36 15.8935 14.36 15.8959C14.36 15.8983 14.36 15.9007 14.36 15.9031C14.36 15.9055 14.36 15.9079 14.36 15.9104C14.36 15.9128 14.36 15.9153 14.36 15.9177C14.36 15.9202 14.36 15.9226 14.36 15.9251C14.36 15.9276 14.36 15.9301 14.36 15.9326C14.36 15.9351 14.36 15.9376 14.36 15.9401C14.36 15.9427 14.36 15.9452 14.36 15.9477C14.36 15.9503 14.36 15.9528 14.36 15.9554C14.36 15.958 14.36 15.9605 14.36 15.9631C14.36 15.9657 14.36 15.9683 14.36 15.9709C14.36 15.9735 14.36 15.9762 14.36 15.9788C14.36 15.9814 14.36 15.9841 14.36 15.9867C14.36 15.9894 14.36 15.9921 14.36 15.9947C14.36 15.9974 14.36 16.0001 14.36 16.0028C14.36 16.0055 14.36 16.0082 14.36 16.0109C14.36 16.0137 14.36 16.0164 14.36 16.0191C14.36 16.0219 14.36 16.0246 14.36 16.0274C14.36 16.0302 14.36 16.033 14.36 16.0358C14.36 16.0386 14.36 16.0414 14.36 16.0442C14.36 16.047 14.36 16.0498 14.36 16.0527C14.36 16.0555 14.36 16.0583 14.36 16.0612C14.36 16.0641 14.36 16.0669 14.36 16.0698C14.36 16.0727 14.36 16.0756 14.36 16.0785C14.36 16.0814 14.36 16.0843 14.36 16.0873C14.36 16.0902 14.36 16.0932 14.36 16.0961C14.36 16.0991 14.36 16.102 14.36 16.105C14.36 16.108 14.36 16.111 14.36 16.114C14.36 16.117 14.36 16.12 14.36 16.123C14.36 16.1261 14.36 16.1291 14.36 16.1322C14.36 16.1352 14.36 16.1383 14.36 16.1414C14.36 16.1444 14.36 16.1475 14.36 16.1506C14.36 16.1537 14.36 16.1568 14.36 16.16C14.36 16.1631 14.36 16.1662 14.36 16.1694C14.36 16.1725 14.36 16.1757 14.36 16.1789C14.36 16.182 14.36 16.1852 14.36 16.1884C14.36 16.1916 14.36 16.1948 14.36 16.1981C14.36 16.2013 14.36 16.2045 14.36 16.2078C14.36 16.211 14.36 16.2143 14.36 16.2175C14.36 16.2208 14.36 16.2241 14.36 16.2274C14.36 16.2307 14.36 16.234 14.36 16.2373C14.36 16.2407 14.36 16.244 14.36 16.2473C14.36 16.2507 14.36 16.254 14.36 16.2574C14.36 16.2608 14.36 16.2642 14.36 16.2676C14.36 16.271 14.36 16.2744 14.36 16.2778C14.36 16.2812 14.36 16.2847 14.36 16.2881C14.36 16.2916 14.36 16.295 14.36 16.2985C14.36 16.302 14.36 16.3055 14.36 16.309C14.36 16.3125 14.36 16.316 14.36 16.3195C14.36 16.3231 14.36 16.3266 14.36 16.3302C14.36 16.3337 14.36 16.3373 14.36 16.3409C14.36 16.3444 14.36 16.348 14.36 16.3516C14.36 16.3552 14.36 16.3589 14.36 16.3625C14.36 16.3661 14.36 16.3698 14.36 16.3734C14.36 16.3771 14.36 16.3808 14.36 16.3844C14.36 16.3881 14.36 16.3918 14.36 16.3955C14.36 16.3993 14.36 16.403 14.36 16.4067C14.36 16.4105 14.36 16.4142 14.36 16.418C14.36 16.4217 14.36 16.4255 14.36 16.4293C14.36 16.4331 14.36 16.4369 14.36 16.4407C14.36 16.4445 14.36 16.4484 14.36 16.4522C14.36 16.4561 14.36 16.4599 14.36 16.4638C14.36 16.4677 14.36 16.4716 14.36 16.4755C14.36 16.4794 14.36 16.4833 14.36 16.4872C14.36 16.4911 14.36 16.4951 14.36 16.499C14.36 16.503 14.36 16.5069 14.36 16.5109C14.36 16.5149 14.36 16.5189 14.36 16.5229C14.36 16.5269 14.36 16.531 14.36 16.535C14.36 16.539 14.36 16.5431 14.36 16.5471C14.36 16.5512 14.36 16.5553 14.36 16.5594C14.36 16.5635 14.36 16.5676 14.36 16.5717C14.36 16.5758 14.36 16.58 14.36 16.5841C14.36 16.5883 14.36 16.5924 14.36 16.5966C14.36 16.6008 14.36 16.605 14.36 16.6092C14.36 16.6134 14.36 16.6176 14.36 16.6218C14.36 16.6261 14.36 16.6303 14.36 16.6346C14.36 16.6389 14.36 16.6431 14.36 16.6474C14.36 16.6517 14.36 16.656 14.36 16.6603C14.36 16.6647 14.36 16.669 14.36 16.6733C14.36 16.6777 14.36 16.6821 14.36 16.6864C14.36 16.6908 14.36 16.6952 14.36 16.6996C14.36 16.704 14.36 16.7084 14.36 16.7129C14.36 16.7173 14.36 16.7218 14.36 16.7262C14.36 16.7307 14.36 16.7352 14.36 16.7397C14.36 16.7442 14.36 16.7487 14.36 16.7532C14.36 16.7577 14.36 16.7623 14.36 16.7668C14.36 16.7714 14.36 16.7759 14.36 16.7805C14.36 16.7851 14.36 16.7897 14.36 16.7943C14.36 16.7989 14.36 16.8035 14.36 16.8082C14.36 16.8128 14.36 16.8175 14.36 16.8221C14.36 16.8268 14.36 16.8315 14.36 16.8362C14.36 16.8409 14.36 16.8456 14.36 16.8504C14.36 16.8551 14.36 16.8598 14.36 16.8646C14.36 16.8694 14.36 16.8741 14.36 16.8789C14.36 16.8837 14.36 16.8885 14.36 16.8933C14.36 16.8982 14.36 16.903 14.36 16.9079C14.36 16.9127 14.36 16.9176 14.36 16.9225C14.36 16.9273 14.36 16.9322 14.36 16.9372C14.36 16.9421 14.36 16.947 14.36 16.9519C14.36 16.9569 14.36 16.9618 14.36 16.9668C14.36 16.9718 14.36 16.9768 14.36 16.9818C14.36 16.9868 14.36 16.9918 14.36 16.9969C14.36 17.0019 14.36 17.0069 14.36 17.012C14.36 17.0171 14.36 17.0222 14.36 17.0273C14.36 17.0324 14.36 17.0375 14.36 17.0426C14.36 17.0477 14.36 17.0529 14.36 17.058C14.36 17.0632 14.36 17.0684 14.36 17.0736C14.36 17.0788 14.36 17.084 14.36 17.0892C14.36 17.0944 14.36 17.0997 14.36 17.1049C14.36 17.1102 14.36 17.1154 14.36 17.1207C14.36 17.126 14.36 17.1313 14.36 17.1366C14.36 17.142 14.36 17.1473 14.36 17.1526C14.36 17.158 14.36 17.1634 14.36 17.1688C14.36 17.1741 14.36 17.1795 14.36 17.1849C14.36 17.1904 14.36 17.1958 14.36 17.2012C14.36 17.2067 14.36 17.2122 14.36 17.2176C14.36 17.2231 14.36 17.2286 14.36 17.2341C14.36 17.2396 14.36 17.2452 14.36 17.2507C14.36 17.2563 14.36 17.2618 14.36 17.2674C14.36 17.273 14.36 17.2786 14.36 17.2842C14.36 17.2898 14.36 17.2954 14.36 17.3011C14.36 17.3067 14.36 17.3124 14.36 17.318C14.36 17.3237 14.36 17.3294 14.36 17.3351C14.36 17.3408 14.36 17.3465 14.36 17.3523C14.36 17.358 14.36 17.3638 14.36 17.3696C14.36 17.3753 14.36 17.3811 14.36 17.3869C14.36 17.3927 14.36 17.3986 14.36 17.4044C14.36 17.4102 14.36 17.4161 14.36 17.422C14.36 17.4278 14.36 17.4337 14.36 17.4396C14.36 17.4456 14.36 17.4515 14.36 17.4574C14.36 17.4634 14.36 17.4693 14.36 17.4753C14.36 17.4813 14.36 17.4873 14.36 17.4933C14.36 17.4993 14.36 17.5053 14.36 17.5114C14.36 17.5174 14.36 17.5235 14.36 17.5295C14.36 17.5356 14.36 17.5417 14.36 17.5478C14.36 17.5539 14.36 17.5601 14.36 17.5662C14.36 17.5724 14.36 17.5785 14.36 17.5847C14.36 17.5909 14.36 17.5971 14.36 17.6033C14.36 17.6095 14.36 17.6157 14.36 17.622C14.36 17.6282 14.36 17.6345 14.36 17.6408C14.36 17.6471 14.36 17.6534 14.36 17.6597C14.36 17.666 14.36 17.6723 14.36 17.6787C14.36 17.685 14.36 17.6914 14.36 17.6978C14.36 17.7042 14.36 17.7106 14.36 17.717C14.36 17.7234 14.36 17.7299 14.36 17.7363C14.36 17.7428 14.36 17.7493 14.36 17.7558C14.36 17.7622 14.36 17.7688 14.36 17.7753C14.36 17.7818 14.36 17.7884 14.36 17.7949C14.36 17.8015 14.36 17.8081 14.36 17.8147C14.36 17.8213 14.36 17.8279 14.36 17.8345C14.36 17.8411 14.36 17.8478 14.36 17.8545C14.36 17.8611 14.36 17.8678 14.36 17.8745C14.36 17.8812 14.36 17.888 14.36 17.8947C14.36 17.9014 14.36 17.9082 14.36 17.915C14.36 17.9218 14.36 17.9286 14.36 17.9354C14.36 17.9422 14.36 17.949 14.36 17.9559C14.36 17.9627 14.36 17.9696 14.36 17.9765C14.36 17.9833 14.36 17.9903 14.36 17.9972C14.36 18.0041 14.36 18.011 14.36 18.018C14.36 18.025 14.36 18.0319 14.36 18.0389C14.36 18.0459 14.36 18.0529 14.36 18.06C14.36 18.067 14.36 18.074 14.36 18.0811C14.36 18.0882 14.36 18.0953 14.36 18.1024C14.36 18.1095 14.36 18.1166 14.36 18.1237C14.36 18.1309 14.36 18.138 14.36 18.1452C14.36 18.1524 14.36 18.1596 14.36 18.1668C14.36 18.174 14.36 18.1813 14.36 18.1885C14.36 18.1958 14.36 18.203 14.36 18.2103C14.36 18.2176 14.36 18.2249 14.36 18.2323C14.36 18.2396 14.36 18.2469 14.36 18.2543C14.36 18.2617 14.36 18.269 14.36 18.2764C14.36 18.2838 14.36 18.2913 14.36 18.2987C14.36 18.3061 14.36 18.3136 14.36 18.3211C14.36 18.3286 14.36 18.3361 14.36 18.3436C14.36 18.3511 14.36 18.3586 14.36 18.3662C14.36 18.3737 14.36 18.3813 14.36 18.3889C14.36 18.3965 14.36 18.4041 14.36 18.4117C14.36 18.4193 14.36 18.427 14.36 18.4347C14.36 18.4423 14.36 18.45 14.36 18.4577C14.36 18.4654 14.36 18.4732 14.36 18.4809C14.36 18.4886 14.36 18.4964 14.36 18.5042C14.36 18.512 14.36 18.5198 14.36 18.5276C14.36 18.5354 14.36 18.5433 14.36 18.5511C14.36 18.559 14.36 18.5669 14.36 18.5748C14.36 18.5827 14.36 18.5906 14.36 18.5985C14.36 18.6064 14.36 18.6144 14.36 18.6224C14.36 18.6304 14.36 18.6384 14.36 18.6464C14.36 18.6544 14.36 18.6624 14.36 18.6705C14.36 18.6785 14.36 18.6866 14.36 18.6947C14.36 18.7028 14.36 18.7109 14.36 18.719C14.36 18.7272 14.36 18.7353 14.36 18.7435C14.36 18.7517 14.36 18.7599 14.36 18.7681C14.36 18.7763 14.36 18.7845 14.36 18.7928C14.36 18.801 14.36 18.8093 14.36 18.8176C14.36 18.8259 14.36 18.8342 14.36 18.8425C14.36 18.8509 14.36 18.8592 14.36 18.8676C14.36 18.8759 14.36 18.8843 14.36 18.8928C14.36 18.9012 14.36 18.9096 14.36 18.918C14.36 18.9265 14.36 18.935 14.36 18.9435C14.36 18.952 14.36 18.9605 14.36 18.969C14.36 18.9775 14.36 18.9861 14.36 18.9947C14.36 19.0032 14.36 19.0118 14.36 19.0204C14.36 19.029 14.36 19.0377 14.36 19.0463C14.36 19.055 14.36 19.0637 14.36 19.0724C14.36 19.081 14.36 19.0898 14.36 19.0985C14.36 19.1072 14.36 19.116 14.36 19.1248C14.36 19.1335 14.36 19.1423 14.36 19.1512C14.36 19.16 14.36 19.1688 14.36 19.1777C14.36 19.1865 14.36 19.1954 14.36 19.2043C14.36 19.2132 14.36 19.2221 14.36 19.2311C14.36 19.24 14.36 19.249 14.36 19.2579C14.36 19.2669 14.36 19.2759 14.36 19.2849C14.36 19.294 14.36 19.303 14.36 19.3121C14.36 19.3211 14.36 19.3302 14.36 19.3393C14.36 19.3484 14.36 19.3576 14.36 19.3667C14.36 19.3759 14.36 19.385 14.36 19.3942C14.36 19.4034 14.36 19.4126 14.36 19.4219C14.36 19.4311 14.36 19.4403 14.36 19.4496C14.36 19.4589 14.36 19.4682 14.36 19.4775C14.36 19.4868 14.36 19.4961 14.36 19.5055C14.36 19.5149 14.36 19.5242 14.36 19.5336C14.36 19.543 14.36 19.5525 14.36 19.5619C14.36 19.5713 14.36 19.5808 14.36 19.5903C14.36 19.5998 14.36 19.6093 14.36 19.6188C14.36 19.6283 14.36 19.6379 14.36 19.6475C14.36 19.657 14.36 19.6666 14.36 19.6762C14.36 19.6859 14.36 19.6955 14.36 19.7051C14.36 19.7148 14.36 19.7245 14.36 19.7342C14.36 19.7439 14.36 19.7536 14.36 19.7633C14.36 19.7731 14.36 19.7828 14.36 19.7926C14.36 19.8024 14.36 19.8122 14.36 19.822C14.36 19.8319 14.36 19.8417 14.36 19.8516C14.36 19.8615 14.36 19.8714 14.36 19.8813C14.36 19.8912 14.36 19.9011 14.36 19.9111C14.36 19.921 14.36 19.931 14.36 19.941C14.36 19.951 14.36 19.9611 14.36 19.9711C14.36 19.9811 14.36 19.9912 14.36 20.0013C14.36 20.0114 14.36 20.0215 14.36 20.0316C14.36 20.0418 14.36 20.0519 14.36 20.0621C14.36 20.0723 14.36 20.0825 14.36 20.0927C14.36 20.1029 14.36 20.1132 14.36 20.1234C14.36 20.1337 14.36 20.144 14.36 20.1543C14.36 20.1646 14.36 20.1749 14.36 20.1853C14.36 20.1957 14.36 20.206 14.36 20.2164C14.36 20.2268 14.36 20.2373 14.36 20.2477C14.36 20.2581 14.36 20.2686 14.36 20.2791C14.36 20.2896 14.36 20.3001 14.36 20.3106C14.36 20.3212 14.36 20.3317 14.36 20.3423C14.36 20.3529 14.36 20.3635 14.36 20.3741C14.36 20.3847 14.36 20.3954 14.36 20.406C14.36 20.4167 14.36 20.4274 14.36 20.4381C14.36 20.4488 14.36 20.4596 14.36 20.4703C14.36 20.4811 14.36 20.4919 14.36 20.5027C14.36 20.5135 14.36 20.5243 14.36 20.5351C14.36 20.546 14.36 20.5569 14.36 20.5678C14.36 20.5787 14.36 20.5896 14.36 20.6005C14.36 20.6114 14.36 20.6224 14.36 20.6334C14.36 20.6444 14.36 20.6554 14.36 20.6664C14.36 20.6775 14.36 20.6885 14.36 20.6996C14.36 20.7107 14.36 20.7218 14.36 20.7329C14.36 20.744 14.36 20.7552 14.36 20.7663C14.36 20.7775 14.36 20.7887 14.36 20.7999C14.36 20.8111 14.36 20.8224 14.36 20.8336C14.36 20.8449 14.36 20.8562 14.36 20.8675C14.36 20.8788 14.36 20.8901 14.36 20.9015C14.36 20.9128 14.36 20.9242 14.36 20.9356C14.36 20.947 14.36 20.9585 14.36 20.9699C14.36 20.9814 14.36 20.9928 14.36 21.0043C14.36 21.0158 14.36 21.0273 14.36 21.0389C14.36 21.0504 14.36 21.062 14.36 21.0736C14.36 21.0852 14.36 21.0968 14.36 21.1084C14.36 21.1201 14.36 21.1317 14.36 21.1434C14.36 21.1551 14.36 21.1668 14.36 21.1785C14.36 21.1902 14.36 21.202 14.36 21.2138C14.36 21.2256 14.36 21.2374 14.36 21.2492C14.36 21.261 14.36 21.2729 14.36 21.2847C14.36 21.2966 14.36 21.3085 14.36 21.3204C14.36 21.3323 14.36 21.3443 14.36 21.3563C14.36 21.3682 14.36 21.3802 14.36 21.3922C14.36 21.4043 14.36 21.4163 14.36 21.4284C14.36 21.4404 14.36 21.4525 14.36 21.4646C14.36 21.4767 14.36 21.4889 14.36 21.501C14.36 21.5132 14.36 21.5254 14.36 21.5376C14.36 21.5498 14.36 21.562 14.36 21.5743C14.36 21.5865 14.36 21.5988 14.36 21.6111C14.36 21.6234 14.36 21.6358 14.36 21.6481C14.36 21.6605 14.36 21.6729 14.36 21.6853C14.36 21.6977 14.36 21.7101 14.36 21.7225C14.36 21.735 14.36 21.7475 14.36 21.76H16.36C16.36 21.7475 16.36 21.735 16.36 21.7225C16.36 21.7101 16.36 21.6977 16.36 21.6853C16.36 21.6729 16.36 21.6605 16.36 21.6481C16.36 21.6358 16.36 21.6234 16.36 21.6111C16.36 21.5988 16.36 21.5865 16.36 21.5743C16.36 21.562 16.36 21.5498 16.36 21.5376C16.36 21.5254 16.36 21.5132 16.36 21.501C16.36 21.4889 16.36 21.4767 16.36 21.4646C16.36 21.4525 16.36 21.4404 16.36 21.4284C16.36 21.4163 16.36 21.4043 16.36 21.3922C16.36 21.3802 16.36 21.3682 16.36 21.3563C16.36 21.3443 16.36 21.3323 16.36 21.3204C16.36 21.3085 16.36 21.2966 16.36 21.2847C16.36 21.2729 16.36 21.261 16.36 21.2492C16.36 21.2374 16.36 21.2256 16.36 21.2138C16.36 21.202 16.36 21.1902 16.36 21.1785C16.36 21.1668 16.36 21.1551 16.36 21.1434C16.36 21.1317 16.36 21.1201 16.36 21.1084C16.36 21.0968 16.36 21.0852 16.36 21.0736C16.36 21.062 16.36 21.0504 16.36 21.0389C16.36 21.0273 16.36 21.0158 16.36 21.0043C16.36 20.9928 16.36 20.9814 16.36 20.9699C16.36 20.9585 16.36 20.947 16.36 20.9356C16.36 20.9242 16.36 20.9128 16.36 20.9015C16.36 20.8901 16.36 20.8788 16.36 20.8675C16.36 20.8562 16.36 20.8449 16.36 20.8336C16.36 20.8224 16.36 20.8111 16.36 20.7999C16.36 20.7887 16.36 20.7775 16.36 20.7663C16.36 20.7552 16.36 20.744 16.36 20.7329C16.36 20.7218 16.36 20.7107 16.36 20.6996C16.36 20.6885 16.36 20.6775 16.36 20.6664C16.36 20.6554 16.36 20.6444 16.36 20.6334C16.36 20.6224 16.36 20.6114 16.36 20.6005C16.36 20.5896 16.36 20.5787 16.36 20.5678C16.36 20.5569 16.36 20.546 16.36 20.5351C16.36 20.5243 16.36 20.5135 16.36 20.5027C16.36 20.4919 16.36 20.4811 16.36 20.4703C16.36 20.4596 16.36 20.4488 16.36 20.4381C16.36 20.4274 16.36 20.4167 16.36 20.406C16.36 20.3954 16.36 20.3847 16.36 20.3741C16.36 20.3635 16.36 20.3529 16.36 20.3423C16.36 20.3317 16.36 20.3212 16.36 20.3106C16.36 20.3001 16.36 20.2896 16.36 20.2791C16.36 20.2686 16.36 20.2581 16.36 20.2477C16.36 20.2373 16.36 20.2268 16.36 20.2164C16.36 20.206 16.36 20.1957 16.36 20.1853C16.36 20.1749 16.36 20.1646 16.36 20.1543C16.36 20.144 16.36 20.1337 16.36 20.1234C16.36 20.1132 16.36 20.1029 16.36 20.0927C16.36 20.0825 16.36 20.0723 16.36 20.0621C16.36 20.0519 16.36 20.0418 16.36 20.0316C16.36 20.0215 16.36 20.0114 16.36 20.0013C16.36 19.9912 16.36 19.9811 16.36 19.9711C16.36 19.9611 16.36 19.951 16.36 19.941C16.36 19.931 16.36 19.921 16.36 19.9111C16.36 19.9011 16.36 19.8912 16.36 19.8813C16.36 19.8714 16.36 19.8615 16.36 19.8516C16.36 19.8417 16.36 19.8319 16.36 19.822C16.36 19.8122 16.36 19.8024 16.36 19.7926C16.36 19.7828 16.36 19.7731 16.36 19.7633C16.36 19.7536 16.36 19.7439 16.36 19.7342C16.36 19.7245 16.36 19.7148 16.36 19.7051C16.36 19.6955 16.36 19.6859 16.36 19.6762C16.36 19.6666 16.36 19.657 16.36 19.6475C16.36 19.6379 16.36 19.6283 16.36 19.6188C16.36 19.6093 16.36 19.5998 16.36 19.5903C16.36 19.5808 16.36 19.5713 16.36 19.5619C16.36 19.5525 16.36 19.543 16.36 19.5336C16.36 19.5242 16.36 19.5149 16.36 19.5055C16.36 19.4961 16.36 19.4868 16.36 19.4775C16.36 19.4682 16.36 19.4589 16.36 19.4496C16.36 19.4403 16.36 19.4311 16.36 19.4219C16.36 19.4126 16.36 19.4034 16.36 19.3942C16.36 19.385 16.36 19.3759 16.36 19.3667C16.36 19.3576 16.36 19.3484 16.36 19.3393C16.36 19.3302 16.36 19.3211 16.36 19.3121C16.36 19.303 16.36 19.294 16.36 19.2849C16.36 19.2759 16.36 19.2669 16.36 19.2579C16.36 19.249 16.36 19.24 16.36 19.2311C16.36 19.2221 16.36 19.2132 16.36 19.2043C16.36 19.1954 16.36 19.1865 16.36 19.1777C16.36 19.1688 16.36 19.16 16.36 19.1512C16.36 19.1423 16.36 19.1335 16.36 19.1248C16.36 19.116 16.36 19.1072 16.36 19.0985C16.36 19.0898 16.36 19.081 16.36 19.0724C16.36 19.0637 16.36 19.055 16.36 19.0463C16.36 19.0377 16.36 19.029 16.36 19.0204C16.36 19.0118 16.36 19.0032 16.36 18.9947C16.36 18.9861 16.36 18.9775 16.36 18.969C16.36 18.9605 16.36 18.952 16.36 18.9435C16.36 18.935 16.36 18.9265 16.36 18.918C16.36 18.9096 16.36 18.9012 16.36 18.8928C16.36 18.8843 16.36 18.8759 16.36 18.8676C16.36 18.8592 16.36 18.8509 16.36 18.8425C16.36 18.8342 16.36 18.8259 16.36 18.8176C16.36 18.8093 16.36 18.801 16.36 18.7928C16.36 18.7845 16.36 18.7763 16.36 18.7681C16.36 18.7599 16.36 18.7517 16.36 18.7435C16.36 18.7353 16.36 18.7272 16.36 18.719C16.36 18.7109 16.36 18.7028 16.36 18.6947C16.36 18.6866 16.36 18.6785 16.36 18.6705C16.36 18.6624 16.36 18.6544 16.36 18.6464C16.36 18.6384 16.36 18.6304 16.36 18.6224C16.36 18.6144 16.36 18.6064 16.36 18.5985C16.36 18.5906 16.36 18.5827 16.36 18.5748C16.36 18.5669 16.36 18.559 16.36 18.5511C16.36 18.5433 16.36 18.5354 16.36 18.5276C16.36 18.5198 16.36 18.512 16.36 18.5042C16.36 18.4964 16.36 18.4886 16.36 18.4809C16.36 18.4732 16.36 18.4654 16.36 18.4577C16.36 18.45 16.36 18.4423 16.36 18.4347C16.36 18.427 16.36 18.4193 16.36 18.4117C16.36 18.4041 16.36 18.3965 16.36 18.3889C16.36 18.3813 16.36 18.3737 16.36 18.3662C16.36 18.3586 16.36 18.3511 16.36 18.3436C16.36 18.3361 16.36 18.3286 16.36 18.3211C16.36 18.3136 16.36 18.3061 16.36 18.2987C16.36 18.2913 16.36 18.2838 16.36 18.2764C16.36 18.269 16.36 18.2617 16.36 18.2543C16.36 18.2469 16.36 18.2396 16.36 18.2323C16.36 18.2249 16.36 18.2176 16.36 18.2103C16.36 18.203 16.36 18.1958 16.36 18.1885C16.36 18.1813 16.36 18.174 16.36 18.1668C16.36 18.1596 16.36 18.1524 16.36 18.1452C16.36 18.138 16.36 18.1309 16.36 18.1237C16.36 18.1166 16.36 18.1095 16.36 18.1024C16.36 18.0953 16.36 18.0882 16.36 18.0811C16.36 18.074 16.36 18.067 16.36 18.06C16.36 18.0529 16.36 18.0459 16.36 18.0389C16.36 18.0319 16.36 18.025 16.36 18.018C16.36 18.011 16.36 18.0041 16.36 17.9972C16.36 17.9903 16.36 17.9833 16.36 17.9765C16.36 17.9696 16.36 17.9627 16.36 17.9559C16.36 17.949 16.36 17.9422 16.36 17.9354C16.36 17.9286 16.36 17.9218 16.36 17.915C16.36 17.9082 16.36 17.9014 16.36 17.8947C16.36 17.888 16.36 17.8812 16.36 17.8745C16.36 17.8678 16.36 17.8611 16.36 17.8545C16.36 17.8478 16.36 17.8411 16.36 17.8345C16.36 17.8279 16.36 17.8213 16.36 17.8147C16.36 17.8081 16.36 17.8015 16.36 17.7949C16.36 17.7884 16.36 17.7818 16.36 17.7753C16.36 17.7688 16.36 17.7622 16.36 17.7558C16.36 17.7493 16.36 17.7428 16.36 17.7363C16.36 17.7299 16.36 17.7234 16.36 17.717C16.36 17.7106 16.36 17.7042 16.36 17.6978C16.36 17.6914 16.36 17.685 16.36 17.6787C16.36 17.6723 16.36 17.666 16.36 17.6597C16.36 17.6534 16.36 17.6471 16.36 17.6408C16.36 17.6345 16.36 17.6282 16.36 17.622C16.36 17.6157 16.36 17.6095 16.36 17.6033C16.36 17.5971 16.36 17.5909 16.36 17.5847C16.36 17.5785 16.36 17.5724 16.36 17.5662C16.36 17.5601 16.36 17.5539 16.36 17.5478C16.36 17.5417 16.36 17.5356 16.36 17.5295C16.36 17.5235 16.36 17.5174 16.36 17.5114C16.36 17.5053 16.36 17.4993 16.36 17.4933C16.36 17.4873 16.36 17.4813 16.36 17.4753C16.36 17.4693 16.36 17.4634 16.36 17.4574C16.36 17.4515 16.36 17.4456 16.36 17.4396C16.36 17.4337 16.36 17.4278 16.36 17.422C16.36 17.4161 16.36 17.4102 16.36 17.4044C16.36 17.3986 16.36 17.3927 16.36 17.3869C16.36 17.3811 16.36 17.3753 16.36 17.3696C16.36 17.3638 16.36 17.358 16.36 17.3523C16.36 17.3465 16.36 17.3408 16.36 17.3351C16.36 17.3294 16.36 17.3237 16.36 17.318C16.36 17.3124 16.36 17.3067 16.36 17.3011C16.36 17.2954 16.36 17.2898 16.36 17.2842C16.36 17.2786 16.36 17.273 16.36 17.2674C16.36 17.2618 16.36 17.2563 16.36 17.2507C16.36 17.2452 16.36 17.2396 16.36 17.2341C16.36 17.2286 16.36 17.2231 16.36 17.2176C16.36 17.2122 16.36 17.2067 16.36 17.2012C16.36 17.1958 16.36 17.1904 16.36 17.1849C16.36 17.1795 16.36 17.1741 16.36 17.1688C16.36 17.1634 16.36 17.158 16.36 17.1526C16.36 17.1473 16.36 17.142 16.36 17.1366C16.36 17.1313 16.36 17.126 16.36 17.1207C16.36 17.1154 16.36 17.1102 16.36 17.1049C16.36 17.0997 16.36 17.0944 16.36 17.0892C16.36 17.084 16.36 17.0788 16.36 17.0736C16.36 17.0684 16.36 17.0632 16.36 17.058C16.36 17.0529 16.36 17.0477 16.36 17.0426C16.36 17.0375 16.36 17.0324 16.36 17.0273C16.36 17.0222 16.36 17.0171 16.36 17.012C16.36 17.0069 16.36 17.0019 16.36 16.9969C16.36 16.9918 16.36 16.9868 16.36 16.9818C16.36 16.9768 16.36 16.9718 16.36 16.9668C16.36 16.9618 16.36 16.9569 16.36 16.9519C16.36 16.947 16.36 16.9421 16.36 16.9372C16.36 16.9322 16.36 16.9273 16.36 16.9225C16.36 16.9176 16.36 16.9127 16.36 16.9079C16.36 16.903 16.36 16.8982 16.36 16.8933C16.36 16.8885 16.36 16.8837 16.36 16.8789C16.36 16.8741 16.36 16.8694 16.36 16.8646C16.36 16.8598 16.36 16.8551 16.36 16.8504C16.36 16.8456 16.36 16.8409 16.36 16.8362C16.36 16.8315 16.36 16.8268 16.36 16.8221C16.36 16.8175 16.36 16.8128 16.36 16.8082C16.36 16.8035 16.36 16.7989 16.36 16.7943C16.36 16.7897 16.36 16.7851 16.36 16.7805C16.36 16.7759 16.36 16.7714 16.36 16.7668C16.36 16.7623 16.36 16.7577 16.36 16.7532C16.36 16.7487 16.36 16.7442 16.36 16.7397C16.36 16.7352 16.36 16.7307 16.36 16.7262C16.36 16.7218 16.36 16.7173 16.36 16.7129C16.36 16.7084 16.36 16.704 16.36 16.6996C16.36 16.6952 16.36 16.6908 16.36 16.6864C16.36 16.6821 16.36 16.6777 16.36 16.6733C16.36 16.669 16.36 16.6647 16.36 16.6603C16.36 16.656 16.36 16.6517 16.36 16.6474C16.36 16.6431 16.36 16.6389 16.36 16.6346C16.36 16.6303 16.36 16.6261 16.36 16.6218C16.36 16.6176 16.36 16.6134 16.36 16.6092C16.36 16.605 16.36 16.6008 16.36 16.5966C16.36 16.5924 16.36 16.5883 16.36 16.5841C16.36 16.58 16.36 16.5758 16.36 16.5717C16.36 16.5676 16.36 16.5635 16.36 16.5594C16.36 16.5553 16.36 16.5512 16.36 16.5471C16.36 16.5431 16.36 16.539 16.36 16.535C16.36 16.531 16.36 16.5269 16.36 16.5229C16.36 16.5189 16.36 16.5149 16.36 16.5109C16.36 16.5069 16.36 16.503 16.36 16.499C16.36 16.4951 16.36 16.4911 16.36 16.4872C16.36 16.4833 16.36 16.4794 16.36 16.4755C16.36 16.4716 16.36 16.4677 16.36 16.4638C16.36 16.4599 16.36 16.4561 16.36 16.4522C16.36 16.4484 16.36 16.4445 16.36 16.4407C16.36 16.4369 16.36 16.4331 16.36 16.4293C16.36 16.4255 16.36 16.4217 16.36 16.418C16.36 16.4142 16.36 16.4105 16.36 16.4067C16.36 16.403 16.36 16.3993 16.36 16.3955C16.36 16.3918 16.36 16.3881 16.36 16.3844C16.36 16.3808 16.36 16.3771 16.36 16.3734C16.36 16.3698 16.36 16.3661 16.36 16.3625C16.36 16.3589 16.36 16.3552 16.36 16.3516C16.36 16.348 16.36 16.3444 16.36 16.3409C16.36 16.3373 16.36 16.3337 16.36 16.3302C16.36 16.3266 16.36 16.3231 16.36 16.3195C16.36 16.316 16.36 16.3125 16.36 16.309C16.36 16.3055 16.36 16.302 16.36 16.2985C16.36 16.295 16.36 16.2916 16.36 16.2881C16.36 16.2847 16.36 16.2812 16.36 16.2778C16.36 16.2744 16.36 16.271 16.36 16.2676C16.36 16.2642 16.36 16.2608 16.36 16.2574C16.36 16.254 16.36 16.2507 16.36 16.2473C16.36 16.244 16.36 16.2407 16.36 16.2373C16.36 16.234 16.36 16.2307 16.36 16.2274C16.36 16.2241 16.36 16.2208 16.36 16.2175C16.36 16.2143 16.36 16.211 16.36 16.2078C16.36 16.2045 16.36 16.2013 16.36 16.1981C16.36 16.1948 16.36 16.1916 16.36 16.1884C16.36 16.1852 16.36 16.182 16.36 16.1789C16.36 16.1757 16.36 16.1725 16.36 16.1694C16.36 16.1662 16.36 16.1631 16.36 16.16C16.36 16.1568 16.36 16.1537 16.36 16.1506C16.36 16.1475 16.36 16.1444 16.36 16.1414C16.36 16.1383 16.36 16.1352 16.36 16.1322C16.36 16.1291 16.36 16.1261 16.36 16.123C16.36 16.12 16.36 16.117 16.36 16.114C16.36 16.111 16.36 16.108 16.36 16.105C16.36 16.102 16.36 16.0991 16.36 16.0961C16.36 16.0932 16.36 16.0902 16.36 16.0873C16.36 16.0843 16.36 16.0814 16.36 16.0785C16.36 16.0756 16.36 16.0727 16.36 16.0698C16.36 16.0669 16.36 16.0641 16.36 16.0612C16.36 16.0583 16.36 16.0555 16.36 16.0527C16.36 16.0498 16.36 16.047 16.36 16.0442C16.36 16.0414 16.36 16.0386 16.36 16.0358C16.36 16.033 16.36 16.0302 16.36 16.0274C16.36 16.0246 16.36 16.0219 16.36 16.0191C16.36 16.0164 16.36 16.0137 16.36 16.0109C16.36 16.0082 16.36 16.0055 16.36 16.0028C16.36 16.0001 16.36 15.9974 16.36 15.9947C16.36 15.9921 16.36 15.9894 16.36 15.9867C16.36 15.9841 16.36 15.9814 16.36 15.9788C16.36 15.9762 16.36 15.9735 16.36 15.9709C16.36 15.9683 16.36 15.9657 16.36 15.9631C16.36 15.9605 16.36 15.958 16.36 15.9554C16.36 15.9528 16.36 15.9503 16.36 15.9477C16.36 15.9452 16.36 15.9427 16.36 15.9401C16.36 15.9376 16.36 15.9351 16.36 15.9326C16.36 15.9301 16.36 15.9276 16.36 15.9251C16.36 15.9226 16.36 15.9202 16.36 15.9177C16.36 15.9153 16.36 15.9128 16.36 15.9104C16.36 15.9079 16.36 15.9055 16.36 15.9031C16.36 15.9007 16.36 15.8983 16.36 15.8959C16.36 15.8935 16.36 15.8911 16.36 15.8888C16.36 15.8864 16.36 15.884 16.36 15.8817C16.36 15.8793 16.36 15.877 16.36 15.8747C16.36 15.8723 16.36 15.87 16.36 15.8677C16.36 15.8654 16.36 15.8631 16.36 15.8608C16.36 15.8585 16.36 15.8562 16.36 15.854C16.36 15.8517 16.36 15.8495 16.36 15.8472C16.36 15.845 16.36 15.8427 16.36 15.8405C16.36 15.8383 16.36 15.8361 16.36 15.8339C16.36 15.8317 16.36 15.8295 16.36 15.8273C16.36 15.8251 16.36 15.8229 16.36 15.8208C16.36 15.8186 16.36 15.8164 16.36 15.8143C16.36 15.8122 16.36 15.81 16.36 15.8079C16.36 15.8058 16.36 15.8037 16.36 15.8016C16.36 15.7995 16.36 15.7974 16.36 15.7953C16.36 15.7932 16.36 15.7911 16.36 15.7891C16.36 15.787 16.36 15.7849 16.36 15.7829C16.36 15.7809 16.36 15.7788 16.36 15.7768C16.36 15.7748 16.36 15.7728 16.36 15.7708C16.36 15.7688 16.36 15.7668 16.36 15.7648C16.36 15.7628 16.36 15.7608 16.36 15.7589C16.36 15.7569 16.36 15.7549 16.36 15.753C16.36 15.751 16.36 15.7491 16.36 15.7472C16.36 15.7453 16.36 15.7433 16.36 15.7414C16.36 15.7395 16.36 15.7376 16.36 15.7357C16.36 15.7338 16.36 15.732 16.36 15.7301C16.36 15.7282 16.36 15.7264 16.36 15.7245C16.36 15.7227 16.36 15.7208 16.36 15.719C16.36 15.7172 16.36 15.7153 16.36 15.7135C16.36 15.7117 16.36 15.7099 16.36 15.7081C16.36 15.7063 16.36 15.7045 16.36 15.7028C16.36 15.701 16.36 15.6992 16.36 15.6975C16.36 15.6957 16.36 15.694 16.36 15.6922C16.36 15.6905 16.36 15.6887 16.36 15.687C16.36 15.6853 16.36 15.6836 16.36 15.6819C16.36 15.6802 16.36 15.6785 16.36 15.6768C16.36 15.6751 16.36 15.6734 16.36 15.6718C16.36 15.6701 16.36 15.6684 16.36 15.6668C16.36 15.6651 16.36 15.6635 16.36 15.6619C16.36 15.6602 16.36 15.6586 16.36 15.657C16.36 15.6554 16.36 15.6538 16.36 15.6522C16.36 15.6506 16.36 15.649 16.36 15.6474C16.36 15.6458 16.36 15.6443 16.36 15.6427C16.36 15.6412 16.36 15.6396 16.36 15.6381C16.36 15.6365 16.36 15.635 16.36 15.6334C16.36 15.6319 16.36 15.6304 16.36 15.6289C16.36 15.6274 16.36 15.6259 16.36 15.6244C16.36 15.6229 16.36 15.6214 16.36 15.6199C16.36 15.6184 16.36 15.617 16.36 15.6155C16.36 15.6141 16.36 15.6126 16.36 15.6112C16.36 15.6097 16.36 15.6083 16.36 15.6069C16.36 15.6054 16.36 15.604 16.36 15.6026C16.36 15.6012 16.36 15.5998 16.36 15.5984C16.36 15.597 16.36 15.5956 16.36 15.5942C16.36 15.5929 16.36 15.5915 16.36 15.5901C16.36 15.5888 16.36 15.5874 16.36 15.5861C16.36 15.5847 16.36 15.5834 16.36 15.582C16.36 15.5807 16.36 15.5794 16.36 15.5781C16.36 15.5768 16.36 15.5755 16.36 15.5742C16.36 15.5729 16.36 15.5716 16.36 15.5703C16.36 15.569 16.36 15.5677 16.36 15.5665C16.36 15.5652 16.36 15.5639 16.36 15.5627C16.36 15.5614 16.36 15.5602 16.36 15.559C16.36 15.5577 16.36 15.5565 16.36 15.5553C16.36 15.5541 16.36 15.5528 16.36 15.5516C16.36 15.5504 16.36 15.5492 16.36 15.548C16.36 15.5469 16.36 15.5457 16.36 15.5445C16.36 15.5433 16.36 15.5421 16.36 15.541C16.36 15.5398 16.36 15.5387 16.36 15.5375C16.36 15.5364 16.36 15.5352 16.36 15.5341C16.36 15.533 16.36 15.5319 16.36 15.5307C16.36 15.5296 16.36 15.5285 16.36 15.5274C16.36 15.5263 16.36 15.5252 16.36 15.5241C16.36 15.523 16.36 15.522 16.36 15.5209C16.36 15.5198 16.36 15.5188 16.36 15.5177C16.36 15.5166 16.36 15.5156 16.36 15.5145C16.36 15.5135 16.36 15.5125 16.36 15.5114C16.36 15.5104 16.36 15.5094 16.36 15.5084C16.36 15.5073 16.36 15.5063 16.36 15.5053C16.36 15.5043 16.36 15.5033 16.36 15.5023C16.36 15.5014 16.36 15.5004 16.36 15.4994C16.36 15.4984 16.36 15.4975 16.36 15.4965C16.36 15.4955 16.36 15.4946 16.36 15.4936C16.36 15.4927 16.36 15.4917 16.36 15.4908C16.36 15.4899 16.36 15.4889 16.36 15.488C16.36 15.4871 16.36 15.4862 16.36 15.4853C16.36 15.4844 16.36 15.4835 16.36 15.4826C16.36 15.4817 16.36 15.4808 16.36 15.4799C16.36 15.479 16.36 15.4782 16.36 15.4773C16.36 15.4764 16.36 15.4755 16.36 15.4747C16.36 15.4738 16.36 15.473 16.36 15.4721C16.36 15.4713 16.36 15.4705 16.36 15.4696C16.36 15.4688 16.36 15.468 16.36 15.4672C16.36 15.4663 16.36 15.4655 16.36 15.4647C16.36 15.4639 16.36 15.4631 16.36 15.4623C16.36 15.4615 16.36 15.4607 16.36 15.46C16.36 15.4592 16.36 15.4584 16.36 15.4576C16.36 15.4569 16.36 15.4561 16.36 15.4553C16.36 15.4546 16.36 15.4538 16.36 15.4531C16.36 15.4523 16.36 15.4516 16.36 15.4509C16.36 15.4501 16.36 15.4494 16.36 15.4487C16.36 15.448 16.36 15.4473 16.36 15.4465C16.36 15.4458 16.36 15.4451 16.36 15.4444C16.36 15.4437 16.36 15.443 16.36 15.4424C16.36 15.4417 16.36 15.441 16.36 15.4403C16.36 15.4396 16.36 15.439 16.36 15.4383C16.36 15.4376 16.36 15.437 16.36 15.4363C16.36 15.4357 16.36 15.435 16.36 15.4344C16.36 15.4337 16.36 15.4331 16.36 15.4325C16.36 15.4319 16.36 15.4312 16.36 15.4306C16.36 15.43 16.36 15.4294 16.36 15.4288C16.36 15.4282 16.36 15.4276 16.36 15.427C16.36 15.4264 16.36 15.4258 16.36 15.4252C16.36 15.4246 16.36 15.424 16.36 15.4234C16.36 15.4229 16.36 15.4223 16.36 15.4217C16.36 15.4211 16.36 15.4206 16.36 15.42C16.36 15.4195 16.36 15.4189 16.36 15.4184C16.36 15.4178 16.36 15.4173 16.36 15.4168C16.36 15.4162 16.36 15.4157 16.36 15.4152C16.36 15.4146 16.36 15.4141 16.36 15.4136C16.36 15.4131 16.36 15.4126 16.36 15.4121C16.36 15.4116 16.36 15.4111 16.36 15.4106C16.36 15.4101 16.36 15.4096 16.36 15.4091C16.36 15.4086 16.36 15.4081 16.36 15.4076C16.36 15.4072 16.36 15.4067 16.36 15.4062C16.36 15.4058 16.36 15.4053 16.36 15.4048C16.36 15.4044 16.36 15.4039 16.36 15.4035C16.36 15.403 16.36 15.4026 16.36 15.4021C16.36 15.4017 16.36 15.4013 16.36 15.4008C16.36 15.4004 16.36 15.4 16.36 15.3996C16.36 15.3991 16.36 15.3987 16.36 15.3983C16.36 15.3979 16.36 15.3975 16.36 15.3971C16.36 15.3967 16.36 15.3963 16.36 15.3959C16.36 15.3955 16.36 15.3951 16.36 15.3947C16.36 15.3943 16.36 15.394 16.36 15.3936C16.36 15.3932 16.36 15.3928 16.36 15.3925C16.36 15.3921 16.36 15.3917 16.36 15.3914C16.36 15.391 16.36 15.3906 16.36 15.3903C16.36 15.3899 16.36 15.3896 16.36 15.3892C16.36 15.3889 16.36 15.3886 16.36 15.3882C16.36 15.3879 16.36 15.3876 16.36 15.3872C16.36 15.3869 16.36 15.3866 16.36 15.3863C16.36 15.3859 16.36 15.3856 16.36 15.3853C16.36 15.385 16.36 15.3847 16.36 15.3844C16.36 15.3841 16.36 15.3838 16.36 15.3835C16.36 15.3832 16.36 15.3829 16.36 15.3826C16.36 15.3823 16.36 15.382 16.36 15.3817C16.36 15.3814 16.36 15.3812 16.36 15.3809C16.36 15.3806 16.36 15.3803 16.36 15.3801C16.36 15.3798 16.36 15.3795 16.36 15.3793C16.36 15.379 16.36 15.3788 16.36 15.3785C16.36 15.3783 16.36 15.378 16.36 15.3778C16.36 15.3775 16.36 15.3773 16.36 15.377C16.36 15.3768 16.36 15.3766 16.36 15.3763C16.36 15.3761 16.36 15.3759 16.36 15.3756C16.36 15.3754 16.36 15.3752 16.36 15.375C16.36 15.3747 16.36 15.3745 16.36 15.3743C16.36 15.3741 16.36 15.3739 16.36 15.3737C16.36 15.3735 16.36 15.3733 16.36 15.3731C16.36 15.3729 16.36 15.3727 16.36 15.3725C16.36 15.3723 16.36 15.3721 16.36 15.3719C16.36 15.3717 16.36 15.3715 16.36 15.3713C16.36 15.3711 16.36 15.371 16.36 15.3708C16.36 15.3706 16.36 15.3704 16.36 15.3703C16.36 15.3701 16.36 15.3699 16.36 15.3698C16.36 15.3696 16.36 15.3694 16.36 15.3693C16.36 15.3691 16.36 15.3689 16.36 15.3688C16.36 15.3686 16.36 15.3685 16.36 15.3683C16.36 15.3682 16.36 15.368 16.36 15.3679C16.36 15.3678 16.36 15.3676 16.36 15.3675C16.36 15.3673 16.36 15.3672 16.36 15.3671C16.36 15.3669 16.36 15.3668 16.36 15.3667C16.36 15.3665 16.36 15.3664 16.36 15.3663C16.36 15.3662 16.36 15.366 16.36 15.3659C16.36 15.3658 16.36 15.3657 16.36 15.3656C16.36 15.3655 16.36 15.3653 16.36 15.3652C16.36 15.3651 16.36 15.365 16.36 15.3649C16.36 15.3648 16.36 15.3647 16.36 15.3646C16.36 15.3645 16.36 15.3644 16.36 15.3643C16.36 15.3642 16.36 15.3641 16.36 15.364C16.36 15.3639 16.36 15.3638 16.36 15.3638C16.36 15.3637 16.36 15.3636 16.36 15.3635C16.36 15.3634 16.36 15.3633 16.36 15.3632C16.36 15.3632 16.36 15.3631 16.36 15.363C16.36 15.3629 16.36 15.3629 16.36 15.3628C16.36 15.3627 16.36 15.3626 16.36 15.3626C16.36 15.3625 16.36 15.3624 16.36 15.3624C16.36 15.3623 16.36 15.3622 16.36 15.3622C16.36 15.3621 16.36 15.3621 16.36 15.362C16.36 15.3619 16.36 15.3619 16.36 15.3618C16.36 15.3618 16.36 15.3617 16.36 15.3617C16.36 15.3616 16.36 15.3616 16.36 15.3615C16.36 15.3615 16.36 15.3614 16.36 15.3614C16.36 15.3613 16.36 15.3613 16.36 15.3612C16.36 15.3612 16.36 15.3612 16.36 15.3611C16.36 15.3611 16.36 15.361 16.36 15.361C16.36 15.361 16.36 15.3609 16.36 15.3609C16.36 15.3609 16.36 15.3608 16.36 15.3608C16.36 15.3608 16.36 15.3607 16.36 15.3607C16.36 15.3607 16.36 15.3606 16.36 15.3606C16.36 15.3606 16.36 15.3606 16.36 15.3605C16.36 15.3605 16.36 15.3605 16.36 15.3605C16.36 15.3604 16.36 15.3604 16.36 15.3604C16.36 15.3604 16.36 15.3604 16.36 15.3603C16.36 15.3603 16.36 15.3603 16.36 15.3603C16.36 15.3603 16.36 15.3603 16.36 15.3602C16.36 15.3602 16.36 15.3602 16.36 15.3602C16.36 15.3602 16.36 15.3602 16.36 15.3602C16.36 15.3601 16.36 15.3601 16.36 15.3601C16.36 15.3601 16.36 15.3601 16.36 15.3601C16.36 15.3601 16.36 15.3601 16.36 15.3601C16.36 15.3601 16.36 15.3601 16.36 15.36C16.36 15.36 16.36 15.36 16.36 15.36C16.36 15.36 16.36 15.36 16.36 15.36C16.36 15.36 16.36 15.36 16.36 15.36C16.36 15.36 16.36 15.36 16.36 15.36C16.36 15.36 16.36 15.36 16.36 15.36C16.36 15.36 16.36 15.36 16.36 15.36C16.36 15.36 16.36 15.36 16.36 15.36C16.36 15.36 16.36 15.36 16.36 15.36C16.36 15.36 16.36 15.36 16.36 15.36V15.36C16.36 15.36 16.36 15.36 16.36 15.36H15.36ZM16.36 15.36V8.95996H14.36V15.36H16.36Z" fill="white"/>
</svg>
