<svg width="414" height="414" viewBox="0 0 414 414" fill="none" xmlns="http://www.w3.org/2000/svg">
<rect x="226" y="336" width="39" height="38" rx="5" transform="rotate(90 226 336)" fill="#162C63"/>
<path d="M210.863 409.301C208.862 411.734 205.138 411.734 203.137 409.301L177.347 377.925C174.665 374.662 176.986 369.75 181.209 369.75L232.791 369.75C237.014 369.75 239.335 374.662 236.653 377.925L210.863 409.301Z" fill="#162C63"/>
<rect width="39" height="38" rx="5" transform="matrix(-1 0 0 1 78 188)" fill="#162C63"/>
<path d="M4.69905 203.137C2.2657 205.138 2.2657 208.862 4.69904 210.863L36.075 236.653C39.3377 239.335 44.25 237.014 44.25 232.791L44.25 181.209C44.25 176.986 39.3377 174.665 36.075 177.347L4.69905 203.137Z" fill="#162C63"/>
<rect width="39" height="38" rx="5" transform="matrix(0 -1 -1 0 226 78)" fill="#162C63"/>
<path d="M210.863 4.69905C208.862 2.2657 205.138 2.2657 203.137 4.69904L177.347 36.075C174.665 39.3377 176.986 44.25 181.209 44.25L232.791 44.25C237.014 44.25 239.335 39.3377 236.653 36.075L210.863 4.69905Z" fill="#162C63"/>
<rect x="336" y="188" width="39" height="38" rx="5" fill="#162C63"/>
<path d="M409.301 203.137C411.734 205.138 411.734 208.862 409.301 210.863L377.925 236.653C374.662 239.335 369.75 237.014 369.75 232.791L369.75 181.209C369.75 176.986 374.662 174.665 377.925 177.347L409.301 203.137Z" fill="#162C63"/>
</svg>
