<svg width="139" height="51" viewBox="0 0 139 51" fill="none" xmlns="http://www.w3.org/2000/svg">
<g filter="url(#filter0_d_314_3811)">
<path d="M134.781 34.5476C134.597 28.5717 128.891 25.3669 123.586 25.3669H123.507C122.019 25.3755 120.455 25.5685 118.726 25.9562C118.542 26.0049 115.699 26.7724 114.242 28.2388C114.162 28.3195 114.067 28.3835 113.962 28.4271C113.858 28.4708 113.746 28.4932 113.632 28.4932C113.519 28.4932 113.407 28.4706 113.302 28.4269C113.198 28.3832 113.103 28.3191 113.023 28.2383C112.943 28.1576 112.879 28.0617 112.836 27.9562C112.792 27.8507 112.77 27.7377 112.77 27.6235C112.77 27.5093 112.793 27.3963 112.836 27.2908C112.879 27.1853 112.943 27.0895 113.023 27.0088C114.858 25.1591 118.171 24.3038 118.311 24.2682L118.334 24.2629C119.65 23.959 120.988 23.7605 122.335 23.6693C122.913 22.5905 124.27 19.2362 121.138 15.8905C117.561 17.0753 113.284 15.967 113.063 15.9079C112.842 15.849 112.653 15.704 112.538 15.5047C112.423 15.3054 112.391 15.0682 112.449 14.8453C112.508 14.6224 112.652 14.432 112.849 14.316C113.047 14.2 113.282 14.1679 113.503 14.2268C113.578 14.2468 119.409 15.7462 122.407 13.275C123.716 12.1955 124.312 10.4466 124.179 8.07619V8.01186L124.185 7.94841C124.185 7.91364 124.464 4.2229 121.726 1.92727C120.51 0.907669 118.858 0.286171 116.811 0.0784259C114.249 -0.182342 111.063 0.207941 107.341 1.23798L107.082 1.30925C104.972 1.89163 102.791 2.49401 101.108 3.75613C98.9247 5.39288 98.8143 7.63549 98.8937 10.8708C98.9023 11.2037 98.9126 11.5383 98.9238 11.873C102.646 13.428 105.331 16.725 106.918 21.7013C108.136 25.5259 108.701 30.351 108.595 36.0557C108.543 38.9242 107.756 41.1346 106.258 42.6401C107.424 42.8551 108.608 42.9581 109.793 42.9478H127.485C128.415 42.9555 129.337 42.7704 130.193 42.4041C131.049 42.0377 131.821 41.498 132.462 40.8182C134.009 39.2093 134.855 36.9241 134.781 34.5476ZM119.354 18.6834C119.698 18.6834 119.974 19.045 119.974 19.4917C119.974 19.9385 119.697 20.3001 119.354 20.3001C119.01 20.3001 118.733 19.9377 118.733 19.4917C118.733 19.0458 119.011 18.6834 119.354 18.6834ZM116.663 18.6834C117.008 18.6834 117.284 19.045 117.284 19.4917C117.284 19.9385 117.007 20.3001 116.663 20.3001C116.32 20.3001 116.043 19.9377 116.043 19.4917C116.043 19.0458 116.321 18.6834 116.663 18.6834ZM131.71 38.8494C131.619 38.9962 131.473 39.1003 131.306 39.1388C131.138 39.1774 130.962 39.1472 130.816 39.055C130.671 38.9628 130.568 38.8161 130.529 38.6471C130.491 38.4781 130.521 38.3008 130.613 38.1541C131.708 36.3887 131.958 34.6719 131.356 33.0517C131.093 32.339 130.681 31.6915 130.149 31.1533C130.021 31.038 129.943 30.8762 129.934 30.7034C129.924 30.5306 129.983 30.361 130.097 30.2319C130.211 30.1028 130.372 30.0248 130.543 30.015C130.715 30.0052 130.883 30.0645 131.011 30.1798C131.702 30.8583 132.233 31.6839 132.567 32.5962C133.083 33.987 133.353 36.1966 131.71 38.8468V38.8494Z" fill="white"/>
<path d="M57.7184 26.1638C57.383 22.0559 56.2198 19.3552 53.8271 17.1352C51.5336 15.0064 48.408 13.813 45.172 13.813C44.9708 13.813 44.7697 13.8176 44.5685 13.8269C41.1635 13.9834 38.0923 15.4019 35.9212 17.8253C35.3878 18.4181 34.9248 19.0716 34.5416 19.7724C34.4648 20.0532 34.3812 20.3339 34.2881 20.6138C37.5646 20.3435 40.4763 21.497 42.1413 23.7561C43.5769 25.704 44.3831 28.0709 44.4693 30.6021C44.6055 34.5597 43.1596 38.0253 40.2892 40.6243C39.9023 40.974 39.4967 41.3022 39.0743 41.6074C40.8686 42.5071 43.0052 42.9982 45.4169 42.9982C52.9692 42.9982 57.8486 38.2391 57.8486 30.8751C57.8512 29.1627 57.8417 27.6311 57.7184 26.1638ZM49.3245 31.3679C49.4224 32.0364 49.6724 32.6731 50.0549 33.228C50.1971 33.4375 50.0695 33.6879 49.7686 33.787C49.6851 33.8143 49.5977 33.8281 49.5099 33.8278C49.2849 33.8278 49.0685 33.7409 48.965 33.5879C48.8426 33.4087 48.7309 33.2224 48.6304 33.0299C48.4934 33.2367 48.3437 33.4347 48.1821 33.6227C48.1147 33.6912 48.0339 33.7448 47.9448 33.7801C47.8558 33.8154 47.7604 33.8317 47.6647 33.8278C47.5593 33.8284 47.4548 33.8083 47.3569 33.7687C47.0707 33.6496 46.9767 33.3923 47.1474 33.1924C47.6923 32.557 47.982 31.9399 48.1079 31.367C48.2103 30.8978 48.2103 30.4116 48.1079 29.9424C47.9542 29.2648 47.6309 28.6382 47.169 28.1222C46.9801 27.9318 47.0491 27.6702 47.3233 27.5381C47.5975 27.406 47.9726 27.4512 48.1623 27.6459C48.3207 27.813 48.4649 27.9933 48.5934 28.1848C48.6983 27.9323 48.8216 27.6879 48.9624 27.4538C49.0969 27.2417 49.453 27.1452 49.7574 27.2382C50.0617 27.3312 50.2006 27.5789 50.0678 27.7919C49.6901 28.4564 49.4406 29.1869 49.3323 29.945C49.4179 30.4155 49.4165 30.8979 49.328 31.3679H49.3245Z" fill="white"/>
<path d="M75.3875 28.5925C75.1003 25.0764 74.1062 22.7686 72.0636 20.8711C70.1046 19.0518 67.4334 18.0322 64.6673 18.0322C64.4949 18.0322 64.3224 18.0363 64.15 18.0444C61.8858 18.1487 59.7957 18.9058 58.1058 20.2105C58.9947 22.2358 59.2982 24.2707 59.4405 26.0213C59.5664 27.5546 59.5759 29.1236 59.5759 30.8681C59.5759 34.3754 58.6024 37.409 56.7417 39.7577C58.5972 41.823 61.4064 42.9999 64.8777 42.9999C71.3298 42.9999 75.4995 38.9363 75.4995 32.6465C75.4995 31.1758 75.4909 29.8563 75.3875 28.5925ZM67.899 31.7095C67.996 32.2535 68.2316 32.7627 68.5827 33.1872C68.7164 33.3532 68.5965 33.5523 68.3146 33.6314C68.2356 33.653 68.1541 33.6638 68.0723 33.6635C67.861 33.6635 67.6584 33.5931 67.5618 33.4732C67.4482 33.3323 67.3436 33.1843 67.2489 33.0299C67.1188 33.1959 66.9783 33.3533 66.8281 33.501C66.6914 33.6137 66.5182 33.6716 66.3418 33.6635C66.2436 33.6643 66.1459 33.6484 66.0529 33.6166C65.7848 33.5227 65.6977 33.3176 65.8572 33.1594C66.3677 32.6535 66.6393 32.1641 66.7565 31.7104C66.853 31.34 66.853 30.9508 66.7565 30.5804C66.6004 30.0261 66.2962 29.5258 65.877 29.134C65.7046 28.9828 65.765 28.775 66.0219 28.6698C66.2788 28.5647 66.6306 28.6038 66.8083 28.7568C66.9538 28.8872 67.0877 29.0303 67.2083 29.1844C67.3074 28.9817 67.4228 28.7875 67.5532 28.6038C67.6791 28.4351 68.0119 28.3586 68.2982 28.4299C68.5845 28.5012 68.7129 28.7011 68.5879 28.8698C68.241 29.3846 68.0059 29.9676 67.8981 30.5804C67.9796 30.9523 67.9799 31.3375 67.899 31.7095Z" fill="white"/>
<path d="M42.5356 30.6666C42.4624 28.5639 41.7717 26.5221 40.5887 24.9184C39.7886 23.8336 38.5952 23.1286 37.3122 22.7853C36.0879 22.4584 34.7143 22.229 33.609 22.9591C32.5036 23.6893 31.2663 26.4039 29.9014 26.4039C29.697 26.4039 29.4978 26.3388 29.3324 26.2178C29.1669 26.0969 29.0436 25.9263 28.9801 25.7305C28.9166 25.5346 28.9161 25.3236 28.9787 25.1274C29.0414 24.9313 29.1639 24.7602 29.3288 24.6385C32.8071 22.0734 33.3417 16.8206 33.3503 13.9183C33.3641 9.61387 31.3973 5.5737 28.2174 3.36847C22.4594 -0.618674 12.5481 -1.31666 7.53077 4.05864C5.55367 6.17868 3.93181 9.8277 5.04754 12.8318C5.74767 14.7188 7.50576 15.8375 9.41216 16.3956C9.87431 16.5312 6.91168 23.1677 6.61766 23.8144C4.75438 27.9215 2.88075 32.9361 4.81732 37.3648C5.154 38.1309 5.59102 38.848 6.11671 39.497C8.71892 42.7245 13.3595 43.3399 16.8006 42.5176C18.3595 42.1456 20.3685 41.3659 20.3728 39.4397C20.3728 38.1541 19.696 36.9798 19.6882 35.6646C19.6796 34.007 19.9633 32.3529 20.4254 30.7665C20.4986 30.5181 20.6667 30.3092 20.8927 30.1857C21.1186 30.0622 21.384 30.0343 21.6304 30.1081C21.8768 30.1818 22.084 30.3513 22.2065 30.5791C22.329 30.8069 22.3567 31.0744 22.2835 31.3228C21.8093 32.9326 20.9462 36.7668 22.3905 39.6552C22.4494 39.7344 22.4957 39.8224 22.5276 39.916C22.6233 40.0855 22.725 40.2515 22.838 40.4123C24.4831 42.7653 27.7294 43.0026 30.1669 42.7879C36.3052 42.2447 42.7952 38.221 42.5356 30.6666ZM26.5973 16.2939C26.2524 16.2939 25.9756 15.9323 25.9756 15.4855C25.9756 15.0387 26.2541 14.6771 26.5973 14.6771C26.9405 14.6771 27.2181 15.0396 27.2181 15.4855C27.2181 15.9314 26.937 16.2939 26.5973 16.2939ZM28.6666 15.4855C28.6666 15.0396 28.9443 14.6771 29.2875 14.6771C29.6306 14.6771 29.9074 15.0396 29.9074 15.4855C29.9074 15.9314 29.6298 16.2939 29.2875 16.2939C28.9451 16.2939 28.6666 15.9323 28.6666 15.4855Z" fill="white"/>
<path d="M105.277 22.233C103.652 17.1341 100.794 14.0223 96.7939 12.9845C93.5588 12.1456 90.3616 13.7711 89.0527 16.8656C89.6329 18.0534 90.0242 19.3259 90.2125 20.6363C90.9841 20.5702 91.7817 20.631 92.4586 20.9561C92.6495 21.0642 92.7924 21.2415 92.8584 21.452C92.9244 21.6624 92.9085 21.8903 92.814 22.0894C92.7194 22.2885 92.5532 22.4439 92.3492 22.524C92.1452 22.6041 91.9185 22.6029 91.7153 22.5207C90.7513 22.0566 88.7837 22.6077 87.7741 23.0675C87.5663 23.158 87.3316 23.1625 87.1205 23.0801C86.9095 22.9977 86.739 22.8349 86.646 22.6269C86.553 22.4189 86.5448 22.1823 86.6232 21.9683C86.7017 21.7543 86.8605 21.5799 87.0653 21.4829C87.5361 21.2759 88.0203 21.1016 88.5147 20.9614C88.3253 19.5654 87.8672 18.2201 87.1662 17.0012C85.6409 14.4022 83.1999 13.0531 79.9071 12.9914H79.7493C75.7606 12.9914 73.4015 15.8503 72.0513 18.6292C72.4646 18.9244 72.8588 19.2458 73.2317 19.5915C76.2538 22.3964 76.8901 25.7986 77.1065 28.4489C77.2143 29.7779 77.2238 31.1365 77.2238 32.6455C77.2238 36.371 75.9615 39.4863 73.5748 41.6551C73.53 41.6959 73.4886 41.7359 73.4377 41.7759C74.3575 42.2899 75.3702 42.6126 76.4159 42.7251L76.4866 42.7364C76.5194 42.7425 79.9484 43.3961 82.0419 41.6933C83.118 40.8171 83.6802 39.4211 83.7155 37.5453C83.7198 37.3148 83.8147 37.0954 83.9794 36.9354C84.1441 36.7754 84.365 36.6879 84.5937 36.6922C84.8224 36.6965 85.04 36.7921 85.1987 36.9582C85.3574 37.1242 85.4442 37.347 85.44 37.5775C85.4337 38.4375 85.3054 39.2923 85.0589 40.1157C85.4245 40.8441 87.1283 43.5795 91.7127 42.4113C93.0233 42.0775 93.8959 41.4412 94.3857 40.4659C95.5066 38.212 94.1778 34.9142 94.1641 34.8812C94.0802 34.6692 94.0824 34.4324 94.1702 34.222C94.258 34.0116 94.4244 33.8445 94.6334 33.7567C94.8424 33.669 95.0772 33.6676 95.2872 33.7529C95.4972 33.8382 95.6655 34.0034 95.7557 34.2127C95.8187 34.3648 97.181 37.7175 96.2067 40.5729C96.5205 41.21 97.6604 42.8772 101.015 42.9398H101.066C101.084 42.9398 103.25 43.0736 104.895 41.556C106.164 40.3834 106.831 38.5206 106.878 36.019C106.974 30.5098 106.434 25.8708 105.277 22.233ZM88.7268 26.454C88.3819 26.454 88.106 26.0915 88.106 25.6456C88.106 25.1997 88.3845 24.8372 88.7268 24.8372C89.0691 24.8372 89.3476 25.1988 89.3476 25.6456C89.3476 26.0924 89.07 26.454 88.7268 26.454ZM91.417 26.454C91.0721 26.454 90.7962 26.0915 90.7962 25.6456C90.7962 25.1997 91.0747 24.8372 91.417 24.8372C91.7593 24.8372 92.0378 25.1988 92.0378 25.6456C92.0378 26.0924 91.7602 26.454 91.417 26.454Z" fill="white"/>
</g>
<defs>
<filter id="filter0_d_314_3811" x="0" y="0" width="138.786" height="51" filterUnits="userSpaceOnUse" color-interpolation-filters="sRGB">
<feFlood flood-opacity="0" result="BackgroundImageFix"/>
<feColorMatrix in="SourceAlpha" type="matrix" values="0 0 0 0 0 0 0 0 0 0 0 0 0 0 0 0 0 0 127 0" result="hardAlpha"/>
<feOffset dy="4"/>
<feGaussianBlur stdDeviation="2"/>
<feComposite in2="hardAlpha" operator="out"/>
<feColorMatrix type="matrix" values="0 0 0 0 0.305882 0 0 0 0 0.478431 0 0 0 0 0.811765 0 0 0 0.15 0"/>
<feBlend mode="normal" in2="BackgroundImageFix" result="effect1_dropShadow_314_3811"/>
<feBlend mode="normal" in="SourceGraphic" in2="effect1_dropShadow_314_3811" result="shape"/>
</filter>
</defs>
</svg>
