<svg width="437" height="515" viewBox="0 0 437 515" fill="none" xmlns="http://www.w3.org/2000/svg">
<path d="M436.41 407.15C434.12 333.39 363.79 291.42 295.58 291.83C293.387 291.83 291.197 291.88 289.01 291.98C297 278.588 301.238 263.294 301.28 247.7C301.28 247.44 301.28 247.19 301.28 246.94C301.421 232.331 297.569 217.96 290.14 205.38C285.073 196.363 278.648 188.181 271.09 181.12C296.32 170.76 316.09 148.24 313.47 102.35C313.47 102.35 326.97 -46.15 105.57 14.6C80.1504 21.6 51.8304 28.9 29.9404 45.19C-0.529646 67.86 -0.649647 100.19 0.230353 135.31C1.62035 191.23 6.93035 246.92 9.67035 302.75C11.9304 348.87 14.1937 394.993 16.4604 441.12V441.2C16.4604 441.2 16.4604 514.1 136.61 514.1H341.81C399.67 514.1 438.13 462.24 436.41 407.15Z" fill="white"/>
<path d="M225.43 245.6C229.43 245.6 232.63 241.44 232.63 236.3C232.63 231.16 229.41 227 225.43 227C221.45 227 218.23 231.17 218.23 236.3C218.23 241.43 221.46 245.6 225.43 245.6Z" fill="#88B2FF"/>
<path d="M256.631 245.6C260.631 245.6 263.831 241.44 263.831 236.3C263.831 231.16 260.611 227 256.631 227C252.651 227 249.431 231.17 249.431 236.3C249.431 241.43 252.661 245.6 256.631 245.6Z" fill="#88B2FF"/>
<path opacity="0.3" d="M436.411 407.49C434.061 331.64 361.061 291 293.191 291H292.191H289.651C294.391 283.21 324.131 229.3 271.121 181.11C273.121 182.93 285.191 173.76 286.931 172.43C334.241 136.43 321.671 56.11 278.821 21.91C262.261 8.73998 240.721 3.22998 220.001 1.14998C190.161 -1.85002 153.691 1.99998 111.471 12.57C116.657 12.3033 121.854 12.26 127.061 12.44C158.211 13.59 190.061 29.35 207.951 55.6C229.131 86.72 224.571 128.99 205.241 159.93C199.988 168.519 193.277 176.126 185.411 182.41C185.411 182.41 274.571 233.11 195.541 312.15C202.537 312.842 209.442 314.267 216.141 316.4C239.581 323.9 262.141 337.84 274.661 359.79C300.481 405.15 278.891 459.79 234.841 483.79C220.371 491.68 204.441 497.64 188.771 502.79C177.768 506.403 166.574 509.407 155.241 511.79C151.441 512.597 147.634 513.363 143.821 514.09H343.081C354.977 514.191 366.767 511.846 377.719 507.202C388.672 502.557 398.553 495.712 406.751 487.09C426.541 466.65 437.351 437.64 436.411 407.49ZM397.121 462.05C396.378 463.237 395.346 464.217 394.122 464.898C392.898 465.578 391.521 465.937 390.121 465.94C388.571 465.944 387.051 465.507 385.741 464.68C384.819 464.104 384.02 463.353 383.389 462.468C382.758 461.584 382.308 460.584 382.064 459.525C381.819 458.466 381.786 457.37 381.966 456.298C382.145 455.227 382.534 454.201 383.111 453.28C397.111 430.88 400.311 409.09 392.611 388.52C389.248 379.477 383.983 371.262 377.171 364.43C376.343 363.712 375.666 362.838 375.179 361.856C374.693 360.875 374.406 359.807 374.335 358.714C374.265 357.621 374.412 356.525 374.768 355.489C375.125 354.453 375.684 353.499 376.412 352.681C377.141 351.863 378.025 351.198 379.012 350.724C380 350.251 381.072 349.978 382.166 349.922C383.26 349.866 384.354 350.028 385.385 350.399C386.416 350.769 387.363 351.341 388.171 352.08C397.014 360.681 403.823 371.15 408.101 382.72C414.691 400.35 418.141 428.42 397.121 462.05Z" fill="#88B2FF"/>
</svg>
