<svg width="24" height="24" viewBox="0 0 24 24" fill="none" xmlns="http://www.w3.org/2000/svg">
<g clip-path="url(#clip0_219_3201)">
<path fill-rule="evenodd" clip-rule="evenodd" d="M11.9966 0.81366C7.46823 0.81366 3.79722 4.48466 3.79722 9.01308C3.79722 13.5415 7.46823 17.2125 11.9966 17.2125C16.5251 17.2125 20.196 13.5415 20.196 9.01308C20.196 4.48466 16.5251 0.81366 11.9966 0.81366ZM12.3208 4.69165L13.4132 6.88908C13.4376 6.94466 13.4764 6.99276 13.5255 7.02847C13.5745 7.06416 13.6322 7.0862 13.6926 7.09231L16.1187 7.46066C16.188 7.4697 16.2534 7.49828 16.3071 7.54309C16.3608 7.58789 16.4007 7.64706 16.422 7.71367C16.4433 7.78029 16.4452 7.8516 16.4275 7.91927C16.4098 7.98693 16.3732 8.04815 16.3219 8.09576L14.531 9.79781C14.5043 9.84876 14.4903 9.90541 14.4903 9.96293C14.4903 10.0205 14.5043 10.0771 14.531 10.1281L14.8739 12.5414C14.8885 12.6112 14.8826 12.6837 14.8569 12.7501C14.8311 12.8166 14.7866 12.8741 14.7288 12.9158C14.671 12.9575 14.6023 12.9815 14.5311 12.985C14.46 12.9884 14.3893 12.9711 14.3277 12.9352L12.1684 11.792C12.1125 11.7668 12.0519 11.7537 11.9906 11.7537C11.9293 11.7537 11.8686 11.7668 11.8128 11.792L9.65344 12.9352C9.59189 12.9711 9.52123 12.9884 9.45003 12.985C9.37885 12.9815 9.31018 12.9575 9.25235 12.9158C9.19455 12.8741 9.15007 12.8166 9.12431 12.7501C9.09855 12.6837 9.09263 12.6112 9.10727 12.5414L9.51373 10.1281C9.5312 10.0721 9.53455 10.0126 9.52347 9.95495C9.51239 9.89733 9.48722 9.84335 9.45021 9.79781L7.65925 8.08306C7.61175 8.03493 7.5784 7.97466 7.56288 7.90885C7.54735 7.84304 7.55024 7.77423 7.57123 7.70994C7.59223 7.64567 7.6305 7.5884 7.68187 7.54444C7.73325 7.50047 7.79573 7.47148 7.86248 7.46066L10.2885 7.10501C10.3489 7.0989 10.4066 7.07687 10.4557 7.04116C10.5048 7.00546 10.5436 6.95736 10.568 6.90178L11.6603 4.70436C11.6896 4.64216 11.7356 4.58936 11.7933 4.55197C11.8509 4.51456 11.9179 4.49405 11.9866 4.49272C12.0554 4.49141 12.1231 4.50933 12.1821 4.5445C12.2412 4.57965 12.2892 4.63063 12.3208 4.69165ZM20.4821 14.6721C19.1214 16.7085 17.0474 18.2275 14.6172 18.872L16.8771 22.7861C17.0389 23.0664 17.3534 23.2214 17.6742 23.1792C17.995 23.1369 18.2589 22.9057 18.3426 22.5931L19.1566 19.5553L22.1944 20.3693C22.5069 20.4531 22.8392 20.3403 23.0362 20.0837C23.2331 19.8269 23.256 19.4768 23.0942 19.1966L20.4821 14.6721ZM9.38367 18.8742C6.95301 18.232 4.87789 16.7147 3.51565 14.68L0.907964 19.1966C0.746179 19.4768 0.769125 19.8269 0.966102 20.0837C1.16308 20.3403 1.4953 20.4531 1.80784 20.3693L4.84562 19.5553L5.65959 22.5931C5.74333 22.9057 6.00711 23.1369 6.32791 23.1792C6.64871 23.2214 6.96336 23.0664 7.12515 22.7861L9.38367 18.8742Z" fill="#162C63"/>
</g>
<defs>
<clipPath id="clip0_219_3201">
<rect width="22.4" height="22.4" fill="white" transform="translate(0.799805 0.800018)"/>
</clipPath>
</defs>
</svg>
