<svg width="31" height="43" viewBox="0 0 31 43" fill="none" xmlns="http://www.w3.org/2000/svg">
<path fill-rule="evenodd" clip-rule="evenodd" d="M30.3803 40.0296V5.20576C30.3917 3.85769 29.8671 2.56031 28.9219 1.59905C27.9767 0.637786 26.6884 0.0913922 25.3403 0.0800781H5.18033C3.83226 0.0913922 2.5439 0.637786 1.59871 1.59905C0.653515 2.56031 0.128915 3.85769 0.140325 5.20576V40.0296C0.020517 41.0351 0.514192 42.0147 1.39368 42.5165C2.27317 43.0184 3.36763 42.9451 4.17232 42.3304L13.7483 34.0623C14.6116 33.2832 15.9242 33.2832 16.7874 34.0623L26.3483 42.3329C27.1534 42.9481 28.2486 43.0213 29.1283 42.5187C30.0081 42.0161 30.5013 41.0356 30.3803 40.0296Z" fill="#4983EF"/>
</svg>
