<svg width="26" height="26" viewBox="0 0 26 26" fill="none" xmlns="http://www.w3.org/2000/svg">
<path fill-rule="evenodd" clip-rule="evenodd" d="M11.475 0.000244141H6.0887C5.10813 0.000244141 4.20466 0.531853 3.72847 1.38901L0.625 6.97524H11.475V0.000244141ZM0 22.5002V9.22524H12.6H25.2V22.5002C25.2 23.9914 23.9911 25.2002 22.5 25.2002H2.7C1.20883 25.2002 0 23.9914 0 22.5002ZM24.575 6.97524H13.725V0.000244141H19.1113C20.0918 0.000244141 20.9954 0.531853 21.4715 1.38901L24.575 6.97524ZM7.83641 16.0913L11.9636 11.9641C12.3151 11.6126 12.8849 11.6126 13.2364 11.9641L17.3636 16.0913C17.9306 16.6583 17.529 17.6277 16.7272 17.6277H14.4V21.2276C14.4 22.2218 13.5941 23.0276 12.6 23.0276C11.6059 23.0276 10.8 22.2218 10.8 21.2276V17.6277H8.47282C7.67101 17.6277 7.26944 16.6582 7.83641 16.0913Z" fill="#162C63"/>
</svg>
