<svg width="25" height="26" viewBox="0 0 25 26" fill="none" xmlns="http://www.w3.org/2000/svg">
<path fill-rule="evenodd" clip-rule="evenodd" d="M7.82753 1.0391C9.94658 0.120826 12.2772 -0.197392 14.5649 0.119216C16.8525 0.435824 19.0091 1.37508 20.7992 2.83436C22.5888 4.29342 23.9433 6.21622 24.7142 8.39274C25.1991 9.75662 24.9835 11.3187 24.1472 12.5002C23.3111 13.6813 21.9102 14.4038 20.463 14.4002H17.0983H17.0958C16.453 14.3985 15.8308 14.626 15.3408 15.042C14.8509 15.458 14.5254 16.0351 14.4229 16.6697C14.3204 17.3042 14.4476 17.9544 14.7816 18.5035C15.1157 19.0527 15.6347 19.4645 16.2453 19.6652C16.2562 19.6688 16.267 19.6726 16.2778 19.6766C17.2679 20.0445 17.9604 20.94 18.027 21.9908C18.1723 23.1981 17.3847 24.4041 16.2087 24.7344C15.11 25.0465 13.973 25.2033 12.8308 25.2002C10.5217 25.199 8.25735 24.5632 6.28505 23.3624C2.30075 20.9366 -0.0540629 16.3853 0.267486 11.7317C0.589035 7.07811 3.54745 2.89387 7.82753 1.0391ZM8.09823 12.6002C9.5894 12.6002 10.7982 11.3914 10.7982 9.90024C10.7982 8.40907 9.5894 7.20024 8.09823 7.20024C6.60706 7.20024 5.39823 8.40907 5.39823 9.90024C5.39823 11.3914 6.60706 12.6002 8.09823 12.6002ZM18.8981 7.20113C18.8981 8.6923 17.6892 9.90113 16.198 9.90113C14.7068 9.90113 13.498 8.6923 13.498 7.20113C13.498 5.70995 14.7068 4.50113 16.198 4.50113C17.6892 4.50113 18.8981 5.70995 18.8981 7.20113ZM8.09801 18.8993C9.09212 18.8993 9.89801 18.0935 9.89801 17.0994C9.89801 16.1053 9.09212 15.2994 8.09801 15.2994C7.10389 15.2994 6.29801 16.1053 6.29801 17.0994C6.29801 18.0935 7.10389 18.8993 8.09801 18.8993Z" fill="#FFFFFF"/>
</svg>
